solid h5002_handle_hitter_frame
  facet normal -0.0348691874 -0.0445116064 -0.998400149
    outer loop
      vertex -0.1795 0 0.0175
      vertex -0.1795 0.000840430211 0.0174625312
      vertex -0.0795 0.000840430211 0.0139700249
    endloop
  endfacet
  facet normal -0.0349563826 -0.0356218982 -0.998753789
    outer loop
      vertex -0.1795 0 0.0175
      vertex -0.0795 0.000840430211 0.0139700249
      vertex -0.0795 0 0.014
    endloop
  endfacet
  facet normal 1 0 0
    outer loop
      vertex -0.1795 0 0
      vertex -0.1795 0.000840430211 0.0174625312
      vertex -0.1795 0 0.0175
    endloop
  endfacet
  facet normal -1 0 0
    outer loop
      vertex -0.0795 0 0
      vertex -0.0795 0 0.014
      vertex -0.0795 0.000840430211 0.0139700249
    endloop
  endfacet
  facet normal -0.0343722405 -0.13286313 -0.990538206
    outer loop
      vertex -0.1795 0.000840430211 0.0174625312
      vertex -0.1795 0.00167726157 0.0173502851
      vertex -0.0795 0.00167726157 0.0138802281
    endloop
  endfacet
  facet normal -0.0347047908 -0.106629034 -0.993693024
    outer loop
      vertex -0.1795 0.000840430211 0.0174625312
      vertex -0.0795 0.00167726157 0.0138802281
      vertex -0.0795 0.000840430211 0.0139700249
    endloop
  endfacet
  facet normal 1 0 0
    outer loop
      vertex -0.1795 0 0
      vertex -0.1795 0.00167726157 0.0173502851
      vertex -0.1795 0.000840430211 0.0174625312
    endloop
  endfacet
  facet normal -1 0 0
    outer loop
      vertex -0.0795 0 0
      vertex -0.0795 0.000840430211 0.0139700249
      vertex -0.0795 0.00167726157 0.0138802281
    endloop
  endfacet
  facet normal -0.0334725712 -0.219245578 -0.975095361
    outer loop
      vertex -0.1795 0.00167726157 0.0173502851
      vertex -0.1795 0.00250691064 0.0171637424
      vertex -0.0795 0.00250691064 0.0137309939
    endloop
  endfacet
  facet normal -0.0341325592 -0.176931834 -0.983631076
    outer loop
      vertex -0.1795 0.00167726157 0.0173502851
      vertex -0.0795 0.00250691064 0.0137309939
      vertex -0.0795 0.00167726157 0.0138802281
    endloop
  endfacet
  facet normal 1 0 0
    outer loop
      vertex -0.1795 0 0
      vertex -0.1795 0.00250691064 0.0171637424
      vertex -0.1795 0.00167726157 0.0173502851
    endloop
  endfacet
  facet normal -1 0 0
    outer loop
      vertex -0.0795 0 0
      vertex -0.0795 0.00167726157 0.0138802281
      vertex -0.0795 0.00250691064 0.0137309939
    endloop
  endfacet
  facet normal -0.0322051744 -0.30249374 -0.95260714
    outer loop
      vertex -0.1795 0.00250691064 0.0171637424
      vertex -0.1795 0.00332582473 0.016903702
      vertex -0.0795 0.00332582473 0.0135229616
    endloop
  endfacet
  facet normal -0.0332523302 -0.24607792 -0.968679482
    outer loop
      vertex -0.1795 0.00250691064 0.0171637424
      vertex -0.0795 0.00332582473 0.0135229616
      vertex -0.0795 0.00250691064 0.0137309939
    endloop
  endfacet
  facet normal 1 0 0
    outer loop
      vertex -0.1795 0 0
      vertex -0.1795 0.00332582473 0.016903702
      vertex -0.1795 0.00250691064 0.0171637424
    endloop
  endfacet
  facet normal -1 0 0
    outer loop
      vertex -0.0795 0 0
      vertex -0.0795 0.00250691064 0.0137309939
      vertex -0.0795 0.00332582473 0.0135229616
    endloop
  endfacet
  facet normal -0.0306172181 -0.381640029 -0.923803807
    outer loop
      vertex -0.1795 0.00332582473 0.016903702
      vertex -0.1795 0.00413049713 0.0165712773
      vertex -0.0795 0.00413049713 0.0132570218
    endloop
  endfacet
  facet normal -0.032083228 -0.313639241 -0.949000049
    outer loop
      vertex -0.1795 0.00332582473 0.016903702
      vertex -0.0795 0.00413049713 0.0132570218
      vertex -0.0795 0.00332582473 0.0135229616
    endloop
  endfacet
  facet normal 1 0 0
    outer loop
      vertex -0.1795 0 0
      vertex -0.1795 0.00413049713 0.0165712773
      vertex -0.1795 0.00332582473 0.016903702
    endloop
  endfacet
  facet normal -1 0 0
    outer loop
      vertex -0.0795 0 0
      vertex -0.0795 0.00332582473 0.0135229616
      vertex -0.0795 0.00413049713 0.0132570218
    endloop
  endfacet
  facet normal -0.0287639566 -0.455951888 -0.889539493
    outer loop
      vertex -0.1795 0.00413049713 0.0165712773
      vertex -0.1795 0.00491748211 0.0161678918
      vertex -0.0795 0.00491748211 0.0129343135
    endloop
  endfacet
  facet normal -0.0306501958 -0.379219835 -0.924798833
    outer loop
      vertex -0.1795 0.00413049713 0.0165712773
      vertex -0.0795 0.00491748211 0.0129343135
      vertex -0.0795 0.00413049713 0.0132570218
    endloop
  endfacet
  facet normal 1 0 0
    outer loop
      vertex -0.1795 0 0
      vertex -0.1795 0.00491748211 0.0161678918
      vertex -0.1795 0.00413049713 0.0165712773
    endloop
  endfacet
  facet normal -1 0 0
    outer loop
      vertex -0.0795 0 0
      vertex -0.0795 0.00413049713 0.0132570218
      vertex -0.0795 0.00491748211 0.0129343135
    endloop
  endfacet
  facet normal -0.0267045646 -0.524940361 -0.85071998
    outer loop
      vertex -0.1795 0.00491748211 0.0161678918
      vertex -0.1795 0.00568340967 0.015695273
      vertex -0.0795 0.00568340967 0.0125562184
    endloop
  endfacet
  facet normal -0.0289831722 -0.442461867 -0.896318845
    outer loop
      vertex -0.1795 0.00491748211 0.0161678918
      vertex -0.0795 0.00568340967 0.0125562184
      vertex -0.0795 0.00491748211 0.0129343135
    endloop
  endfacet
  facet normal 1 0 0
    outer loop
      vertex -0.1795 0 0
      vertex -0.1795 0.00568340967 0.015695273
      vertex -0.1795 0.00491748211 0.0161678918
    endloop
  endfacet
  facet normal -1 0 0
    outer loop
      vertex -0.0795 0 0
      vertex -0.0795 0.00491748211 0.0129343135
      vertex -0.0795 0.00568340967 0.0125562184
    endloop
  endfacet
  facet normal -0.0244984506 -0.588344395 -0.808239259
    outer loop
      vertex -0.1795 0.00568340967 0.015695273
      vertex -0.1795 0.006425 0.0151554446
      vertex -0.0795 0.006425 0.0121243557
    endloop
  endfacet
  facet normal -0.027116157 -0.503049749 -0.863831965
    outer loop
      vertex -0.1795 0.00568340967 0.015695273
      vertex -0.0795 0.006425 0.0121243557
      vertex -0.0795 0.00568340967 0.0125562184
    endloop
  endfacet
  facet normal 1 0 0
    outer loop
      vertex -0.1795 0 0
      vertex -0.1795 0.006425 0.0151554446
      vertex -0.1795 0.00568340967 0.015695273
    endloop
  endfacet
  facet normal -1 0 0
    outer loop
      vertex -0.0795 0 0
      vertex -0.0795 0.00568340967 0.0125562184
      vertex -0.0795 0.006425 0.0121243557
    endloop
  endfacet
  facet normal -0.0222023872 -0.64609859 -0.762930971
    outer loop
      vertex -0.1795 0.006425 0.0151554446
      vertex -0.1795 0.00713907749 0.0145507182
      vertex -0.0795 0.00713907749 0.0116405746
    endloop
  endfacet
  facet normal -0.0250862194 -0.560712289 -0.8276306
    outer loop
      vertex -0.1795 0.006425 0.0151554446
      vertex -0.0795 0.00713907749 0.0116405746
      vertex -0.0795 0.006425 0.0121243557
    endloop
  endfacet
  facet normal 1 0 0
    outer loop
      vertex -0.1795 0 0
      vertex -0.1795 0.00713907749 0.0145507182
      vertex -0.1795 0.006425 0.0151554446
    endloop
  endfacet
  facet normal -1 0 0
    outer loop
      vertex -0.0795 0 0
      vertex -0.0795 0.006425 0.0121243557
      vertex -0.0795 0.00713907749 0.0116405746
    endloop
  endfacet
  facet normal -0.019868568 -0.698292618 -0.715536624
    outer loop
      vertex -0.1795 0.00713907749 0.0145507182
      vertex -0.1795 0.00782258436 0.0138836835
      vertex -0.0795 0.00782258436 0.0111069468
    endloop
  endfacet
  facet normal -0.0229325003 -0.615222984 -0.788019531
    outer loop
      vertex -0.1795 0.00713907749 0.0145507182
      vertex -0.0795 0.00782258436 0.0111069468
      vertex -0.0795 0.00713907749 0.0116405746
    endloop
  endfacet
  facet normal 1 0 0
    outer loop
      vertex -0.1795 0 0
      vertex -0.1795 0.00782258436 0.0138836835
      vertex -0.1795 0.00713907749 0.0145507182
    endloop
  endfacet
  facet normal -1 0 0
    outer loop
      vertex -0.0795 0 0
      vertex -0.0795 0.00713907749 0.0116405746
      vertex -0.0795 0.00782258436 0.0111069468
    endloop
  endfacet
  facet normal -0.0175435244 -0.745129254 -0.666689298
    outer loop
      vertex -0.1795 0.00782258436 0.0138836835
      vertex -0.1795 0.00847259372 0.0131571966
      vertex -0.0795 0.00847259372 0.0105257573
    endloop
  endfacet
  facet normal -0.0206952506 -0.66639865 -0.745308356
    outer loop
      vertex -0.1795 0.00782258436 0.0138836835
      vertex -0.0795 0.00847259372 0.0105257573
      vertex -0.0795 0.00782258436 0.0111069468
    endloop
  endfacet
  facet normal 1 0 0
    outer loop
      vertex -0.1795 0 0
      vertex -0.1795 0.00847259372 0.0131571966
      vertex -0.1795 0.00782258436 0.0138836835
    endloop
  endfacet
  facet normal -1 0 0
    outer loop
      vertex -0.0795 0 0
      vertex -0.0795 0.00782258436 0.0111069468
      vertex -0.0795 0.00847259372 0.0105257573
    endloop
  endfacet
  facet normal -0.0152677368 -0.786885814 -0.616909727
    outer loop
      vertex -0.1795 0.00847259372 0.0131571966
      vertex -0.1795 0.00908632214 0.0123743687
      vertex -0.0795 0.00908632214 0.00989949494
    endloop
  endfacet
  facet normal -0.0184149396 -0.714096693 -0.699804832
    outer loop
      vertex -0.1795 0.00847259372 0.0131571966
      vertex -0.0795 0.00908632214 0.00989949494
      vertex -0.0795 0.00847259372 0.0105257573
    endloop
  endfacet
  facet normal 1 0 0
    outer loop
      vertex -0.1795 0 0
      vertex -0.1795 0.00908632214 0.0123743687
      vertex -0.1795 0.00847259372 0.0131571966
    endloop
  endfacet
  facet normal -1 0 0
    outer loop
      vertex -0.0795 0 0
      vertex -0.0795 0.00847259372 0.0105257573
      vertex -0.0795 0.00908632214 0.00989949494
    endloop
  endfacet
  facet normal -0.0130757426 -0.823881609 -0.566611083
    outer loop
      vertex -0.1795 0.00908632214 0.0123743687
      vertex -0.1795 0.00966114153 0.0115385518
      vertex -0.0795 0.00966114153 0.00923084141
    endloop
  endfacet
  facet normal -0.0161314568 -0.758211337 -0.651809286
    outer loop
      vertex -0.1795 0.00908632214 0.0123743687
      vertex -0.0795 0.00966114153 0.00923084141
      vertex -0.0795 0.00908632214 0.00989949494
    endloop
  endfacet
  facet normal 1 0 0
    outer loop
      vertex -0.1795 0 0
      vertex -0.1795 0.00966114153 0.0115385518
      vertex -0.1795 0.00908632214 0.0123743687
    endloop
  endfacet
  facet normal -1 0 0
    outer loop
      vertex -0.0795 0 0
      vertex -0.0795 0.00908632214 0.00989949494
      vertex -0.0795 0.00966114153 0.00923084141
    endloop
  endfacet
  facet normal -0.0109965547 -0.856452295 -0.51610904
    outer loop
      vertex -0.1795 0.00966114153 0.0115385518
      vertex -0.1795 0.0101945904 0.010653325
      vertex -0.0795 0.0101945904 0.00852266001
    endloop
  endfacet
  facet normal -0.0138834213 -0.798669139 -0.60161022
    outer loop
      vertex -0.1795 0.00966114153 0.0115385518
      vertex -0.0795 0.0101945904 0.00852266001
      vertex -0.0795 0.00966114153 0.00923084141
    endloop
  endfacet
  facet normal 1 0 0
    outer loop
      vertex -0.1795 0 0
      vertex -0.1795 0.0101945904 0.010653325
      vertex -0.1795 0.00966114153 0.0115385518
    endloop
  endfacet
  facet normal -1 0 0
    outer loop
      vertex -0.0795 0 0
      vertex -0.0795 0.00966114153 0.00923084141
      vertex -0.0795 0.0101945904 0.00852266001
    endloop
  endfacet
  facet normal -0.00905424181 -0.884930849 -0.46563442
    outer loop
      vertex -0.1795 0.0101945904 0.010653325
      vertex -0.1795 0.0106843845 0.00972247908
      vertex -0.0795 0.0106843845 0.00777798326
    endloop
  endfacet
  facet normal -0.0117076015 -0.835424114 -0.549481102
    outer loop
      vertex -0.1795 0.0101945904 0.010653325
      vertex -0.0795 0.0106843845 0.00777798326
      vertex -0.0795 0.0101945904 0.00852266001
    endloop
  endfacet
  facet normal 1 0 0
    outer loop
      vertex -0.1795 0 0
      vertex -0.1795 0.0106843845 0.00972247908
      vertex -0.1795 0.0101945904 0.010653325
    endloop
  endfacet
  facet normal -1 0 0
    outer loop
      vertex -0.0795 0 0
      vertex -0.0795 0.0101945904 0.00852266001
      vertex -0.0795 0.0106843845 0.00777798326
    endloop
  endfacet
  facet normal -0.00726856307 -0.909634259 -0.415346461
    outer loop
      vertex -0.1795 0.0106843845 0.00972247908
      vertex -0.1795 0.0111284264 0.00875
      vertex -0.0795 0.0111284264 0.007
    endloop
  endfacet
  facet normal -0.00963844365 -0.868452722 -0.495678292
    outer loop
      vertex -0.1795 0.0106843845 0.00972247908
      vertex -0.0795 0.0111284264 0.007
      vertex -0.0795 0.0106843845 0.00777798326
    endloop
  endfacet
  facet normal 1 0 0
    outer loop
      vertex -0.1795 0 0
      vertex -0.1795 0.0111284264 0.00875
      vertex -0.1795 0.0106843845 0.00972247908
    endloop
  endfacet
  facet normal -1 0 0
    outer loop
      vertex -0.0795 0 0
      vertex -0.0795 0.0106843845 0.00777798326
      vertex -0.0795 0.0111284264 0.007
    endloop
  endfacet
  facet normal -0.00565558664 -0.930854805 -0.365345516
    outer loop
      vertex -0.1795 0.0111284264 0.00875
      vertex -0.1795 0.0115248147 0.00774005208
      vertex -0.0795 0.0115248147 0.00619204166
    endloop
  endfacet
  facet normal -0.0077077001 -0.897748959 -0.440440006
    outer loop
      vertex -0.1795 0.0111284264 0.00875
      vertex -0.0795 0.0115248147 0.00619204166
      vertex -0.0795 0.0111284264 0.007
    endloop
  endfacet
  facet normal 1 0 0
    outer loop
      vertex -0.1795 0 0
      vertex -0.1795 0.0115248147 0.00774005208
      vertex -0.1795 0.0111284264 0.00875
    endloop
  endfacet
  facet normal -1 0 0
    outer loop
      vertex -0.0795 0 0
      vertex -0.0795 0.0111284264 0.007
      vertex -0.0795 0.0115248147 0.00619204166
    endloop
  endfacet
  facet normal -0.00422825288 -0.948854796 -0.315684492
    outer loop
      vertex -0.1795 0.0115248147 0.00774005208
      vertex -0.1795 0.011871852 0.00669696007
      vertex -0.0795 0.011871852 0.00535756805
    endloop
  endfacet
  facet normal -0.00594414624 -0.923319702 -0.383986191
    outer loop
      vertex -0.1795 0.0115248147 0.00774005208
      vertex -0.0795 0.011871852 0.00535756805
      vertex -0.0795 0.0115248147 0.00619204166
    endloop
  endfacet
  facet normal 1 0 0
    outer loop
      vertex -0.1795 0 0
      vertex -0.1795 0.011871852 0.00669696007
      vertex -0.1795 0.0115248147 0.00774005208
    endloop
  endfacet
  facet normal -1 0 0
    outer loop
      vertex -0.0795 0 0
      vertex -0.0795 0.0115248147 0.00619204166
      vertex -0.0795 0.011871852 0.00535756805
    endloop
  endfacet
  facet normal -0.00299686266 -0.963863773 -0.266378764
    outer loop
      vertex -0.1795 0.011871852 0.00669696007
      vertex -0.1795 0.0121680522 0.00562519064
      vertex -0.0795 0.0121680522 0.00450015251
    endloop
  endfacet
  facet normal -0.00437337175 -0.94518046 -0.326519175
    outer loop
      vertex -0.1795 0.011871852 0.00669696007
      vertex -0.0795 0.0121680522 0.00450015251
      vertex -0.0795 0.011871852 0.00535756805
    endloop
  endfacet
  facet normal 1 0 0
    outer loop
      vertex -0.1795 0 0
      vertex -0.1795 0.0121680522 0.00562519064
      vertex -0.1795 0.011871852 0.00669696007
    endloop
  endfacet
  facet normal -1 0 0
    outer loop
      vertex -0.0795 0 0
      vertex -0.0795 0.011871852 0.00535756805
      vertex -0.0795 0.0121680522 0.00450015251
    endloop
  endfacet
  facet normal -0.00196948579 -0.976077374 -0.217414536
    outer loop
      vertex -0.1795 0.0121680522 0.00562519064
      vertex -0.1795 0.0124121469 0.00452933329
      vertex -0.0795 0.0124121469 0.00362346663
    endloop
  endfacet
  facet normal -0.00301763286 -0.963351584 -0.268224941
    outer loop
      vertex -0.1795 0.0121680522 0.00562519064
      vertex -0.0795 0.0124121469 0.00362346663
      vertex -0.0795 0.0121680522 0.00450015251
    endloop
  endfacet
  facet normal 1 0 0
    outer loop
      vertex -0.1795 0 0
      vertex -0.1795 0.0124121469 0.00452933329
      vertex -0.1795 0.0121680522 0.00562519064
    endloop
  endfacet
  facet normal -1 0 0
    outer loop
      vertex -0.0795 0 0
      vertex -0.0795 0.0121680522 0.00450015251
      vertex -0.0795 0.0124121469 0.00362346663
    endloop
  endfacet
  facet normal -0.0011522916 -0.985657224 -0.168755768
    outer loop
      vertex -0.1795 0.0124121469 0.00452933329
      vertex -0.1795 0.0126030909 0.00341408064
      vertex -0.0795 0.0126030909 0.00273126451
    endloop
  endfacet
  facet normal -0.00189575176 -0.977855006 -0.209274924
    outer loop
      vertex -0.1795 0.0124121469 0.00452933329
      vertex -0.0795 0.0126030909 0.00273126451
      vertex -0.0795 0.0124121469 0.00362346663
    endloop
  endfacet
  facet normal 1 0 0
    outer loop
      vertex -0.1795 0 0
      vertex -0.1795 0.0126030909 0.00341408064
      vertex -0.1795 0.0124121469 0.00452933329
    endloop
  endfacet
  facet normal -1 0 0
    outer loop
      vertex -0.0795 0 0
      vertex -0.0795 0.0124121469 0.00362346663
      vertex -0.0795 0.0126030909 0.00273126451
    endloop
  endfacet
  facet normal -0.000549808406 -0.992731386 -0.12034988
    outer loop
      vertex -0.1795 0.0126030909 0.00341408064
      vertex -0.1795 0.0127400665 0.00228420836
      vertex -0.0795 0.0127400665 0.00182736669
    endloop
  endfacet
  facet normal -0.00102305101 -0.988711519 -0.149828184
    outer loop
      vertex -0.1795 0.0126030909 0.00341408064
      vertex -0.0795 0.0127400665 0.00182736669
      vertex -0.0795 0.0126030909 0.00273126451
    endloop
  endfacet
  facet normal 1 0 0
    outer loop
      vertex -0.1795 0 0
      vertex -0.1795 0.0127400665 0.00228420836
      vertex -0.1795 0.0126030909 0.00341408064
    endloop
  endfacet
  facet normal -1 0 0
    outer loop
      vertex -0.0795 0 0
      vertex -0.0795 0.0126030909 0.00273126451
      vertex -0.0795 0.0127400665 0.00182736669
    endloop
  endfacet
  facet normal -0.000165119051 -0.997395049 -0.0721324383
    outer loop
      vertex -0.1795 0.0127400665 0.00228420836
      vertex -0.1795 0.0128224872 0.00114455476
      vertex -0.0795 0.0128224872 0.000915643809
    endloop
  endfacet
  facet normal -0.000411312306 -0.995938618 -0.0900338849
    outer loop
      vertex -0.1795 0.0127400665 0.00228420836
      vertex -0.0795 0.0128224872 0.000915643809
      vertex -0.0795 0.0127400665 0.00182736669
    endloop
  endfacet
  facet normal 1 0 0
    outer loop
      vertex -0.1795 0 0
      vertex -0.1795 0.0128224872 0.00114455476
      vertex -0.1795 0.0127400665 0.00228420836
    endloop
  endfacet
  facet normal -1 0 0
    outer loop
      vertex -0.0795 0 0
      vertex -0.0795 0.0127400665 0.00182736669
      vertex -0.0795 0.0128224872 0.000915643809
    endloop
  endfacet
  facet normal 0 -0.999711212 -0.0240310835
    outer loop
      vertex -0.1795 0.0128224872 0.00114455476
      vertex -0.1795 0.01285 1.07156595e-18
      vertex -0.0795 0.01285 8.57252759e-19
    endloop
  endfacet
  facet normal -6.87510617e-05 -0.999548876 -0.0300339765
    outer loop
      vertex -0.1795 0.0128224872 0.00114455476
      vertex -0.0795 0.01285 8.57252759e-19
      vertex -0.0795 0.0128224872 0.000915643809
    endloop
  endfacet
  facet normal 1 0 0
    outer loop
      vertex -0.1795 0 0
      vertex -0.1795 0.01285 1.07156595e-18
      vertex -0.1795 0.0128224872 0.00114455476
    endloop
  endfacet
  facet normal -1 0 0
    outer loop
      vertex -0.0795 0 0
      vertex -0.0795 0.0128224872 0.000915643809
      vertex -0.0795 0.01285 8.57252759e-19
    endloop
  endfacet
  facet normal -5.50097819e-05 -0.99971121 0.0240310834
    outer loop
      vertex -0.1795 0.01285 1.07156595e-18
      vertex -0.1795 0.0128224872 -0.00114455476
      vertex -0.0795 0.0128224872 -0.000915643809
    endloop
  endfacet
  facet normal 6.43667733e-20 -0.999548878 0.0300339766
    outer loop
      vertex -0.1795 0.01285 1.07156595e-18
      vertex -0.0795 0.0128224872 -0.000915643809
      vertex -0.0795 0.01285 8.57252759e-19
    endloop
  endfacet
  facet normal 1 -0 0
    outer loop
      vertex -0.1795 0 0
      vertex -0.1795 0.0128224872 -0.00114455476
      vertex -0.1795 0.01285 1.07156595e-18
    endloop
  endfacet
  facet normal -1 0 0
    outer loop
      vertex -0.0795 0 0
      vertex -0.0795 0.01285 8.57252759e-19
      vertex -0.0795 0.0128224872 -0.000915643809
    endloop
  endfacet
  facet normal -0.000329531024 -0.997395009 0.0721324353
    outer loop
      vertex -0.1795 0.0128224872 -0.00114455476
      vertex -0.1795 0.0127400665 -0.00228420836
      vertex -0.0795 0.0127400665 -0.00182736669
    endloop
  endfacet
  facet normal -0.000206097436 -0.995938681 0.0900338906
    outer loop
      vertex -0.1795 0.0128224872 -0.00114455476
      vertex -0.0795 0.0127400665 -0.00182736669
      vertex -0.0795 0.0128224872 -0.000915643809
    endloop
  endfacet
  facet normal 1 0 0
    outer loop
      vertex -0.1795 0 0
      vertex -0.1795 0.0127400665 -0.00228420836
      vertex -0.1795 0.0128224872 -0.00114455476
    endloop
  endfacet
  facet normal -1 0 0
    outer loop
      vertex -0.0795 0 0
      vertex -0.0795 0.0128224872 -0.000915643809
      vertex -0.0795 0.0127400665 -0.00182736669
    endloop
  endfacet
  facet normal -0.000821768238 -0.9927312 0.120349858
    outer loop
      vertex -0.1795 0.0127400665 -0.00228420836
      vertex -0.1795 0.0126030909 -0.00341408064
      vertex -0.0795 0.0126030909 -0.00273126451
    endloop
  endfacet
  facet normal -0.000684477782 -0.988711805 0.149828228
    outer loop
      vertex -0.1795 0.0127400665 -0.00228420836
      vertex -0.0795 0.0126030909 -0.00273126451
      vertex -0.0795 0.0127400665 -0.00182736669
    endloop
  endfacet
  facet normal 1 0 0
    outer loop
      vertex -0.1795 0 0
      vertex -0.1795 0.0126030909 -0.00341408064
      vertex -0.1795 0.0127400665 -0.00228420836
    endloop
  endfacet
  facet normal -1 0 0
    outer loop
      vertex -0.0795 0 0
      vertex -0.0795 0.0127400665 -0.00182736669
      vertex -0.0795 0.0126030909 -0.00273126451
    endloop
  endfacet
  facet normal -0.00152870147 -0.985656726 0.168755683
    outer loop
      vertex -0.1795 0.0126030909 -0.00341408064
      vertex -0.1795 0.0124121469 -0.00452933329
      vertex -0.0795 0.0124121469 -0.00362346663
    endloop
  endfacet
  facet normal -0.00142896404 -0.977855764 0.209275087
    outer loop
      vertex -0.1795 0.0126030909 -0.00341408064
      vertex -0.0795 0.0124121469 -0.00362346663
      vertex -0.0795 0.0126030909 -0.00273126451
    endloop
  endfacet
  facet normal 1 0 0
    outer loop
      vertex -0.1795 0 0
      vertex -0.1795 0.0124121469 -0.00452933329
      vertex -0.1795 0.0126030909 -0.00341408064
    endloop
  endfacet
  facet normal -1 0 0
    outer loop
      vertex -0.0795 0 0
      vertex -0.0795 0.0126030909 -0.00273126451
      vertex -0.0795 0.0124121469 -0.00362346663
    endloop
  endfacet
  facet normal -0.00244599385 -0.976076348 0.217414307
    outer loop
      vertex -0.1795 0.0124121469 -0.00452933329
      vertex -0.1795 0.0121680522 -0.00562519064
      vertex -0.0795 0.0121680522 -0.00450015251
    endloop
  endfacet
  facet normal -0.0024297642 -0.963353127 0.268225371
    outer loop
      vertex -0.1795 0.0124121469 -0.00452933329
      vertex -0.0795 0.0121680522 -0.00450015251
      vertex -0.0795 0.0124121469 -0.00362346663
    endloop
  endfacet
  facet normal 1 0 0
    outer loop
      vertex -0.1795 0 0
      vertex -0.1795 0.0121680522 -0.00562519064
      vertex -0.1795 0.0124121469 -0.00452933329
    endloop
  endfacet
  facet normal -1 0 0
    outer loop
      vertex -0.0795 0 0
      vertex -0.0795 0.0124121469 -0.00362346663
      vertex -0.0795 0.0121680522 -0.00450015251
    endloop
  endfacet
  facet normal -0.00356784921 -0.963861966 0.266378265
    outer loop
      vertex -0.1795 0.0121680522 -0.00562519064
      vertex -0.1795 0.011871852 -0.00669696007
      vertex -0.0795 0.011871852 -0.00535756805
    endloop
  endfacet
  facet normal -0.00367347556 -0.945183122 0.326520094
    outer loop
      vertex -0.1795 0.0121680522 -0.00562519064
      vertex -0.0795 0.011871852 -0.00535756805
      vertex -0.0795 0.0121680522 -0.00450015251
    endloop
  endfacet
  facet normal 1 0 0
    outer loop
      vertex -0.1795 0 0
      vertex -0.1795 0.011871852 -0.00669696007
      vertex -0.1795 0.0121680522 -0.00562519064
    endloop
  endfacet
  facet normal -1 0 0
    outer loop
      vertex -0.0795 0 0
      vertex -0.0795 0.0121680522 -0.00450015251
      vertex -0.0795 0.011871852 -0.00535756805
    endloop
  endfacet
  facet normal -0.00488681415 -0.948851948 0.315683545
    outer loop
      vertex -0.1795 0.011871852 -0.00669696007
      vertex -0.1795 0.0115248147 -0.00774005208
      vertex -0.0795 0.0115248147 -0.00619204166
    endloop
  endfacet
  facet normal -0.00514310322 -0.923323802 0.383987897
    outer loop
      vertex -0.1795 0.011871852 -0.00669696007
      vertex -0.0795 0.0115248147 -0.00619204166
      vertex -0.0795 0.011871852 -0.00535756805
    endloop
  endfacet
  facet normal 1 0 0
    outer loop
      vertex -0.1795 0 0
      vertex -0.1795 0.0115248147 -0.00774005208
      vertex -0.1795 0.011871852 -0.00669696007
    endloop
  endfacet
  facet normal -1 0 0
    outer loop
      vertex -0.0795 0 0
      vertex -0.0795 0.011871852 -0.00535756805
      vertex -0.0795 0.0115248147 -0.00619204166
    endloop
  endfacet
  facet normal -0.00639351811 -0.930850667 0.365343892
    outer loop
      vertex -0.1795 0.0115248147 -0.00774005208
      vertex -0.1795 0.0111284264 -0.00875
      vertex -0.0795 0.0111284264 -0.007
    endloop
  endfacet
  facet normal -0.00681810122 -0.897754759 0.440442852
    outer loop
      vertex -0.1795 0.0115248147 -0.00774005208
      vertex -0.0795 0.0111284264 -0.007
      vertex -0.0795 0.0115248147 -0.00619204166
    endloop
  endfacet
  facet normal 1 0 0
    outer loop
      vertex -0.1795 0 0
      vertex -0.1795 0.0111284264 -0.00875
      vertex -0.1795 0.0115248147 -0.00774005208
    endloop
  endfacet
  facet normal -1 0 0
    outer loop
      vertex -0.0795 0 0
      vertex -0.0795 0.0115248147 -0.00619204166
      vertex -0.0795 0.0111284264 -0.007
    endloop
  endfacet
  facet normal -0.0080763445 -0.909628621 0.415343887
    outer loop
      vertex -0.1795 0.0111284264 -0.00875
      vertex -0.1795 0.0106843845 -0.00972247908
      vertex -0.0795 0.0106843845 -0.00777798326
    endloop
  endfacet
  facet normal -0.00867444669 -0.868460389 0.495682668
    outer loop
      vertex -0.1795 0.0111284264 -0.00875
      vertex -0.0795 0.0106843845 -0.00777798326
      vertex -0.0795 0.0111284264 -0.007
    endloop
  endfacet
  facet normal 1 0 0
    outer loop
      vertex -0.1795 0 0
      vertex -0.1795 0.0106843845 -0.00972247908
      vertex -0.1795 0.0111284264 -0.00875
    endloop
  endfacet
  facet normal -1 0 0
    outer loop
      vertex -0.0795 0 0
      vertex -0.0795 0.0111284264 -0.007
      vertex -0.0795 0.0106843845 -0.00777798326
    endloop
  endfacet
  facet normal -0.00992102803 -0.884923571 0.46563059
    outer loop
      vertex -0.1795 0.0106843845 -0.00972247908
      vertex -0.1795 0.0101945904 -0.010653325
      vertex -0.0795 0.0101945904 -0.00852266001
    endloop
  endfacet
  facet normal -0.0106847594 -0.835433682 0.549487396
    outer loop
      vertex -0.1795 0.0106843845 -0.00972247908
      vertex -0.0795 0.0101945904 -0.00852266001
      vertex -0.0795 0.0106843845 -0.00777798326
    endloop
  endfacet
  facet normal 1 0 0
    outer loop
      vertex -0.1795 0 0
      vertex -0.1795 0.0101945904 -0.010653325
      vertex -0.1795 0.0106843845 -0.00972247908
    endloop
  endfacet
  facet normal -1 0 0
    outer loop
      vertex -0.0795 0 0
      vertex -0.0795 0.0106843845 -0.00777798326
      vertex -0.0795 0.0101945904 -0.00852266001
    endloop
  endfacet
  facet normal -0.0119101771 -0.856443332 0.516103639
    outer loop
      vertex -0.1795 0.0101945904 -0.010653325
      vertex -0.1795 0.00966114153 -0.0115385518
      vertex -0.0795 0.00966114153 -0.00923084141
    endloop
  endfacet
  facet normal -0.0128184807 -0.798680497 0.601618775
    outer loop
      vertex -0.1795 0.0101945904 -0.010653325
      vertex -0.0795 0.00966114153 -0.00923084141
      vertex -0.0795 0.0101945904 -0.00852266001
    endloop
  endfacet
  facet normal 1 0 0
    outer loop
      vertex -0.1795 0 0
      vertex -0.1795 0.00966114153 -0.0115385518
      vertex -0.1795 0.0101945904 -0.010653325
    endloop
  endfacet
  facet normal -1 0 0
    outer loop
      vertex -0.0795 0 0
      vertex -0.0795 0.0101945904 -0.00852266001
      vertex -0.0795 0.00966114153 -0.00923084141
    endloop
  endfacet
  facet normal -0.0140227289 -0.823871036 0.566603811
    outer loop
      vertex -0.1795 0.00966114153 -0.0115385518
      vertex -0.1795 0.00908632214 -0.0123743687
      vertex -0.0795 0.00908632214 -0.00989949494
    endloop
  endfacet
  facet normal -0.0150421258 -0.758224214 0.651820356
    outer loop
      vertex -0.1795 0.00966114153 -0.0115385518
      vertex -0.0795 0.00908632214 -0.00989949494
      vertex -0.0795 0.00966114153 -0.00923084141
    endloop
  endfacet
  facet normal 1 0 0
    outer loop
      vertex -0.1795 0 0
      vertex -0.1795 0.00908632214 -0.0123743687
      vertex -0.1795 0.00966114153 -0.0115385518
    endloop
  endfacet
  facet normal -1 0 0
    outer loop
      vertex -0.0795 0 0
      vertex -0.0795 0.00966114153 -0.00923084141
      vertex -0.0795 0.00908632214 -0.00989949494
    endloop
  endfacet
  facet normal -0.0162333582 -0.786873844 0.616900342
    outer loop
      vertex -0.1795 0.00908632214 -0.0123743687
      vertex -0.1795 0.00847259372 -0.0131571966
      vertex -0.0795 0.00847259372 -0.0105257573
    endloop
  endfacet
  facet normal -0.017319625 -0.714110673 0.699818532
    outer loop
      vertex -0.1795 0.00908632214 -0.0123743687
      vertex -0.0795 0.00847259372 -0.0105257573
      vertex -0.0795 0.00908632214 -0.00989949494
    endloop
  endfacet
  facet normal 1 0 0
    outer loop
      vertex -0.1795 0 0
      vertex -0.1795 0.00847259372 -0.0131571966
      vertex -0.1795 0.00908632214 -0.0123743687
    endloop
  endfacet
  facet normal -1 0 0
    outer loop
      vertex -0.0795 0 0
      vertex -0.0795 0.00908632214 -0.00989949494
      vertex -0.0795 0.00847259372 -0.0105257573
    endloop
  endfacet
  facet normal -0.0185118831 -0.745116242 0.666677655
    outer loop
      vertex -0.1795 0.00847259372 -0.0131571966
      vertex -0.1795 0.00782258436 -0.0138836835
      vertex -0.0795 0.00782258436 -0.0111069468
    endloop
  endfacet
  facet normal -0.0196127652 -0.666413194 0.745324623
    outer loop
      vertex -0.1795 0.00847259372 -0.0131571966
      vertex -0.0795 0.00782258436 -0.0111069468
      vertex -0.0795 0.00847259372 -0.0105257573
    endloop
  endfacet
  facet normal 1 0 0
    outer loop
      vertex -0.1795 0 0
      vertex -0.1795 0.00782258436 -0.0138836835
      vertex -0.1795 0.00847259372 -0.0131571966
    endloop
  endfacet
  facet normal -1 0 0
    outer loop
      vertex -0.0795 0 0
      vertex -0.0795 0.00847259372 -0.0105257573
      vertex -0.0795 0.00782258436 -0.0111069468
    endloop
  endfacet
  facet normal -0.0208227392 -0.698279056 0.715522727
    outer loop
      vertex -0.1795 0.00782258436 -0.0138836835
      vertex -0.1795 0.00713907749 -0.0145507182
      vertex -0.0795 0.00713907749 -0.0116405746
    endloop
  endfacet
  facet normal -0.0218817429 -0.615237476 0.788038094
    outer loop
      vertex -0.1795 0.00782258436 -0.0138836835
      vertex -0.0795 0.00713907749 -0.0116405746
      vertex -0.0795 0.00782258436 -0.0111069468
    endloop
  endfacet
  facet normal 1 0 0
    outer loop
      vertex -0.1795 0 0
      vertex -0.1795 0.00713907749 -0.0145507182
      vertex -0.1795 0.00782258436 -0.0138836835
    endloop
  endfacet
  facet normal -1 0 0
    outer loop
      vertex -0.0795 0 0
      vertex -0.0795 0.00782258436 -0.0111069468
      vertex -0.0795 0.00713907749 -0.0116405746
    endloop
  endfacet
  facet normal -0.0231246325 -0.646085079 0.762915017
    outer loop
      vertex -0.1795 0.00713907749 -0.0145507182
      vertex -0.1795 0.006425 -0.0151554446
      vertex -0.0795 0.006425 -0.0121243557
    endloop
  endfacet
  facet normal -0.0240858321 -0.560726088 0.827650969
    outer loop
      vertex -0.1795 0.00713907749 -0.0145507182
      vertex -0.0795 0.006425 -0.0121243557
      vertex -0.0795 0.00713907749 -0.0116405746
    endloop
  endfacet
  facet normal 1 0 0
    outer loop
      vertex -0.1795 0 0
      vertex -0.1795 0.006425 -0.0151554446
      vertex -0.1795 0.00713907749 -0.0145507182
    endloop
  endfacet
  facet normal -1 0 0
    outer loop
      vertex -0.0795 0 0
      vertex -0.0795 0.00713907749 -0.0116405746
      vertex -0.0795 0.006425 -0.0121243557
    endloop
  endfacet
  facet normal -0.0253705196 -0.588331594 0.808221673
    outer loop
      vertex -0.1795 0.006425 -0.0151554446
      vertex -0.1795 0.00568340967 -0.015695273
      vertex -0.0795 0.00568340967 -0.0125562184
    endloop
  endfacet
  facet normal -0.0261841657 -0.503062252 0.863853436
    outer loop
      vertex -0.1795 0.006425 -0.0151554446
      vertex -0.0795 0.00568340967 -0.0125562184
      vertex -0.0795 0.006425 -0.0121243557
    endloop
  endfacet
  facet normal 1 0 0
    outer loop
      vertex -0.1795 0 0
      vertex -0.1795 0.00568340967 -0.015695273
      vertex -0.1795 0.006425 -0.0151554446
    endloop
  endfacet
  facet normal -1 0 0
    outer loop
      vertex -0.0795 0 0
      vertex -0.0795 0.006425 -0.0121243557
      vertex -0.0795 0.00568340967 -0.0125562184
    endloop
  endfacet
  facet normal -0.0275080976 -0.524928919 0.850701437
    outer loop
      vertex -0.1795 0.00568340967 -0.015695273
      vertex -0.1795 0.00491748211 -0.0161678918
      vertex -0.0795 0.00491748211 -0.0129343135
    endloop
  endfacet
  facet normal -0.0281366187 -0.442472574 0.896340534
    outer loop
      vertex -0.1795 0.00568340967 -0.015695273
      vertex -0.0795 0.00491748211 -0.0129343135
      vertex -0.0795 0.00568340967 -0.0125562184
    endloop
  endfacet
  facet normal 1 0 0
    outer loop
      vertex -0.1795 0 0
      vertex -0.1795 0.00491748211 -0.0161678918
      vertex -0.1795 0.00568340967 -0.015695273
    endloop
  endfacet
  facet normal -1 0 0
    outer loop
      vertex -0.0795 0 0
      vertex -0.0795 0.00568340967 -0.0125562184
      vertex -0.0795 0.00491748211 -0.0129343135
    endloop
  endfacet
  facet normal -0.029480995 -0.455942359 0.889520902
    outer loop
      vertex -0.1795 0.00491748211 -0.0161678918
      vertex -0.1795 0.00413049713 -0.0165712773
      vertex -0.0795 0.00413049713 -0.0132570218
    endloop
  endfacet
  facet normal -0.0299047705 -0.379228402 0.924819725
    outer loop
      vertex -0.1795 0.00491748211 -0.0161678918
      vertex -0.0795 0.00413049713 -0.0132570218
      vertex -0.0795 0.00491748211 -0.0129343135
    endloop
  endfacet
  facet normal 1 0 0
    outer loop
      vertex -0.1795 0 0
      vertex -0.1795 0.00413049713 -0.0165712773
      vertex -0.1795 0.00491748211 -0.0161678918
    endloop
  endfacet
  facet normal -1 0 0
    outer loop
      vertex -0.0795 0 0
      vertex -0.0795 0.00491748211 -0.0129343135
      vertex -0.0795 0.00413049713 -0.0132570218
    endloop
  endfacet
  facet normal -0.0312308153 -0.38163278 0.923786262
    outer loop
      vertex -0.1795 0.00413049713 -0.0165712773
      vertex -0.1795 0.00332582473 -0.016903702
      vertex -0.0795 0.00332582473 -0.0135229616
    endloop
  endfacet
  facet normal -0.0314529163 -0.313645528 0.949019071
    outer loop
      vertex -0.1795 0.00413049713 -0.0165712773
      vertex -0.0795 0.00332582473 -0.0135229616
      vertex -0.0795 0.00413049713 -0.0132570218
    endloop
  endfacet
  facet normal 1 0 0
    outer loop
      vertex -0.1795 0 0
      vertex -0.1795 0.00332582473 -0.016903702
      vertex -0.1795 0.00413049713 -0.0165712773
    endloop
  endfacet
  facet normal -1 0 0
    outer loop
      vertex -0.0795 0 0
      vertex -0.0795 0.00413049713 -0.0132570218
      vertex -0.0795 0.00332582473 -0.0135229616
    endloop
  endfacet
  facet normal -0.0327000814 -0.302488877 0.952591824
    outer loop
      vertex -0.1795 0.00332582473 -0.016903702
      vertex -0.1795 0.00250691064 -0.0171637424
      vertex -0.0795 0.00250691064 -0.0137309939
    endloop
  endfacet
  facet normal -0.032749083 -0.246082011 0.968695587
    outer loop
      vertex -0.1795 0.00332582473 -0.016903702
      vertex -0.0795 0.00250691064 -0.0137309939
      vertex -0.0795 0.00332582473 -0.0135229616
    endloop
  endfacet
  facet normal 1 0 0
    outer loop
      vertex -0.1795 0 0
      vertex -0.1795 0.00250691064 -0.0171637424
      vertex -0.1795 0.00332582473 -0.016903702
    endloop
  endfacet
  facet normal -1 0 0
    outer loop
      vertex -0.0795 0 0
      vertex -0.0795 0.00332582473 -0.0135229616
      vertex -0.0795 0.00250691064 -0.0137309939
    endloop
  endfacet
  facet normal -0.0338359507 -0.219242894 0.975083423
    outer loop
      vertex -0.1795 0.00250691064 -0.0171637424
      vertex -0.1795 0.00167726157 -0.0173502851
      vertex -0.0795 0.00167726157 -0.0138802281
    endloop
  endfacet
  facet normal -0.0337660015 -0.176934039 0.983643331
    outer loop
      vertex -0.1795 0.00250691064 -0.0171637424
      vertex -0.0795 0.00167726157 -0.0138802281
      vertex -0.0795 0.00250691064 -0.0137309939
    endloop
  endfacet
  facet normal 1 0 0
    outer loop
      vertex -0.1795 0 0
      vertex -0.1795 0.00167726157 -0.0173502851
      vertex -0.1795 0.00250691064 -0.0171637424
    endloop
  endfacet
  facet normal -1 0 0
    outer loop
      vertex -0.0795 0 0
      vertex -0.0795 0.00250691064 -0.0137309939
      vertex -0.0795 0.00167726157 -0.0138802281
    endloop
  endfacet
  facet normal -0.0345943433 -0.132862111 0.990530611
    outer loop
      vertex -0.1795 0.00167726157 -0.0173502851
      vertex -0.1795 0.000840430211 -0.0174625312
      vertex -0.0795 0.000840430211 -0.0139700249
    endloop
  endfacet
  facet normal -0.0344819806 -0.106629857 0.993700693
    outer loop
      vertex -0.1795 0.00167726157 -0.0173502851
      vertex -0.0795 0.000840430211 -0.0139700249
      vertex -0.0795 0.00167726157 -0.0138802281
    endloop
  endfacet
  facet normal 1 0 0
    outer loop
      vertex -0.1795 0 0
      vertex -0.1795 0.000840430211 -0.0174625312
      vertex -0.1795 0.00167726157 -0.0173502851
    endloop
  endfacet
  facet normal -1 0 0
    outer loop
      vertex -0.0795 0 0
      vertex -0.0795 0.00167726157 -0.0138802281
      vertex -0.0795 0.000840430211 -0.0139700249
    endloop
  endfacet
  facet normal -0.0349439139 -0.0445114902 0.998397541
    outer loop
      vertex -0.1795 0.000840430211 -0.0174625312
      vertex -0.1795 1.57367114e-18 -0.0175
      vertex -0.0795 1.57367114e-18 -0.014
    endloop
  endfacet
  facet normal -0.0348816295 -0.0356219913 0.9987564
    outer loop
      vertex -0.1795 0.000840430211 -0.0174625312
      vertex -0.0795 1.57367114e-18 -0.014
      vertex -0.0795 0.000840430211 -0.0139700249
    endloop
  endfacet
  facet normal 1 0 0
    outer loop
      vertex -0.1795 0 0
      vertex -0.1795 1.57367114e-18 -0.0175
      vertex -0.1795 0.000840430211 -0.0174625312
    endloop
  endfacet
  facet normal -1 0 0
    outer loop
      vertex -0.0795 0 0
      vertex -0.0795 0.000840430211 -0.0139700249
      vertex -0.0795 1.57367114e-18 -0.014
    endloop
  endfacet
  facet normal -0.0348691874 0.0445116064 0.998400149
    outer loop
      vertex -0.1795 1.57367114e-18 -0.0175
      vertex -0.1795 -0.000840430211 -0.0174625312
      vertex -0.0795 -0.000840430211 -0.0139700249
    endloop
  endfacet
  facet normal -0.0349563826 0.0356218982 0.998753789
    outer loop
      vertex -0.1795 1.57367114e-18 -0.0175
      vertex -0.0795 -0.000840430211 -0.0139700249
      vertex -0.0795 1.57367114e-18 -0.014
    endloop
  endfacet
  facet normal 1 0 0
    outer loop
      vertex -0.1795 0 0
      vertex -0.1795 -0.000840430211 -0.0174625312
      vertex -0.1795 1.57367114e-18 -0.0175
    endloop
  endfacet
  facet normal -1 0 -0
    outer loop
      vertex -0.0795 0 0
      vertex -0.0795 1.57367114e-18 -0.014
      vertex -0.0795 -0.000840430211 -0.0139700249
    endloop
  endfacet
  facet normal -0.0343722405 0.13286313 0.990538206
    outer loop
      vertex -0.1795 -0.000840430211 -0.0174625312
      vertex -0.1795 -0.00167726157 -0.0173502851
      vertex -0.0795 -0.00167726157 -0.0138802281
    endloop
  endfacet
  facet normal -0.0347047908 0.106629034 0.993693024
    outer loop
      vertex -0.1795 -0.000840430211 -0.0174625312
      vertex -0.0795 -0.00167726157 -0.0138802281
      vertex -0.0795 -0.000840430211 -0.0139700249
    endloop
  endfacet
  facet normal 1 0 0
    outer loop
      vertex -0.1795 0 0
      vertex -0.1795 -0.00167726157 -0.0173502851
      vertex -0.1795 -0.000840430211 -0.0174625312
    endloop
  endfacet
  facet normal -1 0 0
    outer loop
      vertex -0.0795 0 0
      vertex -0.0795 -0.000840430211 -0.0139700249
      vertex -0.0795 -0.00167726157 -0.0138802281
    endloop
  endfacet
  facet normal -0.0334725712 0.219245578 0.975095361
    outer loop
      vertex -0.1795 -0.00167726157 -0.0173502851
      vertex -0.1795 -0.00250691064 -0.0171637424
      vertex -0.0795 -0.00250691064 -0.0137309939
    endloop
  endfacet
  facet normal -0.0341325592 0.176931834 0.983631076
    outer loop
      vertex -0.1795 -0.00167726157 -0.0173502851
      vertex -0.0795 -0.00250691064 -0.0137309939
      vertex -0.0795 -0.00167726157 -0.0138802281
    endloop
  endfacet
  facet normal 1 0 0
    outer loop
      vertex -0.1795 0 0
      vertex -0.1795 -0.00250691064 -0.0171637424
      vertex -0.1795 -0.00167726157 -0.0173502851
    endloop
  endfacet
  facet normal -1 0 0
    outer loop
      vertex -0.0795 0 0
      vertex -0.0795 -0.00167726157 -0.0138802281
      vertex -0.0795 -0.00250691064 -0.0137309939
    endloop
  endfacet
  facet normal -0.0322051744 0.30249374 0.95260714
    outer loop
      vertex -0.1795 -0.00250691064 -0.0171637424
      vertex -0.1795 -0.00332582473 -0.016903702
      vertex -0.0795 -0.00332582473 -0.0135229616
    endloop
  endfacet
  facet normal -0.0332523302 0.24607792 0.968679482
    outer loop
      vertex -0.1795 -0.00250691064 -0.0171637424
      vertex -0.0795 -0.00332582473 -0.0135229616
      vertex -0.0795 -0.00250691064 -0.0137309939
    endloop
  endfacet
  facet normal 1 0 0
    outer loop
      vertex -0.1795 0 0
      vertex -0.1795 -0.00332582473 -0.016903702
      vertex -0.1795 -0.00250691064 -0.0171637424
    endloop
  endfacet
  facet normal -1 0 0
    outer loop
      vertex -0.0795 0 0
      vertex -0.0795 -0.00250691064 -0.0137309939
      vertex -0.0795 -0.00332582473 -0.0135229616
    endloop
  endfacet
  facet normal -0.0306172181 0.381640029 0.923803807
    outer loop
      vertex -0.1795 -0.00332582473 -0.016903702
      vertex -0.1795 -0.00413049713 -0.0165712773
      vertex -0.0795 -0.00413049713 -0.0132570218
    endloop
  endfacet
  facet normal -0.032083228 0.313639241 0.949000049
    outer loop
      vertex -0.1795 -0.00332582473 -0.016903702
      vertex -0.0795 -0.00413049713 -0.0132570218
      vertex -0.0795 -0.00332582473 -0.0135229616
    endloop
  endfacet
  facet normal 1 0 0
    outer loop
      vertex -0.1795 0 0
      vertex -0.1795 -0.00413049713 -0.0165712773
      vertex -0.1795 -0.00332582473 -0.016903702
    endloop
  endfacet
  facet normal -1 0 0
    outer loop
      vertex -0.0795 0 0
      vertex -0.0795 -0.00332582473 -0.0135229616
      vertex -0.0795 -0.00413049713 -0.0132570218
    endloop
  endfacet
  facet normal -0.0287639566 0.455951888 0.889539493
    outer loop
      vertex -0.1795 -0.00413049713 -0.0165712773
      vertex -0.1795 -0.00491748211 -0.0161678918
      vertex -0.0795 -0.00491748211 -0.0129343135
    endloop
  endfacet
  facet normal -0.0306501958 0.379219835 0.924798833
    outer loop
      vertex -0.1795 -0.00413049713 -0.0165712773
      vertex -0.0795 -0.00491748211 -0.0129343135
      vertex -0.0795 -0.00413049713 -0.0132570218
    endloop
  endfacet
  facet normal 1 0 0
    outer loop
      vertex -0.1795 0 0
      vertex -0.1795 -0.00491748211 -0.0161678918
      vertex -0.1795 -0.00413049713 -0.0165712773
    endloop
  endfacet
  facet normal -1 0 0
    outer loop
      vertex -0.0795 0 0
      vertex -0.0795 -0.00413049713 -0.0132570218
      vertex -0.0795 -0.00491748211 -0.0129343135
    endloop
  endfacet
  facet normal -0.0267045646 0.524940361 0.85071998
    outer loop
      vertex -0.1795 -0.00491748211 -0.0161678918
      vertex -0.1795 -0.00568340967 -0.015695273
      vertex -0.0795 -0.00568340967 -0.0125562184
    endloop
  endfacet
  facet normal -0.0289831722 0.442461867 0.896318845
    outer loop
      vertex -0.1795 -0.00491748211 -0.0161678918
      vertex -0.0795 -0.00568340967 -0.0125562184
      vertex -0.0795 -0.00491748211 -0.0129343135
    endloop
  endfacet
  facet normal 1 0 0
    outer loop
      vertex -0.1795 0 0
      vertex -0.1795 -0.00568340967 -0.015695273
      vertex -0.1795 -0.00491748211 -0.0161678918
    endloop
  endfacet
  facet normal -1 0 0
    outer loop
      vertex -0.0795 0 0
      vertex -0.0795 -0.00491748211 -0.0129343135
      vertex -0.0795 -0.00568340967 -0.0125562184
    endloop
  endfacet
  facet normal -0.0244984506 0.588344395 0.808239259
    outer loop
      vertex -0.1795 -0.00568340967 -0.015695273
      vertex -0.1795 -0.006425 -0.0151554446
      vertex -0.0795 -0.006425 -0.0121243557
    endloop
  endfacet
  facet normal -0.027116157 0.503049749 0.863831965
    outer loop
      vertex -0.1795 -0.00568340967 -0.015695273
      vertex -0.0795 -0.006425 -0.0121243557
      vertex -0.0795 -0.00568340967 -0.0125562184
    endloop
  endfacet
  facet normal 1 0 0
    outer loop
      vertex -0.1795 0 0
      vertex -0.1795 -0.006425 -0.0151554446
      vertex -0.1795 -0.00568340967 -0.015695273
    endloop
  endfacet
  facet normal -1 0 0
    outer loop
      vertex -0.0795 0 0
      vertex -0.0795 -0.00568340967 -0.0125562184
      vertex -0.0795 -0.006425 -0.0121243557
    endloop
  endfacet
  facet normal -0.0222023872 0.64609859 0.762930971
    outer loop
      vertex -0.1795 -0.006425 -0.0151554446
      vertex -0.1795 -0.00713907749 -0.0145507182
      vertex -0.0795 -0.00713907749 -0.0116405746
    endloop
  endfacet
  facet normal -0.0250862194 0.560712289 0.8276306
    outer loop
      vertex -0.1795 -0.006425 -0.0151554446
      vertex -0.0795 -0.00713907749 -0.0116405746
      vertex -0.0795 -0.006425 -0.0121243557
    endloop
  endfacet
  facet normal 1 0 0
    outer loop
      vertex -0.1795 0 0
      vertex -0.1795 -0.00713907749 -0.0145507182
      vertex -0.1795 -0.006425 -0.0151554446
    endloop
  endfacet
  facet normal -1 0 0
    outer loop
      vertex -0.0795 0 0
      vertex -0.0795 -0.006425 -0.0121243557
      vertex -0.0795 -0.00713907749 -0.0116405746
    endloop
  endfacet
  facet normal -0.019868568 0.698292618 0.715536624
    outer loop
      vertex -0.1795 -0.00713907749 -0.0145507182
      vertex -0.1795 -0.00782258436 -0.0138836835
      vertex -0.0795 -0.00782258436 -0.0111069468
    endloop
  endfacet
  facet normal -0.0229325003 0.615222984 0.788019531
    outer loop
      vertex -0.1795 -0.00713907749 -0.0145507182
      vertex -0.0795 -0.00782258436 -0.0111069468
      vertex -0.0795 -0.00713907749 -0.0116405746
    endloop
  endfacet
  facet normal 1 0 0
    outer loop
      vertex -0.1795 0 0
      vertex -0.1795 -0.00782258436 -0.0138836835
      vertex -0.1795 -0.00713907749 -0.0145507182
    endloop
  endfacet
  facet normal -1 0 0
    outer loop
      vertex -0.0795 0 0
      vertex -0.0795 -0.00713907749 -0.0116405746
      vertex -0.0795 -0.00782258436 -0.0111069468
    endloop
  endfacet
  facet normal -0.0175435244 0.745129254 0.666689298
    outer loop
      vertex -0.1795 -0.00782258436 -0.0138836835
      vertex -0.1795 -0.00847259372 -0.0131571966
      vertex -0.0795 -0.00847259372 -0.0105257573
    endloop
  endfacet
  facet normal -0.0206952506 0.66639865 0.745308356
    outer loop
      vertex -0.1795 -0.00782258436 -0.0138836835
      vertex -0.0795 -0.00847259372 -0.0105257573
      vertex -0.0795 -0.00782258436 -0.0111069468
    endloop
  endfacet
  facet normal 1 0 0
    outer loop
      vertex -0.1795 0 0
      vertex -0.1795 -0.00847259372 -0.0131571966
      vertex -0.1795 -0.00782258436 -0.0138836835
    endloop
  endfacet
  facet normal -1 0 0
    outer loop
      vertex -0.0795 0 0
      vertex -0.0795 -0.00782258436 -0.0111069468
      vertex -0.0795 -0.00847259372 -0.0105257573
    endloop
  endfacet
  facet normal -0.0152677368 0.786885814 0.616909727
    outer loop
      vertex -0.1795 -0.00847259372 -0.0131571966
      vertex -0.1795 -0.00908632214 -0.0123743687
      vertex -0.0795 -0.00908632214 -0.00989949494
    endloop
  endfacet
  facet normal -0.0184149396 0.714096693 0.699804832
    outer loop
      vertex -0.1795 -0.00847259372 -0.0131571966
      vertex -0.0795 -0.00908632214 -0.00989949494
      vertex -0.0795 -0.00847259372 -0.0105257573
    endloop
  endfacet
  facet normal 1 0 0
    outer loop
      vertex -0.1795 0 0
      vertex -0.1795 -0.00908632214 -0.0123743687
      vertex -0.1795 -0.00847259372 -0.0131571966
    endloop
  endfacet
  facet normal -1 0 0
    outer loop
      vertex -0.0795 0 0
      vertex -0.0795 -0.00847259372 -0.0105257573
      vertex -0.0795 -0.00908632214 -0.00989949494
    endloop
  endfacet
  facet normal -0.0130757426 0.823881609 0.566611083
    outer loop
      vertex -0.1795 -0.00908632214 -0.0123743687
      vertex -0.1795 -0.00966114153 -0.0115385518
      vertex -0.0795 -0.00966114153 -0.00923084141
    endloop
  endfacet
  facet normal -0.0161314568 0.758211337 0.651809286
    outer loop
      vertex -0.1795 -0.00908632214 -0.0123743687
      vertex -0.0795 -0.00966114153 -0.00923084141
      vertex -0.0795 -0.00908632214 -0.00989949494
    endloop
  endfacet
  facet normal 1 0 0
    outer loop
      vertex -0.1795 0 0
      vertex -0.1795 -0.00966114153 -0.0115385518
      vertex -0.1795 -0.00908632214 -0.0123743687
    endloop
  endfacet
  facet normal -1 0 0
    outer loop
      vertex -0.0795 0 0
      vertex -0.0795 -0.00908632214 -0.00989949494
      vertex -0.0795 -0.00966114153 -0.00923084141
    endloop
  endfacet
  facet normal -0.0109965547 0.856452295 0.51610904
    outer loop
      vertex -0.1795 -0.00966114153 -0.0115385518
      vertex -0.1795 -0.0101945904 -0.010653325
      vertex -0.0795 -0.0101945904 -0.00852266001
    endloop
  endfacet
  facet normal -0.0138834213 0.798669139 0.60161022
    outer loop
      vertex -0.1795 -0.00966114153 -0.0115385518
      vertex -0.0795 -0.0101945904 -0.00852266001
      vertex -0.0795 -0.00966114153 -0.00923084141
    endloop
  endfacet
  facet normal 1 0 0
    outer loop
      vertex -0.1795 0 0
      vertex -0.1795 -0.0101945904 -0.010653325
      vertex -0.1795 -0.00966114153 -0.0115385518
    endloop
  endfacet
  facet normal -1 0 0
    outer loop
      vertex -0.0795 0 0
      vertex -0.0795 -0.00966114153 -0.00923084141
      vertex -0.0795 -0.0101945904 -0.00852266001
    endloop
  endfacet
  facet normal -0.00905424181 0.884930849 0.46563442
    outer loop
      vertex -0.1795 -0.0101945904 -0.010653325
      vertex -0.1795 -0.0106843845 -0.00972247908
      vertex -0.0795 -0.0106843845 -0.00777798326
    endloop
  endfacet
  facet normal -0.0117076015 0.835424114 0.549481102
    outer loop
      vertex -0.1795 -0.0101945904 -0.010653325
      vertex -0.0795 -0.0106843845 -0.00777798326
      vertex -0.0795 -0.0101945904 -0.00852266001
    endloop
  endfacet
  facet normal 1 0 0
    outer loop
      vertex -0.1795 0 0
      vertex -0.1795 -0.0106843845 -0.00972247908
      vertex -0.1795 -0.0101945904 -0.010653325
    endloop
  endfacet
  facet normal -1 0 0
    outer loop
      vertex -0.0795 0 0
      vertex -0.0795 -0.0101945904 -0.00852266001
      vertex -0.0795 -0.0106843845 -0.00777798326
    endloop
  endfacet
  facet normal -0.00726856307 0.909634259 0.415346461
    outer loop
      vertex -0.1795 -0.0106843845 -0.00972247908
      vertex -0.1795 -0.0111284264 -0.00875
      vertex -0.0795 -0.0111284264 -0.007
    endloop
  endfacet
  facet normal -0.00963844365 0.868452722 0.495678292
    outer loop
      vertex -0.1795 -0.0106843845 -0.00972247908
      vertex -0.0795 -0.0111284264 -0.007
      vertex -0.0795 -0.0106843845 -0.00777798326
    endloop
  endfacet
  facet normal 1 0 0
    outer loop
      vertex -0.1795 0 0
      vertex -0.1795 -0.0111284264 -0.00875
      vertex -0.1795 -0.0106843845 -0.00972247908
    endloop
  endfacet
  facet normal -1 0 0
    outer loop
      vertex -0.0795 0 0
      vertex -0.0795 -0.0106843845 -0.00777798326
      vertex -0.0795 -0.0111284264 -0.007
    endloop
  endfacet
  facet normal -0.00565558664 0.930854805 0.365345516
    outer loop
      vertex -0.1795 -0.0111284264 -0.00875
      vertex -0.1795 -0.0115248147 -0.00774005208
      vertex -0.0795 -0.0115248147 -0.00619204166
    endloop
  endfacet
  facet normal -0.0077077001 0.897748959 0.440440006
    outer loop
      vertex -0.1795 -0.0111284264 -0.00875
      vertex -0.0795 -0.0115248147 -0.00619204166
      vertex -0.0795 -0.0111284264 -0.007
    endloop
  endfacet
  facet normal 1 0 0
    outer loop
      vertex -0.1795 0 0
      vertex -0.1795 -0.0115248147 -0.00774005208
      vertex -0.1795 -0.0111284264 -0.00875
    endloop
  endfacet
  facet normal -1 0 0
    outer loop
      vertex -0.0795 0 0
      vertex -0.0795 -0.0111284264 -0.007
      vertex -0.0795 -0.0115248147 -0.00619204166
    endloop
  endfacet
  facet normal -0.00422825288 0.948854796 0.315684492
    outer loop
      vertex -0.1795 -0.0115248147 -0.00774005208
      vertex -0.1795 -0.011871852 -0.00669696007
      vertex -0.0795 -0.011871852 -0.00535756805
    endloop
  endfacet
  facet normal -0.00594414624 0.923319702 0.383986191
    outer loop
      vertex -0.1795 -0.0115248147 -0.00774005208
      vertex -0.0795 -0.011871852 -0.00535756805
      vertex -0.0795 -0.0115248147 -0.00619204166
    endloop
  endfacet
  facet normal 1 0 0
    outer loop
      vertex -0.1795 0 0
      vertex -0.1795 -0.011871852 -0.00669696007
      vertex -0.1795 -0.0115248147 -0.00774005208
    endloop
  endfacet
  facet normal -1 0 0
    outer loop
      vertex -0.0795 0 0
      vertex -0.0795 -0.0115248147 -0.00619204166
      vertex -0.0795 -0.011871852 -0.00535756805
    endloop
  endfacet
  facet normal -0.00299686266 0.963863773 0.266378764
    outer loop
      vertex -0.1795 -0.011871852 -0.00669696007
      vertex -0.1795 -0.0121680522 -0.00562519064
      vertex -0.0795 -0.0121680522 -0.00450015251
    endloop
  endfacet
  facet normal -0.00437337175 0.94518046 0.326519175
    outer loop
      vertex -0.1795 -0.011871852 -0.00669696007
      vertex -0.0795 -0.0121680522 -0.00450015251
      vertex -0.0795 -0.011871852 -0.00535756805
    endloop
  endfacet
  facet normal 1 0 0
    outer loop
      vertex -0.1795 0 0
      vertex -0.1795 -0.0121680522 -0.00562519064
      vertex -0.1795 -0.011871852 -0.00669696007
    endloop
  endfacet
  facet normal -1 0 0
    outer loop
      vertex -0.0795 0 0
      vertex -0.0795 -0.011871852 -0.00535756805
      vertex -0.0795 -0.0121680522 -0.00450015251
    endloop
  endfacet
  facet normal -0.00196948579 0.976077374 0.217414536
    outer loop
      vertex -0.1795 -0.0121680522 -0.00562519064
      vertex -0.1795 -0.0124121469 -0.00452933329
      vertex -0.0795 -0.0124121469 -0.00362346663
    endloop
  endfacet
  facet normal -0.00301763286 0.963351584 0.268224941
    outer loop
      vertex -0.1795 -0.0121680522 -0.00562519064
      vertex -0.0795 -0.0124121469 -0.00362346663
      vertex -0.0795 -0.0121680522 -0.00450015251
    endloop
  endfacet
  facet normal 1 0 0
    outer loop
      vertex -0.1795 0 0
      vertex -0.1795 -0.0124121469 -0.00452933329
      vertex -0.1795 -0.0121680522 -0.00562519064
    endloop
  endfacet
  facet normal -1 0 0
    outer loop
      vertex -0.0795 0 0
      vertex -0.0795 -0.0121680522 -0.00450015251
      vertex -0.0795 -0.0124121469 -0.00362346663
    endloop
  endfacet
  facet normal -0.0011522916 0.985657224 0.168755768
    outer loop
      vertex -0.1795 -0.0124121469 -0.00452933329
      vertex -0.1795 -0.0126030909 -0.00341408064
      vertex -0.0795 -0.0126030909 -0.00273126451
    endloop
  endfacet
  facet normal -0.00189575176 0.977855006 0.209274924
    outer loop
      vertex -0.1795 -0.0124121469 -0.00452933329
      vertex -0.0795 -0.0126030909 -0.00273126451
      vertex -0.0795 -0.0124121469 -0.00362346663
    endloop
  endfacet
  facet normal 1 0 0
    outer loop
      vertex -0.1795 0 0
      vertex -0.1795 -0.0126030909 -0.00341408064
      vertex -0.1795 -0.0124121469 -0.00452933329
    endloop
  endfacet
  facet normal -1 0 0
    outer loop
      vertex -0.0795 0 0
      vertex -0.0795 -0.0124121469 -0.00362346663
      vertex -0.0795 -0.0126030909 -0.00273126451
    endloop
  endfacet
  facet normal -0.000549808406 0.992731386 0.12034988
    outer loop
      vertex -0.1795 -0.0126030909 -0.00341408064
      vertex -0.1795 -0.0127400665 -0.00228420836
      vertex -0.0795 -0.0127400665 -0.00182736669
    endloop
  endfacet
  facet normal -0.00102305101 0.988711519 0.149828184
    outer loop
      vertex -0.1795 -0.0126030909 -0.00341408064
      vertex -0.0795 -0.0127400665 -0.00182736669
      vertex -0.0795 -0.0126030909 -0.00273126451
    endloop
  endfacet
  facet normal 1 0 0
    outer loop
      vertex -0.1795 0 0
      vertex -0.1795 -0.0127400665 -0.00228420836
      vertex -0.1795 -0.0126030909 -0.00341408064
    endloop
  endfacet
  facet normal -1 0 0
    outer loop
      vertex -0.0795 0 0
      vertex -0.0795 -0.0126030909 -0.00273126451
      vertex -0.0795 -0.0127400665 -0.00182736669
    endloop
  endfacet
  facet normal -0.000165119051 0.997395049 0.0721324383
    outer loop
      vertex -0.1795 -0.0127400665 -0.00228420836
      vertex -0.1795 -0.0128224872 -0.00114455476
      vertex -0.0795 -0.0128224872 -0.000915643809
    endloop
  endfacet
  facet normal -0.000411312306 0.995938618 0.0900338849
    outer loop
      vertex -0.1795 -0.0127400665 -0.00228420836
      vertex -0.0795 -0.0128224872 -0.000915643809
      vertex -0.0795 -0.0127400665 -0.00182736669
    endloop
  endfacet
  facet normal 1 0 0
    outer loop
      vertex -0.1795 0 0
      vertex -0.1795 -0.0128224872 -0.00114455476
      vertex -0.1795 -0.0127400665 -0.00228420836
    endloop
  endfacet
  facet normal -1 0 0
    outer loop
      vertex -0.0795 0 0
      vertex -0.0795 -0.0127400665 -0.00182736669
      vertex -0.0795 -0.0128224872 -0.000915643809
    endloop
  endfacet
  facet normal -1.73400192e-19 0.999711212 0.0240310835
    outer loop
      vertex -0.1795 -0.0128224872 -0.00114455476
      vertex -0.1795 -0.01285 -3.21469785e-18
      vertex -0.0795 -0.01285 -2.57175828e-18
    endloop
  endfacet
  facet normal -6.87510617e-05 0.999548876 0.0300339765
    outer loop
      vertex -0.1795 -0.0128224872 -0.00114455476
      vertex -0.0795 -0.01285 -2.57175828e-18
      vertex -0.0795 -0.0128224872 -0.000915643809
    endloop
  endfacet
  facet normal 1 0 0
    outer loop
      vertex -0.1795 0 0
      vertex -0.1795 -0.01285 -3.21469785e-18
      vertex -0.1795 -0.0128224872 -0.00114455476
    endloop
  endfacet
  facet normal -1 0 0
    outer loop
      vertex -0.0795 0 0
      vertex -0.0795 -0.0128224872 -0.000915643809
      vertex -0.0795 -0.01285 -2.57175828e-18
    endloop
  endfacet
  facet normal -5.50097819e-05 0.99971121 -0.0240310834
    outer loop
      vertex -0.1795 -0.01285 -3.21469785e-18
      vertex -0.1795 -0.0128224872 0.00114455476
      vertex -0.0795 -0.0128224872 0.000915643809
    endloop
  endfacet
  facet normal 1.9310032e-19 0.999548878 -0.0300339766
    outer loop
      vertex -0.1795 -0.01285 -3.21469785e-18
      vertex -0.0795 -0.0128224872 0.000915643809
      vertex -0.0795 -0.01285 -2.57175828e-18
    endloop
  endfacet
  facet normal 1 0 0
    outer loop
      vertex -0.1795 0 0
      vertex -0.1795 -0.0128224872 0.00114455476
      vertex -0.1795 -0.01285 -3.21469785e-18
    endloop
  endfacet
  facet normal -1 -0 0
    outer loop
      vertex -0.0795 0 0
      vertex -0.0795 -0.01285 -2.57175828e-18
      vertex -0.0795 -0.0128224872 0.000915643809
    endloop
  endfacet
  facet normal -0.000329531024 0.997395009 -0.0721324353
    outer loop
      vertex -0.1795 -0.0128224872 0.00114455476
      vertex -0.1795 -0.0127400665 0.00228420836
      vertex -0.0795 -0.0127400665 0.00182736669
    endloop
  endfacet
  facet normal -0.000206097436 0.995938681 -0.0900338906
    outer loop
      vertex -0.1795 -0.0128224872 0.00114455476
      vertex -0.0795 -0.0127400665 0.00182736669
      vertex -0.0795 -0.0128224872 0.000915643809
    endloop
  endfacet
  facet normal 1 0 0
    outer loop
      vertex -0.1795 0 0
      vertex -0.1795 -0.0127400665 0.00228420836
      vertex -0.1795 -0.0128224872 0.00114455476
    endloop
  endfacet
  facet normal -1 0 0
    outer loop
      vertex -0.0795 0 0
      vertex -0.0795 -0.0128224872 0.000915643809
      vertex -0.0795 -0.0127400665 0.00182736669
    endloop
  endfacet
  facet normal -0.000821768238 0.9927312 -0.120349858
    outer loop
      vertex -0.1795 -0.0127400665 0.00228420836
      vertex -0.1795 -0.0126030909 0.00341408064
      vertex -0.0795 -0.0126030909 0.00273126451
    endloop
  endfacet
  facet normal -0.000684477782 0.988711805 -0.149828228
    outer loop
      vertex -0.1795 -0.0127400665 0.00228420836
      vertex -0.0795 -0.0126030909 0.00273126451
      vertex -0.0795 -0.0127400665 0.00182736669
    endloop
  endfacet
  facet normal 1 0 0
    outer loop
      vertex -0.1795 0 0
      vertex -0.1795 -0.0126030909 0.00341408064
      vertex -0.1795 -0.0127400665 0.00228420836
    endloop
  endfacet
  facet normal -1 0 0
    outer loop
      vertex -0.0795 0 0
      vertex -0.0795 -0.0127400665 0.00182736669
      vertex -0.0795 -0.0126030909 0.00273126451
    endloop
  endfacet
  facet normal -0.00152870147 0.985656726 -0.168755683
    outer loop
      vertex -0.1795 -0.0126030909 0.00341408064
      vertex -0.1795 -0.0124121469 0.00452933329
      vertex -0.0795 -0.0124121469 0.00362346663
    endloop
  endfacet
  facet normal -0.00142896404 0.977855764 -0.209275087
    outer loop
      vertex -0.1795 -0.0126030909 0.00341408064
      vertex -0.0795 -0.0124121469 0.00362346663
      vertex -0.0795 -0.0126030909 0.00273126451
    endloop
  endfacet
  facet normal 1 0 0
    outer loop
      vertex -0.1795 0 0
      vertex -0.1795 -0.0124121469 0.00452933329
      vertex -0.1795 -0.0126030909 0.00341408064
    endloop
  endfacet
  facet normal -1 0 0
    outer loop
      vertex -0.0795 0 0
      vertex -0.0795 -0.0126030909 0.00273126451
      vertex -0.0795 -0.0124121469 0.00362346663
    endloop
  endfacet
  facet normal -0.00244599385 0.976076348 -0.217414307
    outer loop
      vertex -0.1795 -0.0124121469 0.00452933329
      vertex -0.1795 -0.0121680522 0.00562519064
      vertex -0.0795 -0.0121680522 0.00450015251
    endloop
  endfacet
  facet normal -0.0024297642 0.963353127 -0.268225371
    outer loop
      vertex -0.1795 -0.0124121469 0.00452933329
      vertex -0.0795 -0.0121680522 0.00450015251
      vertex -0.0795 -0.0124121469 0.00362346663
    endloop
  endfacet
  facet normal 1 0 0
    outer loop
      vertex -0.1795 0 0
      vertex -0.1795 -0.0121680522 0.00562519064
      vertex -0.1795 -0.0124121469 0.00452933329
    endloop
  endfacet
  facet normal -1 0 0
    outer loop
      vertex -0.0795 0 0
      vertex -0.0795 -0.0124121469 0.00362346663
      vertex -0.0795 -0.0121680522 0.00450015251
    endloop
  endfacet
  facet normal -0.00356784921 0.963861966 -0.266378265
    outer loop
      vertex -0.1795 -0.0121680522 0.00562519064
      vertex -0.1795 -0.011871852 0.00669696007
      vertex -0.0795 -0.011871852 0.00535756805
    endloop
  endfacet
  facet normal -0.00367347556 0.945183122 -0.326520094
    outer loop
      vertex -0.1795 -0.0121680522 0.00562519064
      vertex -0.0795 -0.011871852 0.00535756805
      vertex -0.0795 -0.0121680522 0.00450015251
    endloop
  endfacet
  facet normal 1 0 0
    outer loop
      vertex -0.1795 0 0
      vertex -0.1795 -0.011871852 0.00669696007
      vertex -0.1795 -0.0121680522 0.00562519064
    endloop
  endfacet
  facet normal -1 0 0
    outer loop
      vertex -0.0795 0 0
      vertex -0.0795 -0.0121680522 0.00450015251
      vertex -0.0795 -0.011871852 0.00535756805
    endloop
  endfacet
  facet normal -0.00488681415 0.948851948 -0.315683545
    outer loop
      vertex -0.1795 -0.011871852 0.00669696007
      vertex -0.1795 -0.0115248147 0.00774005208
      vertex -0.0795 -0.0115248147 0.00619204166
    endloop
  endfacet
  facet normal -0.00514310322 0.923323802 -0.383987897
    outer loop
      vertex -0.1795 -0.011871852 0.00669696007
      vertex -0.0795 -0.0115248147 0.00619204166
      vertex -0.0795 -0.011871852 0.00535756805
    endloop
  endfacet
  facet normal 1 0 0
    outer loop
      vertex -0.1795 0 0
      vertex -0.1795 -0.0115248147 0.00774005208
      vertex -0.1795 -0.011871852 0.00669696007
    endloop
  endfacet
  facet normal -1 0 0
    outer loop
      vertex -0.0795 0 0
      vertex -0.0795 -0.011871852 0.00535756805
      vertex -0.0795 -0.0115248147 0.00619204166
    endloop
  endfacet
  facet normal -0.00639351811 0.930850667 -0.365343892
    outer loop
      vertex -0.1795 -0.0115248147 0.00774005208
      vertex -0.1795 -0.0111284264 0.00875
      vertex -0.0795 -0.0111284264 0.007
    endloop
  endfacet
  facet normal -0.00681810122 0.897754759 -0.440442852
    outer loop
      vertex -0.1795 -0.0115248147 0.00774005208
      vertex -0.0795 -0.0111284264 0.007
      vertex -0.0795 -0.0115248147 0.00619204166
    endloop
  endfacet
  facet normal 1 0 0
    outer loop
      vertex -0.1795 0 0
      vertex -0.1795 -0.0111284264 0.00875
      vertex -0.1795 -0.0115248147 0.00774005208
    endloop
  endfacet
  facet normal -1 0 0
    outer loop
      vertex -0.0795 0 0
      vertex -0.0795 -0.0115248147 0.00619204166
      vertex -0.0795 -0.0111284264 0.007
    endloop
  endfacet
  facet normal -0.0080763445 0.909628621 -0.415343887
    outer loop
      vertex -0.1795 -0.0111284264 0.00875
      vertex -0.1795 -0.0106843845 0.00972247908
      vertex -0.0795 -0.0106843845 0.00777798326
    endloop
  endfacet
  facet normal -0.00867444669 0.868460389 -0.495682668
    outer loop
      vertex -0.1795 -0.0111284264 0.00875
      vertex -0.0795 -0.0106843845 0.00777798326
      vertex -0.0795 -0.0111284264 0.007
    endloop
  endfacet
  facet normal 1 0 0
    outer loop
      vertex -0.1795 0 0
      vertex -0.1795 -0.0106843845 0.00972247908
      vertex -0.1795 -0.0111284264 0.00875
    endloop
  endfacet
  facet normal -1 0 0
    outer loop
      vertex -0.0795 0 0
      vertex -0.0795 -0.0111284264 0.007
      vertex -0.0795 -0.0106843845 0.00777798326
    endloop
  endfacet
  facet normal -0.00992102803 0.884923571 -0.46563059
    outer loop
      vertex -0.1795 -0.0106843845 0.00972247908
      vertex -0.1795 -0.0101945904 0.010653325
      vertex -0.0795 -0.0101945904 0.00852266001
    endloop
  endfacet
  facet normal -0.0106847594 0.835433682 -0.549487396
    outer loop
      vertex -0.1795 -0.0106843845 0.00972247908
      vertex -0.0795 -0.0101945904 0.00852266001
      vertex -0.0795 -0.0106843845 0.00777798326
    endloop
  endfacet
  facet normal 1 0 0
    outer loop
      vertex -0.1795 0 0
      vertex -0.1795 -0.0101945904 0.010653325
      vertex -0.1795 -0.0106843845 0.00972247908
    endloop
  endfacet
  facet normal -1 0 0
    outer loop
      vertex -0.0795 0 0
      vertex -0.0795 -0.0106843845 0.00777798326
      vertex -0.0795 -0.0101945904 0.00852266001
    endloop
  endfacet
  facet normal -0.0119101771 0.856443332 -0.516103639
    outer loop
      vertex -0.1795 -0.0101945904 0.010653325
      vertex -0.1795 -0.00966114153 0.0115385518
      vertex -0.0795 -0.00966114153 0.00923084141
    endloop
  endfacet
  facet normal -0.0128184807 0.798680497 -0.601618775
    outer loop
      vertex -0.1795 -0.0101945904 0.010653325
      vertex -0.0795 -0.00966114153 0.00923084141
      vertex -0.0795 -0.0101945904 0.00852266001
    endloop
  endfacet
  facet normal 1 0 0
    outer loop
      vertex -0.1795 0 0
      vertex -0.1795 -0.00966114153 0.0115385518
      vertex -0.1795 -0.0101945904 0.010653325
    endloop
  endfacet
  facet normal -1 0 0
    outer loop
      vertex -0.0795 0 0
      vertex -0.0795 -0.0101945904 0.00852266001
      vertex -0.0795 -0.00966114153 0.00923084141
    endloop
  endfacet
  facet normal -0.0140227289 0.823871036 -0.566603811
    outer loop
      vertex -0.1795 -0.00966114153 0.0115385518
      vertex -0.1795 -0.00908632214 0.0123743687
      vertex -0.0795 -0.00908632214 0.00989949494
    endloop
  endfacet
  facet normal -0.0150421258 0.758224214 -0.651820356
    outer loop
      vertex -0.1795 -0.00966114153 0.0115385518
      vertex -0.0795 -0.00908632214 0.00989949494
      vertex -0.0795 -0.00966114153 0.00923084141
    endloop
  endfacet
  facet normal 1 0 0
    outer loop
      vertex -0.1795 0 0
      vertex -0.1795 -0.00908632214 0.0123743687
      vertex -0.1795 -0.00966114153 0.0115385518
    endloop
  endfacet
  facet normal -1 0 0
    outer loop
      vertex -0.0795 0 0
      vertex -0.0795 -0.00966114153 0.00923084141
      vertex -0.0795 -0.00908632214 0.00989949494
    endloop
  endfacet
  facet normal -0.0162333582 0.786873844 -0.616900342
    outer loop
      vertex -0.1795 -0.00908632214 0.0123743687
      vertex -0.1795 -0.00847259372 0.0131571966
      vertex -0.0795 -0.00847259372 0.0105257573
    endloop
  endfacet
  facet normal -0.017319625 0.714110673 -0.699818532
    outer loop
      vertex -0.1795 -0.00908632214 0.0123743687
      vertex -0.0795 -0.00847259372 0.0105257573
      vertex -0.0795 -0.00908632214 0.00989949494
    endloop
  endfacet
  facet normal 1 0 0
    outer loop
      vertex -0.1795 0 0
      vertex -0.1795 -0.00847259372 0.0131571966
      vertex -0.1795 -0.00908632214 0.0123743687
    endloop
  endfacet
  facet normal -1 0 0
    outer loop
      vertex -0.0795 0 0
      vertex -0.0795 -0.00908632214 0.00989949494
      vertex -0.0795 -0.00847259372 0.0105257573
    endloop
  endfacet
  facet normal -0.0185118831 0.745116242 -0.666677655
    outer loop
      vertex -0.1795 -0.00847259372 0.0131571966
      vertex -0.1795 -0.00782258436 0.0138836835
      vertex -0.0795 -0.00782258436 0.0111069468
    endloop
  endfacet
  facet normal -0.0196127652 0.666413194 -0.745324623
    outer loop
      vertex -0.1795 -0.00847259372 0.0131571966
      vertex -0.0795 -0.00782258436 0.0111069468
      vertex -0.0795 -0.00847259372 0.0105257573
    endloop
  endfacet
  facet normal 1 0 0
    outer loop
      vertex -0.1795 0 0
      vertex -0.1795 -0.00782258436 0.0138836835
      vertex -0.1795 -0.00847259372 0.0131571966
    endloop
  endfacet
  facet normal -1 0 0
    outer loop
      vertex -0.0795 0 0
      vertex -0.0795 -0.00847259372 0.0105257573
      vertex -0.0795 -0.00782258436 0.0111069468
    endloop
  endfacet
  facet normal -0.0208227392 0.698279056 -0.715522727
    outer loop
      vertex -0.1795 -0.00782258436 0.0138836835
      vertex -0.1795 -0.00713907749 0.0145507182
      vertex -0.0795 -0.00713907749 0.0116405746
    endloop
  endfacet
  facet normal -0.0218817429 0.615237476 -0.788038094
    outer loop
      vertex -0.1795 -0.00782258436 0.0138836835
      vertex -0.0795 -0.00713907749 0.0116405746
      vertex -0.0795 -0.00782258436 0.0111069468
    endloop
  endfacet
  facet normal 1 0 0
    outer loop
      vertex -0.1795 0 0
      vertex -0.1795 -0.00713907749 0.0145507182
      vertex -0.1795 -0.00782258436 0.0138836835
    endloop
  endfacet
  facet normal -1 0 0
    outer loop
      vertex -0.0795 0 0
      vertex -0.0795 -0.00782258436 0.0111069468
      vertex -0.0795 -0.00713907749 0.0116405746
    endloop
  endfacet
  facet normal -0.0231246325 0.646085079 -0.762915017
    outer loop
      vertex -0.1795 -0.00713907749 0.0145507182
      vertex -0.1795 -0.006425 0.0151554446
      vertex -0.0795 -0.006425 0.0121243557
    endloop
  endfacet
  facet normal -0.0240858321 0.560726088 -0.827650969
    outer loop
      vertex -0.1795 -0.00713907749 0.0145507182
      vertex -0.0795 -0.006425 0.0121243557
      vertex -0.0795 -0.00713907749 0.0116405746
    endloop
  endfacet
  facet normal 1 0 0
    outer loop
      vertex -0.1795 0 0
      vertex -0.1795 -0.006425 0.0151554446
      vertex -0.1795 -0.00713907749 0.0145507182
    endloop
  endfacet
  facet normal -1 0 0
    outer loop
      vertex -0.0795 0 0
      vertex -0.0795 -0.00713907749 0.0116405746
      vertex -0.0795 -0.006425 0.0121243557
    endloop
  endfacet
  facet normal -0.0253705196 0.588331594 -0.808221673
    outer loop
      vertex -0.1795 -0.006425 0.0151554446
      vertex -0.1795 -0.00568340967 0.015695273
      vertex -0.0795 -0.00568340967 0.0125562184
    endloop
  endfacet
  facet normal -0.0261841657 0.503062252 -0.863853436
    outer loop
      vertex -0.1795 -0.006425 0.0151554446
      vertex -0.0795 -0.00568340967 0.0125562184
      vertex -0.0795 -0.006425 0.0121243557
    endloop
  endfacet
  facet normal 1 0 0
    outer loop
      vertex -0.1795 0 0
      vertex -0.1795 -0.00568340967 0.015695273
      vertex -0.1795 -0.006425 0.0151554446
    endloop
  endfacet
  facet normal -1 0 0
    outer loop
      vertex -0.0795 0 0
      vertex -0.0795 -0.006425 0.0121243557
      vertex -0.0795 -0.00568340967 0.0125562184
    endloop
  endfacet
  facet normal -0.0275080976 0.524928919 -0.850701437
    outer loop
      vertex -0.1795 -0.00568340967 0.015695273
      vertex -0.1795 -0.00491748211 0.0161678918
      vertex -0.0795 -0.00491748211 0.0129343135
    endloop
  endfacet
  facet normal -0.0281366187 0.442472574 -0.896340534
    outer loop
      vertex -0.1795 -0.00568340967 0.015695273
      vertex -0.0795 -0.00491748211 0.0129343135
      vertex -0.0795 -0.00568340967 0.0125562184
    endloop
  endfacet
  facet normal 1 0 0
    outer loop
      vertex -0.1795 0 0
      vertex -0.1795 -0.00491748211 0.0161678918
      vertex -0.1795 -0.00568340967 0.015695273
    endloop
  endfacet
  facet normal -1 0 0
    outer loop
      vertex -0.0795 0 0
      vertex -0.0795 -0.00568340967 0.0125562184
      vertex -0.0795 -0.00491748211 0.0129343135
    endloop
  endfacet
  facet normal -0.029480995 0.455942359 -0.889520902
    outer loop
      vertex -0.1795 -0.00491748211 0.0161678918
      vertex -0.1795 -0.00413049713 0.0165712773
      vertex -0.0795 -0.00413049713 0.0132570218
    endloop
  endfacet
  facet normal -0.0299047705 0.379228402 -0.924819725
    outer loop
      vertex -0.1795 -0.00491748211 0.0161678918
      vertex -0.0795 -0.00413049713 0.0132570218
      vertex -0.0795 -0.00491748211 0.0129343135
    endloop
  endfacet
  facet normal 1 0 0
    outer loop
      vertex -0.1795 0 0
      vertex -0.1795 -0.00413049713 0.0165712773
      vertex -0.1795 -0.00491748211 0.0161678918
    endloop
  endfacet
  facet normal -1 0 0
    outer loop
      vertex -0.0795 0 0
      vertex -0.0795 -0.00491748211 0.0129343135
      vertex -0.0795 -0.00413049713 0.0132570218
    endloop
  endfacet
  facet normal -0.0312308153 0.38163278 -0.923786262
    outer loop
      vertex -0.1795 -0.00413049713 0.0165712773
      vertex -0.1795 -0.00332582473 0.016903702
      vertex -0.0795 -0.00332582473 0.0135229616
    endloop
  endfacet
  facet normal -0.0314529163 0.313645528 -0.949019071
    outer loop
      vertex -0.1795 -0.00413049713 0.0165712773
      vertex -0.0795 -0.00332582473 0.0135229616
      vertex -0.0795 -0.00413049713 0.0132570218
    endloop
  endfacet
  facet normal 1 0 0
    outer loop
      vertex -0.1795 0 0
      vertex -0.1795 -0.00332582473 0.016903702
      vertex -0.1795 -0.00413049713 0.0165712773
    endloop
  endfacet
  facet normal -1 0 0
    outer loop
      vertex -0.0795 0 0
      vertex -0.0795 -0.00413049713 0.0132570218
      vertex -0.0795 -0.00332582473 0.0135229616
    endloop
  endfacet
  facet normal -0.0327000814 0.302488877 -0.952591824
    outer loop
      vertex -0.1795 -0.00332582473 0.016903702
      vertex -0.1795 -0.00250691064 0.0171637424
      vertex -0.0795 -0.00250691064 0.0137309939
    endloop
  endfacet
  facet normal -0.032749083 0.246082011 -0.968695587
    outer loop
      vertex -0.1795 -0.00332582473 0.016903702
      vertex -0.0795 -0.00250691064 0.0137309939
      vertex -0.0795 -0.00332582473 0.0135229616
    endloop
  endfacet
  facet normal 1 0 0
    outer loop
      vertex -0.1795 0 0
      vertex -0.1795 -0.00250691064 0.0171637424
      vertex -0.1795 -0.00332582473 0.016903702
    endloop
  endfacet
  facet normal -1 0 0
    outer loop
      vertex -0.0795 0 0
      vertex -0.0795 -0.00332582473 0.0135229616
      vertex -0.0795 -0.00250691064 0.0137309939
    endloop
  endfacet
  facet normal -0.0338359507 0.219242894 -0.975083423
    outer loop
      vertex -0.1795 -0.00250691064 0.0171637424
      vertex -0.1795 -0.00167726157 0.0173502851
      vertex -0.0795 -0.00167726157 0.0138802281
    endloop
  endfacet
  facet normal -0.0337660015 0.176934039 -0.983643331
    outer loop
      vertex -0.1795 -0.00250691064 0.0171637424
      vertex -0.0795 -0.00167726157 0.0138802281
      vertex -0.0795 -0.00250691064 0.0137309939
    endloop
  endfacet
  facet normal 1 0 0
    outer loop
      vertex -0.1795 0 0
      vertex -0.1795 -0.00167726157 0.0173502851
      vertex -0.1795 -0.00250691064 0.0171637424
    endloop
  endfacet
  facet normal -1 0 0
    outer loop
      vertex -0.0795 0 0
      vertex -0.0795 -0.00250691064 0.0137309939
      vertex -0.0795 -0.00167726157 0.0138802281
    endloop
  endfacet
  facet normal -0.0345943433 0.132862111 -0.990530611
    outer loop
      vertex -0.1795 -0.00167726157 0.0173502851
      vertex -0.1795 -0.000840430211 0.0174625312
      vertex -0.0795 -0.000840430211 0.0139700249
    endloop
  endfacet
  facet normal -0.0344819806 0.106629857 -0.993700693
    outer loop
      vertex -0.1795 -0.00167726157 0.0173502851
      vertex -0.0795 -0.000840430211 0.0139700249
      vertex -0.0795 -0.00167726157 0.0138802281
    endloop
  endfacet
  facet normal 1 0 0
    outer loop
      vertex -0.1795 0 0
      vertex -0.1795 -0.000840430211 0.0174625312
      vertex -0.1795 -0.00167726157 0.0173502851
    endloop
  endfacet
  facet normal -1 0 0
    outer loop
      vertex -0.0795 0 0
      vertex -0.0795 -0.00167726157 0.0138802281
      vertex -0.0795 -0.000840430211 0.0139700249
    endloop
  endfacet
  facet normal -0.0349439139 0.0445114902 -0.998397541
    outer loop
      vertex -0.1795 -0.000840430211 0.0174625312
      vertex -0.1795 0 0.0175
      vertex -0.0795 0 0.014
    endloop
  endfacet
  facet normal -0.0348816295 0.0356219913 -0.9987564
    outer loop
      vertex -0.1795 -0.000840430211 0.0174625312
      vertex -0.0795 0 0.014
      vertex -0.0795 -0.000840430211 0.0139700249
    endloop
  endfacet
  facet normal 1 0 -0
    outer loop
      vertex -0.1795 0 0
      vertex -0.1795 0 0.0175
      vertex -0.1795 -0.000840430211 0.0174625312
    endloop
  endfacet
  facet normal -1 0 0
    outer loop
      vertex -0.0795 0 0
      vertex -0.0795 -0.000840430211 0.0139700249
      vertex -0.0795 0 0.014
    endloop
  endfacet
endsolid h5002_handle_hitter_frame
