#usda 1.0
(
    defaultPrim = "g1"
    metersPerUnit = 1
    upAxis = "Z"
)

def Xform "g1" (
    prepend references = @../../../../../../../cache/g1_usd_hitter/main.usd@
)
{
    def Scope "Looks"
    {
        def Material "ConnectorWhite"
        {
            token outputs:surface.connect = </g1/Looks/ConnectorWhite/PreviewSurface.outputs:surface>

            def Shader "PreviewSurface"
            {
                uniform token info:id = "UsdPreviewSurface"
                color3f inputs:diffuseColor = (0.7, 0.7, 0.7)
                float inputs:metallic = 0
                float inputs:roughness = 0.55
                token outputs:surface
            }
        }
    }

    over "right_wrist_yaw_link"
    {
        over "right_rubber_hand" (
            active = false
        )
        {
        }

        over "visuals" (
            active = false
        )
        {
        }

        def Xform "connector_visuals" (
            prepend references = @../../../../../../../cache/g1_usd_hitter/configuration/main_base.usd@</visuals/right_wrist_yaw_link/right_wrist_yaw_link>
        )
        {
            over "mesh"
            {
                rel material:binding = </g1/Looks/ConnectorWhite>
                color3f[] primvars:displayColor = [(0.7, 0.7, 0.7)] (
                    interpolation = "constant"
                )
            }
        }
    }

    over "left_ankle_roll_link"
    {
        over "collisions" (
            active = false
        )
        {
        }

        def Xform "mujoco_foot_collisions"
        {
            def Sphere "heel_left" (
                prepend apiSchemas = ["PhysicsCollisionAPI"]
            )
            {
                float3[] extent = [(-0.005, -0.005, -0.005), (0.005, 0.005, 0.005)]
                bool physics:collisionEnabled = 1
                double radius = 0.005
                double3 xformOp:translate = (-0.05, 0.025, -0.03)
                uniform token[] xformOpOrder = ["xformOp:translate"]
            }

            def Sphere "heel_right" (
                prepend apiSchemas = ["PhysicsCollisionAPI"]
            )
            {
                float3[] extent = [(-0.005, -0.005, -0.005), (0.005, 0.005, 0.005)]
                bool physics:collisionEnabled = 1
                double radius = 0.005
                double3 xformOp:translate = (-0.05, -0.025, -0.03)
                uniform token[] xformOpOrder = ["xformOp:translate"]
            }

            def Sphere "toe_left" (
                prepend apiSchemas = ["PhysicsCollisionAPI"]
            )
            {
                float3[] extent = [(-0.005, -0.005, -0.005), (0.005, 0.005, 0.005)]
                bool physics:collisionEnabled = 1
                double radius = 0.005
                double3 xformOp:translate = (0.12, 0.03, -0.03)
                uniform token[] xformOpOrder = ["xformOp:translate"]
            }

            def Sphere "toe_right" (
                prepend apiSchemas = ["PhysicsCollisionAPI"]
            )
            {
                float3[] extent = [(-0.005, -0.005, -0.005), (0.005, 0.005, 0.005)]
                bool physics:collisionEnabled = 1
                double radius = 0.005
                double3 xformOp:translate = (0.12, -0.03, -0.03)
                uniform token[] xformOpOrder = ["xformOp:translate"]
            }
        }
    }

    over "right_ankle_roll_link"
    {
        over "collisions" (
            active = false
        )
        {
        }

        def Xform "mujoco_foot_collisions"
        {
            def Sphere "heel_left" (
                prepend apiSchemas = ["PhysicsCollisionAPI"]
            )
            {
                float3[] extent = [(-0.005, -0.005, -0.005), (0.005, 0.005, 0.005)]
                bool physics:collisionEnabled = 1
                double radius = 0.005
                double3 xformOp:translate = (-0.05, 0.025, -0.03)
                uniform token[] xformOpOrder = ["xformOp:translate"]
            }

            def Sphere "heel_right" (
                prepend apiSchemas = ["PhysicsCollisionAPI"]
            )
            {
                float3[] extent = [(-0.005, -0.005, -0.005), (0.005, 0.005, 0.005)]
                bool physics:collisionEnabled = 1
                double radius = 0.005
                double3 xformOp:translate = (-0.05, -0.025, -0.03)
                uniform token[] xformOpOrder = ["xformOp:translate"]
            }

            def Sphere "toe_left" (
                prepend apiSchemas = ["PhysicsCollisionAPI"]
            )
            {
                float3[] extent = [(-0.005, -0.005, -0.005), (0.005, 0.005, 0.005)]
                bool physics:collisionEnabled = 1
                double radius = 0.005
                double3 xformOp:translate = (0.12, 0.03, -0.03)
                uniform token[] xformOpOrder = ["xformOp:translate"]
            }

            def Sphere "toe_right" (
                prepend apiSchemas = ["PhysicsCollisionAPI"]
            )
            {
                float3[] extent = [(-0.005, -0.005, -0.005), (0.005, 0.005, 0.005)]
                bool physics:collisionEnabled = 1
                double radius = 0.005
                double3 xformOp:translate = (0.12, -0.03, -0.03)
                uniform token[] xformOpOrder = ["xformOp:translate"]
            }
        }
    }

    def Xform "right_racket_link" (
        prepend apiSchemas = ["PhysicsRigidBodyAPI", "PhysicsMassAPI"]
    )
    {
        float3 physics:angularVelocity = (0, 0, 0)
        point3f physics:centerOfMass = (-0.035, 0, 0)
        float physics:density = 0
        vector3f physics:diagonalInertia = (0.00013, 0.00024, 0.00016)
        bool physics:kinematicEnabled = 0
        float physics:mass = 0.18
        quatf physics:principalAxes = (1, 0, 0, 0)
        bool physics:rigidBodyEnabled = 1
        bool physics:startsAsleep = 0
        float3 physics:velocity = (0, 0, 0)
        quatf xformOp:orient = (1, 0, 0, 0)
        double3 xformOp:scale = (1, 1, 1)
        double3 xformOp:translate = (0.431274495091629, -0.148651704192162, 0.095232829451561)
        uniform token[] xformOpOrder = ["xformOp:translate", "xformOp:orient", "xformOp:scale"]

        def Xform "visuals"
        {
            def Mesh "h5002_head_visual_exact_bounds"
            {
                uniform token subdivisionScheme = "none"
                float3[] extent = [(-0.0795, -0.00685, -0.0745), (0.0795, 0.00685, 0.0745)]
                point3f[] points = [
                    (0.0795, -0.00685, 0),
                    (0.0795, 0.00685, 0),
                    (0.0793297844, 0.00685, 0.00487253313),
                    (0.0793297844, -0.00685, 0.00487253313),
                    (0, -0.00685, 0),
                    (0, 0.00685, 0),
                    (0.0788198665, 0.00685, 0.00972420132),
                    (0.0788198665, -0.00685, 0.00972420132),
                    (0.0779724298, 0.00685, 0.014534229),
                    (0.0779724298, -0.00685, 0.014534229),
                    (0.0767911032, 0.00685, 0.0192820189),
                    (0.0767911032, -0.00685, 0.0192820189),
                    (0.0752809453, 0.00685, 0.0239472402),
                    (0.0752809453, -0.00685, 0.0239472402),
                    (0.0734484228, 0.00685, 0.0285099157),
                    (0.0734484228, -0.00685, 0.0285099157),
                    (0.071301383, 0.00685, 0.0329505074),
                    (0.071301383, -0.00685, 0.0329505074),
                    (0.0688490196, 0.00685, 0.03725),
                    (0.0688490196, -0.00685, 0.03725),
                    (0.0661018342, 0.00685, 0.0413899824),
                    (0.0661018342, -0.00685, 0.0413899824),
                    (0.0630715906, 0.00685, 0.0453527265),
                    (0.0630715906, -0.00685, 0.0453527265),
                    (0.0597712647, 0.00685, 0.0491212632),
                    (0.0597712647, -0.00685, 0.0491212632),
                    (0.0562149891, 0.00685, 0.0526794552),
                    (0.0562149891, -0.00685, 0.0526794552),
                    (0.0524179923, 0.00685, 0.0560120657),
                    (0.0524179923, -0.00685, 0.0560120657),
                    (0.0483965336, 0.00685, 0.0591048239),
                    (0.0483965336, -0.00685, 0.0591048239),
                    (0.0441678335, 0.00685, 0.0619444861),
                    (0.0441678335, -0.00685, 0.0619444861),
                    (0.03975, 0.00685, 0.0645188926),
                    (0.03975, -0.00685, 0.0645188926),
                    (0.0351619509, 0.00685, 0.0668170192),
                    (0.0351619509, -0.00685, 0.0668170192),
                    (0.0304233329, 0.00685, 0.0688290252),
                    (0.0304233329, -0.00685, 0.0688290252),
                    (0.0255544375, 0.00685, 0.0705462946),
                    (0.0255544375, -0.00685, 0.0705462946),
                    (0.0205761141, 0.00685, 0.0719614741),
                    (0.0205761141, -0.00685, 0.0719614741),
                    (0.0155096806, 0.00685, 0.0730685034),
                    (0.0155096806, -0.00685, 0.0730685034),
                    (0.0103768323, 0.00685, 0.0738626422),
                    (0.0103768323, -0.00685, 0.0738626422),
                    (0.00519954877, 0.00685, 0.0743404898),
                    (0.00519954877, -0.00685, 0.0743404898),
                    (4.86797103e-18, 0.00685, 0.0745),
                    (4.86797103e-18, -0.00685, 0.0745),
                    (-0.00519954877, 0.00685, 0.0743404898),
                    (-0.00519954877, -0.00685, 0.0743404898),
                    (-0.0103768323, 0.00685, 0.0738626422),
                    (-0.0103768323, -0.00685, 0.0738626422),
                    (-0.0155096806, 0.00685, 0.0730685034),
                    (-0.0155096806, -0.00685, 0.0730685034),
                    (-0.0205761141, 0.00685, 0.0719614741),
                    (-0.0205761141, -0.00685, 0.0719614741),
                    (-0.0255544375, 0.00685, 0.0705462946),
                    (-0.0255544375, -0.00685, 0.0705462946),
                    (-0.0304233329, 0.00685, 0.0688290252),
                    (-0.0304233329, -0.00685, 0.0688290252),
                    (-0.0351619509, 0.00685, 0.0668170192),
                    (-0.0351619509, -0.00685, 0.0668170192),
                    (-0.03975, 0.00685, 0.0645188926),
                    (-0.03975, -0.00685, 0.0645188926),
                    (-0.0441678335, 0.00685, 0.0619444861),
                    (-0.0441678335, -0.00685, 0.0619444861),
                    (-0.0483965336, 0.00685, 0.0591048239),
                    (-0.0483965336, -0.00685, 0.0591048239),
                    (-0.0524179923, 0.00685, 0.0560120657),
                    (-0.0524179923, -0.00685, 0.0560120657),
                    (-0.0562149891, 0.00685, 0.0526794552),
                    (-0.0562149891, -0.00685, 0.0526794552),
                    (-0.0597712647, 0.00685, 0.0491212632),
                    (-0.0597712647, -0.00685, 0.0491212632),
                    (-0.0630715906, 0.00685, 0.0453527265),
                    (-0.0630715906, -0.00685, 0.0453527265),
                    (-0.0661018342, 0.00685, 0.0413899824),
                    (-0.0661018342, -0.00685, 0.0413899824),
                    (-0.0688490196, 0.00685, 0.03725),
                    (-0.0688490196, -0.00685, 0.03725),
                    (-0.071301383, 0.00685, 0.0329505074),
                    (-0.071301383, -0.00685, 0.0329505074),
                    (-0.0734484228, 0.00685, 0.0285099157),
                    (-0.0734484228, -0.00685, 0.0285099157),
                    (-0.0752809453, 0.00685, 0.0239472402),
                    (-0.0752809453, -0.00685, 0.0239472402),
                    (-0.0767911032, 0.00685, 0.0192820189),
                    (-0.0767911032, -0.00685, 0.0192820189),
                    (-0.0779724298, 0.00685, 0.014534229),
                    (-0.0779724298, -0.00685, 0.014534229),
                    (-0.0788198665, 0.00685, 0.00972420132),
                    (-0.0788198665, -0.00685, 0.00972420132),
                    (-0.0793297844, 0.00685, 0.00487253313),
                    (-0.0793297844, -0.00685, 0.00487253313),
                    (-0.0795, 0.00685, 9.12361865e-18),
                    (-0.0795, -0.00685, 9.12361865e-18),
                    (-0.0793297844, 0.00685, -0.00487253313),
                    (-0.0793297844, -0.00685, -0.00487253313),
                    (-0.0788198665, 0.00685, -0.00972420132),
                    (-0.0788198665, -0.00685, -0.00972420132),
                    (-0.0779724298, 0.00685, -0.014534229),
                    (-0.0779724298, -0.00685, -0.014534229),
                    (-0.0767911032, 0.00685, -0.0192820189),
                    (-0.0767911032, -0.00685, -0.0192820189),
                    (-0.0752809453, 0.00685, -0.0239472402),
                    (-0.0752809453, -0.00685, -0.0239472402),
                    (-0.0734484228, 0.00685, -0.0285099157),
                    (-0.0734484228, -0.00685, -0.0285099157),
                    (-0.071301383, 0.00685, -0.0329505074),
                    (-0.071301383, -0.00685, -0.0329505074),
                    (-0.0688490196, 0.00685, -0.03725),
                    (-0.0688490196, -0.00685, -0.03725),
                    (-0.0661018342, 0.00685, -0.0413899824),
                    (-0.0661018342, -0.00685, -0.0413899824),
                    (-0.0630715906, 0.00685, -0.0453527265),
                    (-0.0630715906, -0.00685, -0.0453527265),
                    (-0.0597712647, 0.00685, -0.0491212632),
                    (-0.0597712647, -0.00685, -0.0491212632),
                    (-0.0562149891, 0.00685, -0.0526794552),
                    (-0.0562149891, -0.00685, -0.0526794552),
                    (-0.0524179923, 0.00685, -0.0560120657),
                    (-0.0524179923, -0.00685, -0.0560120657),
                    (-0.0483965336, 0.00685, -0.0591048239),
                    (-0.0483965336, -0.00685, -0.0591048239),
                    (-0.0441678335, 0.00685, -0.0619444861),
                    (-0.0441678335, -0.00685, -0.0619444861),
                    (-0.03975, 0.00685, -0.0645188926),
                    (-0.03975, -0.00685, -0.0645188926),
                    (-0.0351619509, 0.00685, -0.0668170192),
                    (-0.0351619509, -0.00685, -0.0668170192),
                    (-0.0304233329, 0.00685, -0.0688290252),
                    (-0.0304233329, -0.00685, -0.0688290252),
                    (-0.0255544375, 0.00685, -0.0705462946),
                    (-0.0255544375, -0.00685, -0.0705462946),
                    (-0.0205761141, 0.00685, -0.0719614741),
                    (-0.0205761141, -0.00685, -0.0719614741),
                    (-0.0155096806, 0.00685, -0.0730685034),
                    (-0.0155096806, -0.00685, -0.0730685034),
                    (-0.0103768323, 0.00685, -0.0738626422),
                    (-0.0103768323, -0.00685, -0.0738626422),
                    (-0.00519954877, 0.00685, -0.0743404898),
                    (-0.00519954877, -0.00685, -0.0743404898),
                    (-1.46039131e-17, 0.00685, -0.0745),
                    (-1.46039131e-17, -0.00685, -0.0745),
                    (0.00519954877, 0.00685, -0.0743404898),
                    (0.00519954877, -0.00685, -0.0743404898),
                    (0.0103768323, 0.00685, -0.0738626422),
                    (0.0103768323, -0.00685, -0.0738626422),
                    (0.0155096806, 0.00685, -0.0730685034),
                    (0.0155096806, -0.00685, -0.0730685034),
                    (0.0205761141, 0.00685, -0.0719614741),
                    (0.0205761141, -0.00685, -0.0719614741),
                    (0.0255544375, 0.00685, -0.0705462946),
                    (0.0255544375, -0.00685, -0.0705462946),
                    (0.0304233329, 0.00685, -0.0688290252),
                    (0.0304233329, -0.00685, -0.0688290252),
                    (0.0351619509, 0.00685, -0.0668170192),
                    (0.0351619509, -0.00685, -0.0668170192),
                    (0.03975, 0.00685, -0.0645188926),
                    (0.03975, -0.00685, -0.0645188926),
                    (0.0441678335, 0.00685, -0.0619444861),
                    (0.0441678335, -0.00685, -0.0619444861),
                    (0.0483965336, 0.00685, -0.0591048239),
                    (0.0483965336, -0.00685, -0.0591048239),
                    (0.0524179923, 0.00685, -0.0560120657),
                    (0.0524179923, -0.00685, -0.0560120657),
                    (0.0562149891, 0.00685, -0.0526794552),
                    (0.0562149891, -0.00685, -0.0526794552),
                    (0.0597712647, 0.00685, -0.0491212632),
                    (0.0597712647, -0.00685, -0.0491212632),
                    (0.0630715906, 0.00685, -0.0453527265),
                    (0.0630715906, -0.00685, -0.0453527265),
                    (0.0661018342, 0.00685, -0.0413899824),
                    (0.0661018342, -0.00685, -0.0413899824),
                    (0.0688490196, 0.00685, -0.03725),
                    (0.0688490196, -0.00685, -0.03725),
                    (0.071301383, 0.00685, -0.0329505074),
                    (0.071301383, -0.00685, -0.0329505074),
                    (0.0734484228, 0.00685, -0.0285099157),
                    (0.0734484228, -0.00685, -0.0285099157),
                    (0.0752809453, 0.00685, -0.0239472402),
                    (0.0752809453, -0.00685, -0.0239472402),
                    (0.0767911032, 0.00685, -0.0192820189),
                    (0.0767911032, -0.00685, -0.0192820189),
                    (0.0779724298, 0.00685, -0.014534229),
                    (0.0779724298, -0.00685, -0.014534229),
                    (0.0788198665, 0.00685, -0.00972420132),
                    (0.0788198665, -0.00685, -0.00972420132),
                    (0.0793297844, 0.00685, -0.00487253313),
                    (0.0793297844, -0.00685, -0.00487253313),
                ]
                int[] faceVertexCounts = [3, 3, 3, 3, 3, 3, 3, 3, 3, 3, 3, 3, 3, 3, 3, 3, 3, 3, 3, 3, 3, 3, 3, 3, 3, 3, 3, 3, 3, 3, 3, 3, 3, 3, 3, 3, 3, 3, 3, 3, 3, 3, 3, 3, 3, 3, 3, 3, 3, 3, 3, 3, 3, 3, 3, 3, 3, 3, 3, 3, 3, 3, 3, 3, 3, 3, 3, 3, 3, 3, 3, 3, 3, 3, 3, 3, 3, 3, 3, 3, 3, 3, 3, 3, 3, 3, 3, 3, 3, 3, 3, 3, 3, 3, 3, 3, 3, 3, 3, 3, 3, 3, 3, 3, 3, 3, 3, 3, 3, 3, 3, 3, 3, 3, 3, 3, 3, 3, 3, 3, 3, 3, 3, 3, 3, 3, 3, 3, 3, 3, 3, 3, 3, 3, 3, 3, 3, 3, 3, 3, 3, 3, 3, 3, 3, 3, 3, 3, 3, 3, 3, 3, 3, 3, 3, 3, 3, 3, 3, 3, 3, 3, 3, 3, 3, 3, 3, 3, 3, 3, 3, 3, 3, 3, 3, 3, 3, 3, 3, 3, 3, 3, 3, 3, 3, 3, 3, 3, 3, 3, 3, 3, 3, 3, 3, 3, 3, 3, 3, 3, 3, 3, 3, 3, 3, 3, 3, 3, 3, 3, 3, 3, 3, 3, 3, 3, 3, 3, 3, 3, 3, 3, 3, 3, 3, 3, 3, 3, 3, 3, 3, 3, 3, 3, 3, 3, 3, 3, 3, 3, 3, 3, 3, 3, 3, 3, 3, 3, 3, 3, 3, 3, 3, 3, 3, 3, 3, 3, 3, 3, 3, 3, 3, 3, 3, 3, 3, 3, 3, 3, 3, 3, 3, 3, 3, 3, 3, 3, 3, 3, 3, 3, 3, 3, 3, 3, 3, 3, 3, 3, 3, 3, 3, 3, 3, 3, 3, 3, 3, 3, 3, 3, 3, 3, 3, 3, 3, 3, 3, 3, 3, 3, 3, 3, 3, 3, 3, 3, 3, 3, 3, 3, 3, 3, 3, 3, 3, 3, 3, 3, 3, 3, 3, 3, 3, 3, 3, 3, 3, 3, 3, 3, 3, 3, 3, 3, 3, 3, 3, 3, 3, 3, 3, 3, 3, 3, 3, 3, 3, 3, 3, 3, 3, 3, 3, 3, 3, 3, 3, 3, 3, 3, 3, 3, 3, 3, 3, 3, 3, 3, 3, 3, 3, 3]
                int[] faceVertexIndices = [0, 1, 2, 0, 2, 3, 4, 3, 0, 5, 1, 2, 3, 2, 6, 3, 6, 7, 4, 7, 3, 5, 2, 6, 7, 6, 8, 7, 8, 9, 4, 9, 7, 5, 6, 8, 9, 8, 10, 9, 10, 11, 4, 11, 9, 5, 8, 10, 11, 10, 12, 11, 12, 13, 4, 13, 11, 5, 10, 12, 13, 12, 14, 13, 14, 15, 4, 15, 13, 5, 12, 14, 15, 14, 16, 15, 16, 17, 4, 17, 15, 5, 14, 16, 17, 16, 18, 17, 18, 19, 4, 19, 17, 5, 16, 18, 19, 18, 20, 19, 20, 21, 4, 21, 19, 5, 18, 20, 21, 20, 22, 21, 22, 23, 4, 23, 21, 5, 20, 22, 23, 22, 24, 23, 24, 25, 4, 25, 23, 5, 22, 24, 25, 24, 26, 25, 26, 27, 4, 27, 25, 5, 24, 26, 27, 26, 28, 27, 28, 29, 4, 29, 27, 5, 26, 28, 29, 28, 30, 29, 30, 31, 4, 31, 29, 5, 28, 30, 31, 30, 32, 31, 32, 33, 4, 33, 31, 5, 30, 32, 33, 32, 34, 33, 34, 35, 4, 35, 33, 5, 32, 34, 35, 34, 36, 35, 36, 37, 4, 37, 35, 5, 34, 36, 37, 36, 38, 37, 38, 39, 4, 39, 37, 5, 36, 38, 39, 38, 40, 39, 40, 41, 4, 41, 39, 5, 38, 40, 41, 40, 42, 41, 42, 43, 4, 43, 41, 5, 40, 42, 43, 42, 44, 43, 44, 45, 4, 45, 43, 5, 42, 44, 45, 44, 46, 45, 46, 47, 4, 47, 45, 5, 44, 46, 47, 46, 48, 47, 48, 49, 4, 49, 47, 5, 46, 48, 49, 48, 50, 49, 50, 51, 4, 51, 49, 5, 48, 50, 51, 50, 52, 51, 52, 53, 4, 53, 51, 5, 50, 52, 53, 52, 54, 53, 54, 55, 4, 55, 53, 5, 52, 54, 55, 54, 56, 55, 56, 57, 4, 57, 55, 5, 54, 56, 57, 56, 58, 57, 58, 59, 4, 59, 57, 5, 56, 58, 59, 58, 60, 59, 60, 61, 4, 61, 59, 5, 58, 60, 61, 60, 62, 61, 62, 63, 4, 63, 61, 5, 60, 62, 63, 62, 64, 63, 64, 65, 4, 65, 63, 5, 62, 64, 65, 64, 66, 65, 66, 67, 4, 67, 65, 5, 64, 66, 67, 66, 68, 67, 68, 69, 4, 69, 67, 5, 66, 68, 69, 68, 70, 69, 70, 71, 4, 71, 69, 5, 68, 70, 71, 70, 72, 71, 72, 73, 4, 73, 71, 5, 70, 72, 73, 72, 74, 73, 74, 75, 4, 75, 73, 5, 72, 74, 75, 74, 76, 75, 76, 77, 4, 77, 75, 5, 74, 76, 77, 76, 78, 77, 78, 79, 4, 79, 77, 5, 76, 78, 79, 78, 80, 79, 80, 81, 4, 81, 79, 5, 78, 80, 81, 80, 82, 81, 82, 83, 4, 83, 81, 5, 80, 82, 83, 82, 84, 83, 84, 85, 4, 85, 83, 5, 82, 84, 85, 84, 86, 85, 86, 87, 4, 87, 85, 5, 84, 86, 87, 86, 88, 87, 88, 89, 4, 89, 87, 5, 86, 88, 89, 88, 90, 89, 90, 91, 4, 91, 89, 5, 88, 90, 91, 90, 92, 91, 92, 93, 4, 93, 91, 5, 90, 92, 93, 92, 94, 93, 94, 95, 4, 95, 93, 5, 92, 94, 95, 94, 96, 95, 96, 97, 4, 97, 95, 5, 94, 96, 97, 96, 98, 97, 98, 99, 4, 99, 97, 5, 96, 98, 99, 98, 100, 99, 100, 101, 4, 101, 99, 5, 98, 100, 101, 100, 102, 101, 102, 103, 4, 103, 101, 5, 100, 102, 103, 102, 104, 103, 104, 105, 4, 105, 103, 5, 102, 104, 105, 104, 106, 105, 106, 107, 4, 107, 105, 5, 104, 106, 107, 106, 108, 107, 108, 109, 4, 109, 107, 5, 106, 108, 109, 108, 110, 109, 110, 111, 4, 111, 109, 5, 108, 110, 111, 110, 112, 111, 112, 113, 4, 113, 111, 5, 110, 112, 113, 112, 114, 113, 114, 115, 4, 115, 113, 5, 112, 114, 115, 114, 116, 115, 116, 117, 4, 117, 115, 5, 114, 116, 117, 116, 118, 117, 118, 119, 4, 119, 117, 5, 116, 118, 119, 118, 120, 119, 120, 121, 4, 121, 119, 5, 118, 120, 121, 120, 122, 121, 122, 123, 4, 123, 121, 5, 120, 122, 123, 122, 124, 123, 124, 125, 4, 125, 123, 5, 122, 124, 125, 124, 126, 125, 126, 127, 4, 127, 125, 5, 124, 126, 127, 126, 128, 127, 128, 129, 4, 129, 127, 5, 126, 128, 129, 128, 130, 129, 130, 131, 4, 131, 129, 5, 128, 130, 131, 130, 132, 131, 132, 133, 4, 133, 131, 5, 130, 132, 133, 132, 134, 133, 134, 135, 4, 135, 133, 5, 132, 134, 135, 134, 136, 135, 136, 137, 4, 137, 135, 5, 134, 136, 137, 136, 138, 137, 138, 139, 4, 139, 137, 5, 136, 138, 139, 138, 140, 139, 140, 141, 4, 141, 139, 5, 138, 140, 141, 140, 142, 141, 142, 143, 4, 143, 141, 5, 140, 142, 143, 142, 144, 143, 144, 145, 4, 145, 143, 5, 142, 144, 145, 144, 146, 145, 146, 147, 4, 147, 145, 5, 144, 146, 147, 146, 148, 147, 148, 149, 4, 149, 147, 5, 146, 148, 149, 148, 150, 149, 150, 151, 4, 151, 149, 5, 148, 150, 151, 150, 152, 151, 152, 153, 4, 153, 151, 5, 150, 152, 153, 152, 154, 153, 154, 155, 4, 155, 153, 5, 152, 154, 155, 154, 156, 155, 156, 157, 4, 157, 155, 5, 154, 156, 157, 156, 158, 157, 158, 159, 4, 159, 157, 5, 156, 158, 159, 158, 160, 159, 160, 161, 4, 161, 159, 5, 158, 160, 161, 160, 162, 161, 162, 163, 4, 163, 161, 5, 160, 162, 163, 162, 164, 163, 164, 165, 4, 165, 163, 5, 162, 164, 165, 164, 166, 165, 166, 167, 4, 167, 165, 5, 164, 166, 167, 166, 168, 167, 168, 169, 4, 169, 167, 5, 166, 168, 169, 168, 170, 169, 170, 171, 4, 171, 169, 5, 168, 170, 171, 170, 172, 171, 172, 173, 4, 173, 171, 5, 170, 172, 173, 172, 174, 173, 174, 175, 4, 175, 173, 5, 172, 174, 175, 174, 176, 175, 176, 177, 4, 177, 175, 5, 174, 176, 177, 176, 178, 177, 178, 179, 4, 179, 177, 5, 176, 178, 179, 178, 180, 179, 180, 181, 4, 181, 179, 5, 178, 180, 181, 180, 182, 181, 182, 183, 4, 183, 181, 5, 180, 182, 183, 182, 184, 183, 184, 185, 4, 185, 183, 5, 182, 184, 185, 184, 186, 185, 186, 187, 4, 187, 185, 5, 184, 186, 187, 186, 188, 187, 188, 189, 4, 189, 187, 5, 186, 188, 189, 188, 190, 189, 190, 191, 4, 191, 189, 5, 188, 190, 191, 190, 192, 191, 192, 193, 4, 193, 191, 5, 190, 192, 193, 192, 1, 193, 1, 0, 4, 0, 193, 5, 192, 1]
                color3f[] primvars:displayColor = [(0.8, 0.08, 0.05)] (
                    interpolation = "constant"
                )
            }

            def Mesh "h5002_handle_visual_exact_bounds"
            {
                uniform token subdivisionScheme = "none"
                float3[] extent = [(-0.1795, -0.01285, -0.0175), (-0.0795, 0.01285, 0.0175)]
                point3f[] points = [
                    (-0.1795, 0, 0.0175),
                    (-0.1795, 0.000840430211, 0.0174625312),
                    (-0.0795, 0.000840430211, 0.0139700249),
                    (-0.0795, 0, 0.014),
                    (-0.1795, 0, 0),
                    (-0.0795, 0, 0),
                    (-0.1795, 0.00167726157, 0.0173502851),
                    (-0.0795, 0.00167726157, 0.0138802281),
                    (-0.1795, 0.00250691064, 0.0171637424),
                    (-0.0795, 0.00250691064, 0.0137309939),
                    (-0.1795, 0.00332582473, 0.016903702),
                    (-0.0795, 0.00332582473, 0.0135229616),
                    (-0.1795, 0.00413049713, 0.0165712773),
                    (-0.0795, 0.00413049713, 0.0132570218),
                    (-0.1795, 0.00491748211, 0.0161678918),
                    (-0.0795, 0.00491748211, 0.0129343135),
                    (-0.1795, 0.00568340967, 0.015695273),
                    (-0.0795, 0.00568340967, 0.0125562184),
                    (-0.1795, 0.006425, 0.0151554446),
                    (-0.0795, 0.006425, 0.0121243557),
                    (-0.1795, 0.00713907749, 0.0145507182),
                    (-0.0795, 0.00713907749, 0.0116405746),
                    (-0.1795, 0.00782258436, 0.0138836835),
                    (-0.0795, 0.00782258436, 0.0111069468),
                    (-0.1795, 0.00847259372, 0.0131571966),
                    (-0.0795, 0.00847259372, 0.0105257573),
                    (-0.1795, 0.00908632214, 0.0123743687),
                    (-0.0795, 0.00908632214, 0.00989949494),
                    (-0.1795, 0.00966114153, 0.0115385518),
                    (-0.0795, 0.00966114153, 0.00923084141),
                    (-0.1795, 0.0101945904, 0.010653325),
                    (-0.0795, 0.0101945904, 0.00852266001),
                    (-0.1795, 0.0106843845, 0.00972247908),
                    (-0.0795, 0.0106843845, 0.00777798326),
                    (-0.1795, 0.0111284264, 0.00875),
                    (-0.0795, 0.0111284264, 0.007),
                    (-0.1795, 0.0115248147, 0.00774005208),
                    (-0.0795, 0.0115248147, 0.00619204166),
                    (-0.1795, 0.011871852, 0.00669696007),
                    (-0.0795, 0.011871852, 0.00535756805),
                    (-0.1795, 0.0121680522, 0.00562519064),
                    (-0.0795, 0.0121680522, 0.00450015251),
                    (-0.1795, 0.0124121469, 0.00452933329),
                    (-0.0795, 0.0124121469, 0.00362346663),
                    (-0.1795, 0.0126030909, 0.00341408064),
                    (-0.0795, 0.0126030909, 0.00273126451),
                    (-0.1795, 0.0127400665, 0.00228420836),
                    (-0.0795, 0.0127400665, 0.00182736669),
                    (-0.1795, 0.0128224872, 0.00114455476),
                    (-0.0795, 0.0128224872, 0.000915643809),
                    (-0.1795, 0.01285, 1.07156595e-18),
                    (-0.0795, 0.01285, 8.57252759e-19),
                    (-0.1795, 0.0128224872, -0.00114455476),
                    (-0.0795, 0.0128224872, -0.000915643809),
                    (-0.1795, 0.0127400665, -0.00228420836),
                    (-0.0795, 0.0127400665, -0.00182736669),
                    (-0.1795, 0.0126030909, -0.00341408064),
                    (-0.0795, 0.0126030909, -0.00273126451),
                    (-0.1795, 0.0124121469, -0.00452933329),
                    (-0.0795, 0.0124121469, -0.00362346663),
                    (-0.1795, 0.0121680522, -0.00562519064),
                    (-0.0795, 0.0121680522, -0.00450015251),
                    (-0.1795, 0.011871852, -0.00669696007),
                    (-0.0795, 0.011871852, -0.00535756805),
                    (-0.1795, 0.0115248147, -0.00774005208),
                    (-0.0795, 0.0115248147, -0.00619204166),
                    (-0.1795, 0.0111284264, -0.00875),
                    (-0.0795, 0.0111284264, -0.007),
                    (-0.1795, 0.0106843845, -0.00972247908),
                    (-0.0795, 0.0106843845, -0.00777798326),
                    (-0.1795, 0.0101945904, -0.010653325),
                    (-0.0795, 0.0101945904, -0.00852266001),
                    (-0.1795, 0.00966114153, -0.0115385518),
                    (-0.0795, 0.00966114153, -0.00923084141),
                    (-0.1795, 0.00908632214, -0.0123743687),
                    (-0.0795, 0.00908632214, -0.00989949494),
                    (-0.1795, 0.00847259372, -0.0131571966),
                    (-0.0795, 0.00847259372, -0.0105257573),
                    (-0.1795, 0.00782258436, -0.0138836835),
                    (-0.0795, 0.00782258436, -0.0111069468),
                    (-0.1795, 0.00713907749, -0.0145507182),
                    (-0.0795, 0.00713907749, -0.0116405746),
                    (-0.1795, 0.006425, -0.0151554446),
                    (-0.0795, 0.006425, -0.0121243557),
                    (-0.1795, 0.00568340967, -0.015695273),
                    (-0.0795, 0.00568340967, -0.0125562184),
                    (-0.1795, 0.00491748211, -0.0161678918),
                    (-0.0795, 0.00491748211, -0.0129343135),
                    (-0.1795, 0.00413049713, -0.0165712773),
                    (-0.0795, 0.00413049713, -0.0132570218),
                    (-0.1795, 0.00332582473, -0.016903702),
                    (-0.0795, 0.00332582473, -0.0135229616),
                    (-0.1795, 0.00250691064, -0.0171637424),
                    (-0.0795, 0.00250691064, -0.0137309939),
                    (-0.1795, 0.00167726157, -0.0173502851),
                    (-0.0795, 0.00167726157, -0.0138802281),
                    (-0.1795, 0.000840430211, -0.0174625312),
                    (-0.0795, 0.000840430211, -0.0139700249),
                    (-0.1795, 1.57367114e-18, -0.0175),
                    (-0.0795, 1.57367114e-18, -0.014),
                    (-0.1795, -0.000840430211, -0.0174625312),
                    (-0.0795, -0.000840430211, -0.0139700249),
                    (-0.1795, -0.00167726157, -0.0173502851),
                    (-0.0795, -0.00167726157, -0.0138802281),
                    (-0.1795, -0.00250691064, -0.0171637424),
                    (-0.0795, -0.00250691064, -0.0137309939),
                    (-0.1795, -0.00332582473, -0.016903702),
                    (-0.0795, -0.00332582473, -0.0135229616),
                    (-0.1795, -0.00413049713, -0.0165712773),
                    (-0.0795, -0.00413049713, -0.0132570218),
                    (-0.1795, -0.00491748211, -0.0161678918),
                    (-0.0795, -0.00491748211, -0.0129343135),
                    (-0.1795, -0.00568340967, -0.015695273),
                    (-0.0795, -0.00568340967, -0.0125562184),
                    (-0.1795, -0.006425, -0.0151554446),
                    (-0.0795, -0.006425, -0.0121243557),
                    (-0.1795, -0.00713907749, -0.0145507182),
                    (-0.0795, -0.00713907749, -0.0116405746),
                    (-0.1795, -0.00782258436, -0.0138836835),
                    (-0.0795, -0.00782258436, -0.0111069468),
                    (-0.1795, -0.00847259372, -0.0131571966),
                    (-0.0795, -0.00847259372, -0.0105257573),
                    (-0.1795, -0.00908632214, -0.0123743687),
                    (-0.0795, -0.00908632214, -0.00989949494),
                    (-0.1795, -0.00966114153, -0.0115385518),
                    (-0.0795, -0.00966114153, -0.00923084141),
                    (-0.1795, -0.0101945904, -0.010653325),
                    (-0.0795, -0.0101945904, -0.00852266001),
                    (-0.1795, -0.0106843845, -0.00972247908),
                    (-0.0795, -0.0106843845, -0.00777798326),
                    (-0.1795, -0.0111284264, -0.00875),
                    (-0.0795, -0.0111284264, -0.007),
                    (-0.1795, -0.0115248147, -0.00774005208),
                    (-0.0795, -0.0115248147, -0.00619204166),
                    (-0.1795, -0.011871852, -0.00669696007),
                    (-0.0795, -0.011871852, -0.00535756805),
                    (-0.1795, -0.0121680522, -0.00562519064),
                    (-0.0795, -0.0121680522, -0.00450015251),
                    (-0.1795, -0.0124121469, -0.00452933329),
                    (-0.0795, -0.0124121469, -0.00362346663),
                    (-0.1795, -0.0126030909, -0.00341408064),
                    (-0.0795, -0.0126030909, -0.00273126451),
                    (-0.1795, -0.0127400665, -0.00228420836),
                    (-0.0795, -0.0127400665, -0.00182736669),
                    (-0.1795, -0.0128224872, -0.00114455476),
                    (-0.0795, -0.0128224872, -0.000915643809),
                    (-0.1795, -0.01285, -3.21469785e-18),
                    (-0.0795, -0.01285, -2.57175828e-18),
                    (-0.1795, -0.0128224872, 0.00114455476),
                    (-0.0795, -0.0128224872, 0.000915643809),
                    (-0.1795, -0.0127400665, 0.00228420836),
                    (-0.0795, -0.0127400665, 0.00182736669),
                    (-0.1795, -0.0126030909, 0.00341408064),
                    (-0.0795, -0.0126030909, 0.00273126451),
                    (-0.1795, -0.0124121469, 0.00452933329),
                    (-0.0795, -0.0124121469, 0.00362346663),
                    (-0.1795, -0.0121680522, 0.00562519064),
                    (-0.0795, -0.0121680522, 0.00450015251),
                    (-0.1795, -0.011871852, 0.00669696007),
                    (-0.0795, -0.011871852, 0.00535756805),
                    (-0.1795, -0.0115248147, 0.00774005208),
                    (-0.0795, -0.0115248147, 0.00619204166),
                    (-0.1795, -0.0111284264, 0.00875),
                    (-0.0795, -0.0111284264, 0.007),
                    (-0.1795, -0.0106843845, 0.00972247908),
                    (-0.0795, -0.0106843845, 0.00777798326),
                    (-0.1795, -0.0101945904, 0.010653325),
                    (-0.0795, -0.0101945904, 0.00852266001),
                    (-0.1795, -0.00966114153, 0.0115385518),
                    (-0.0795, -0.00966114153, 0.00923084141),
                    (-0.1795, -0.00908632214, 0.0123743687),
                    (-0.0795, -0.00908632214, 0.00989949494),
                    (-0.1795, -0.00847259372, 0.0131571966),
                    (-0.0795, -0.00847259372, 0.0105257573),
                    (-0.1795, -0.00782258436, 0.0138836835),
                    (-0.0795, -0.00782258436, 0.0111069468),
                    (-0.1795, -0.00713907749, 0.0145507182),
                    (-0.0795, -0.00713907749, 0.0116405746),
                    (-0.1795, -0.006425, 0.0151554446),
                    (-0.0795, -0.006425, 0.0121243557),
                    (-0.1795, -0.00568340967, 0.015695273),
                    (-0.0795, -0.00568340967, 0.0125562184),
                    (-0.1795, -0.00491748211, 0.0161678918),
                    (-0.0795, -0.00491748211, 0.0129343135),
                    (-0.1795, -0.00413049713, 0.0165712773),
                    (-0.0795, -0.00413049713, 0.0132570218),
                    (-0.1795, -0.00332582473, 0.016903702),
                    (-0.0795, -0.00332582473, 0.0135229616),
                    (-0.1795, -0.00250691064, 0.0171637424),
                    (-0.0795, -0.00250691064, 0.0137309939),
                    (-0.1795, -0.00167726157, 0.0173502851),
                    (-0.0795, -0.00167726157, 0.0138802281),
                    (-0.1795, -0.000840430211, 0.0174625312),
                    (-0.0795, -0.000840430211, 0.0139700249),
                ]
                int[] faceVertexCounts = [3, 3, 3, 3, 3, 3, 3, 3, 3, 3, 3, 3, 3, 3, 3, 3, 3, 3, 3, 3, 3, 3, 3, 3, 3, 3, 3, 3, 3, 3, 3, 3, 3, 3, 3, 3, 3, 3, 3, 3, 3, 3, 3, 3, 3, 3, 3, 3, 3, 3, 3, 3, 3, 3, 3, 3, 3, 3, 3, 3, 3, 3, 3, 3, 3, 3, 3, 3, 3, 3, 3, 3, 3, 3, 3, 3, 3, 3, 3, 3, 3, 3, 3, 3, 3, 3, 3, 3, 3, 3, 3, 3, 3, 3, 3, 3, 3, 3, 3, 3, 3, 3, 3, 3, 3, 3, 3, 3, 3, 3, 3, 3, 3, 3, 3, 3, 3, 3, 3, 3, 3, 3, 3, 3, 3, 3, 3, 3, 3, 3, 3, 3, 3, 3, 3, 3, 3, 3, 3, 3, 3, 3, 3, 3, 3, 3, 3, 3, 3, 3, 3, 3, 3, 3, 3, 3, 3, 3, 3, 3, 3, 3, 3, 3, 3, 3, 3, 3, 3, 3, 3, 3, 3, 3, 3, 3, 3, 3, 3, 3, 3, 3, 3, 3, 3, 3, 3, 3, 3, 3, 3, 3, 3, 3, 3, 3, 3, 3, 3, 3, 3, 3, 3, 3, 3, 3, 3, 3, 3, 3, 3, 3, 3, 3, 3, 3, 3, 3, 3, 3, 3, 3, 3, 3, 3, 3, 3, 3, 3, 3, 3, 3, 3, 3, 3, 3, 3, 3, 3, 3, 3, 3, 3, 3, 3, 3, 3, 3, 3, 3, 3, 3, 3, 3, 3, 3, 3, 3, 3, 3, 3, 3, 3, 3, 3, 3, 3, 3, 3, 3, 3, 3, 3, 3, 3, 3, 3, 3, 3, 3, 3, 3, 3, 3, 3, 3, 3, 3, 3, 3, 3, 3, 3, 3, 3, 3, 3, 3, 3, 3, 3, 3, 3, 3, 3, 3, 3, 3, 3, 3, 3, 3, 3, 3, 3, 3, 3, 3, 3, 3, 3, 3, 3, 3, 3, 3, 3, 3, 3, 3, 3, 3, 3, 3, 3, 3, 3, 3, 3, 3, 3, 3, 3, 3, 3, 3, 3, 3, 3, 3, 3, 3, 3, 3, 3, 3, 3, 3, 3, 3, 3, 3, 3, 3, 3, 3, 3, 3, 3, 3, 3, 3, 3, 3, 3, 3, 3, 3, 3, 3, 3, 3, 3, 3]
                int[] faceVertexIndices = [0, 1, 2, 0, 2, 3, 4, 1, 0, 5, 3, 2, 1, 6, 7, 1, 7, 2, 4, 6, 1, 5, 2, 7, 6, 8, 9, 6, 9, 7, 4, 8, 6, 5, 7, 9, 8, 10, 11, 8, 11, 9, 4, 10, 8, 5, 9, 11, 10, 12, 13, 10, 13, 11, 4, 12, 10, 5, 11, 13, 12, 14, 15, 12, 15, 13, 4, 14, 12, 5, 13, 15, 14, 16, 17, 14, 17, 15, 4, 16, 14, 5, 15, 17, 16, 18, 19, 16, 19, 17, 4, 18, 16, 5, 17, 19, 18, 20, 21, 18, 21, 19, 4, 20, 18, 5, 19, 21, 20, 22, 23, 20, 23, 21, 4, 22, 20, 5, 21, 23, 22, 24, 25, 22, 25, 23, 4, 24, 22, 5, 23, 25, 24, 26, 27, 24, 27, 25, 4, 26, 24, 5, 25, 27, 26, 28, 29, 26, 29, 27, 4, 28, 26, 5, 27, 29, 28, 30, 31, 28, 31, 29, 4, 30, 28, 5, 29, 31, 30, 32, 33, 30, 33, 31, 4, 32, 30, 5, 31, 33, 32, 34, 35, 32, 35, 33, 4, 34, 32, 5, 33, 35, 34, 36, 37, 34, 37, 35, 4, 36, 34, 5, 35, 37, 36, 38, 39, 36, 39, 37, 4, 38, 36, 5, 37, 39, 38, 40, 41, 38, 41, 39, 4, 40, 38, 5, 39, 41, 40, 42, 43, 40, 43, 41, 4, 42, 40, 5, 41, 43, 42, 44, 45, 42, 45, 43, 4, 44, 42, 5, 43, 45, 44, 46, 47, 44, 47, 45, 4, 46, 44, 5, 45, 47, 46, 48, 49, 46, 49, 47, 4, 48, 46, 5, 47, 49, 48, 50, 51, 48, 51, 49, 4, 50, 48, 5, 49, 51, 50, 52, 53, 50, 53, 51, 4, 52, 50, 5, 51, 53, 52, 54, 55, 52, 55, 53, 4, 54, 52, 5, 53, 55, 54, 56, 57, 54, 57, 55, 4, 56, 54, 5, 55, 57, 56, 58, 59, 56, 59, 57, 4, 58, 56, 5, 57, 59, 58, 60, 61, 58, 61, 59, 4, 60, 58, 5, 59, 61, 60, 62, 63, 60, 63, 61, 4, 62, 60, 5, 61, 63, 62, 64, 65, 62, 65, 63, 4, 64, 62, 5, 63, 65, 64, 66, 67, 64, 67, 65, 4, 66, 64, 5, 65, 67, 66, 68, 69, 66, 69, 67, 4, 68, 66, 5, 67, 69, 68, 70, 71, 68, 71, 69, 4, 70, 68, 5, 69, 71, 70, 72, 73, 70, 73, 71, 4, 72, 70, 5, 71, 73, 72, 74, 75, 72, 75, 73, 4, 74, 72, 5, 73, 75, 74, 76, 77, 74, 77, 75, 4, 76, 74, 5, 75, 77, 76, 78, 79, 76, 79, 77, 4, 78, 76, 5, 77, 79, 78, 80, 81, 78, 81, 79, 4, 80, 78, 5, 79, 81, 80, 82, 83, 80, 83, 81, 4, 82, 80, 5, 81, 83, 82, 84, 85, 82, 85, 83, 4, 84, 82, 5, 83, 85, 84, 86, 87, 84, 87, 85, 4, 86, 84, 5, 85, 87, 86, 88, 89, 86, 89, 87, 4, 88, 86, 5, 87, 89, 88, 90, 91, 88, 91, 89, 4, 90, 88, 5, 89, 91, 90, 92, 93, 90, 93, 91, 4, 92, 90, 5, 91, 93, 92, 94, 95, 92, 95, 93, 4, 94, 92, 5, 93, 95, 94, 96, 97, 94, 97, 95, 4, 96, 94, 5, 95, 97, 96, 98, 99, 96, 99, 97, 4, 98, 96, 5, 97, 99, 98, 100, 101, 98, 101, 99, 4, 100, 98, 5, 99, 101, 100, 102, 103, 100, 103, 101, 4, 102, 100, 5, 101, 103, 102, 104, 105, 102, 105, 103, 4, 104, 102, 5, 103, 105, 104, 106, 107, 104, 107, 105, 4, 106, 104, 5, 105, 107, 106, 108, 109, 106, 109, 107, 4, 108, 106, 5, 107, 109, 108, 110, 111, 108, 111, 109, 4, 110, 108, 5, 109, 111, 110, 112, 113, 110, 113, 111, 4, 112, 110, 5, 111, 113, 112, 114, 115, 112, 115, 113, 4, 114, 112, 5, 113, 115, 114, 116, 117, 114, 117, 115, 4, 116, 114, 5, 115, 117, 116, 118, 119, 116, 119, 117, 4, 118, 116, 5, 117, 119, 118, 120, 121, 118, 121, 119, 4, 120, 118, 5, 119, 121, 120, 122, 123, 120, 123, 121, 4, 122, 120, 5, 121, 123, 122, 124, 125, 122, 125, 123, 4, 124, 122, 5, 123, 125, 124, 126, 127, 124, 127, 125, 4, 126, 124, 5, 125, 127, 126, 128, 129, 126, 129, 127, 4, 128, 126, 5, 127, 129, 128, 130, 131, 128, 131, 129, 4, 130, 128, 5, 129, 131, 130, 132, 133, 130, 133, 131, 4, 132, 130, 5, 131, 133, 132, 134, 135, 132, 135, 133, 4, 134, 132, 5, 133, 135, 134, 136, 137, 134, 137, 135, 4, 136, 134, 5, 135, 137, 136, 138, 139, 136, 139, 137, 4, 138, 136, 5, 137, 139, 138, 140, 141, 138, 141, 139, 4, 140, 138, 5, 139, 141, 140, 142, 143, 140, 143, 141, 4, 142, 140, 5, 141, 143, 142, 144, 145, 142, 145, 143, 4, 144, 142, 5, 143, 145, 144, 146, 147, 144, 147, 145, 4, 146, 144, 5, 145, 147, 146, 148, 149, 146, 149, 147, 4, 148, 146, 5, 147, 149, 148, 150, 151, 148, 151, 149, 4, 150, 148, 5, 149, 151, 150, 152, 153, 150, 153, 151, 4, 152, 150, 5, 151, 153, 152, 154, 155, 152, 155, 153, 4, 154, 152, 5, 153, 155, 154, 156, 157, 154, 157, 155, 4, 156, 154, 5, 155, 157, 156, 158, 159, 156, 159, 157, 4, 158, 156, 5, 157, 159, 158, 160, 161, 158, 161, 159, 4, 160, 158, 5, 159, 161, 160, 162, 163, 160, 163, 161, 4, 162, 160, 5, 161, 163, 162, 164, 165, 162, 165, 163, 4, 164, 162, 5, 163, 165, 164, 166, 167, 164, 167, 165, 4, 166, 164, 5, 165, 167, 166, 168, 169, 166, 169, 167, 4, 168, 166, 5, 167, 169, 168, 170, 171, 168, 171, 169, 4, 170, 168, 5, 169, 171, 170, 172, 173, 170, 173, 171, 4, 172, 170, 5, 171, 173, 172, 174, 175, 172, 175, 173, 4, 174, 172, 5, 173, 175, 174, 176, 177, 174, 177, 175, 4, 176, 174, 5, 175, 177, 176, 178, 179, 176, 179, 177, 4, 178, 176, 5, 177, 179, 178, 180, 181, 178, 181, 179, 4, 180, 178, 5, 179, 181, 180, 182, 183, 180, 183, 181, 4, 182, 180, 5, 181, 183, 182, 184, 185, 182, 185, 183, 4, 184, 182, 5, 183, 185, 184, 186, 187, 184, 187, 185, 4, 186, 184, 5, 185, 187, 186, 188, 189, 186, 189, 187, 4, 188, 186, 5, 187, 189, 188, 190, 191, 188, 191, 189, 4, 190, 188, 5, 189, 191, 190, 192, 193, 190, 193, 191, 4, 192, 190, 5, 191, 193, 192, 0, 3, 192, 3, 193, 4, 0, 192, 5, 193, 3]
                color3f[] primvars:displayColor = [(0.04, 0.04, 0.04)] (
                    interpolation = "constant"
                )
            }
        }

        def Xform "collisions"
        {
            def Mesh "racket_face_ball_collision" (
                prepend apiSchemas = ["PhysicsCollisionAPI", "PhysicsMeshCollisionAPI"]
            )
            {
                bool physics:collisionEnabled = 1
                uniform token physics:approximation = "convexHull"
                uniform token subdivisionScheme = "none"
                float3[] extent = [(-0.075, -0.003, -0.0725), (0.075, 0.003, 0.0725)]
                point3f[] points = [
                    (0.075, -0.003, 0),
                    (0.075, 0.003, 0),
                    (0.0748394192, 0.003, 0.00474172687),
                    (0.0748394192, -0.003, 0.00474172687),
                    (0, -0.003, 0),
                    (0, 0.003, 0),
                    (0.0743583646, 0.003, 0.00946314894),
                    (0.0743583646, -0.003, 0.00946314894),
                    (0.073558896, 0.003, 0.0141440483),
                    (0.073558896, -0.003, 0.0141440483),
                    (0.072444437, 0.003, 0.0187643808),
                    (0.072444437, -0.003, 0.0187643808),
                    (0.0710197597, 0.003, 0.0233043612),
                    (0.0710197597, -0.003, 0.0233043612),
                    (0.0692909649, 0.003, 0.0277445488),
                    (0.0692909649, -0.003, 0.0277445488),
                    (0.0672654556, 0.003, 0.03206593),
                    (0.0672654556, -0.003, 0.03206593),
                    (0.0649519053, 0.003, 0.03625),
                    (0.0649519053, -0.003, 0.03625),
                    (0.0623602209, 0.003, 0.0402788419),
                    (0.0623602209, -0.003, 0.0402788419),
                    (0.0595015005, 0.003, 0.0441352036),
                    (0.0595015005, -0.003, 0.0441352036),
                    (0.0563879856, 0.003, 0.0478025716),
                    (0.0563879856, -0.003, 0.0478025716),
                    (0.0530330086, 0.003, 0.0512652416),
                    (0.0530330086, -0.003, 0.0512652416),
                    (0.0494509361, 0.003, 0.054508386),
                    (0.0494509361, -0.003, 0.054508386),
                    (0.0456571072, 0.003, 0.0575181172),
                    (0.0456571072, -0.003, 0.0575181172),
                    (0.0416677675, 0.003, 0.0602815469),
                    (0.0416677675, -0.003, 0.0602815469),
                    (0.0375, 0.003, 0.0627868418),
                    (0.0375, -0.003, 0.0627868418),
                    (0.0331716518, 0.003, 0.0650232738),
                    (0.0331716518, -0.003, 0.0650232738),
                    (0.0287012574, 0.003, 0.0669812661),
                    (0.0287012574, -0.003, 0.0669812661),
                    (0.0241079599, 0.003, 0.0686524344),
                    (0.0241079599, -0.003, 0.0686524344),
                    (0.0194114284, 0.003, 0.0700296224),
                    (0.0194114284, -0.003, 0.0700296224),
                    (0.0146317742, 0.003, 0.0711069328),
                    (0.0146317742, -0.003, 0.0711069328),
                    (0.00978946442, 0.003, 0.0718797524),
                    (0.00978946442, -0.003, 0.0718797524),
                    (0.00490523469, 0.003, 0.0723447719),
                    (0.00490523469, -0.003, 0.0723447719),
                    (4.5924255e-18, 0.003, 0.0725),
                    (4.5924255e-18, -0.003, 0.0725),
                    (-0.00490523469, 0.003, 0.0723447719),
                    (-0.00490523469, -0.003, 0.0723447719),
                    (-0.00978946442, 0.003, 0.0718797524),
                    (-0.00978946442, -0.003, 0.0718797524),
                    (-0.0146317742, 0.003, 0.0711069328),
                    (-0.0146317742, -0.003, 0.0711069328),
                    (-0.0194114284, 0.003, 0.0700296224),
                    (-0.0194114284, -0.003, 0.0700296224),
                    (-0.0241079599, 0.003, 0.0686524344),
                    (-0.0241079599, -0.003, 0.0686524344),
                    (-0.0287012574, 0.003, 0.0669812661),
                    (-0.0287012574, -0.003, 0.0669812661),
                    (-0.0331716518, 0.003, 0.0650232738),
                    (-0.0331716518, -0.003, 0.0650232738),
                    (-0.0375, 0.003, 0.0627868418),
                    (-0.0375, -0.003, 0.0627868418),
                    (-0.0416677675, 0.003, 0.0602815469),
                    (-0.0416677675, -0.003, 0.0602815469),
                    (-0.0456571072, 0.003, 0.0575181172),
                    (-0.0456571072, -0.003, 0.0575181172),
                    (-0.0494509361, 0.003, 0.054508386),
                    (-0.0494509361, -0.003, 0.054508386),
                    (-0.0530330086, 0.003, 0.0512652416),
                    (-0.0530330086, -0.003, 0.0512652416),
                    (-0.0563879856, 0.003, 0.0478025716),
                    (-0.0563879856, -0.003, 0.0478025716),
                    (-0.0595015005, 0.003, 0.0441352036),
                    (-0.0595015005, -0.003, 0.0441352036),
                    (-0.0623602209, 0.003, 0.0402788419),
                    (-0.0623602209, -0.003, 0.0402788419),
                    (-0.0649519053, 0.003, 0.03625),
                    (-0.0649519053, -0.003, 0.03625),
                    (-0.0672654556, 0.003, 0.03206593),
                    (-0.0672654556, -0.003, 0.03206593),
                    (-0.0692909649, 0.003, 0.0277445488),
                    (-0.0692909649, -0.003, 0.0277445488),
                    (-0.0710197597, 0.003, 0.0233043612),
                    (-0.0710197597, -0.003, 0.0233043612),
                    (-0.072444437, 0.003, 0.0187643808),
                    (-0.072444437, -0.003, 0.0187643808),
                    (-0.073558896, 0.003, 0.0141440483),
                    (-0.073558896, -0.003, 0.0141440483),
                    (-0.0743583646, 0.003, 0.00946314894),
                    (-0.0743583646, -0.003, 0.00946314894),
                    (-0.0748394192, 0.003, 0.00474172687),
                    (-0.0748394192, -0.003, 0.00474172687),
                    (-0.075, 0.003, 8.87868929e-18),
                    (-0.075, -0.003, 8.87868929e-18),
                    (-0.0748394192, 0.003, -0.00474172687),
                    (-0.0748394192, -0.003, -0.00474172687),
                    (-0.0743583646, 0.003, -0.00946314894),
                    (-0.0743583646, -0.003, -0.00946314894),
                    (-0.073558896, 0.003, -0.0141440483),
                    (-0.073558896, -0.003, -0.0141440483),
                    (-0.072444437, 0.003, -0.0187643808),
                    (-0.072444437, -0.003, -0.0187643808),
                    (-0.0710197597, 0.003, -0.0233043612),
                    (-0.0710197597, -0.003, -0.0233043612),
                    (-0.0692909649, 0.003, -0.0277445488),
                    (-0.0692909649, -0.003, -0.0277445488),
                    (-0.0672654556, 0.003, -0.03206593),
                    (-0.0672654556, -0.003, -0.03206593),
                    (-0.0649519053, 0.003, -0.03625),
                    (-0.0649519053, -0.003, -0.03625),
                    (-0.0623602209, 0.003, -0.0402788419),
                    (-0.0623602209, -0.003, -0.0402788419),
                    (-0.0595015005, 0.003, -0.0441352036),
                    (-0.0595015005, -0.003, -0.0441352036),
                    (-0.0563879856, 0.003, -0.0478025716),
                    (-0.0563879856, -0.003, -0.0478025716),
                    (-0.0530330086, 0.003, -0.0512652416),
                    (-0.0530330086, -0.003, -0.0512652416),
                    (-0.0494509361, 0.003, -0.054508386),
                    (-0.0494509361, -0.003, -0.054508386),
                    (-0.0456571072, 0.003, -0.0575181172),
                    (-0.0456571072, -0.003, -0.0575181172),
                    (-0.0416677675, 0.003, -0.0602815469),
                    (-0.0416677675, -0.003, -0.0602815469),
                    (-0.0375, 0.003, -0.0627868418),
                    (-0.0375, -0.003, -0.0627868418),
                    (-0.0331716518, 0.003, -0.0650232738),
                    (-0.0331716518, -0.003, -0.0650232738),
                    (-0.0287012574, 0.003, -0.0669812661),
                    (-0.0287012574, -0.003, -0.0669812661),
                    (-0.0241079599, 0.003, -0.0686524344),
                    (-0.0241079599, -0.003, -0.0686524344),
                    (-0.0194114284, 0.003, -0.0700296224),
                    (-0.0194114284, -0.003, -0.0700296224),
                    (-0.0146317742, 0.003, -0.0711069328),
                    (-0.0146317742, -0.003, -0.0711069328),
                    (-0.00978946442, 0.003, -0.0718797524),
                    (-0.00978946442, -0.003, -0.0718797524),
                    (-0.00490523469, 0.003, -0.0723447719),
                    (-0.00490523469, -0.003, -0.0723447719),
                    (-1.37772765e-17, 0.003, -0.0725),
                    (-1.37772765e-17, -0.003, -0.0725),
                    (0.00490523469, 0.003, -0.0723447719),
                    (0.00490523469, -0.003, -0.0723447719),
                    (0.00978946442, 0.003, -0.0718797524),
                    (0.00978946442, -0.003, -0.0718797524),
                    (0.0146317742, 0.003, -0.0711069328),
                    (0.0146317742, -0.003, -0.0711069328),
                    (0.0194114284, 0.003, -0.0700296224),
                    (0.0194114284, -0.003, -0.0700296224),
                    (0.0241079599, 0.003, -0.0686524344),
                    (0.0241079599, -0.003, -0.0686524344),
                    (0.0287012574, 0.003, -0.0669812661),
                    (0.0287012574, -0.003, -0.0669812661),
                    (0.0331716518, 0.003, -0.0650232738),
                    (0.0331716518, -0.003, -0.0650232738),
                    (0.0375, 0.003, -0.0627868418),
                    (0.0375, -0.003, -0.0627868418),
                    (0.0416677675, 0.003, -0.0602815469),
                    (0.0416677675, -0.003, -0.0602815469),
                    (0.0456571072, 0.003, -0.0575181172),
                    (0.0456571072, -0.003, -0.0575181172),
                    (0.0494509361, 0.003, -0.054508386),
                    (0.0494509361, -0.003, -0.054508386),
                    (0.0530330086, 0.003, -0.0512652416),
                    (0.0530330086, -0.003, -0.0512652416),
                    (0.0563879856, 0.003, -0.0478025716),
                    (0.0563879856, -0.003, -0.0478025716),
                    (0.0595015005, 0.003, -0.0441352036),
                    (0.0595015005, -0.003, -0.0441352036),
                    (0.0623602209, 0.003, -0.0402788419),
                    (0.0623602209, -0.003, -0.0402788419),
                    (0.0649519053, 0.003, -0.03625),
                    (0.0649519053, -0.003, -0.03625),
                    (0.0672654556, 0.003, -0.03206593),
                    (0.0672654556, -0.003, -0.03206593),
                    (0.0692909649, 0.003, -0.0277445488),
                    (0.0692909649, -0.003, -0.0277445488),
                    (0.0710197597, 0.003, -0.0233043612),
                    (0.0710197597, -0.003, -0.0233043612),
                    (0.072444437, 0.003, -0.0187643808),
                    (0.072444437, -0.003, -0.0187643808),
                    (0.073558896, 0.003, -0.0141440483),
                    (0.073558896, -0.003, -0.0141440483),
                    (0.0743583646, 0.003, -0.00946314894),
                    (0.0743583646, -0.003, -0.00946314894),
                    (0.0748394192, 0.003, -0.00474172687),
                    (0.0748394192, -0.003, -0.00474172687),
                ]
                int[] faceVertexCounts = [3, 3, 3, 3, 3, 3, 3, 3, 3, 3, 3, 3, 3, 3, 3, 3, 3, 3, 3, 3, 3, 3, 3, 3, 3, 3, 3, 3, 3, 3, 3, 3, 3, 3, 3, 3, 3, 3, 3, 3, 3, 3, 3, 3, 3, 3, 3, 3, 3, 3, 3, 3, 3, 3, 3, 3, 3, 3, 3, 3, 3, 3, 3, 3, 3, 3, 3, 3, 3, 3, 3, 3, 3, 3, 3, 3, 3, 3, 3, 3, 3, 3, 3, 3, 3, 3, 3, 3, 3, 3, 3, 3, 3, 3, 3, 3, 3, 3, 3, 3, 3, 3, 3, 3, 3, 3, 3, 3, 3, 3, 3, 3, 3, 3, 3, 3, 3, 3, 3, 3, 3, 3, 3, 3, 3, 3, 3, 3, 3, 3, 3, 3, 3, 3, 3, 3, 3, 3, 3, 3, 3, 3, 3, 3, 3, 3, 3, 3, 3, 3, 3, 3, 3, 3, 3, 3, 3, 3, 3, 3, 3, 3, 3, 3, 3, 3, 3, 3, 3, 3, 3, 3, 3, 3, 3, 3, 3, 3, 3, 3, 3, 3, 3, 3, 3, 3, 3, 3, 3, 3, 3, 3, 3, 3, 3, 3, 3, 3, 3, 3, 3, 3, 3, 3, 3, 3, 3, 3, 3, 3, 3, 3, 3, 3, 3, 3, 3, 3, 3, 3, 3, 3, 3, 3, 3, 3, 3, 3, 3, 3, 3, 3, 3, 3, 3, 3, 3, 3, 3, 3, 3, 3, 3, 3, 3, 3, 3, 3, 3, 3, 3, 3, 3, 3, 3, 3, 3, 3, 3, 3, 3, 3, 3, 3, 3, 3, 3, 3, 3, 3, 3, 3, 3, 3, 3, 3, 3, 3, 3, 3, 3, 3, 3, 3, 3, 3, 3, 3, 3, 3, 3, 3, 3, 3, 3, 3, 3, 3, 3, 3, 3, 3, 3, 3, 3, 3, 3, 3, 3, 3, 3, 3, 3, 3, 3, 3, 3, 3, 3, 3, 3, 3, 3, 3, 3, 3, 3, 3, 3, 3, 3, 3, 3, 3, 3, 3, 3, 3, 3, 3, 3, 3, 3, 3, 3, 3, 3, 3, 3, 3, 3, 3, 3, 3, 3, 3, 3, 3, 3, 3, 3, 3, 3, 3, 3, 3, 3, 3, 3, 3, 3, 3, 3, 3, 3, 3, 3, 3, 3, 3, 3, 3, 3, 3]
                int[] faceVertexIndices = [0, 1, 2, 0, 2, 3, 4, 3, 0, 5, 1, 2, 3, 2, 6, 3, 6, 7, 4, 7, 3, 5, 2, 6, 7, 6, 8, 7, 8, 9, 4, 9, 7, 5, 6, 8, 9, 8, 10, 9, 10, 11, 4, 11, 9, 5, 8, 10, 11, 10, 12, 11, 12, 13, 4, 13, 11, 5, 10, 12, 13, 12, 14, 13, 14, 15, 4, 15, 13, 5, 12, 14, 15, 14, 16, 15, 16, 17, 4, 17, 15, 5, 14, 16, 17, 16, 18, 17, 18, 19, 4, 19, 17, 5, 16, 18, 19, 18, 20, 19, 20, 21, 4, 21, 19, 5, 18, 20, 21, 20, 22, 21, 22, 23, 4, 23, 21, 5, 20, 22, 23, 22, 24, 23, 24, 25, 4, 25, 23, 5, 22, 24, 25, 24, 26, 25, 26, 27, 4, 27, 25, 5, 24, 26, 27, 26, 28, 27, 28, 29, 4, 29, 27, 5, 26, 28, 29, 28, 30, 29, 30, 31, 4, 31, 29, 5, 28, 30, 31, 30, 32, 31, 32, 33, 4, 33, 31, 5, 30, 32, 33, 32, 34, 33, 34, 35, 4, 35, 33, 5, 32, 34, 35, 34, 36, 35, 36, 37, 4, 37, 35, 5, 34, 36, 37, 36, 38, 37, 38, 39, 4, 39, 37, 5, 36, 38, 39, 38, 40, 39, 40, 41, 4, 41, 39, 5, 38, 40, 41, 40, 42, 41, 42, 43, 4, 43, 41, 5, 40, 42, 43, 42, 44, 43, 44, 45, 4, 45, 43, 5, 42, 44, 45, 44, 46, 45, 46, 47, 4, 47, 45, 5, 44, 46, 47, 46, 48, 47, 48, 49, 4, 49, 47, 5, 46, 48, 49, 48, 50, 49, 50, 51, 4, 51, 49, 5, 48, 50, 51, 50, 52, 51, 52, 53, 4, 53, 51, 5, 50, 52, 53, 52, 54, 53, 54, 55, 4, 55, 53, 5, 52, 54, 55, 54, 56, 55, 56, 57, 4, 57, 55, 5, 54, 56, 57, 56, 58, 57, 58, 59, 4, 59, 57, 5, 56, 58, 59, 58, 60, 59, 60, 61, 4, 61, 59, 5, 58, 60, 61, 60, 62, 61, 62, 63, 4, 63, 61, 5, 60, 62, 63, 62, 64, 63, 64, 65, 4, 65, 63, 5, 62, 64, 65, 64, 66, 65, 66, 67, 4, 67, 65, 5, 64, 66, 67, 66, 68, 67, 68, 69, 4, 69, 67, 5, 66, 68, 69, 68, 70, 69, 70, 71, 4, 71, 69, 5, 68, 70, 71, 70, 72, 71, 72, 73, 4, 73, 71, 5, 70, 72, 73, 72, 74, 73, 74, 75, 4, 75, 73, 5, 72, 74, 75, 74, 76, 75, 76, 77, 4, 77, 75, 5, 74, 76, 77, 76, 78, 77, 78, 79, 4, 79, 77, 5, 76, 78, 79, 78, 80, 79, 80, 81, 4, 81, 79, 5, 78, 80, 81, 80, 82, 81, 82, 83, 4, 83, 81, 5, 80, 82, 83, 82, 84, 83, 84, 85, 4, 85, 83, 5, 82, 84, 85, 84, 86, 85, 86, 87, 4, 87, 85, 5, 84, 86, 87, 86, 88, 87, 88, 89, 4, 89, 87, 5, 86, 88, 89, 88, 90, 89, 90, 91, 4, 91, 89, 5, 88, 90, 91, 90, 92, 91, 92, 93, 4, 93, 91, 5, 90, 92, 93, 92, 94, 93, 94, 95, 4, 95, 93, 5, 92, 94, 95, 94, 96, 95, 96, 97, 4, 97, 95, 5, 94, 96, 97, 96, 98, 97, 98, 99, 4, 99, 97, 5, 96, 98, 99, 98, 100, 99, 100, 101, 4, 101, 99, 5, 98, 100, 101, 100, 102, 101, 102, 103, 4, 103, 101, 5, 100, 102, 103, 102, 104, 103, 104, 105, 4, 105, 103, 5, 102, 104, 105, 104, 106, 105, 106, 107, 4, 107, 105, 5, 104, 106, 107, 106, 108, 107, 108, 109, 4, 109, 107, 5, 106, 108, 109, 108, 110, 109, 110, 111, 4, 111, 109, 5, 108, 110, 111, 110, 112, 111, 112, 113, 4, 113, 111, 5, 110, 112, 113, 112, 114, 113, 114, 115, 4, 115, 113, 5, 112, 114, 115, 114, 116, 115, 116, 117, 4, 117, 115, 5, 114, 116, 117, 116, 118, 117, 118, 119, 4, 119, 117, 5, 116, 118, 119, 118, 120, 119, 120, 121, 4, 121, 119, 5, 118, 120, 121, 120, 122, 121, 122, 123, 4, 123, 121, 5, 120, 122, 123, 122, 124, 123, 124, 125, 4, 125, 123, 5, 122, 124, 125, 124, 126, 125, 126, 127, 4, 127, 125, 5, 124, 126, 127, 126, 128, 127, 128, 129, 4, 129, 127, 5, 126, 128, 129, 128, 130, 129, 130, 131, 4, 131, 129, 5, 128, 130, 131, 130, 132, 131, 132, 133, 4, 133, 131, 5, 130, 132, 133, 132, 134, 133, 134, 135, 4, 135, 133, 5, 132, 134, 135, 134, 136, 135, 136, 137, 4, 137, 135, 5, 134, 136, 137, 136, 138, 137, 138, 139, 4, 139, 137, 5, 136, 138, 139, 138, 140, 139, 140, 141, 4, 141, 139, 5, 138, 140, 141, 140, 142, 141, 142, 143, 4, 143, 141, 5, 140, 142, 143, 142, 144, 143, 144, 145, 4, 145, 143, 5, 142, 144, 145, 144, 146, 145, 146, 147, 4, 147, 145, 5, 144, 146, 147, 146, 148, 147, 148, 149, 4, 149, 147, 5, 146, 148, 149, 148, 150, 149, 150, 151, 4, 151, 149, 5, 148, 150, 151, 150, 152, 151, 152, 153, 4, 153, 151, 5, 150, 152, 153, 152, 154, 153, 154, 155, 4, 155, 153, 5, 152, 154, 155, 154, 156, 155, 156, 157, 4, 157, 155, 5, 154, 156, 157, 156, 158, 157, 158, 159, 4, 159, 157, 5, 156, 158, 159, 158, 160, 159, 160, 161, 4, 161, 159, 5, 158, 160, 161, 160, 162, 161, 162, 163, 4, 163, 161, 5, 160, 162, 163, 162, 164, 163, 164, 165, 4, 165, 163, 5, 162, 164, 165, 164, 166, 165, 166, 167, 4, 167, 165, 5, 164, 166, 167, 166, 168, 167, 168, 169, 4, 169, 167, 5, 166, 168, 169, 168, 170, 169, 170, 171, 4, 171, 169, 5, 168, 170, 171, 170, 172, 171, 172, 173, 4, 173, 171, 5, 170, 172, 173, 172, 174, 173, 174, 175, 4, 175, 173, 5, 172, 174, 175, 174, 176, 175, 176, 177, 4, 177, 175, 5, 174, 176, 177, 176, 178, 177, 178, 179, 4, 179, 177, 5, 176, 178, 179, 178, 180, 179, 180, 181, 4, 181, 179, 5, 178, 180, 181, 180, 182, 181, 182, 183, 4, 183, 181, 5, 180, 182, 183, 182, 184, 183, 184, 185, 4, 185, 183, 5, 182, 184, 185, 184, 186, 185, 186, 187, 4, 187, 185, 5, 184, 186, 187, 186, 188, 187, 188, 189, 4, 189, 187, 5, 186, 188, 189, 188, 190, 189, 190, 191, 4, 191, 189, 5, 188, 190, 191, 190, 192, 191, 192, 193, 4, 193, 191, 5, 190, 192, 193, 192, 1, 193, 1, 0, 4, 0, 193, 5, 192, 1]
                color3f[] primvars:displayColor = [(1.0, 0.0, 0.0)] (
                    interpolation = "constant"
                )
            }
        }
    }

    over "joints"
    {
        def PhysicsFixedJoint "right_racket_fixed_joint"
        {
            rel physics:body0 = </g1/right_wrist_yaw_link>
            rel physics:body1 = </g1/right_racket_link>
            bool physics:collisionEnabled = 0
            bool physics:jointEnabled = 1
            # wrist_connector_mount_v1: handle butt is 10 mm inside right_wrist_yaw_link's distal x end.
            point3f physics:localPos0 = (0.2110002, 0, 0)
            point3f physics:localPos1 = (0, 0, 0)
            quatf physics:localRot0 = (1, 0, 0, 0)
            quatf physics:localRot1 = (1, 0, 0, 0)
        
}
    }
}
