v -0.13425239 -0.02243798 0.05999584
v -0.13417892 -0.02052967 0.06085083
v -0.13408234 -0.01982638 0.06129060
v -0.13402615 -0.02505351 0.05941037
v -0.13382982 -0.01871598 0.06216434
v -0.13346175 -0.02822224 0.05922173
v -0.13345855 -0.01769612 0.06321677
v -0.13322628 -0.01721637 0.06381519
v -0.13257126 -0.03175498 0.05948003
v -0.13222069 -0.01580340 0.06615430
v -0.13178027 -0.03396504 0.06006115
v -0.13085073 -0.03578684 0.06103790
v -0.13083283 -0.01481247 0.06901908
v -0.13062389 -0.03614305 0.06130975
v -0.12971090 -0.03731663 0.06250250
v -0.12919033 -0.03783284 0.06324055
v -0.12865697 -0.01411938 0.07318432
v -0.12848336 -0.03839980 0.06429367
v -0.12768366 -0.03887911 0.06554634
v -0.12698685 -0.03916419 0.06668809
v -0.12628936 -0.01383064 0.07720019
v -0.12558442 -0.03939094 0.06911751
v -0.12480480 -0.01404004 0.07958190
v -0.12406938 -0.01431696 0.08070122
v -0.12335535 -0.03913147 0.07321386
v -0.12322734 -0.01478733 0.08192930
v -0.12285384 -0.02030626 0.05419272
v -0.12271263 -0.01772318 0.05537113
v -0.12268818 -0.02305395 0.05348104
v -0.12248479 -0.01534677 0.08296174
v -0.12224025 -0.02585077 0.05323580
v -0.12215491 -0.01555699 0.05711298
v -0.12193927 -0.01585771 0.08368530
v -0.12151512 -0.02858825 0.05348758
v -0.12117257 -0.01408395 0.05933202
v -0.12103862 -0.03840862 0.07729727
v -0.12098599 -0.01702277 0.08485465
v -0.12074998 -0.01737705 0.08512117
v -0.12055214 -0.03116525 0.05420555
v -0.11998156 -0.01311221 0.06172736
v -0.11978749 -0.01919188 0.08607878
v -0.11955385 -0.03739721 0.08010575
v -0.11937569 -0.03346625 0.05538973
v -0.11897693 -0.02139781 0.08664853
v -0.11846909 -0.03596752 0.08239887
v -0.11821656 -0.03548349 0.08298552
v -0.11807784 -0.02492874 0.08690183
v -0.11798795 -0.03521595 0.05713620
v -0.11780965 -0.03445609 0.08401725
v -0.11752755 -0.03333944 0.08487380
v -0.11751996 -0.02809884 0.08671698
v -0.11741607 -0.03263301 0.08530491
v -0.11734167 -0.01203262 0.06664727
v -0.11731361 -0.03071857 0.08614307
v -0.11649355 -0.03615878 0.05935809
v -0.11501186 -0.03655835 0.06175505
v -0.11450755 -0.01194029 0.07157669
v -0.11303286 -0.01234134 0.07397772
v -0.11216336 -0.03646298 0.06667612
v -0.11154494 -0.01328554 0.07620338
v -0.11111207 -0.01800890 0.04781488
v -0.11093183 -0.02066589 0.04716111
v -0.11091332 -0.01556993 0.04903980
v -0.11047799 -0.02336503 0.04696139
v -0.11030019 -0.01357781 0.05081361
v -0.11016230 -0.01503631 0.07795281
v -0.10979786 -0.02601573 0.04716743
v -0.10953785 -0.03538643 0.07160438
v -0.10937196 -0.01211205 0.05293719
v -0.10898932 -0.01733805 0.07913900
v -0.10888499 -0.02851588 0.04782729
v -0.10835383 -0.03441617 0.07400379
v -0.10826391 -0.01106202 0.05521858
v -0.10802842 -0.01991549 0.07985818
v -0.10771444 -0.03066171 0.04905762
v -0.10737798 -0.03294449 0.07622660
v -0.10730402 -0.02265312 0.08011039
v -0.10685536 -0.02544978 0.07986472
v -0.10682536 -0.03077939 0.07797140
v -0.10668762 -0.02819704 0.07915183
v -0.10634668 -0.03222976 0.05083564
v -0.10575150 -0.00989516 0.05995142
v -0.10490464 -0.03318809 0.05296209
v -0.10346697 -0.03369314 0.05524531
v -0.10299786 -0.00993462 0.06469371
v -0.10156686 -0.01044108 0.06698081
v -0.10069949 -0.03372967 0.05997957
v -0.10013103 -0.01140072 0.06911086
v -0.09876847 -0.01296987 0.07089190
v -0.09820092 -0.03256574 0.06472044
v -0.09760149 -0.01511646 0.07212431
v -0.09709954 -0.03151711 0.06700570
v -0.09669055 -0.01761701 0.07278529
v -0.09617752 -0.03005267 0.06913289
v -0.09601100 -0.02026783 0.07299167
v -0.09556958 -0.02806165 0.07090972
v -0.09555658 -0.02296685 0.07279161
v -0.09537441 -0.02562343 0.07213672
v -0.09240703 -0.01622370 0.03745110
v -0.09221135 -0.01787119 0.03715815
v -0.09192699 -0.01944461 0.03706564
v -0.09162116 -0.02072885 0.03713172
v -0.09105922 -0.02258242 0.03745861
v -0.09013087 -0.01574263 0.03626857
v -0.09013087 -0.01574263 0.03626857
v -0.08878306 -0.02210136 0.03627608
v -0.08878306 -0.02210136 0.03627608
v -0.08786515 -0.01484193 0.03519241
v -0.08785541 -0.01526172 0.03508467
v -0.08784488 -0.01352005 0.03562400
v -0.08776279 -0.01240257 0.03610587
v -0.08771988 -0.01523443 0.03386388
v -0.08759793 -0.01123832 0.03674894
v -0.08739684 -0.01035204 0.03737102
v -0.08707465 -0.01842002 0.03374682
v -0.08704116 -0.00929820 0.03831368
v -0.08672956 -0.00863776 0.03905833
v -0.08650760 -0.02162045 0.03509218
v -0.08636396 -0.02159145 0.03386446
v -0.08580517 -0.00733813 0.04106545
v -0.08539050 -0.02396871 0.03599781
v -0.08464078 -0.02518963 0.03676542
v -0.08459806 -0.01457298 0.03338309
v -0.08458626 -0.00635016 0.04349417
v -0.08418335 -0.02581018 0.03728757
v -0.08374479 -0.01439692 0.02958538
v -0.08306443 -0.01757492 0.02958095
v -0.08305724 -0.02699386 0.03871853
v -0.08285650 -0.00567288 0.04672456
v -0.08243658 -0.01412177 0.02777162
v -0.08238415 -0.02075294 0.02957645
v -0.08231085 -0.00558223 0.04769041
v -0.08181077 -0.02783600 0.04049940
v -0.08108877 -0.02048049 0.02777913
v -0.08054599 -0.00704775 0.03661933
v -0.08052271 -0.00566138 0.05074543
v -0.08038713 -0.02834171 0.04273007
v -0.07986259 -0.00605263 0.03832381
v -0.07935177 -0.01347528 0.02153218
v -0.07912940 -0.00617349 0.05299373
v -0.07910180 -0.01337522 0.06139104
v -0.07906203 -0.00535606 0.04013010
v -0.07859424 -0.02841985 0.04578233
v -0.07858731 -0.01334650 -0.00662308
v -0.07858668 -0.01495433 0.06167286
v -0.07855276 -0.01332704 0.00364592
v -0.07821023 -0.01325065 0.00685609
v -0.07820009 -0.01650586 0.06176429
v -0.07805399 -0.02833031 0.04675132
v -0.07800552 -0.01319751 0.01511306
v -0.07800396 -0.01983400 0.02153969
v -0.07796421 -0.01780507 0.06170453
v -0.07793216 -0.00702603 0.05480320
v -0.07775400 -0.01973394 0.06139855
v -0.07739356 -0.00466534 0.04356748
v -0.07723950 -0.01970522 -0.00661557
v -0.07720495 -0.01968577 0.00365343
v -0.07694305 -0.01291929 0.05999726
v -0.07694305 -0.01291929 0.05999727
v -0.07687082 -0.00822340 0.05627178
v -0.07686242 -0.01960937 0.00686360
v -0.07682212 -0.01298525 -0.01755375
v -0.07665771 -0.01955623 0.01512057
v -0.07649509 -0.02615918 0.03664190
v -0.07647466 -0.00485592 0.03860360
v -0.07644667 -0.00885098 0.05681327
v -0.07631883 -0.02765192 0.04997858
v -0.07628478 -0.00458612 0.04034082
v -0.07615277 -0.00522425 0.03653005
v -0.07576331 -0.01008592 0.05761942
v -0.07559525 -0.01927801 0.06000478
v -0.07559524 -0.01927801 0.06000478
v -0.07559429 -0.01080658 0.02938258
v -0.07547431 -0.01934398 -0.01754623
v -0.07546756 -0.02678762 0.03834830
v -0.07545013 -0.00430693 0.04244575
v -0.07539523 -0.00885444 0.03048497
v -0.07532515 -0.00455604 0.04685382
v -0.07531088 -0.00427832 0.04268801
v -0.07517922 -0.00568000 0.03426535
v -0.07512418 -0.02666907 0.05242139
v -0.07503092 -0.00719773 0.03179251
v -0.07478350 -0.01246319 0.05860481
v -0.07465668 -0.00885918 -0.02847794
v -0.07454778 -0.00589558 0.03325467
v -0.07454515 -0.00589643 0.03325078
v -0.07445411 -0.02709541 0.04015578
v -0.07424756 -0.02537954 0.05445626
v -0.07416473 -0.00483279 0.04857592
v -0.07401074 -0.00411096 0.04436199
v -0.07396281 -0.02472476 0.05521651
v -0.07368834 -0.01223046 0.05911067
v -0.07365160 -0.02368033 0.05618500
v -0.07349068 -0.02073106 0.02939431
v -0.07348953 -0.02280229 0.05682975
v -0.07347615 -0.01228797 -0.02766005
v -0.07343569 -0.01882192 0.05861232
v -0.07340228 -0.01923670 0.05849082
v -0.07337860 -0.02164944 0.05750415
v -0.07337461 -0.00624694 0.03169460
v -0.07335188 -0.02054365 0.05801818
v -0.07299753 -0.00543172 0.05020119
v -0.07292760 -0.01539131 0.05920145
v -0.07265054 -0.02704207 0.04359391
v -0.07251729 -0.02243207 0.03050101
v -0.07233055 -0.01858707 0.05911461
v -0.07230318 -0.00404576 0.04560417
v -0.07212834 -0.01864669 -0.02765254
v -0.07189656 -0.02642688 0.03816421
v -0.07181592 -0.02226141 -0.02846211
v -0.07163942 -0.02590037 0.03608159
v -0.07163569 -0.02666734 0.04024679
v -0.07151281 -0.02379556 0.03181212
v -0.07086093 -0.02661097 0.04222597
v -0.07073496 -0.02495829 0.03364891
v -0.07072829 -0.02658373 0.04247207
v -0.07071723 -0.02629539 0.04687950
v -0.07053595 -0.02477960 0.03326251
v -0.07033846 -0.01816808 0.05662243
v -0.07027654 -0.00408977 0.04636012
v -0.07007998 -0.00708524 0.02824819
v -0.06976970 -0.02556778 0.04860041
v -0.06941733 -0.02620393 0.04430032
v -0.06931252 -0.00780365 0.02707238
v -0.06898394 -0.02348427 0.03080993
v -0.06894663 -0.02454315 0.05022376
v -0.06812436 -0.02570108 0.04539673
v -0.06805850 -0.01103869 0.05780954
v -0.06790505 -0.00744101 -0.03942046
v -0.06753919 -0.00426241 0.04667721
v -0.06737442 -0.01421589 0.05781181
v -0.06707077 -0.00430009 0.04667589
v -0.06669031 -0.01739309 0.05781419
v -0.06652970 -0.02093248 0.02708789
v -0.06634998 -0.02488986 0.04625253
v -0.06634428 -0.02144810 0.02759444
v -0.06598740 -0.00526163 0.04806442
v -0.06586482 -0.01057397 0.05758900
v -0.06506428 -0.02084324 -0.03940463
v -0.06491747 -0.00661129 0.04933750
v -0.06482712 -0.01703884 0.02345499
v -0.06451701 -0.01693269 0.05759651
v -0.06415030 -0.02376368 0.04667385
v -0.06391917 -0.00460166 0.04639608
v -0.06390227 -0.00830346 0.05041991
v -0.06374772 -0.00850396 0.02279432
v -0.06352785 -0.00931470 0.02221719
v -0.06350576 -0.01011598 0.02196281
v -0.06348057 -0.00856264 0.02257148
v -0.06308430 -0.02318947 0.04669847
v -0.06308012 -0.02318719 0.04669840
v -0.06246929 -0.02185946 0.04808402
v -0.06215793 -0.01647477 0.02197032
v -0.06203952 -0.02018892 0.04935354
v -0.06185318 -0.01721553 0.02222652
v -0.06179865 -0.01822795 0.05043164
v -0.06169184 -0.01754603 0.02238398
v -0.06150502 -0.01788294 0.02258249
v -0.06135580 -0.02222505 0.04657292
v -0.05989440 -0.00575422 -0.04886818
v -0.05941350 -0.00512819 0.04546075
v -0.05904299 -0.00912743 0.05807354
v -0.05891294 -0.00557723 0.04578424
v -0.05769518 -0.01548615 0.05808105
v -0.05724201 -0.01982154 0.04571567
v -0.05705363 -0.01915645 -0.04885235
v -0.05613012 -0.01870606 0.04579974
v -0.05390743 -0.00805362 0.04552032
v -0.05296011 -0.00783560 0.06017698
v -0.05194682 -0.00609341 0.04332403
v -0.05176047 -0.00643042 0.04352280
v -0.05161230 -0.01419433 0.06018449
v -0.05159919 -0.00676093 0.04368029
v -0.05129360 -0.00750151 0.04393601
v -0.05073174 -0.00382183 -0.05712108
v -0.05026010 -0.01558985 0.04343516
v -0.04997127 -0.01541371 0.04333503
v -0.04994578 -0.01386030 0.04394352
v -0.04992452 -0.01466176 0.04368963
v -0.04789097 -0.01722406 -0.05710525
v -0.04612687 -0.00638201 0.06458334
v -0.04573804 -0.00266549 0.02573721
v -0.04499156 -0.00618724 0.02574137
v -0.04477906 -0.01274073 0.06459085
v -0.04364375 -0.01254597 0.02574888
v -0.04360480 -0.00584513 0.06652740
v -0.04289727 -0.01606772 0.02575304
v -0.04225699 -0.01220385 0.06653491
v -0.03969000 -0.00149067 -0.06497252
v -0.03684923 -0.01489290 -0.06495669
v -0.03499381 -0.00401368 0.07181422
v -0.03364600 -0.01037240 0.07182173
v -0.02518004 0.00157524 -0.07314758
v -0.02490560 -0.00187059 0.07585908
v -0.02355779 -0.00822931 0.07586659
v -0.02233927 -0.01182700 -0.07313175
v -0.01498581 0.00391560 0.07888720
v -0.01470090 0.00029506 0.07809361
v -0.01335309 -0.00606366 0.07810112
v -0.01312644 0.00412392 -0.07841825
v -0.01214504 -0.00948664 0.07890303
v -0.01028568 -0.00927832 -0.07840242
v -0.00238010 0.00639795 -0.08161957
v -0.00233518 0.00659666 0.07855868
v 0.00046067 -0.00700428 -0.08160374
v 0.00050559 -0.00680557 0.07857451
v 0.00757492 0.00850634 -0.08306054
v 0.00970389 0.00914589 0.07635925
v 0.01041569 -0.00489589 -0.08304472
v 0.01254465 -0.00425634 0.07637508
v 0.01770992 0.01065488 -0.08280144
v 0.02055068 -0.00274735 -0.08278561
v 0.02132868 0.01160539 0.07253643
v 0.02416944 -0.00179684 0.07255226
v 0.03021360 0.01330799 -0.08042763
v 0.03305436 -0.00009424 -0.08041180
v 0.03357800 0.01419507 0.06685778
v 0.03641876 0.00079284 0.06687361
v 0.04013244 0.01541455 -0.07692079
v 0.04297320 0.00201232 -0.07690496
v 0.04787456 0.01721529 0.05829874
v 0.04984643 0.01747990 -0.07154132
v 0.05071532 0.00381306 0.05831457
v 0.05268719 0.00407767 -0.07152549
v 0.05847329 0.01945251 0.05041036
v 0.05849975 0.01932217 -0.06469280
v 0.06131406 0.00605028 0.05042619
v 0.06134052 0.00591994 -0.06467697
v 0.06423175 0.02054400 -0.05888346
v 0.06666408 0.02117943 0.04261085
v 0.06707252 0.00714176 -0.05886763
v 0.06950484 0.00777720 0.04262668
v 0.06984083 0.02174120 -0.05186698
v 0.07268159 0.00833896 -0.05185116
v 0.07297064 0.02250673 0.03460525
v 0.07467682 0.02277528 -0.04421343
v 0.07581141 0.00910450 0.03462107
v 0.07751759 0.00937305 -0.04419760
v 0.07794081 0.02354955 0.02557135
v 0.07863239 0.02362336 -0.03604842
v 0.08078158 0.01014732 0.02558718
v 0.08147316 0.01022113 -0.03603259
v 0.08165692 0.02427450 -0.02753054
v 0.08234655 0.02446899 0.01337462
v 0.08360422 0.02469671 -0.01952261
v 0.08447713 0.02490818 0.00286812
v 0.08449769 0.01087227 -0.02751471
v 0.08492933 0.02499071 -0.00841704
v 0.08518732 0.01106676 0.01339045
v 0.08644498 0.01129448 -0.01950678
v 0.08731789 0.01150595 0.00288395
v 0.08777010 0.01158847 -0.00840121
vn -0.48977166 0.22764267 -0.84160711
vn -0.56757966 0.38097191 -0.72987241
vn -0.95768762 -0.02341043 0.28685600
vn -0.51330847 0.02778058 -0.85775443
vn -0.83711697 0.46773791 -0.28364842
vn -0.56181285 -0.15734131 -0.81216379
vn -0.94704694 0.31550999 0.05962833
vn -0.83681394 0.54747910 -0.00301039
vn -0.55974841 -0.32060015 -0.76413171
vn -0.90264643 0.34670563 0.25499926
vn -0.69131300 -0.49748250 -0.52402051
vn -0.52934123 -0.59980442 -0.60002710
vn -0.83624472 0.46808920 0.28563483
vn -0.70584696 -0.68787038 -0.16915791
vn -0.51348296 -0.78553083 -0.34536438
vn -0.86261200 -0.26153160 0.43301474
vn -0.87880903 0.17702772 0.44312060
vn -0.61738835 -0.78460089 0.05686016
vn -0.75412873 -0.59310347 0.28198959
vn -0.58627452 -0.77787917 0.22624366
vn -0.72606232 0.53859101 0.42749647
vn -0.51930437 -0.80170707 0.29595396
vn -0.69011780 0.50820812 0.51522997
vn -0.75553082 0.27414863 0.59499219
vn -0.71126917 -0.51297311 0.48057752
vn -0.56369496 0.53506624 0.62924725
vn -0.48832983 0.28124036 -0.82609796
vn -0.47393100 0.50567240 -0.72089169
vn -0.47898965 0.10789464 -0.87116454
vn -0.82961434 -0.09599528 0.55002268
vn -0.45702317 -0.07109914 -0.88660856
vn -0.41649976 0.73270405 -0.53821253
vn -0.17940530 0.63914009 0.74787277
vn -0.41224693 -0.24681682 -0.87700281
vn -0.32820354 0.88912831 -0.31895656
vn -0.47086627 -0.74425035 0.47368382
vn -0.38367270 0.45768116 0.80207432
vn 0.08436333 0.50579122 0.85852086
vn -0.33495249 -0.44818922 -0.82881437
vn -0.24472083 0.96033487 -0.13367370
vn -0.02066009 0.34705962 0.93761548
vn -0.51191071 -0.64556761 0.56673617
vn -0.22545173 -0.66125715 -0.71547921
vn 0.29408135 0.26447106 0.91846133
vn -0.20420607 -0.76742165 0.60775315
vn -0.37706458 -0.59526296 0.70956628
vn 0.38344887 0.11965728 0.91577786
vn -0.07996238 -0.84327011 -0.53150873
vn 0.00719040 -0.64308155 0.76576394
vn -0.67645441 -0.32184461 0.66243904
vn 0.50005636 -0.03058039 0.86545276
vn 0.47627412 -0.40026270 0.78291298
vn -0.17222675 0.98502808 0.00759147
vn 0.55810954 -0.21320452 0.80190871
vn 0.05237366 -0.94059484 -0.33546736
vn 0.15508858 -0.97487258 -0.15990927
vn -0.09428999 0.98771790 0.12459030
vn 0.01784721 0.95543086 0.29467499
vn 0.21777498 -0.97540483 -0.03405102
vn 0.15323589 0.85875097 0.48894328
vn -0.49241161 0.31802199 -0.81018073
vn -0.48355833 0.08726936 -0.87095086
vn -0.46764408 0.55563302 -0.68744524
vn -0.45107798 -0.10773215 -0.88595848
vn -0.40828082 0.75932988 -0.50668028
vn 0.29848872 0.67668807 0.67305106
vn -0.38821662 -0.32528158 -0.86225272
vn 0.29656632 -0.94938115 0.10355602
vn -0.34256516 0.87700221 -0.33692171
vn 0.40994784 0.46403387 0.78524858
vn -0.31031999 -0.50887967 -0.80295890
vn 0.39322669 -0.87539043 0.28118385
vn -0.27249626 0.94608440 -0.17512882
vn 0.47746586 0.26059603 0.83911624
vn -0.19541791 -0.70569711 -0.68103115
vn 0.49023982 -0.71712459 0.49537586
vn 0.51924492 0.08424514 0.85046309
vn 0.55116580 -0.09264553 0.82923644
vn 0.54871764 -0.48987186 0.67744705
vn 0.56210331 -0.26565384 0.78324192
vn -0.06630318 -0.85981050 -0.50629023
vn -0.19934942 0.97943840 -0.03098765
vn 0.05736430 -0.94869824 -0.31093566
vn 0.15235590 -0.97809919 -0.14180850
vn -0.11171419 0.98668584 0.11819898
vn -0.00302100 0.96017968 0.27936689
vn 0.23637098 -0.97161662 0.00948130
vn 0.13308636 0.87392009 0.46749514
vn 0.26937146 0.72132167 0.63807058
vn 0.31464003 -0.93718042 0.15064701
vn 0.38067059 0.52374307 0.76209127
vn 0.39820060 -0.86524771 0.30460249
vn 0.45113775 0.34069085 0.82486634
vn 0.47554783 -0.74511809 0.46760378
vn 0.50910751 0.12499860 0.85157789
vn 0.53868700 -0.54062342 0.64617539
vn 0.54253691 -0.07348437 0.83681166
vn 0.55814332 -0.30413444 0.77199629
vn -0.49725512 0.19807335 -0.84469183
vn -0.48883299 0.01200236 -0.87229482
vn -0.49162605 -0.08864451 -0.86628285
vn -0.43552857 -0.21002837 -0.87533019
vn -0.39735424 -0.38123242 -0.83472837
vn -0.48526085 0.20513860 -0.84996474
vn -0.20735678 0.97826470 -0.00115716
vn -0.32649148 -0.47104750 -0.81946175
vn 0.20735359 -0.97826538 0.00115377
vn -0.48880046 0.26053713 -0.83258304
vn -0.26606739 0.95612648 -0.12259810
vn -0.48701541 0.30541567 -0.81825257
vn -0.48169305 0.43323367 -0.76176137
vn -0.65961562 0.03827803 -0.75062776
vn -0.47029642 0.52266320 -0.71108682
vn -0.44831116 0.64381102 -0.62010037
vn -0.62509910 -0.15630675 -0.76473480
vn -0.42833571 0.71305098 -0.55505569
vn -0.38062408 0.82254692 -0.42254216
vn -0.22120185 -0.68641747 -0.69274873
vn -0.08192003 -0.94719826 -0.31000735
vn -0.32892752 0.89727981 -0.29444122
vn -0.31135998 -0.50203956 -0.80685268
vn -0.21443087 -0.67941239 -0.70172516
vn -0.41599305 0.77470662 -0.47621365
vn -0.25350273 0.95841086 -0.13109155
vn -0.14664214 -0.77484867 -0.61490293
vn -0.36648479 0.91822809 -0.15015349
vn -0.72169953 -0.14482942 -0.67688569
vn -0.06583872 -0.86321000 -0.50053347
vn -0.21532376 0.97459824 -0.06159499
vn -0.59871299 0.75974299 -0.25364018
vn -0.28879759 -0.86778303 -0.40441139
vn -0.13776562 0.98719740 0.08038615
vn 0.02640288 -0.93518141 -0.35318354
vn -0.43193942 -0.84383422 -0.31838993
vn -0.38255516 0.82607662 -0.41382239
vn -0.07368424 0.98057939 0.18175450
vn 0.11406479 -0.97204791 -0.20521229
vn -0.32463764 0.90595960 -0.27174915
vn -0.66340437 0.71991485 -0.20400307
vn 0.02278431 0.94557336 0.32461037
vn 0.39992342 0.43703589 0.80564315
vn -0.26300758 0.95543056 -0.13408747
vn 0.17265018 -0.97982714 -0.10065135
vn -0.64822119 0.76096816 -0.02714310
vn 0.46459623 0.20695781 0.86099873
vn -0.64812720 0.76126708 0.02008920
vn -0.76581037 0.64264626 0.02324351
vn 0.49104514 0.11681294 0.86326671
vn 0.25348115 -0.96653643 0.03942881
vn -0.68405584 0.72667217 -0.06336529
vn -0.29651235 -0.94329744 -0.14923260
vn 0.50815555 0.00129876 0.86126433
vn 0.12741520 0.87621974 0.46476267
vn 0.54695334 -0.17968033 0.81765337
vn -0.19584632 0.98033962 -0.02405098
vn -0.29180806 -0.95502696 -0.05264571
vn -0.43296255 -0.90133362 0.01188034
vn -0.20735457 0.97826518 -0.00115318
vn 0.39887998 0.48634137 0.77741033
vn 0.21444694 0.78917417 0.57551425
vn -0.31274189 -0.94928953 0.03227856
vn -0.56904493 0.81778820 -0.08608330
vn -0.36634487 -0.93022089 -0.02192128
vn -0.01977746 -0.90545380 -0.42398381
vn -0.17380296 0.97025900 -0.16849333
vn 0.28630325 0.69459721 0.65997361
vn 0.28987939 -0.95072630 0.10995200
vn -0.23256551 0.96956566 -0.07652269
vn -0.24520615 0.93245123 -0.26534628
vn 0.38557012 0.51771833 0.76374303
vn 0.20735573 -0.97826492 0.00115764
vn 0.56027165 -0.18929098 0.80638986
vn -0.49464151 0.39380862 -0.77475451
vn -0.17887702 -0.97838749 -0.10373491
vn 0.05811710 -0.95738715 -0.28289970
vn -0.06641139 0.99097357 -0.11645131
vn -0.46996305 0.53652598 -0.70090984
vn -0.10890745 0.98483451 0.13505610
vn 0.01646302 0.99334944 -0.11395547
vn -0.18315262 0.94155135 -0.28272985
vn 0.37478697 -0.88759076 0.26780099
vn -0.43403726 0.69676277 -0.57108081
vn 0.27380282 0.69717818 0.66255159
vn -0.63398425 0.77292253 0.02558767
vn 0.04154151 0.98071400 -0.19098262
vn 0.03820471 0.98062525 -0.19213151
vn 0.13885889 -0.97850208 -0.15248573
vn 0.43651137 -0.81073923 0.39007656
vn -0.02890853 0.96355817 0.26593224
vn -0.01201370 0.99747556 -0.06998701
vn 0.49309852 -0.69936812 0.51743412
vn -0.02043791 0.88785763 0.45966414
vn 0.51767726 -0.62915585 0.57980442
vn -0.29388817 -0.56048023 -0.77426847
vn 0.54729501 -0.50639526 0.66635727
vn -0.58325267 0.80183040 0.12993970
vn 0.27630131 -0.95400016 0.11636699
vn 0.56101478 -0.24528010 0.79063271
vn 0.55745671 -0.41722655 0.71774928
vn 0.06196454 0.98203735 -0.17822189
vn 0.56348707 -0.28925906 0.77382913
vn 0.07074322 0.91622165 0.39437707
vn 0.32196190 0.07119311 0.94407207
vn 0.23238119 -0.97262068 0.00282804
vn -0.21091160 -0.68372304 -0.69859795
vn 0.33752570 -0.11977135 0.93366548
vn 0.02790832 0.99836316 -0.04992111
vn -0.02079417 -0.99681922 0.07693528
vn 0.35967389 -0.91647635 -0.17523067
vn -0.54534571 -0.83768978 0.02956158
vn 0.33466006 -0.91627663 -0.22009039
vn 0.35844011 -0.92427885 -0.13126037
vn -0.11032041 -0.81735178 -0.56547810
vn 0.40685168 -0.90391565 -0.13194017
vn 0.27623405 -0.91755480 -0.28598589
vn 0.37114405 -0.92659740 -0.06057516
vn 0.28722083 -0.95031973 0.11998586
vn 0.41906549 -0.88537748 -0.20122334
vn 0.45089669 -0.76782717 0.45511934
vn 0.05449656 0.99849608 -0.00597591
vn 0.02946954 0.97637563 -0.21406116
vn 0.36028299 -0.89842864 0.25104212
vn 0.25677647 -0.96445108 0.06244962
vn -0.48659937 0.50339172 -0.71401529
vn 0.37080088 -0.89235435 -0.25731387
vn 0.42939712 -0.81618005 0.38661121
vn 0.36058040 -0.93079712 0.05998742
vn -0.07499731 0.86474815 0.49657431
vn -0.46800543 0.86149231 -0.19698200
vn 0.08337809 0.99353230 0.07708222
vn 0.18410307 0.03290390 0.98235604
vn 0.08581859 0.99204746 -0.09207070
vn 0.24303241 -0.94436973 0.22158761
vn -0.24600593 -0.65234502 -0.71688706
vn 0.39851263 -0.90006161 0.17628608
vn 0.42335167 -0.88083756 -0.21189279
vn 0.17614304 0.83125857 0.52724077
vn -0.17337034 0.69298366 0.69979738
vn -0.06521462 -0.97625961 -0.20655322
vn 0.28392995 0.69914993 0.65618073
vn 0.08889276 -0.97267939 -0.21445950
vn 0.17719446 -0.86963965 0.46079172
vn 0.44365029 -0.88651483 0.13139966
vn 0.10925913 0.99377947 -0.02155948
vn 0.34812298 0.57193874 0.74276273
vn -0.00423608 0.96580200 -0.25924612
vn 0.51866144 0.30450217 -0.79891723
vn -0.20089888 0.97911307 -0.03126078
vn 0.31105090 0.60570301 -0.73237368
vn 0.47895251 -0.87074638 -0.11137880
vn 0.47839948 -0.87147932 -0.10797101
vn 0.49904077 -0.68302911 0.53331936
vn 0.21448285 -0.97671845 -0.00426243
vn 0.54312730 -0.52106823 0.65840765
vn 0.43306370 -0.15808324 -0.88739254
vn 0.55053662 -0.38199931 0.74228429
vn 0.71717051 0.00185602 -0.69689527
vn 0.46544210 -0.85273289 -0.23708706
vn 0.47776122 -0.86800624 -0.13531214
vn -0.41785648 0.88268056 -0.21510692
vn 0.09809219 0.99100610 -0.09102104
vn -0.29551099 0.81821710 0.49314707
vn 0.29320762 0.66231760 0.68946696
vn 0.09499981 -0.84000511 0.53419702
vn 0.49162993 -0.86627981 -0.08865266
vn -0.01399944 -0.97478278 -0.22271629
vn 0.53657619 -0.49283282 0.68498307
vn -0.07736148 0.97511747 0.20775255
vn -0.42975464 0.76202416 0.48438635
vn 0.14668110 0.98205984 -0.11850368
vn 0.90702468 0.34129734 -0.24662190
vn -0.03039075 -0.87761760 0.47839706
vn 0.89124590 0.43787803 0.11808292
vn -0.19914128 0.97995976 -0.00464969
vn -0.37337822 0.90097345 -0.22098767
vn 0.51131195 -0.85866903 -0.03532115
vn 0.93989823 -0.34140746 0.00568026
vn 0.23580859 -0.97173747 0.01098165
vn 0.99656714 0.01562929 -0.08129983
vn 0.02716516 -0.97228287 -0.23222418
vn -0.45718176 0.78662313 0.41498060
vn -0.22264797 0.97486906 0.00762903
vn -0.44513914 0.88377299 0.14420977
vn -0.16543618 -0.83939633 0.51773031
vn -0.05003915 -0.98839229 0.14344606
vn -0.47912050 0.70863235 0.51796114
vn 0.19209539 -0.98132408 0.01011938
vn -0.07390516 -0.91381520 0.39934924
vn -0.33641329 0.91586319 -0.21913631
vn 0.06203428 -0.96967476 -0.23639504
vn -0.37818735 0.81347300 0.44185519
vn -0.03433388 -0.90517567 0.42364866
vn -0.31662891 0.91967221 -0.23226958
vn -0.29189386 0.87892490 0.37721214
vn 0.06798221 -0.92365073 0.37715746
vn 0.09994769 -0.97097919 -0.21727832
vn -0.52476958 0.61160006 0.59208298
vn -0.37873014 0.91240932 0.15515384
vn -0.12484298 -0.95143404 0.28140272
vn -0.28481674 0.93248094 -0.22216823
vn -0.06864088 -0.92137038 0.38257685
vn 0.13101377 -0.96839711 -0.21223202
vn -0.25218611 0.94476710 -0.20932581
vn -0.15399595 0.92994567 0.33389563
vn 0.16430323 -0.96547304 -0.20215406
vn 0.21974052 -0.91394473 0.34120248
vn -0.21939255 0.95666458 -0.19146748
vn -0.11706032 0.94709300 0.29885069
vn 0.19796785 -0.96155402 -0.19032237
vn 0.26387508 -0.91521314 0.30455682
vn -0.19008252 0.96697794 -0.16977132
vn 0.22852544 -0.95689096 -0.17926465
vn -0.08989976 0.95902856 0.26866757
vn 0.29429644 -0.91768153 0.26692735
vn -0.16653975 0.97163490 -0.16789916
vn 0.24766197 -0.95660065 -0.15355371
vn -0.07000713 0.96799029 0.24102658
vn 0.31381851 -0.92063692 0.23226192
vn -0.14702867 0.97843316 -0.14509008
vn 0.27124466 -0.95201512 -0.14175172
vn -0.06952580 0.97740661 0.19960583
vn -0.12773550 0.98327324 -0.12983598
vn 0.33486833 -0.91581866 0.22167406
vn 0.28868329 -0.94952947 -0.12270186
vn -0.05908955 0.98359297 0.17045025
vn -0.10840542 0.98681632 -0.12017409
vn 0.34451534 -0.91986806 0.18748849
vn 0.29683111 -0.94935619 -0.10302481
vn -0.10317711 0.98973967 -0.09884264
vn -0.05178446 0.98924555 0.13679038
vn 0.31367881 -0.94468499 -0.09579080
vn 0.35206430 -0.92366523 0.15130521
vn -0.09290224 0.99177710 -0.08801912
vn 0.32077440 -0.94363855 -0.08154791
vn -0.04548171 0.99377068 0.10174109
vn -0.08432211 0.99364975 -0.07449799
vn 0.35535075 -0.92793987 0.11248750
vn 0.32871740 -0.94201489 -0.06747457
vn -0.03968992 0.99678737 0.06956752
vn -0.07653922 0.99523959 -0.06033164
vn 0.35336932 -0.93247936 0.07491579
vn 0.33567511 -0.94048501 -0.05301096
vn -0.06805847 0.99657867 -0.04689341
vn -0.05265898 0.99780011 0.04027381
vn -0.07093770 0.99708205 -0.02819975
vn -0.05063485 0.99862468 0.01359648
vn 0.33955710 -0.93979825 -0.03847372
vn -0.05809233 0.99824781 -0.01125157
vn 0.36374471 -0.92997022 0.05334011
vn 0.35425765 -0.93487364 -0.02264482
vn 0.35537217 -0.93441517 0.02406050
vn 0.35265445 -0.93575326 -0.00082250
f 152//152 154//154 206//206
f 145//145 148//148 203//203
f 231//231 228//228 203//203
f 203//203 228//228 192//192
f 203//203 192//192 145//145
f 145//145 192//192 141//141
f 233//233 231//231 206//206
f 206//206 231//231 203//203
f 206//206 203//203 152//152
f 152//152 203//203 148//148
f 347//347 343//343 345//345
f 347//347 345//345 350//350
f 350//350 345//345 348//348
f 350//350 348//348 352//352
f 352//352 348//348 346//346
f 352//352 346//346 351//351
f 351//351 346//346 344//344
f 351//351 344//344 349//349
f 349//349 344//344 339//339
f 349//349 339//339 341//341
f 45//45 46//46 30//30
f 26//26 24//24 25//25
f 45//45 30//30 42//42
f 46//46 49//49 30//30
f 30//30 49//49 50//50
f 30//30 50//50 33//33
f 24//24 23//23 25//25
f 25//25 23//23 21//21
f 25//25 21//21 17//17
f 26//26 25//25 30//30
f 30//30 25//25 36//36
f 30//30 36//36 42//42
f 41//41 38//38 50//50
f 50//50 38//38 37//37
f 50//50 37//37 33//33
f 54//54 51//51 52//52
f 52//52 51//51 47//47
f 52//52 47//47 50//50
f 50//50 47//47 44//44
f 50//50 44//44 41//41
f 341//341 339//339 335//335
f 341//341 335//335 337//337
f 337//337 335//335 330//330
f 337//337 330//330 332//332
f 332//332 330//330 325//325
f 332//332 325//325 327//327
f 327//327 325//325 321//321
f 327//327 321//321 323//323
f 323//323 321//321 317//317
f 323//323 317//317 318//318
f 318//318 317//317 313//313
f 318//318 313//313 314//314
f 314//314 313//313 308//308
f 314//314 308//308 310//310
f 310//310 308//308 304//304
f 310//310 304//304 306//306
f 306//306 304//304 297//297
f 306//306 297//297 301//301
f 285//285 287//287 299//299
f 299//299 287//287 301//301
f 299//299 301//301 298//298
f 298//298 301//301 297//297
f 298//298 297//297 283//283
f 283//283 297//297 282//282
f 238//238 228//228 231//231
f 284//284 281//281 269//269
f 284//284 269//269 272//272
f 272//272 269//269 262//262
f 272//272 262//262 264//264
f 264//264 262//262 238//238
f 264//264 238//238 242//242
f 242//242 238//238 231//231
f 242//242 231//231 233//233
f 299//299 298//298 294//294
f 299//299 294//294 295//295
f 295//295 294//294 291//291
f 295//295 291//291 292//292
f 292//292 291//291 286//286
f 292//292 286//286 288//288
f 288//288 286//286 281//281
f 288//288 281//281 284//284
f 204//204 216//216 217//217
f 235//235 222//222 217//217
f 259//259 265//265 252//252
f 256//256 254//254 267//267
f 222//222 235//235 226//226
f 235//235 243//243 226//226
f 226//226 243//243 250//250
f 226//226 250//250 252//252
f 252//252 250//250 251//251
f 252//252 251//251 259//259
f 216//216 223//223 217//217
f 217//217 223//223 227//227
f 217//217 227//227 235//235
f 167//167 149//149 204//204
f 204//204 217//217 167//167
f 167//167 217//217 222//222
f 167//167 222//222 181//181
f 181//181 222//222 226//226
f 181//181 226//226 188//188
f 188//188 226//226 252//252
f 188//188 252//252 191//191
f 277//277 256//256 276//276
f 276//276 256//256 267//267
f 276//276 267//267 265//265
f 265//265 267//267 254//254
f 265//265 254//254 252//252
f 252//252 254//254 193//193
f 252//252 193//193 191//191
f 277//277 279//279 256//256
f 256//256 279//279 278//278
f 256//256 278//278 219//219
f 197//197 198//198 219//219
f 219//219 198//198 201//201
f 219//219 201//201 256//256
f 256//256 201//201 199//199
f 256//256 199//199 254//254
f 254//254 199//199 195//195
f 254//254 195//195 193//193
f 68//68 59//59 87//87
f 59//59 68//68 25//25
f 197//197 172//172 198//198
f 198//198 172//172 154//154
f 198//198 154//154 201//201
f 96//96 195//195 199//199
f 96//96 199//199 98//98
f 195//195 96//96 193//193
f 193//193 96//96 94//94
f 193//193 94//94 191//191
f 191//191 94//94 188//188
f 188//188 94//94 92//92
f 188//188 92//92 181//181
f 181//181 92//92 90//90
f 181//181 90//90 167//167
f 25//25 68//68 36//36
f 36//36 68//68 72//72
f 36//36 72//72 42//42
f 42//42 72//72 45//45
f 45//45 72//72 76//76
f 45//45 76//76 46//46
f 46//46 76//76 49//49
f 49//49 76//76 79//79
f 49//49 79//79 50//50
f 50//50 79//79 52//52
f 52//52 79//79 80//80
f 52//52 80//80 54//54
f 54//54 80//80 78//78
f 54//54 78//78 51//51
f 199//199 201//201 98//98
f 98//98 201//201 154//154
f 98//98 154//154 97//97
f 97//97 154//154 152//152
f 77//77 97//97 95//95
f 95//95 97//97 152//152
f 95//95 152//152 148//148
f 47//47 51//51 77//77
f 77//77 51//51 78//78
f 77//77 78//78 97//97
f 97//97 78//78 80//80
f 97//97 80//80 98//98
f 98//98 80//80 79//79
f 98//98 79//79 96//96
f 96//96 79//79 76//76
f 96//96 76//76 94//94
f 94//94 76//76 72//72
f 94//94 72//72 92//92
f 92//92 72//72 68//68
f 92//92 68//68 90//90
f 90//90 68//68 87//87
f 90//90 87//87 167//167
f 167//167 87//87 149//149
f 166//166 170//170 240//240
f 240//240 170//170 245//245
f 240//240 245//245 263//263
f 166//166 240//240 160//160
f 160//160 240//240 237//237
f 160//160 237//237 153//153
f 153//153 237//237 202//202
f 153//153 202//202 140//140
f 202//202 189//189 140//140
f 140//140 189//189 178//178
f 140//140 178//178 136//136
f 136//136 178//178 132//132
f 132//132 178//178 155//155
f 132//132 155//155 129//129
f 237//237 230//230 202//202
f 202//202 230//230 220//220
f 202//202 220//220 189//189
f 189//189 220//220 207//207
f 189//189 207//207 178//178
f 178//178 207//207 190//190
f 178//178 190//190 155//155
f 155//155 190//190 179//179
f 155//155 179//179 176//176
f 274//274 273//273 268//268
f 268//268 273//273 245//245
f 268//268 245//245 183//183
f 183//183 245//245 170//170
f 273//273 271//271 245//245
f 245//245 271//271 270//270
f 245//245 270//270 263//263
f 263//263 270//270 261//261
f 263//263 261//261 240//240
f 240//240 261//261 244//244
f 240//240 244//244 237//237
f 237//237 244//244 232//232
f 237//237 232//232 230//230
f 47//47 77//77 74//74
f 183//183 170//170 159//159
f 159//159 170//170 141//141
f 148//148 145//145 95//95
f 95//95 145//145 93//93
f 47//47 74//74 44//44
f 44//44 74//74 70//70
f 44//44 70//70 41//41
f 41//41 70//70 38//38
f 38//38 70//70 66//66
f 38//38 66//66 37//37
f 37//37 66//66 33//33
f 33//33 66//66 60//60
f 33//33 60//60 30//30
f 30//30 60//60 26//26
f 26//26 60//60 58//58
f 26//26 58//58 24//24
f 24//24 58//58 23//23
f 23//23 58//58 57//57
f 23//23 57//57 21//21
f 21//21 57//57 53//53
f 21//21 53//53 17//17
f 88//88 140//140 86//86
f 86//86 140//140 136//136
f 86//86 136//136 85//85
f 85//85 136//136 132//132
f 85//85 132//132 82//82
f 82//82 132//132 129//129
f 166//166 160//160 88//88
f 88//88 160//160 153//153
f 88//88 153//153 140//140
f 145//145 141//141 93//93
f 93//93 141//141 170//170
f 93//93 170//170 91//91
f 91//91 170//170 166//166
f 91//91 166//166 89//89
f 89//89 166//166 88//88
f 82//82 53//53 85//85
f 85//85 53//53 57//57
f 85//85 57//57 86//86
f 86//86 57//57 58//58
f 86//86 58//58 88//88
f 88//88 58//58 60//60
f 88//88 60//60 89//89
f 89//89 60//60 66//66
f 89//89 66//66 91//91
f 91//91 66//66 70//70
f 91//91 70//70 93//93
f 93//93 70//70 74//74
f 93//93 74//74 95//95
f 95//95 74//74 77//77
f 343//343 347//347 342//342
f 343//343 342//342 340//340
f 340//340 342//342 338//338
f 340//340 338//338 336//336
f 100//100 99//99 112//112
f 103//103 102//102 115//115
f 127//127 131//131 115//115
f 115//115 131//131 119//119
f 115//115 119//119 103//103
f 100//100 112//112 101//101
f 126//126 127//127 112//112
f 112//112 127//127 115//115
f 112//112 115//115 101//101
f 101//101 115//115 102//102
f 312//312 311//311 315//315
f 312//312 315//315 316//316
f 316//316 315//315 319//319
f 316//316 319//319 320//320
f 320//320 319//319 322//322
f 320//320 322//322 324//324
f 324//324 322//322 326//326
f 324//324 326//326 328//328
f 328//328 326//326 329//329
f 328//328 329//329 331//331
f 8//8 7//7 16//16
f 18//18 19//19 17//17
f 8//8 16//16 10//10
f 7//7 5//5 16//16
f 16//16 5//5 3//3
f 16//16 3//3 15//15
f 19//19 20//20 17//17
f 17//17 20//20 22//22
f 17//17 22//22 25//25
f 18//18 17//17 16//16
f 16//16 17//17 13//13
f 16//16 13//13 10//10
f 11//11 12//12 3//3
f 3//3 12//12 14//14
f 3//3 14//14 15//15
f 1//1 4//4 2//2
f 2//2 4//4 6//6
f 2//2 6//6 3//3
f 3//3 6//6 9//9
f 3//3 9//9 11//11
f 210//210 184//184 229//229
f 210//210 229//229 239//239
f 239//239 229//229 260//260
f 239//239 260//260 266//266
f 266//266 260//260 275//275
f 266//266 275//275 280//280
f 280//280 275//275 289//289
f 280//280 289//289 290//290
f 290//290 289//289 293//293
f 290//290 293//293 296//296
f 296//296 293//293 300//300
f 296//296 300//300 302//302
f 302//302 300//300 303//303
f 302//302 303//303 305//305
f 305//305 303//303 307//307
f 305//305 307//307 309//309
f 309//309 307//307 311//311
f 309//309 311//311 312//312
f 283//283 282//282 196//196
f 196//196 282//282 184//184
f 196//196 184//184 208//208
f 208//208 184//184 210//210
f 208//208 210//210 285//285
f 285//285 210//210 287//287
f 127//127 126//126 130//130
f 127//127 130//130 131//131
f 131//131 130//130 134//134
f 134//134 130//130 139//139
f 134//134 139//139 151//151
f 151//151 139//139 150//150
f 151//151 150//150 163//163
f 163//163 150//150 147//147
f 163//163 147//147 161//161
f 161//161 147//147 146//146
f 161//161 146//146 157//157
f 157//157 146//146 144//144
f 157//157 144//144 156//156
f 156//156 144//144 162//162
f 156//156 162//162 174//174
f 174//174 162//162 196//196
f 174//174 196//196 208//208
f 122//122 121//121 205//205
f 205//205 121//121 194//194
f 205//205 194//194 234//234
f 122//122 205//205 125//125
f 125//125 205//205 213//213
f 125//125 213//213 128//128
f 128//128 213//213 164//164
f 128//128 164//164 133//133
f 164//164 175//175 133//133
f 133//133 175//175 187//187
f 133//133 187//187 137//137
f 137//137 187//187 143//143
f 143//143 187//187 204//204
f 143//143 204//204 149//149
f 213//213 215//215 164//164
f 164//164 215//215 211//211
f 164//164 211//211 175//175
f 175//175 211//211 209//209
f 175//175 209//209 187//187
f 187//187 209//209 212//212
f 187//187 212//212 204//204
f 204//204 212//212 214//214
f 204//204 214//214 216//216
f 253//253 255//255 241//241
f 241//241 255//255 194//194
f 241//241 194//194 118//118
f 118//118 194//194 121//121
f 255//255 257//257 194//194
f 194//194 257//257 258//258
f 194//194 258//258 234//234
f 234//234 258//258 236//236
f 234//234 236//236 205//205
f 205//205 236//236 225//225
f 205//205 225//225 213//213
f 213//213 225//225 218//218
f 213//213 218//218 215//215
f 6//6 31//31 34//34
f 118//118 121//121 106//106
f 106//106 121//121 103//103
f 64//64 101//101 102//102
f 64//64 102//102 67//67
f 6//6 34//34 9//9
f 9//9 34//34 39//39
f 9//9 39//39 11//11
f 11//11 39//39 12//12
f 12//12 39//39 43//43
f 12//12 43//43 14//14
f 14//14 43//43 15//15
f 15//15 43//43 48//48
f 15//15 48//48 16//16
f 16//16 48//48 18//18
f 18//18 48//48 55//55
f 18//18 55//55 19//19
f 19//19 55//55 20//20
f 20//20 55//55 56//56
f 20//20 56//56 22//22
f 22//22 56//56 59//59
f 22//22 59//59 25//25
f 81//81 133//133 83//83
f 83//83 133//133 137//137
f 83//83 137//137 84//84
f 84//84 137//137 143//143
f 84//84 143//143 87//87
f 87//87 143//143 149//149
f 122//122 125//125 81//81
f 81//81 125//125 128//128
f 81//81 128//128 133//133
f 102//102 103//103 67//67
f 67//67 103//103 121//121
f 67//67 121//121 71//71
f 71//71 121//121 122//122
f 71//71 122//122 75//75
f 75//75 122//122 81//81
f 31//31 64//64 34//34
f 34//34 64//64 67//67
f 34//34 67//67 39//39
f 39//39 67//67 71//71
f 39//39 71//71 43//43
f 43//43 71//71 75//75
f 43//43 75//75 48//48
f 48//48 75//75 81//81
f 48//48 81//81 55//55
f 55//55 81//81 83//83
f 55//55 83//83 56//56
f 56//56 83//83 84//84
f 56//56 84//84 59//59
f 59//59 84//84 87//87
f 200//200 221//221 182//182
f 173//173 177//177 224//224
f 169//169 180//180 135//135
f 135//135 180//180 185//185
f 135//135 185//185 182//182
f 182//182 185//185 186//186
f 182//182 186//186 200//200
f 135//135 138//138 169//169
f 169//169 138//138 142//142
f 169//169 142//142 165//165
f 155//155 176//176 142//142
f 142//142 176//176 168//168
f 142//142 168//168 165//165
f 124//124 129//129 155//155
f 155//155 142//142 124//124
f 124//124 142//142 138//138
f 124//124 138//138 120//120
f 120//120 138//138 135//135
f 120//120 135//135 117//117
f 117//117 135//135 182//182
f 117//117 182//182 116//116
f 249//249 173//173 246//246
f 246//246 173//173 224//224
f 246//246 224//224 221//221
f 221//221 224//224 177//177
f 221//221 177//177 182//182
f 182//182 177//177 114//114
f 182//182 114//114 116//116
f 249//249 247//247 173//173
f 173//173 247//247 248//248
f 173//173 248//248 123//123
f 109//109 108//108 123//123
f 123//123 108//108 110//110
f 123//123 110//110 173//173
f 173//173 110//110 111//111
f 173//173 111//111 177//177
f 177//177 111//111 113//113
f 177//177 113//113 114//114
f 40//40 53//53 82//82
f 53//53 40//40 17//17
f 17//17 40//40 13//13
f 13//13 40//40 35//35
f 13//13 35//35 10//10
f 10//10 35//35 8//8
f 8//8 35//35 32//32
f 8//8 32//32 7//7
f 7//7 32//32 5//5
f 5//5 32//32 28//28
f 5//5 28//28 3//3
f 3//3 28//28 2//2
f 2//2 28//28 27//27
f 2//2 27//27 1//1
f 1//1 27//27 29//29
f 1//1 29//29 4//4
f 61//61 99//99 62//62
f 62//62 99//99 100//100
f 109//109 104//104 108//108
f 108//108 104//104 99//99
f 108//108 99//99 110//110
f 110//110 99//99 61//61
f 110//110 61//61 111//111
f 111//111 61//61 63//63
f 111//111 63//63 113//113
f 113//113 63//63 114//114
f 114//114 63//63 65//65
f 114//114 65//65 116//116
f 116//116 65//65 117//117
f 117//117 65//65 69//69
f 117//117 69//69 120//120
f 120//120 69//69 73//73
f 120//120 73//73 124//124
f 31//31 62//62 64//64
f 64//64 62//62 100//100
f 64//64 100//100 101//101
f 6//6 4//4 31//31
f 31//31 4//4 29//29
f 31//31 29//29 62//62
f 62//62 29//29 27//27
f 62//62 27//27 61//61
f 61//61 27//27 28//28
f 61//61 28//28 63//63
f 63//63 28//28 32//32
f 63//63 32//32 65//65
f 65//65 32//32 35//35
f 65//65 35//35 69//69
f 69//69 35//35 40//40
f 69//69 40//40 73//73
f 73//73 40//40 82//82
f 73//73 82//82 124//124
f 124//124 82//82 129//129
f 313//313 317//317 282//282
f 345//345 343//343 282//282
f 300//300 293//293 282//282
f 282//282 293//293 289//289
f 282//282 289//289 275//275
f 343//343 340//340 282//282
f 282//282 340//340 336//336
f 282//282 336//336 333//333
f 275//275 260//260 282//282
f 282//282 260//260 229//229
f 282//282 229//229 184//184
f 297//297 304//304 282//282
f 282//282 304//304 308//308
f 282//282 308//308 313//313
f 317//317 321//321 282//282
f 282//282 321//321 325//325
f 282//282 325//325 330//330
f 333//333 329//329 282//282
f 282//282 329//329 326//326
f 282//282 326//326 322//322
f 322//322 319//319 282//282
f 282//282 319//319 315//315
f 282//282 315//315 311//311
f 311//311 307//307 282//282
f 282//282 307//307 303//303
f 282//282 303//303 300//300
f 330//330 335//335 282//282
f 282//282 335//335 339//339
f 282//282 339//339 344//344
f 344//344 346//346 282//282
f 282//282 346//346 348//348
f 282//282 348//348 345//345
f 280//280 290//290 287//287
f 328//328 331//331 287//287
f 327//327 323//323 287//287
f 287//287 323//323 318//318
f 287//287 318//318 314//314
f 331//331 334//334 287//287
f 287//287 334//334 338//338
f 287//287 338//338 342//342
f 314//314 310//310 287//287
f 287//287 310//310 306//306
f 287//287 306//306 301//301
f 210//210 239//239 287//287
f 287//287 239//239 266//266
f 287//287 266//266 280//280
f 290//290 296//296 287//287
f 287//287 296//296 302//302
f 287//287 302//302 305//305
f 342//342 347//347 287//287
f 287//287 347//347 350//350
f 287//287 350//350 352//352
f 352//352 351//351 287//287
f 287//287 351//351 349//349
f 287//287 349//349 341//341
f 341//341 337//337 287//287
f 287//287 337//337 332//332
f 287//287 332//332 327//327
f 305//305 309//309 287//287
f 287//287 309//309 312//312
f 287//287 312//312 316//316
f 316//316 320//320 287//287
f 287//287 320//320 324//324
f 287//287 324//324 328//328
f 336//336 338//338 334//334
f 336//336 334//334 333//333
f 333//333 334//334 331//331
f 333//333 331//331 329//329
f 258//258 277//277 276//276
f 211//211 215//215 250//250
f 215//215 218//218 250//250
f 250//250 218//218 225//225
f 250//250 225//225 236//236
f 276//276 265//265 258//258
f 258//258 265//265 259//259
f 258//258 259//259 236//236
f 236//236 259//259 251//251
f 236//236 251//251 250//250
f 214//214 250//250 216//216
f 216//216 250//250 243//243
f 214//214 212//212 250//250
f 250//250 212//212 209//209
f 250//250 209//209 211//211
f 243//243 235//235 216//216
f 216//216 235//235 227//227
f 216//216 227//227 223//223
f 277//277 258//258 279//279
f 279//279 258//258 257//257
f 279//279 257//257 278//278
f 278//278 257//257 255//255
f 278//278 255//255 253//253
f 134//134 151//151 241//241
f 253//253 208//208 285//285
f 241//241 151//151 253//253
f 284//284 272//272 278//278
f 103//103 119//119 107//107
f 107//107 119//119 118//118
f 151//151 163//163 253//253
f 253//253 163//163 161//161
f 253//253 161//161 157//157
f 272//272 264//264 278//278
f 278//278 264//264 242//242
f 278//278 242//242 233//233
f 118//118 119//119 241//241
f 241//241 119//119 131//131
f 241//241 131//131 134//134
f 253//253 285//285 278//278
f 278//278 285//285 299//299
f 278//278 299//299 295//295
f 157//157 156//156 253//253
f 253//253 156//156 174//174
f 253//253 174//174 208//208
f 295//295 292//292 278//278
f 278//278 292//292 288//288
f 278//278 288//288 284//284
f 154//154 171//171 206//206
f 206//206 171//171 197//197
f 206//206 197//197 233//233
f 233//233 197//197 219//219
f 233//233 219//219 278//278
f 270//270 249//249 246//246
f 220//220 230//230 185//185
f 230//230 232//232 185//185
f 185//185 232//232 244//244
f 185//185 244//244 261//261
f 246//246 221//221 270//270
f 270//270 221//221 200//200
f 270//270 200//200 261//261
f 261//261 200//200 186//186
f 261//261 186//186 185//185
f 179//179 185//185 176//176
f 176//176 185//185 180//180
f 179//179 190//190 185//185
f 185//185 190//190 207//207
f 185//185 207//207 220//220
f 180//180 169//169 176//176
f 176//176 169//169 165//165
f 176//176 165//165 168//168
f 249//249 270//270 247//247
f 247//247 270//270 271//271
f 247//247 271//271 248//248
f 248//248 271//271 273//273
f 248//248 273//273 274//274
f 238//238 262//262 268//268
f 274//274 298//298 283//283
f 268//268 262//262 274//274
f 147//147 150//150 248//248
f 141//141 192//192 158//158
f 158//158 192//192 183//183
f 262//262 269//269 274//274
f 274//274 269//269 281//281
f 274//274 281//281 286//286
f 150//150 139//139 248//248
f 248//248 139//139 130//130
f 248//248 130//130 126//126
f 183//183 192//192 268//268
f 268//268 192//192 228//228
f 268//268 228//228 238//238
f 274//274 283//283 248//248
f 248//248 283//283 196//196
f 248//248 196//196 162//162
f 286//286 291//291 274//274
f 274//274 291//291 294//294
f 274//274 294//294 298//298
f 162//162 144//144 248//248
f 248//248 144//144 146//146
f 248//248 146//146 147//147
f 99//99 105//105 112//112
f 112//112 105//105 109//109
f 112//112 109//109 126//126
f 126//126 109//109 123//123
f 126//126 123//123 248//248
