solid h5002_head_hitter_frame
  facet normal 0.999390376 -0 0.0349124019
    outer loop
      vertex 0.0795 -0.00685 0
      vertex 0.0795 0.00685 0
      vertex 0.0793297844 0.00685 0.00487253313
    endloop
  endfacet
  facet normal 0.999390376 0 0.0349124019
    outer loop
      vertex 0.0795 -0.00685 0
      vertex 0.0793297844 0.00685 0.00487253313
      vertex 0.0793297844 -0.00685 0.00487253313
    endloop
  endfacet
  facet normal 0 1 0
    outer loop
      vertex 0 -0.00685 0
      vertex 0.0793297844 -0.00685 0.00487253313
      vertex 0.0795 -0.00685 0
    endloop
  endfacet
  facet normal 0 -1 0
    outer loop
      vertex 0 0.00685 0
      vertex 0.0795 0.00685 0
      vertex 0.0793297844 0.00685 0.00487253313
    endloop
  endfacet
  facet normal 0.994522171 -0 0.104525836
    outer loop
      vertex 0.0793297844 -0.00685 0.00487253313
      vertex 0.0793297844 0.00685 0.00487253313
      vertex 0.0788198665 0.00685 0.00972420132
    endloop
  endfacet
  facet normal 0.994522171 0 0.104525836
    outer loop
      vertex 0.0793297844 -0.00685 0.00487253313
      vertex 0.0788198665 0.00685 0.00972420132
      vertex 0.0788198665 -0.00685 0.00972420132
    endloop
  endfacet
  facet normal 0 1 0
    outer loop
      vertex 0 -0.00685 0
      vertex 0.0788198665 -0.00685 0.00972420132
      vertex 0.0793297844 -0.00685 0.00487253313
    endloop
  endfacet
  facet normal 0 -1 0
    outer loop
      vertex 0 0.00685 0
      vertex 0.0793297844 0.00685 0.00487253313
      vertex 0.0788198665 0.00685 0.00972420132
    endloop
  endfacet
  facet normal 0.984832287 -0 0.173508983
    outer loop
      vertex 0.0788198665 -0.00685 0.00972420132
      vertex 0.0788198665 0.00685 0.00972420132
      vertex 0.0779724298 0.00685 0.014534229
    endloop
  endfacet
  facet normal 0.984832287 0 0.173508983
    outer loop
      vertex 0.0788198665 -0.00685 0.00972420132
      vertex 0.0779724298 0.00685 0.014534229
      vertex 0.0779724298 -0.00685 0.014534229
    endloop
  endfacet
  facet normal 0 1 0
    outer loop
      vertex 0 -0.00685 0
      vertex 0.0779724298 -0.00685 0.014534229
      vertex 0.0788198665 -0.00685 0.00972420132
    endloop
  endfacet
  facet normal 0 -1 0
    outer loop
      vertex 0 0.00685 0
      vertex 0.0788198665 0.00685 0.00972420132
      vertex 0.0779724298 0.00685 0.014534229
    endloop
  endfacet
  facet normal 0.970412218 -0 0.241454192
    outer loop
      vertex 0.0779724298 -0.00685 0.014534229
      vertex 0.0779724298 0.00685 0.014534229
      vertex 0.0767911032 0.00685 0.0192820189
    endloop
  endfacet
  facet normal 0.970412218 0 0.241454192
    outer loop
      vertex 0.0779724298 -0.00685 0.014534229
      vertex 0.0767911032 0.00685 0.0192820189
      vertex 0.0767911032 -0.00685 0.0192820189
    endloop
  endfacet
  facet normal 0 1 0
    outer loop
      vertex 0 -0.00685 0
      vertex 0.0767911032 -0.00685 0.0192820189
      vertex 0.0779724298 -0.00685 0.014534229
    endloop
  endfacet
  facet normal 0 -1 0
    outer loop
      vertex 0 0.00685 0
      vertex 0.0779724298 0.00685 0.014534229
      vertex 0.0767911032 0.00685 0.0192820189
    endloop
  endfacet
  facet normal 0.951395435 -0 0.307971956
    outer loop
      vertex 0.0767911032 -0.00685 0.0192820189
      vertex 0.0767911032 0.00685 0.0192820189
      vertex 0.0752809453 0.00685 0.0239472402
    endloop
  endfacet
  facet normal 0.951395435 0 0.307971956
    outer loop
      vertex 0.0767911032 -0.00685 0.0192820189
      vertex 0.0752809453 0.00685 0.0239472402
      vertex 0.0752809453 -0.00685 0.0239472402
    endloop
  endfacet
  facet normal 0 1 0
    outer loop
      vertex 0 -0.00685 0
      vertex 0.0752809453 -0.00685 0.0239472402
      vertex 0.0767911032 -0.00685 0.0192820189
    endloop
  endfacet
  facet normal 0 -1 0
    outer loop
      vertex 0 0.00685 0
      vertex 0.0767911032 0.00685 0.0192820189
      vertex 0.0752809453 0.00685 0.0239472402
    endloop
  endfacet
  facet normal 0.92795314 -0 0.372696887
    outer loop
      vertex 0.0752809453 -0.00685 0.0239472402
      vertex 0.0752809453 0.00685 0.0239472402
      vertex 0.0734484228 0.00685 0.0285099157
    endloop
  endfacet
  facet normal 0.92795314 0 0.372696887
    outer loop
      vertex 0.0752809453 -0.00685 0.0239472402
      vertex 0.0734484228 0.00685 0.0285099157
      vertex 0.0734484228 -0.00685 0.0285099157
    endloop
  endfacet
  facet normal 0 1 0
    outer loop
      vertex 0 -0.00685 0
      vertex 0.0734484228 -0.00685 0.0285099157
      vertex 0.0752809453 -0.00685 0.0239472402
    endloop
  endfacet
  facet normal 0 -1 0
    outer loop
      vertex 0 0.00685 0
      vertex 0.0752809453 0.00685 0.0239472402
      vertex 0.0734484228 0.00685 0.0285099157
    endloop
  endfacet
  facet normal 0.900289059 -0 0.435292556
    outer loop
      vertex 0.0734484228 -0.00685 0.0285099157
      vertex 0.0734484228 0.00685 0.0285099157
      vertex 0.071301383 0.00685 0.0329505074
    endloop
  endfacet
  facet normal 0.900289059 0 0.435292556
    outer loop
      vertex 0.0734484228 -0.00685 0.0285099157
      vertex 0.071301383 0.00685 0.0329505074
      vertex 0.071301383 -0.00685 0.0329505074
    endloop
  endfacet
  facet normal 0 1 0
    outer loop
      vertex 0 -0.00685 0
      vertex 0.071301383 -0.00685 0.0329505074
      vertex 0.0734484228 -0.00685 0.0285099157
    endloop
  endfacet
  facet normal 0 -1 0
    outer loop
      vertex 0 0.00685 0
      vertex 0.0734484228 0.00685 0.0285099157
      vertex 0.071301383 0.00685 0.0329505074
    endloop
  endfacet
  facet normal 0.868633594 -0 0.495455022
    outer loop
      vertex 0.071301383 -0.00685 0.0329505074
      vertex 0.071301383 0.00685 0.0329505074
      vertex 0.0688490196 0.00685 0.03725
    endloop
  endfacet
  facet normal 0.868633594 0 0.495455022
    outer loop
      vertex 0.071301383 -0.00685 0.0329505074
      vertex 0.0688490196 0.00685 0.03725
      vertex 0.0688490196 -0.00685 0.03725
    endloop
  endfacet
  facet normal 0 1 0
    outer loop
      vertex 0 -0.00685 0
      vertex 0.0688490196 -0.00685 0.03725
      vertex 0.071301383 -0.00685 0.0329505074
    endloop
  endfacet
  facet normal 0 -1 0
    outer loop
      vertex 0 0.00685 0
      vertex 0.071301383 0.00685 0.0329505074
      vertex 0.0688490196 0.00685 0.03725
    endloop
  endfacet
  facet normal 0.833237661 -0 0.552915002
    outer loop
      vertex 0.0688490196 -0.00685 0.03725
      vertex 0.0688490196 0.00685 0.03725
      vertex 0.0661018342 0.00685 0.0413899824
    endloop
  endfacet
  facet normal 0.833237661 0 0.552915002
    outer loop
      vertex 0.0688490196 -0.00685 0.03725
      vertex 0.0661018342 0.00685 0.0413899824
      vertex 0.0661018342 -0.00685 0.0413899824
    endloop
  endfacet
  facet normal 0 1 0
    outer loop
      vertex 0 -0.00685 0
      vertex 0.0661018342 -0.00685 0.0413899824
      vertex 0.0688490196 -0.00685 0.03725
    endloop
  endfacet
  facet normal 0 -1 0
    outer loop
      vertex 0 0.00685 0
      vertex 0.0688490196 0.00685 0.03725
      vertex 0.0661018342 0.00685 0.0413899824
    endloop
  endfacet
  facet normal 0.794366548 -0 0.607438711
    outer loop
      vertex 0.0661018342 -0.00685 0.0413899824
      vertex 0.0661018342 0.00685 0.0413899824
      vertex 0.0630715906 0.00685 0.0453527265
    endloop
  endfacet
  facet normal 0.794366548 0 0.607438711
    outer loop
      vertex 0.0661018342 -0.00685 0.0413899824
      vertex 0.0630715906 0.00685 0.0453527265
      vertex 0.0630715906 -0.00685 0.0453527265
    endloop
  endfacet
  facet normal 0 1 0
    outer loop
      vertex 0 -0.00685 0
      vertex 0.0630715906 -0.00685 0.0453527265
      vertex 0.0661018342 -0.00685 0.0413899824
    endloop
  endfacet
  facet normal 0 -1 0
    outer loop
      vertex 0 0.00685 0
      vertex 0.0661018342 0.00685 0.0413899824
      vertex 0.0630715906 0.00685 0.0453527265
    endloop
  endfacet
  facet normal 0.752294065 -0 0.658827474
    outer loop
      vertex 0.0630715906 -0.00685 0.0453527265
      vertex 0.0630715906 0.00685 0.0453527265
      vertex 0.0597712647 0.00685 0.0491212632
    endloop
  endfacet
  facet normal 0.752294065 0 0.658827474
    outer loop
      vertex 0.0630715906 -0.00685 0.0453527265
      vertex 0.0597712647 0.00685 0.0491212632
      vertex 0.0597712647 -0.00685 0.0491212632
    endloop
  endfacet
  facet normal 0 1 0
    outer loop
      vertex 0 -0.00685 0
      vertex 0.0597712647 -0.00685 0.0491212632
      vertex 0.0630715906 -0.00685 0.0453527265
    endloop
  endfacet
  facet normal 0 -1 0
    outer loop
      vertex 0 0.00685 0
      vertex 0.0630715906 0.00685 0.0453527265
      vertex 0.0597712647 0.00685 0.0491212632
    endloop
  endfacet
  facet normal 0.707297225 -0 0.706916286
    outer loop
      vertex 0.0597712647 -0.00685 0.0491212632
      vertex 0.0597712647 0.00685 0.0491212632
      vertex 0.0562149891 0.00685 0.0526794552
    endloop
  endfacet
  facet normal 0.707297225 0 0.706916286
    outer loop
      vertex 0.0597712647 -0.00685 0.0491212632
      vertex 0.0562149891 0.00685 0.0526794552
      vertex 0.0562149891 -0.00685 0.0526794552
    endloop
  endfacet
  facet normal 0 1 0
    outer loop
      vertex 0 -0.00685 0
      vertex 0.0562149891 -0.00685 0.0526794552
      vertex 0.0597712647 -0.00685 0.0491212632
    endloop
  endfacet
  facet normal 0 -1 0
    outer loop
      vertex 0 0.00685 0
      vertex 0.0597712647 0.00685 0.0491212632
      vertex 0.0562149891 0.00685 0.0526794552
    endloop
  endfacet
  facet normal 0.659651619 -0 0.751571514
    outer loop
      vertex 0.0562149891 -0.00685 0.0526794552
      vertex 0.0562149891 0.00685 0.0526794552
      vertex 0.0524179923 0.00685 0.0560120657
    endloop
  endfacet
  facet normal 0.659651619 0 0.751571514
    outer loop
      vertex 0.0562149891 -0.00685 0.0526794552
      vertex 0.0524179923 0.00685 0.0560120657
      vertex 0.0524179923 -0.00685 0.0560120657
    endloop
  endfacet
  facet normal 0 1 0
    outer loop
      vertex 0 -0.00685 0
      vertex 0.0524179923 -0.00685 0.0560120657
      vertex 0.0562149891 -0.00685 0.0526794552
    endloop
  endfacet
  facet normal 0 -1 0
    outer loop
      vertex 0 0.00685 0
      vertex 0.0562149891 0.00685 0.0526794552
      vertex 0.0524179923 0.00685 0.0560120657
    endloop
  endfacet
  facet normal 0.609627592 -0 0.792687958
    outer loop
      vertex 0.0524179923 -0.00685 0.0560120657
      vertex 0.0524179923 0.00685 0.0560120657
      vertex 0.0483965336 0.00685 0.0591048239
    endloop
  endfacet
  facet normal 0.609627592 0 0.792687958
    outer loop
      vertex 0.0524179923 -0.00685 0.0560120657
      vertex 0.0483965336 0.00685 0.0591048239
      vertex 0.0483965336 -0.00685 0.0591048239
    endloop
  endfacet
  facet normal 0 1 0
    outer loop
      vertex 0 -0.00685 0
      vertex 0.0483965336 -0.00685 0.0591048239
      vertex 0.0524179923 -0.00685 0.0560120657
    endloop
  endfacet
  facet normal 0 -1 0
    outer loop
      vertex 0 0.00685 0
      vertex 0.0524179923 0.00685 0.0560120657
      vertex 0.0483965336 0.00685 0.0591048239
    endloop
  endfacet
  facet normal 0.55748726 -0 0.830185494
    outer loop
      vertex 0.0483965336 -0.00685 0.0591048239
      vertex 0.0483965336 0.00685 0.0591048239
      vertex 0.0441678335 0.00685 0.0619444861
    endloop
  endfacet
  facet normal 0.55748726 0 0.830185494
    outer loop
      vertex 0.0483965336 -0.00685 0.0591048239
      vertex 0.0441678335 0.00685 0.0619444861
      vertex 0.0441678335 -0.00685 0.0619444861
    endloop
  endfacet
  facet normal 0 1 0
    outer loop
      vertex 0 -0.00685 0
      vertex 0.0441678335 -0.00685 0.0619444861
      vertex 0.0483965336 -0.00685 0.0591048239
    endloop
  endfacet
  facet normal 0 -1 0
    outer loop
      vertex 0 0.00685 0
      vertex 0.0483965336 0.00685 0.0591048239
      vertex 0.0441678335 0.00685 0.0619444861
    endloop
  endfacet
  facet normal 0.503482379 -0 0.864005494
    outer loop
      vertex 0.0441678335 -0.00685 0.0619444861
      vertex 0.0441678335 0.00685 0.0619444861
      vertex 0.03975 0.00685 0.0645188926
    endloop
  endfacet
  facet normal 0.503482379 0 0.864005494
    outer loop
      vertex 0.0441678335 -0.00685 0.0619444861
      vertex 0.03975 0.00685 0.0645188926
      vertex 0.03975 -0.00685 0.0645188926
    endloop
  endfacet
  facet normal 0 1 0
    outer loop
      vertex 0 -0.00685 0
      vertex 0.03975 -0.00685 0.0645188926
      vertex 0.0441678335 -0.00685 0.0619444861
    endloop
  endfacet
  facet normal 0 -1 0
    outer loop
      vertex 0 0.00685 0
      vertex 0.0441678335 0.00685 0.0619444861
      vertex 0.03975 0.00685 0.0645188926
    endloop
  endfacet
  facet normal 0.447853006 -0 0.8941072
    outer loop
      vertex 0.03975 -0.00685 0.0645188926
      vertex 0.03975 0.00685 0.0645188926
      vertex 0.0351619509 0.00685 0.0668170192
    endloop
  endfacet
  facet normal 0.447853006 0 0.8941072
    outer loop
      vertex 0.03975 -0.00685 0.0645188926
      vertex 0.0351619509 0.00685 0.0668170192
      vertex 0.0351619509 -0.00685 0.0668170192
    endloop
  endfacet
  facet normal 0 1 0
    outer loop
      vertex 0 -0.00685 0
      vertex 0.0351619509 -0.00685 0.0668170192
      vertex 0.03975 -0.00685 0.0645188926
    endloop
  endfacet
  facet normal 0 -1 0
    outer loop
      vertex 0 0.00685 0
      vertex 0.03975 0.00685 0.0645188926
      vertex 0.0351619509 0.00685 0.0668170192
    endloop
  endfacet
  facet normal 0.390826906 -0 0.920464192
    outer loop
      vertex 0.0351619509 -0.00685 0.0668170192
      vertex 0.0351619509 0.00685 0.0668170192
      vertex 0.0304233329 0.00685 0.0688290252
    endloop
  endfacet
  facet normal 0.390826906 0 0.920464192
    outer loop
      vertex 0.0351619509 -0.00685 0.0668170192
      vertex 0.0304233329 0.00685 0.0688290252
      vertex 0.0304233329 -0.00685 0.0688290252
    endloop
  endfacet
  facet normal 0 1 0
    outer loop
      vertex 0 -0.00685 0
      vertex 0.0304233329 -0.00685 0.0688290252
      vertex 0.0351619509 -0.00685 0.0668170192
    endloop
  endfacet
  facet normal 0 -1 0
    outer loop
      vertex 0 0.00685 0
      vertex 0.0351619509 0.00685 0.0668170192
      vertex 0.0304233329 0.00685 0.0688290252
    endloop
  endfacet
  facet normal 0.332619595 -0 0.943061082
    outer loop
      vertex 0.0304233329 -0.00685 0.0688290252
      vertex 0.0304233329 0.00685 0.0688290252
      vertex 0.0255544375 0.00685 0.0705462946
    endloop
  endfacet
  facet normal 0.332619595 0 0.943061082
    outer loop
      vertex 0.0304233329 -0.00685 0.0688290252
      vertex 0.0255544375 0.00685 0.0705462946
      vertex 0.0255544375 -0.00685 0.0705462946
    endloop
  endfacet
  facet normal 0 1 0
    outer loop
      vertex 0 -0.00685 0
      vertex 0.0255544375 -0.00685 0.0705462946
      vertex 0.0304233329 -0.00685 0.0688290252
    endloop
  endfacet
  facet normal 0 -1 0
    outer loop
      vertex 0 0.00685 0
      vertex 0.0304233329 0.00685 0.0688290252
      vertex 0.0255544375 0.00685 0.0705462946
    endloop
  endfacet
  facet normal 0.273434953 -0 0.961890496
    outer loop
      vertex 0.0255544375 -0.00685 0.0705462946
      vertex 0.0255544375 0.00685 0.0705462946
      vertex 0.0205761141 0.00685 0.0719614741
    endloop
  endfacet
  facet normal 0.273434953 0 0.961890496
    outer loop
      vertex 0.0255544375 -0.00685 0.0705462946
      vertex 0.0205761141 0.00685 0.0719614741
      vertex 0.0205761141 -0.00685 0.0719614741
    endloop
  endfacet
  facet normal 0 1 0
    outer loop
      vertex 0 -0.00685 0
      vertex 0.0205761141 -0.00685 0.0719614741
      vertex 0.0255544375 -0.00685 0.0705462946
    endloop
  endfacet
  facet normal 0 -1 0
    outer loop
      vertex 0 0.00685 0
      vertex 0.0255544375 0.00685 0.0705462946
      vertex 0.0205761141 0.00685 0.0719614741
    endloop
  endfacet
  facet normal 0.213466294 -0 0.976950429
    outer loop
      vertex 0.0205761141 -0.00685 0.0719614741
      vertex 0.0205761141 0.00685 0.0719614741
      vertex 0.0155096806 0.00685 0.0730685034
    endloop
  endfacet
  facet normal 0.213466294 0 0.976950429
    outer loop
      vertex 0.0205761141 -0.00685 0.0719614741
      vertex 0.0155096806 0.00685 0.0730685034
      vertex 0.0155096806 -0.00685 0.0730685034
    endloop
  endfacet
  facet normal 0 1 0
    outer loop
      vertex 0 -0.00685 0
      vertex 0.0155096806 -0.00685 0.0730685034
      vertex 0.0205761141 -0.00685 0.0719614741
    endloop
  endfacet
  facet normal 0 -1 0
    outer loop
      vertex 0 0.00685 0
      vertex 0.0205761141 0.00685 0.0719614741
      vertex 0.0155096806 0.00685 0.0730685034
    endloop
  endfacet
  facet normal 0.152897817 -0 0.988242004
    outer loop
      vertex 0.0155096806 -0.00685 0.0730685034
      vertex 0.0155096806 0.00685 0.0730685034
      vertex 0.0103768323 0.00685 0.0738626422
    endloop
  endfacet
  facet normal 0.152897817 0 0.988242004
    outer loop
      vertex 0.0155096806 -0.00685 0.0730685034
      vertex 0.0103768323 0.00685 0.0738626422
      vertex 0.0103768323 -0.00685 0.0738626422
    endloop
  endfacet
  facet normal 0 1 0
    outer loop
      vertex 0 -0.00685 0
      vertex 0.0103768323 -0.00685 0.0738626422
      vertex 0.0155096806 -0.00685 0.0730685034
    endloop
  endfacet
  facet normal 0 -1 0
    outer loop
      vertex 0 0.00685 0
      vertex 0.0155096806 0.00685 0.0730685034
      vertex 0.0103768323 0.00685 0.0738626422
    endloop
  endfacet
  facet normal 0.0919063429 -0 0.995767656
    outer loop
      vertex 0.0103768323 -0.00685 0.0738626422
      vertex 0.0103768323 0.00685 0.0738626422
      vertex 0.00519954877 0.00685 0.0743404898
    endloop
  endfacet
  facet normal 0.0919063429 0 0.995767656
    outer loop
      vertex 0.0103768323 -0.00685 0.0738626422
      vertex 0.00519954877 0.00685 0.0743404898
      vertex 0.00519954877 -0.00685 0.0743404898
    endloop
  endfacet
  facet normal 0 1 0
    outer loop
      vertex 0 -0.00685 0
      vertex 0.00519954877 -0.00685 0.0743404898
      vertex 0.0103768323 -0.00685 0.0738626422
    endloop
  endfacet
  facet normal 0 -1 0
    outer loop
      vertex 0 0.00685 0
      vertex 0.0103768323 0.00685 0.0738626422
      vertex 0.00519954877 0.00685 0.0743404898
    endloop
  endfacet
  facet normal 0.0306632786 -0 0.999529771
    outer loop
      vertex 0.00519954877 -0.00685 0.0743404898
      vertex 0.00519954877 0.00685 0.0743404898
      vertex 4.86797103e-18 0.00685 0.0745
    endloop
  endfacet
  facet normal 0.0306632786 0 0.999529771
    outer loop
      vertex 0.00519954877 -0.00685 0.0743404898
      vertex 4.86797103e-18 0.00685 0.0745
      vertex 4.86797103e-18 -0.00685 0.0745
    endloop
  endfacet
  facet normal 0 1 0
    outer loop
      vertex 0 -0.00685 0
      vertex 4.86797103e-18 -0.00685 0.0745
      vertex 0.00519954877 -0.00685 0.0743404898
    endloop
  endfacet
  facet normal 0 -1 0
    outer loop
      vertex 0 0.00685 0
      vertex 0.00519954877 0.00685 0.0743404898
      vertex 4.86797103e-18 0.00685 0.0745
    endloop
  endfacet
  facet normal -0.0306632786 0 0.999529771
    outer loop
      vertex 4.86797103e-18 -0.00685 0.0745
      vertex 4.86797103e-18 0.00685 0.0745
      vertex -0.00519954877 0.00685 0.0743404898
    endloop
  endfacet
  facet normal -0.0306632786 0 0.999529771
    outer loop
      vertex 4.86797103e-18 -0.00685 0.0745
      vertex -0.00519954877 0.00685 0.0743404898
      vertex -0.00519954877 -0.00685 0.0743404898
    endloop
  endfacet
  facet normal 0 1 -0
    outer loop
      vertex 0 -0.00685 0
      vertex -0.00519954877 -0.00685 0.0743404898
      vertex 4.86797103e-18 -0.00685 0.0745
    endloop
  endfacet
  facet normal 0 -1 0
    outer loop
      vertex 0 0.00685 0
      vertex 4.86797103e-18 0.00685 0.0745
      vertex -0.00519954877 0.00685 0.0743404898
    endloop
  endfacet
  facet normal -0.0919063429 0 0.995767656
    outer loop
      vertex -0.00519954877 -0.00685 0.0743404898
      vertex -0.00519954877 0.00685 0.0743404898
      vertex -0.0103768323 0.00685 0.0738626422
    endloop
  endfacet
  facet normal -0.0919063429 0 0.995767656
    outer loop
      vertex -0.00519954877 -0.00685 0.0743404898
      vertex -0.0103768323 0.00685 0.0738626422
      vertex -0.0103768323 -0.00685 0.0738626422
    endloop
  endfacet
  facet normal 0 1 0
    outer loop
      vertex 0 -0.00685 0
      vertex -0.0103768323 -0.00685 0.0738626422
      vertex -0.00519954877 -0.00685 0.0743404898
    endloop
  endfacet
  facet normal 0 -1 0
    outer loop
      vertex 0 0.00685 0
      vertex -0.00519954877 0.00685 0.0743404898
      vertex -0.0103768323 0.00685 0.0738626422
    endloop
  endfacet
  facet normal -0.152897817 0 0.988242004
    outer loop
      vertex -0.0103768323 -0.00685 0.0738626422
      vertex -0.0103768323 0.00685 0.0738626422
      vertex -0.0155096806 0.00685 0.0730685034
    endloop
  endfacet
  facet normal -0.152897817 0 0.988242004
    outer loop
      vertex -0.0103768323 -0.00685 0.0738626422
      vertex -0.0155096806 0.00685 0.0730685034
      vertex -0.0155096806 -0.00685 0.0730685034
    endloop
  endfacet
  facet normal 0 1 0
    outer loop
      vertex 0 -0.00685 0
      vertex -0.0155096806 -0.00685 0.0730685034
      vertex -0.0103768323 -0.00685 0.0738626422
    endloop
  endfacet
  facet normal 0 -1 0
    outer loop
      vertex 0 0.00685 0
      vertex -0.0103768323 0.00685 0.0738626422
      vertex -0.0155096806 0.00685 0.0730685034
    endloop
  endfacet
  facet normal -0.213466294 0 0.976950429
    outer loop
      vertex -0.0155096806 -0.00685 0.0730685034
      vertex -0.0155096806 0.00685 0.0730685034
      vertex -0.0205761141 0.00685 0.0719614741
    endloop
  endfacet
  facet normal -0.213466294 0 0.976950429
    outer loop
      vertex -0.0155096806 -0.00685 0.0730685034
      vertex -0.0205761141 0.00685 0.0719614741
      vertex -0.0205761141 -0.00685 0.0719614741
    endloop
  endfacet
  facet normal 0 1 0
    outer loop
      vertex 0 -0.00685 0
      vertex -0.0205761141 -0.00685 0.0719614741
      vertex -0.0155096806 -0.00685 0.0730685034
    endloop
  endfacet
  facet normal 0 -1 0
    outer loop
      vertex 0 0.00685 0
      vertex -0.0155096806 0.00685 0.0730685034
      vertex -0.0205761141 0.00685 0.0719614741
    endloop
  endfacet
  facet normal -0.273434953 0 0.961890496
    outer loop
      vertex -0.0205761141 -0.00685 0.0719614741
      vertex -0.0205761141 0.00685 0.0719614741
      vertex -0.0255544375 0.00685 0.0705462946
    endloop
  endfacet
  facet normal -0.273434953 0 0.961890496
    outer loop
      vertex -0.0205761141 -0.00685 0.0719614741
      vertex -0.0255544375 0.00685 0.0705462946
      vertex -0.0255544375 -0.00685 0.0705462946
    endloop
  endfacet
  facet normal 0 1 0
    outer loop
      vertex 0 -0.00685 0
      vertex -0.0255544375 -0.00685 0.0705462946
      vertex -0.0205761141 -0.00685 0.0719614741
    endloop
  endfacet
  facet normal 0 -1 0
    outer loop
      vertex 0 0.00685 0
      vertex -0.0205761141 0.00685 0.0719614741
      vertex -0.0255544375 0.00685 0.0705462946
    endloop
  endfacet
  facet normal -0.332619595 0 0.943061082
    outer loop
      vertex -0.0255544375 -0.00685 0.0705462946
      vertex -0.0255544375 0.00685 0.0705462946
      vertex -0.0304233329 0.00685 0.0688290252
    endloop
  endfacet
  facet normal -0.332619595 0 0.943061082
    outer loop
      vertex -0.0255544375 -0.00685 0.0705462946
      vertex -0.0304233329 0.00685 0.0688290252
      vertex -0.0304233329 -0.00685 0.0688290252
    endloop
  endfacet
  facet normal 0 1 0
    outer loop
      vertex 0 -0.00685 0
      vertex -0.0304233329 -0.00685 0.0688290252
      vertex -0.0255544375 -0.00685 0.0705462946
    endloop
  endfacet
  facet normal 0 -1 0
    outer loop
      vertex 0 0.00685 0
      vertex -0.0255544375 0.00685 0.0705462946
      vertex -0.0304233329 0.00685 0.0688290252
    endloop
  endfacet
  facet normal -0.390826906 0 0.920464192
    outer loop
      vertex -0.0304233329 -0.00685 0.0688290252
      vertex -0.0304233329 0.00685 0.0688290252
      vertex -0.0351619509 0.00685 0.0668170192
    endloop
  endfacet
  facet normal -0.390826906 0 0.920464192
    outer loop
      vertex -0.0304233329 -0.00685 0.0688290252
      vertex -0.0351619509 0.00685 0.0668170192
      vertex -0.0351619509 -0.00685 0.0668170192
    endloop
  endfacet
  facet normal 0 1 0
    outer loop
      vertex 0 -0.00685 0
      vertex -0.0351619509 -0.00685 0.0668170192
      vertex -0.0304233329 -0.00685 0.0688290252
    endloop
  endfacet
  facet normal 0 -1 0
    outer loop
      vertex 0 0.00685 0
      vertex -0.0304233329 0.00685 0.0688290252
      vertex -0.0351619509 0.00685 0.0668170192
    endloop
  endfacet
  facet normal -0.447853006 0 0.8941072
    outer loop
      vertex -0.0351619509 -0.00685 0.0668170192
      vertex -0.0351619509 0.00685 0.0668170192
      vertex -0.03975 0.00685 0.0645188926
    endloop
  endfacet
  facet normal -0.447853006 0 0.8941072
    outer loop
      vertex -0.0351619509 -0.00685 0.0668170192
      vertex -0.03975 0.00685 0.0645188926
      vertex -0.03975 -0.00685 0.0645188926
    endloop
  endfacet
  facet normal 0 1 0
    outer loop
      vertex 0 -0.00685 0
      vertex -0.03975 -0.00685 0.0645188926
      vertex -0.0351619509 -0.00685 0.0668170192
    endloop
  endfacet
  facet normal 0 -1 0
    outer loop
      vertex 0 0.00685 0
      vertex -0.0351619509 0.00685 0.0668170192
      vertex -0.03975 0.00685 0.0645188926
    endloop
  endfacet
  facet normal -0.503482379 0 0.864005494
    outer loop
      vertex -0.03975 -0.00685 0.0645188926
      vertex -0.03975 0.00685 0.0645188926
      vertex -0.0441678335 0.00685 0.0619444861
    endloop
  endfacet
  facet normal -0.503482379 0 0.864005494
    outer loop
      vertex -0.03975 -0.00685 0.0645188926
      vertex -0.0441678335 0.00685 0.0619444861
      vertex -0.0441678335 -0.00685 0.0619444861
    endloop
  endfacet
  facet normal 0 1 0
    outer loop
      vertex 0 -0.00685 0
      vertex -0.0441678335 -0.00685 0.0619444861
      vertex -0.03975 -0.00685 0.0645188926
    endloop
  endfacet
  facet normal 0 -1 0
    outer loop
      vertex 0 0.00685 0
      vertex -0.03975 0.00685 0.0645188926
      vertex -0.0441678335 0.00685 0.0619444861
    endloop
  endfacet
  facet normal -0.55748726 0 0.830185494
    outer loop
      vertex -0.0441678335 -0.00685 0.0619444861
      vertex -0.0441678335 0.00685 0.0619444861
      vertex -0.0483965336 0.00685 0.0591048239
    endloop
  endfacet
  facet normal -0.55748726 0 0.830185494
    outer loop
      vertex -0.0441678335 -0.00685 0.0619444861
      vertex -0.0483965336 0.00685 0.0591048239
      vertex -0.0483965336 -0.00685 0.0591048239
    endloop
  endfacet
  facet normal 0 1 0
    outer loop
      vertex 0 -0.00685 0
      vertex -0.0483965336 -0.00685 0.0591048239
      vertex -0.0441678335 -0.00685 0.0619444861
    endloop
  endfacet
  facet normal 0 -1 0
    outer loop
      vertex 0 0.00685 0
      vertex -0.0441678335 0.00685 0.0619444861
      vertex -0.0483965336 0.00685 0.0591048239
    endloop
  endfacet
  facet normal -0.609627592 0 0.792687958
    outer loop
      vertex -0.0483965336 -0.00685 0.0591048239
      vertex -0.0483965336 0.00685 0.0591048239
      vertex -0.0524179923 0.00685 0.0560120657
    endloop
  endfacet
  facet normal -0.609627592 0 0.792687958
    outer loop
      vertex -0.0483965336 -0.00685 0.0591048239
      vertex -0.0524179923 0.00685 0.0560120657
      vertex -0.0524179923 -0.00685 0.0560120657
    endloop
  endfacet
  facet normal 0 1 0
    outer loop
      vertex 0 -0.00685 0
      vertex -0.0524179923 -0.00685 0.0560120657
      vertex -0.0483965336 -0.00685 0.0591048239
    endloop
  endfacet
  facet normal 0 -1 0
    outer loop
      vertex 0 0.00685 0
      vertex -0.0483965336 0.00685 0.0591048239
      vertex -0.0524179923 0.00685 0.0560120657
    endloop
  endfacet
  facet normal -0.659651619 0 0.751571514
    outer loop
      vertex -0.0524179923 -0.00685 0.0560120657
      vertex -0.0524179923 0.00685 0.0560120657
      vertex -0.0562149891 0.00685 0.0526794552
    endloop
  endfacet
  facet normal -0.659651619 0 0.751571514
    outer loop
      vertex -0.0524179923 -0.00685 0.0560120657
      vertex -0.0562149891 0.00685 0.0526794552
      vertex -0.0562149891 -0.00685 0.0526794552
    endloop
  endfacet
  facet normal 0 1 0
    outer loop
      vertex 0 -0.00685 0
      vertex -0.0562149891 -0.00685 0.0526794552
      vertex -0.0524179923 -0.00685 0.0560120657
    endloop
  endfacet
  facet normal 0 -1 0
    outer loop
      vertex 0 0.00685 0
      vertex -0.0524179923 0.00685 0.0560120657
      vertex -0.0562149891 0.00685 0.0526794552
    endloop
  endfacet
  facet normal -0.707297225 0 0.706916286
    outer loop
      vertex -0.0562149891 -0.00685 0.0526794552
      vertex -0.0562149891 0.00685 0.0526794552
      vertex -0.0597712647 0.00685 0.0491212632
    endloop
  endfacet
  facet normal -0.707297225 0 0.706916286
    outer loop
      vertex -0.0562149891 -0.00685 0.0526794552
      vertex -0.0597712647 0.00685 0.0491212632
      vertex -0.0597712647 -0.00685 0.0491212632
    endloop
  endfacet
  facet normal 0 1 0
    outer loop
      vertex 0 -0.00685 0
      vertex -0.0597712647 -0.00685 0.0491212632
      vertex -0.0562149891 -0.00685 0.0526794552
    endloop
  endfacet
  facet normal 0 -1 0
    outer loop
      vertex 0 0.00685 0
      vertex -0.0562149891 0.00685 0.0526794552
      vertex -0.0597712647 0.00685 0.0491212632
    endloop
  endfacet
  facet normal -0.752294065 0 0.658827474
    outer loop
      vertex -0.0597712647 -0.00685 0.0491212632
      vertex -0.0597712647 0.00685 0.0491212632
      vertex -0.0630715906 0.00685 0.0453527265
    endloop
  endfacet
  facet normal -0.752294065 0 0.658827474
    outer loop
      vertex -0.0597712647 -0.00685 0.0491212632
      vertex -0.0630715906 0.00685 0.0453527265
      vertex -0.0630715906 -0.00685 0.0453527265
    endloop
  endfacet
  facet normal 0 1 0
    outer loop
      vertex 0 -0.00685 0
      vertex -0.0630715906 -0.00685 0.0453527265
      vertex -0.0597712647 -0.00685 0.0491212632
    endloop
  endfacet
  facet normal 0 -1 0
    outer loop
      vertex 0 0.00685 0
      vertex -0.0597712647 0.00685 0.0491212632
      vertex -0.0630715906 0.00685 0.0453527265
    endloop
  endfacet
  facet normal -0.794366548 0 0.607438711
    outer loop
      vertex -0.0630715906 -0.00685 0.0453527265
      vertex -0.0630715906 0.00685 0.0453527265
      vertex -0.0661018342 0.00685 0.0413899824
    endloop
  endfacet
  facet normal -0.794366548 0 0.607438711
    outer loop
      vertex -0.0630715906 -0.00685 0.0453527265
      vertex -0.0661018342 0.00685 0.0413899824
      vertex -0.0661018342 -0.00685 0.0413899824
    endloop
  endfacet
  facet normal 0 1 0
    outer loop
      vertex 0 -0.00685 0
      vertex -0.0661018342 -0.00685 0.0413899824
      vertex -0.0630715906 -0.00685 0.0453527265
    endloop
  endfacet
  facet normal 0 -1 0
    outer loop
      vertex 0 0.00685 0
      vertex -0.0630715906 0.00685 0.0453527265
      vertex -0.0661018342 0.00685 0.0413899824
    endloop
  endfacet
  facet normal -0.833237661 0 0.552915002
    outer loop
      vertex -0.0661018342 -0.00685 0.0413899824
      vertex -0.0661018342 0.00685 0.0413899824
      vertex -0.0688490196 0.00685 0.03725
    endloop
  endfacet
  facet normal -0.833237661 0 0.552915002
    outer loop
      vertex -0.0661018342 -0.00685 0.0413899824
      vertex -0.0688490196 0.00685 0.03725
      vertex -0.0688490196 -0.00685 0.03725
    endloop
  endfacet
  facet normal 0 1 0
    outer loop
      vertex 0 -0.00685 0
      vertex -0.0688490196 -0.00685 0.03725
      vertex -0.0661018342 -0.00685 0.0413899824
    endloop
  endfacet
  facet normal 0 -1 0
    outer loop
      vertex 0 0.00685 0
      vertex -0.0661018342 0.00685 0.0413899824
      vertex -0.0688490196 0.00685 0.03725
    endloop
  endfacet
  facet normal -0.868633594 0 0.495455022
    outer loop
      vertex -0.0688490196 -0.00685 0.03725
      vertex -0.0688490196 0.00685 0.03725
      vertex -0.071301383 0.00685 0.0329505074
    endloop
  endfacet
  facet normal -0.868633594 0 0.495455022
    outer loop
      vertex -0.0688490196 -0.00685 0.03725
      vertex -0.071301383 0.00685 0.0329505074
      vertex -0.071301383 -0.00685 0.0329505074
    endloop
  endfacet
  facet normal 0 1 0
    outer loop
      vertex 0 -0.00685 0
      vertex -0.071301383 -0.00685 0.0329505074
      vertex -0.0688490196 -0.00685 0.03725
    endloop
  endfacet
  facet normal 0 -1 0
    outer loop
      vertex 0 0.00685 0
      vertex -0.0688490196 0.00685 0.03725
      vertex -0.071301383 0.00685 0.0329505074
    endloop
  endfacet
  facet normal -0.900289059 0 0.435292556
    outer loop
      vertex -0.071301383 -0.00685 0.0329505074
      vertex -0.071301383 0.00685 0.0329505074
      vertex -0.0734484228 0.00685 0.0285099157
    endloop
  endfacet
  facet normal -0.900289059 0 0.435292556
    outer loop
      vertex -0.071301383 -0.00685 0.0329505074
      vertex -0.0734484228 0.00685 0.0285099157
      vertex -0.0734484228 -0.00685 0.0285099157
    endloop
  endfacet
  facet normal 0 1 0
    outer loop
      vertex 0 -0.00685 0
      vertex -0.0734484228 -0.00685 0.0285099157
      vertex -0.071301383 -0.00685 0.0329505074
    endloop
  endfacet
  facet normal 0 -1 0
    outer loop
      vertex 0 0.00685 0
      vertex -0.071301383 0.00685 0.0329505074
      vertex -0.0734484228 0.00685 0.0285099157
    endloop
  endfacet
  facet normal -0.92795314 0 0.372696887
    outer loop
      vertex -0.0734484228 -0.00685 0.0285099157
      vertex -0.0734484228 0.00685 0.0285099157
      vertex -0.0752809453 0.00685 0.0239472402
    endloop
  endfacet
  facet normal -0.92795314 0 0.372696887
    outer loop
      vertex -0.0734484228 -0.00685 0.0285099157
      vertex -0.0752809453 0.00685 0.0239472402
      vertex -0.0752809453 -0.00685 0.0239472402
    endloop
  endfacet
  facet normal 0 1 0
    outer loop
      vertex 0 -0.00685 0
      vertex -0.0752809453 -0.00685 0.0239472402
      vertex -0.0734484228 -0.00685 0.0285099157
    endloop
  endfacet
  facet normal 0 -1 0
    outer loop
      vertex 0 0.00685 0
      vertex -0.0734484228 0.00685 0.0285099157
      vertex -0.0752809453 0.00685 0.0239472402
    endloop
  endfacet
  facet normal -0.951395435 0 0.307971956
    outer loop
      vertex -0.0752809453 -0.00685 0.0239472402
      vertex -0.0752809453 0.00685 0.0239472402
      vertex -0.0767911032 0.00685 0.0192820189
    endloop
  endfacet
  facet normal -0.951395435 0 0.307971956
    outer loop
      vertex -0.0752809453 -0.00685 0.0239472402
      vertex -0.0767911032 0.00685 0.0192820189
      vertex -0.0767911032 -0.00685 0.0192820189
    endloop
  endfacet
  facet normal 0 1 0
    outer loop
      vertex 0 -0.00685 0
      vertex -0.0767911032 -0.00685 0.0192820189
      vertex -0.0752809453 -0.00685 0.0239472402
    endloop
  endfacet
  facet normal 0 -1 0
    outer loop
      vertex 0 0.00685 0
      vertex -0.0752809453 0.00685 0.0239472402
      vertex -0.0767911032 0.00685 0.0192820189
    endloop
  endfacet
  facet normal -0.970412218 0 0.241454192
    outer loop
      vertex -0.0767911032 -0.00685 0.0192820189
      vertex -0.0767911032 0.00685 0.0192820189
      vertex -0.0779724298 0.00685 0.014534229
    endloop
  endfacet
  facet normal -0.970412218 0 0.241454192
    outer loop
      vertex -0.0767911032 -0.00685 0.0192820189
      vertex -0.0779724298 0.00685 0.014534229
      vertex -0.0779724298 -0.00685 0.014534229
    endloop
  endfacet
  facet normal 0 1 0
    outer loop
      vertex 0 -0.00685 0
      vertex -0.0779724298 -0.00685 0.014534229
      vertex -0.0767911032 -0.00685 0.0192820189
    endloop
  endfacet
  facet normal 0 -1 0
    outer loop
      vertex 0 0.00685 0
      vertex -0.0767911032 0.00685 0.0192820189
      vertex -0.0779724298 0.00685 0.014534229
    endloop
  endfacet
  facet normal -0.984832287 0 0.173508983
    outer loop
      vertex -0.0779724298 -0.00685 0.014534229
      vertex -0.0779724298 0.00685 0.014534229
      vertex -0.0788198665 0.00685 0.00972420132
    endloop
  endfacet
  facet normal -0.984832287 0 0.173508983
    outer loop
      vertex -0.0779724298 -0.00685 0.014534229
      vertex -0.0788198665 0.00685 0.00972420132
      vertex -0.0788198665 -0.00685 0.00972420132
    endloop
  endfacet
  facet normal 0 1 0
    outer loop
      vertex 0 -0.00685 0
      vertex -0.0788198665 -0.00685 0.00972420132
      vertex -0.0779724298 -0.00685 0.014534229
    endloop
  endfacet
  facet normal 0 -1 0
    outer loop
      vertex 0 0.00685 0
      vertex -0.0779724298 0.00685 0.014534229
      vertex -0.0788198665 0.00685 0.00972420132
    endloop
  endfacet
  facet normal -0.994522171 0 0.104525836
    outer loop
      vertex -0.0788198665 -0.00685 0.00972420132
      vertex -0.0788198665 0.00685 0.00972420132
      vertex -0.0793297844 0.00685 0.00487253313
    endloop
  endfacet
  facet normal -0.994522171 0 0.104525836
    outer loop
      vertex -0.0788198665 -0.00685 0.00972420132
      vertex -0.0793297844 0.00685 0.00487253313
      vertex -0.0793297844 -0.00685 0.00487253313
    endloop
  endfacet
  facet normal 0 1 0
    outer loop
      vertex 0 -0.00685 0
      vertex -0.0793297844 -0.00685 0.00487253313
      vertex -0.0788198665 -0.00685 0.00972420132
    endloop
  endfacet
  facet normal 0 -1 0
    outer loop
      vertex 0 0.00685 0
      vertex -0.0788198665 0.00685 0.00972420132
      vertex -0.0793297844 0.00685 0.00487253313
    endloop
  endfacet
  facet normal -0.999390376 0 0.0349124019
    outer loop
      vertex -0.0793297844 -0.00685 0.00487253313
      vertex -0.0793297844 0.00685 0.00487253313
      vertex -0.0795 0.00685 9.12361865e-18
    endloop
  endfacet
  facet normal -0.999390376 0 0.0349124019
    outer loop
      vertex -0.0793297844 -0.00685 0.00487253313
      vertex -0.0795 0.00685 9.12361865e-18
      vertex -0.0795 -0.00685 9.12361865e-18
    endloop
  endfacet
  facet normal 0 1 0
    outer loop
      vertex 0 -0.00685 0
      vertex -0.0795 -0.00685 9.12361865e-18
      vertex -0.0793297844 -0.00685 0.00487253313
    endloop
  endfacet
  facet normal 0 -1 0
    outer loop
      vertex 0 0.00685 0
      vertex -0.0793297844 0.00685 0.00487253313
      vertex -0.0795 0.00685 9.12361865e-18
    endloop
  endfacet
  facet normal -0.999390376 0 -0.0349124019
    outer loop
      vertex -0.0795 -0.00685 9.12361865e-18
      vertex -0.0795 0.00685 9.12361865e-18
      vertex -0.0793297844 0.00685 -0.00487253313
    endloop
  endfacet
  facet normal -0.999390376 0 -0.0349124019
    outer loop
      vertex -0.0795 -0.00685 9.12361865e-18
      vertex -0.0793297844 0.00685 -0.00487253313
      vertex -0.0793297844 -0.00685 -0.00487253313
    endloop
  endfacet
  facet normal 0 1 0
    outer loop
      vertex 0 -0.00685 0
      vertex -0.0793297844 -0.00685 -0.00487253313
      vertex -0.0795 -0.00685 9.12361865e-18
    endloop
  endfacet
  facet normal -0 -1 0
    outer loop
      vertex 0 0.00685 0
      vertex -0.0795 0.00685 9.12361865e-18
      vertex -0.0793297844 0.00685 -0.00487253313
    endloop
  endfacet
  facet normal -0.994522171 0 -0.104525836
    outer loop
      vertex -0.0793297844 -0.00685 -0.00487253313
      vertex -0.0793297844 0.00685 -0.00487253313
      vertex -0.0788198665 0.00685 -0.00972420132
    endloop
  endfacet
  facet normal -0.994522171 0 -0.104525836
    outer loop
      vertex -0.0793297844 -0.00685 -0.00487253313
      vertex -0.0788198665 0.00685 -0.00972420132
      vertex -0.0788198665 -0.00685 -0.00972420132
    endloop
  endfacet
  facet normal 0 1 0
    outer loop
      vertex 0 -0.00685 0
      vertex -0.0788198665 -0.00685 -0.00972420132
      vertex -0.0793297844 -0.00685 -0.00487253313
    endloop
  endfacet
  facet normal 0 -1 0
    outer loop
      vertex 0 0.00685 0
      vertex -0.0793297844 0.00685 -0.00487253313
      vertex -0.0788198665 0.00685 -0.00972420132
    endloop
  endfacet
  facet normal -0.984832287 0 -0.173508983
    outer loop
      vertex -0.0788198665 -0.00685 -0.00972420132
      vertex -0.0788198665 0.00685 -0.00972420132
      vertex -0.0779724298 0.00685 -0.014534229
    endloop
  endfacet
  facet normal -0.984832287 0 -0.173508983
    outer loop
      vertex -0.0788198665 -0.00685 -0.00972420132
      vertex -0.0779724298 0.00685 -0.014534229
      vertex -0.0779724298 -0.00685 -0.014534229
    endloop
  endfacet
  facet normal 0 1 0
    outer loop
      vertex 0 -0.00685 0
      vertex -0.0779724298 -0.00685 -0.014534229
      vertex -0.0788198665 -0.00685 -0.00972420132
    endloop
  endfacet
  facet normal 0 -1 0
    outer loop
      vertex 0 0.00685 0
      vertex -0.0788198665 0.00685 -0.00972420132
      vertex -0.0779724298 0.00685 -0.014534229
    endloop
  endfacet
  facet normal -0.970412218 0 -0.241454192
    outer loop
      vertex -0.0779724298 -0.00685 -0.014534229
      vertex -0.0779724298 0.00685 -0.014534229
      vertex -0.0767911032 0.00685 -0.0192820189
    endloop
  endfacet
  facet normal -0.970412218 0 -0.241454192
    outer loop
      vertex -0.0779724298 -0.00685 -0.014534229
      vertex -0.0767911032 0.00685 -0.0192820189
      vertex -0.0767911032 -0.00685 -0.0192820189
    endloop
  endfacet
  facet normal 0 1 0
    outer loop
      vertex 0 -0.00685 0
      vertex -0.0767911032 -0.00685 -0.0192820189
      vertex -0.0779724298 -0.00685 -0.014534229
    endloop
  endfacet
  facet normal 0 -1 0
    outer loop
      vertex 0 0.00685 0
      vertex -0.0779724298 0.00685 -0.014534229
      vertex -0.0767911032 0.00685 -0.0192820189
    endloop
  endfacet
  facet normal -0.951395435 0 -0.307971956
    outer loop
      vertex -0.0767911032 -0.00685 -0.0192820189
      vertex -0.0767911032 0.00685 -0.0192820189
      vertex -0.0752809453 0.00685 -0.0239472402
    endloop
  endfacet
  facet normal -0.951395435 0 -0.307971956
    outer loop
      vertex -0.0767911032 -0.00685 -0.0192820189
      vertex -0.0752809453 0.00685 -0.0239472402
      vertex -0.0752809453 -0.00685 -0.0239472402
    endloop
  endfacet
  facet normal 0 1 0
    outer loop
      vertex 0 -0.00685 0
      vertex -0.0752809453 -0.00685 -0.0239472402
      vertex -0.0767911032 -0.00685 -0.0192820189
    endloop
  endfacet
  facet normal 0 -1 0
    outer loop
      vertex 0 0.00685 0
      vertex -0.0767911032 0.00685 -0.0192820189
      vertex -0.0752809453 0.00685 -0.0239472402
    endloop
  endfacet
  facet normal -0.92795314 0 -0.372696887
    outer loop
      vertex -0.0752809453 -0.00685 -0.0239472402
      vertex -0.0752809453 0.00685 -0.0239472402
      vertex -0.0734484228 0.00685 -0.0285099157
    endloop
  endfacet
  facet normal -0.92795314 0 -0.372696887
    outer loop
      vertex -0.0752809453 -0.00685 -0.0239472402
      vertex -0.0734484228 0.00685 -0.0285099157
      vertex -0.0734484228 -0.00685 -0.0285099157
    endloop
  endfacet
  facet normal 0 1 0
    outer loop
      vertex 0 -0.00685 0
      vertex -0.0734484228 -0.00685 -0.0285099157
      vertex -0.0752809453 -0.00685 -0.0239472402
    endloop
  endfacet
  facet normal 0 -1 0
    outer loop
      vertex 0 0.00685 0
      vertex -0.0752809453 0.00685 -0.0239472402
      vertex -0.0734484228 0.00685 -0.0285099157
    endloop
  endfacet
  facet normal -0.900289059 0 -0.435292556
    outer loop
      vertex -0.0734484228 -0.00685 -0.0285099157
      vertex -0.0734484228 0.00685 -0.0285099157
      vertex -0.071301383 0.00685 -0.0329505074
    endloop
  endfacet
  facet normal -0.900289059 0 -0.435292556
    outer loop
      vertex -0.0734484228 -0.00685 -0.0285099157
      vertex -0.071301383 0.00685 -0.0329505074
      vertex -0.071301383 -0.00685 -0.0329505074
    endloop
  endfacet
  facet normal 0 1 0
    outer loop
      vertex 0 -0.00685 0
      vertex -0.071301383 -0.00685 -0.0329505074
      vertex -0.0734484228 -0.00685 -0.0285099157
    endloop
  endfacet
  facet normal 0 -1 0
    outer loop
      vertex 0 0.00685 0
      vertex -0.0734484228 0.00685 -0.0285099157
      vertex -0.071301383 0.00685 -0.0329505074
    endloop
  endfacet
  facet normal -0.868633594 0 -0.495455022
    outer loop
      vertex -0.071301383 -0.00685 -0.0329505074
      vertex -0.071301383 0.00685 -0.0329505074
      vertex -0.0688490196 0.00685 -0.03725
    endloop
  endfacet
  facet normal -0.868633594 0 -0.495455022
    outer loop
      vertex -0.071301383 -0.00685 -0.0329505074
      vertex -0.0688490196 0.00685 -0.03725
      vertex -0.0688490196 -0.00685 -0.03725
    endloop
  endfacet
  facet normal 0 1 0
    outer loop
      vertex 0 -0.00685 0
      vertex -0.0688490196 -0.00685 -0.03725
      vertex -0.071301383 -0.00685 -0.0329505074
    endloop
  endfacet
  facet normal 0 -1 0
    outer loop
      vertex 0 0.00685 0
      vertex -0.071301383 0.00685 -0.0329505074
      vertex -0.0688490196 0.00685 -0.03725
    endloop
  endfacet
  facet normal -0.833237661 0 -0.552915002
    outer loop
      vertex -0.0688490196 -0.00685 -0.03725
      vertex -0.0688490196 0.00685 -0.03725
      vertex -0.0661018342 0.00685 -0.0413899824
    endloop
  endfacet
  facet normal -0.833237661 0 -0.552915002
    outer loop
      vertex -0.0688490196 -0.00685 -0.03725
      vertex -0.0661018342 0.00685 -0.0413899824
      vertex -0.0661018342 -0.00685 -0.0413899824
    endloop
  endfacet
  facet normal 0 1 0
    outer loop
      vertex 0 -0.00685 0
      vertex -0.0661018342 -0.00685 -0.0413899824
      vertex -0.0688490196 -0.00685 -0.03725
    endloop
  endfacet
  facet normal 0 -1 0
    outer loop
      vertex 0 0.00685 0
      vertex -0.0688490196 0.00685 -0.03725
      vertex -0.0661018342 0.00685 -0.0413899824
    endloop
  endfacet
  facet normal -0.794366548 0 -0.607438711
    outer loop
      vertex -0.0661018342 -0.00685 -0.0413899824
      vertex -0.0661018342 0.00685 -0.0413899824
      vertex -0.0630715906 0.00685 -0.0453527265
    endloop
  endfacet
  facet normal -0.794366548 0 -0.607438711
    outer loop
      vertex -0.0661018342 -0.00685 -0.0413899824
      vertex -0.0630715906 0.00685 -0.0453527265
      vertex -0.0630715906 -0.00685 -0.0453527265
    endloop
  endfacet
  facet normal 0 1 0
    outer loop
      vertex 0 -0.00685 0
      vertex -0.0630715906 -0.00685 -0.0453527265
      vertex -0.0661018342 -0.00685 -0.0413899824
    endloop
  endfacet
  facet normal 0 -1 0
    outer loop
      vertex 0 0.00685 0
      vertex -0.0661018342 0.00685 -0.0413899824
      vertex -0.0630715906 0.00685 -0.0453527265
    endloop
  endfacet
  facet normal -0.752294065 0 -0.658827474
    outer loop
      vertex -0.0630715906 -0.00685 -0.0453527265
      vertex -0.0630715906 0.00685 -0.0453527265
      vertex -0.0597712647 0.00685 -0.0491212632
    endloop
  endfacet
  facet normal -0.752294065 0 -0.658827474
    outer loop
      vertex -0.0630715906 -0.00685 -0.0453527265
      vertex -0.0597712647 0.00685 -0.0491212632
      vertex -0.0597712647 -0.00685 -0.0491212632
    endloop
  endfacet
  facet normal 0 1 0
    outer loop
      vertex 0 -0.00685 0
      vertex -0.0597712647 -0.00685 -0.0491212632
      vertex -0.0630715906 -0.00685 -0.0453527265
    endloop
  endfacet
  facet normal 0 -1 0
    outer loop
      vertex 0 0.00685 0
      vertex -0.0630715906 0.00685 -0.0453527265
      vertex -0.0597712647 0.00685 -0.0491212632
    endloop
  endfacet
  facet normal -0.707297225 0 -0.706916286
    outer loop
      vertex -0.0597712647 -0.00685 -0.0491212632
      vertex -0.0597712647 0.00685 -0.0491212632
      vertex -0.0562149891 0.00685 -0.0526794552
    endloop
  endfacet
  facet normal -0.707297225 0 -0.706916286
    outer loop
      vertex -0.0597712647 -0.00685 -0.0491212632
      vertex -0.0562149891 0.00685 -0.0526794552
      vertex -0.0562149891 -0.00685 -0.0526794552
    endloop
  endfacet
  facet normal 0 1 0
    outer loop
      vertex 0 -0.00685 0
      vertex -0.0562149891 -0.00685 -0.0526794552
      vertex -0.0597712647 -0.00685 -0.0491212632
    endloop
  endfacet
  facet normal 0 -1 0
    outer loop
      vertex 0 0.00685 0
      vertex -0.0597712647 0.00685 -0.0491212632
      vertex -0.0562149891 0.00685 -0.0526794552
    endloop
  endfacet
  facet normal -0.659651619 0 -0.751571514
    outer loop
      vertex -0.0562149891 -0.00685 -0.0526794552
      vertex -0.0562149891 0.00685 -0.0526794552
      vertex -0.0524179923 0.00685 -0.0560120657
    endloop
  endfacet
  facet normal -0.659651619 0 -0.751571514
    outer loop
      vertex -0.0562149891 -0.00685 -0.0526794552
      vertex -0.0524179923 0.00685 -0.0560120657
      vertex -0.0524179923 -0.00685 -0.0560120657
    endloop
  endfacet
  facet normal 0 1 0
    outer loop
      vertex 0 -0.00685 0
      vertex -0.0524179923 -0.00685 -0.0560120657
      vertex -0.0562149891 -0.00685 -0.0526794552
    endloop
  endfacet
  facet normal 0 -1 0
    outer loop
      vertex 0 0.00685 0
      vertex -0.0562149891 0.00685 -0.0526794552
      vertex -0.0524179923 0.00685 -0.0560120657
    endloop
  endfacet
  facet normal -0.609627592 0 -0.792687958
    outer loop
      vertex -0.0524179923 -0.00685 -0.0560120657
      vertex -0.0524179923 0.00685 -0.0560120657
      vertex -0.0483965336 0.00685 -0.0591048239
    endloop
  endfacet
  facet normal -0.609627592 0 -0.792687958
    outer loop
      vertex -0.0524179923 -0.00685 -0.0560120657
      vertex -0.0483965336 0.00685 -0.0591048239
      vertex -0.0483965336 -0.00685 -0.0591048239
    endloop
  endfacet
  facet normal 0 1 0
    outer loop
      vertex 0 -0.00685 0
      vertex -0.0483965336 -0.00685 -0.0591048239
      vertex -0.0524179923 -0.00685 -0.0560120657
    endloop
  endfacet
  facet normal 0 -1 0
    outer loop
      vertex 0 0.00685 0
      vertex -0.0524179923 0.00685 -0.0560120657
      vertex -0.0483965336 0.00685 -0.0591048239
    endloop
  endfacet
  facet normal -0.55748726 0 -0.830185494
    outer loop
      vertex -0.0483965336 -0.00685 -0.0591048239
      vertex -0.0483965336 0.00685 -0.0591048239
      vertex -0.0441678335 0.00685 -0.0619444861
    endloop
  endfacet
  facet normal -0.55748726 0 -0.830185494
    outer loop
      vertex -0.0483965336 -0.00685 -0.0591048239
      vertex -0.0441678335 0.00685 -0.0619444861
      vertex -0.0441678335 -0.00685 -0.0619444861
    endloop
  endfacet
  facet normal 0 1 0
    outer loop
      vertex 0 -0.00685 0
      vertex -0.0441678335 -0.00685 -0.0619444861
      vertex -0.0483965336 -0.00685 -0.0591048239
    endloop
  endfacet
  facet normal 0 -1 0
    outer loop
      vertex 0 0.00685 0
      vertex -0.0483965336 0.00685 -0.0591048239
      vertex -0.0441678335 0.00685 -0.0619444861
    endloop
  endfacet
  facet normal -0.503482379 0 -0.864005494
    outer loop
      vertex -0.0441678335 -0.00685 -0.0619444861
      vertex -0.0441678335 0.00685 -0.0619444861
      vertex -0.03975 0.00685 -0.0645188926
    endloop
  endfacet
  facet normal -0.503482379 0 -0.864005494
    outer loop
      vertex -0.0441678335 -0.00685 -0.0619444861
      vertex -0.03975 0.00685 -0.0645188926
      vertex -0.03975 -0.00685 -0.0645188926
    endloop
  endfacet
  facet normal 0 1 0
    outer loop
      vertex 0 -0.00685 0
      vertex -0.03975 -0.00685 -0.0645188926
      vertex -0.0441678335 -0.00685 -0.0619444861
    endloop
  endfacet
  facet normal 0 -1 0
    outer loop
      vertex 0 0.00685 0
      vertex -0.0441678335 0.00685 -0.0619444861
      vertex -0.03975 0.00685 -0.0645188926
    endloop
  endfacet
  facet normal -0.447853006 0 -0.8941072
    outer loop
      vertex -0.03975 -0.00685 -0.0645188926
      vertex -0.03975 0.00685 -0.0645188926
      vertex -0.0351619509 0.00685 -0.0668170192
    endloop
  endfacet
  facet normal -0.447853006 0 -0.8941072
    outer loop
      vertex -0.03975 -0.00685 -0.0645188926
      vertex -0.0351619509 0.00685 -0.0668170192
      vertex -0.0351619509 -0.00685 -0.0668170192
    endloop
  endfacet
  facet normal 0 1 0
    outer loop
      vertex 0 -0.00685 0
      vertex -0.0351619509 -0.00685 -0.0668170192
      vertex -0.03975 -0.00685 -0.0645188926
    endloop
  endfacet
  facet normal 0 -1 0
    outer loop
      vertex 0 0.00685 0
      vertex -0.03975 0.00685 -0.0645188926
      vertex -0.0351619509 0.00685 -0.0668170192
    endloop
  endfacet
  facet normal -0.390826906 0 -0.920464192
    outer loop
      vertex -0.0351619509 -0.00685 -0.0668170192
      vertex -0.0351619509 0.00685 -0.0668170192
      vertex -0.0304233329 0.00685 -0.0688290252
    endloop
  endfacet
  facet normal -0.390826906 0 -0.920464192
    outer loop
      vertex -0.0351619509 -0.00685 -0.0668170192
      vertex -0.0304233329 0.00685 -0.0688290252
      vertex -0.0304233329 -0.00685 -0.0688290252
    endloop
  endfacet
  facet normal 0 1 0
    outer loop
      vertex 0 -0.00685 0
      vertex -0.0304233329 -0.00685 -0.0688290252
      vertex -0.0351619509 -0.00685 -0.0668170192
    endloop
  endfacet
  facet normal 0 -1 0
    outer loop
      vertex 0 0.00685 0
      vertex -0.0351619509 0.00685 -0.0668170192
      vertex -0.0304233329 0.00685 -0.0688290252
    endloop
  endfacet
  facet normal -0.332619595 0 -0.943061082
    outer loop
      vertex -0.0304233329 -0.00685 -0.0688290252
      vertex -0.0304233329 0.00685 -0.0688290252
      vertex -0.0255544375 0.00685 -0.0705462946
    endloop
  endfacet
  facet normal -0.332619595 0 -0.943061082
    outer loop
      vertex -0.0304233329 -0.00685 -0.0688290252
      vertex -0.0255544375 0.00685 -0.0705462946
      vertex -0.0255544375 -0.00685 -0.0705462946
    endloop
  endfacet
  facet normal 0 1 0
    outer loop
      vertex 0 -0.00685 0
      vertex -0.0255544375 -0.00685 -0.0705462946
      vertex -0.0304233329 -0.00685 -0.0688290252
    endloop
  endfacet
  facet normal 0 -1 0
    outer loop
      vertex 0 0.00685 0
      vertex -0.0304233329 0.00685 -0.0688290252
      vertex -0.0255544375 0.00685 -0.0705462946
    endloop
  endfacet
  facet normal -0.273434953 0 -0.961890496
    outer loop
      vertex -0.0255544375 -0.00685 -0.0705462946
      vertex -0.0255544375 0.00685 -0.0705462946
      vertex -0.0205761141 0.00685 -0.0719614741
    endloop
  endfacet
  facet normal -0.273434953 0 -0.961890496
    outer loop
      vertex -0.0255544375 -0.00685 -0.0705462946
      vertex -0.0205761141 0.00685 -0.0719614741
      vertex -0.0205761141 -0.00685 -0.0719614741
    endloop
  endfacet
  facet normal 0 1 0
    outer loop
      vertex 0 -0.00685 0
      vertex -0.0205761141 -0.00685 -0.0719614741
      vertex -0.0255544375 -0.00685 -0.0705462946
    endloop
  endfacet
  facet normal 0 -1 0
    outer loop
      vertex 0 0.00685 0
      vertex -0.0255544375 0.00685 -0.0705462946
      vertex -0.0205761141 0.00685 -0.0719614741
    endloop
  endfacet
  facet normal -0.213466294 0 -0.976950429
    outer loop
      vertex -0.0205761141 -0.00685 -0.0719614741
      vertex -0.0205761141 0.00685 -0.0719614741
      vertex -0.0155096806 0.00685 -0.0730685034
    endloop
  endfacet
  facet normal -0.213466294 0 -0.976950429
    outer loop
      vertex -0.0205761141 -0.00685 -0.0719614741
      vertex -0.0155096806 0.00685 -0.0730685034
      vertex -0.0155096806 -0.00685 -0.0730685034
    endloop
  endfacet
  facet normal 0 1 0
    outer loop
      vertex 0 -0.00685 0
      vertex -0.0155096806 -0.00685 -0.0730685034
      vertex -0.0205761141 -0.00685 -0.0719614741
    endloop
  endfacet
  facet normal 0 -1 0
    outer loop
      vertex 0 0.00685 0
      vertex -0.0205761141 0.00685 -0.0719614741
      vertex -0.0155096806 0.00685 -0.0730685034
    endloop
  endfacet
  facet normal -0.152897817 0 -0.988242004
    outer loop
      vertex -0.0155096806 -0.00685 -0.0730685034
      vertex -0.0155096806 0.00685 -0.0730685034
      vertex -0.0103768323 0.00685 -0.0738626422
    endloop
  endfacet
  facet normal -0.152897817 0 -0.988242004
    outer loop
      vertex -0.0155096806 -0.00685 -0.0730685034
      vertex -0.0103768323 0.00685 -0.0738626422
      vertex -0.0103768323 -0.00685 -0.0738626422
    endloop
  endfacet
  facet normal 0 1 0
    outer loop
      vertex 0 -0.00685 0
      vertex -0.0103768323 -0.00685 -0.0738626422
      vertex -0.0155096806 -0.00685 -0.0730685034
    endloop
  endfacet
  facet normal 0 -1 0
    outer loop
      vertex 0 0.00685 0
      vertex -0.0155096806 0.00685 -0.0730685034
      vertex -0.0103768323 0.00685 -0.0738626422
    endloop
  endfacet
  facet normal -0.0919063429 0 -0.995767656
    outer loop
      vertex -0.0103768323 -0.00685 -0.0738626422
      vertex -0.0103768323 0.00685 -0.0738626422
      vertex -0.00519954877 0.00685 -0.0743404898
    endloop
  endfacet
  facet normal -0.0919063429 0 -0.995767656
    outer loop
      vertex -0.0103768323 -0.00685 -0.0738626422
      vertex -0.00519954877 0.00685 -0.0743404898
      vertex -0.00519954877 -0.00685 -0.0743404898
    endloop
  endfacet
  facet normal 0 1 0
    outer loop
      vertex 0 -0.00685 0
      vertex -0.00519954877 -0.00685 -0.0743404898
      vertex -0.0103768323 -0.00685 -0.0738626422
    endloop
  endfacet
  facet normal 0 -1 0
    outer loop
      vertex 0 0.00685 0
      vertex -0.0103768323 0.00685 -0.0738626422
      vertex -0.00519954877 0.00685 -0.0743404898
    endloop
  endfacet
  facet normal -0.0306632786 0 -0.999529771
    outer loop
      vertex -0.00519954877 -0.00685 -0.0743404898
      vertex -0.00519954877 0.00685 -0.0743404898
      vertex -1.46039131e-17 0.00685 -0.0745
    endloop
  endfacet
  facet normal -0.0306632786 0 -0.999529771
    outer loop
      vertex -0.00519954877 -0.00685 -0.0743404898
      vertex -1.46039131e-17 0.00685 -0.0745
      vertex -1.46039131e-17 -0.00685 -0.0745
    endloop
  endfacet
  facet normal 0 1 0
    outer loop
      vertex 0 -0.00685 0
      vertex -1.46039131e-17 -0.00685 -0.0745
      vertex -0.00519954877 -0.00685 -0.0743404898
    endloop
  endfacet
  facet normal 0 -1 0
    outer loop
      vertex 0 0.00685 0
      vertex -0.00519954877 0.00685 -0.0743404898
      vertex -1.46039131e-17 0.00685 -0.0745
    endloop
  endfacet
  facet normal 0.0306632786 0 -0.999529771
    outer loop
      vertex -1.46039131e-17 -0.00685 -0.0745
      vertex -1.46039131e-17 0.00685 -0.0745
      vertex 0.00519954877 0.00685 -0.0743404898
    endloop
  endfacet
  facet normal 0.0306632786 0 -0.999529771
    outer loop
      vertex -1.46039131e-17 -0.00685 -0.0745
      vertex 0.00519954877 0.00685 -0.0743404898
      vertex 0.00519954877 -0.00685 -0.0743404898
    endloop
  endfacet
  facet normal 0 1 0
    outer loop
      vertex 0 -0.00685 0
      vertex 0.00519954877 -0.00685 -0.0743404898
      vertex -1.46039131e-17 -0.00685 -0.0745
    endloop
  endfacet
  facet normal 0 -1 -0
    outer loop
      vertex 0 0.00685 0
      vertex -1.46039131e-17 0.00685 -0.0745
      vertex 0.00519954877 0.00685 -0.0743404898
    endloop
  endfacet
  facet normal 0.0919063429 0 -0.995767656
    outer loop
      vertex 0.00519954877 -0.00685 -0.0743404898
      vertex 0.00519954877 0.00685 -0.0743404898
      vertex 0.0103768323 0.00685 -0.0738626422
    endloop
  endfacet
  facet normal 0.0919063429 0 -0.995767656
    outer loop
      vertex 0.00519954877 -0.00685 -0.0743404898
      vertex 0.0103768323 0.00685 -0.0738626422
      vertex 0.0103768323 -0.00685 -0.0738626422
    endloop
  endfacet
  facet normal 0 1 0
    outer loop
      vertex 0 -0.00685 0
      vertex 0.0103768323 -0.00685 -0.0738626422
      vertex 0.00519954877 -0.00685 -0.0743404898
    endloop
  endfacet
  facet normal 0 -1 0
    outer loop
      vertex 0 0.00685 0
      vertex 0.00519954877 0.00685 -0.0743404898
      vertex 0.0103768323 0.00685 -0.0738626422
    endloop
  endfacet
  facet normal 0.152897817 0 -0.988242004
    outer loop
      vertex 0.0103768323 -0.00685 -0.0738626422
      vertex 0.0103768323 0.00685 -0.0738626422
      vertex 0.0155096806 0.00685 -0.0730685034
    endloop
  endfacet
  facet normal 0.152897817 0 -0.988242004
    outer loop
      vertex 0.0103768323 -0.00685 -0.0738626422
      vertex 0.0155096806 0.00685 -0.0730685034
      vertex 0.0155096806 -0.00685 -0.0730685034
    endloop
  endfacet
  facet normal 0 1 0
    outer loop
      vertex 0 -0.00685 0
      vertex 0.0155096806 -0.00685 -0.0730685034
      vertex 0.0103768323 -0.00685 -0.0738626422
    endloop
  endfacet
  facet normal 0 -1 0
    outer loop
      vertex 0 0.00685 0
      vertex 0.0103768323 0.00685 -0.0738626422
      vertex 0.0155096806 0.00685 -0.0730685034
    endloop
  endfacet
  facet normal 0.213466294 0 -0.976950429
    outer loop
      vertex 0.0155096806 -0.00685 -0.0730685034
      vertex 0.0155096806 0.00685 -0.0730685034
      vertex 0.0205761141 0.00685 -0.0719614741
    endloop
  endfacet
  facet normal 0.213466294 0 -0.976950429
    outer loop
      vertex 0.0155096806 -0.00685 -0.0730685034
      vertex 0.0205761141 0.00685 -0.0719614741
      vertex 0.0205761141 -0.00685 -0.0719614741
    endloop
  endfacet
  facet normal 0 1 0
    outer loop
      vertex 0 -0.00685 0
      vertex 0.0205761141 -0.00685 -0.0719614741
      vertex 0.0155096806 -0.00685 -0.0730685034
    endloop
  endfacet
  facet normal 0 -1 0
    outer loop
      vertex 0 0.00685 0
      vertex 0.0155096806 0.00685 -0.0730685034
      vertex 0.0205761141 0.00685 -0.0719614741
    endloop
  endfacet
  facet normal 0.273434953 0 -0.961890496
    outer loop
      vertex 0.0205761141 -0.00685 -0.0719614741
      vertex 0.0205761141 0.00685 -0.0719614741
      vertex 0.0255544375 0.00685 -0.0705462946
    endloop
  endfacet
  facet normal 0.273434953 0 -0.961890496
    outer loop
      vertex 0.0205761141 -0.00685 -0.0719614741
      vertex 0.0255544375 0.00685 -0.0705462946
      vertex 0.0255544375 -0.00685 -0.0705462946
    endloop
  endfacet
  facet normal 0 1 0
    outer loop
      vertex 0 -0.00685 0
      vertex 0.0255544375 -0.00685 -0.0705462946
      vertex 0.0205761141 -0.00685 -0.0719614741
    endloop
  endfacet
  facet normal 0 -1 0
    outer loop
      vertex 0 0.00685 0
      vertex 0.0205761141 0.00685 -0.0719614741
      vertex 0.0255544375 0.00685 -0.0705462946
    endloop
  endfacet
  facet normal 0.332619595 0 -0.943061082
    outer loop
      vertex 0.0255544375 -0.00685 -0.0705462946
      vertex 0.0255544375 0.00685 -0.0705462946
      vertex 0.0304233329 0.00685 -0.0688290252
    endloop
  endfacet
  facet normal 0.332619595 0 -0.943061082
    outer loop
      vertex 0.0255544375 -0.00685 -0.0705462946
      vertex 0.0304233329 0.00685 -0.0688290252
      vertex 0.0304233329 -0.00685 -0.0688290252
    endloop
  endfacet
  facet normal 0 1 0
    outer loop
      vertex 0 -0.00685 0
      vertex 0.0304233329 -0.00685 -0.0688290252
      vertex 0.0255544375 -0.00685 -0.0705462946
    endloop
  endfacet
  facet normal 0 -1 0
    outer loop
      vertex 0 0.00685 0
      vertex 0.0255544375 0.00685 -0.0705462946
      vertex 0.0304233329 0.00685 -0.0688290252
    endloop
  endfacet
  facet normal 0.390826906 0 -0.920464192
    outer loop
      vertex 0.0304233329 -0.00685 -0.0688290252
      vertex 0.0304233329 0.00685 -0.0688290252
      vertex 0.0351619509 0.00685 -0.0668170192
    endloop
  endfacet
  facet normal 0.390826906 0 -0.920464192
    outer loop
      vertex 0.0304233329 -0.00685 -0.0688290252
      vertex 0.0351619509 0.00685 -0.0668170192
      vertex 0.0351619509 -0.00685 -0.0668170192
    endloop
  endfacet
  facet normal 0 1 0
    outer loop
      vertex 0 -0.00685 0
      vertex 0.0351619509 -0.00685 -0.0668170192
      vertex 0.0304233329 -0.00685 -0.0688290252
    endloop
  endfacet
  facet normal 0 -1 0
    outer loop
      vertex 0 0.00685 0
      vertex 0.0304233329 0.00685 -0.0688290252
      vertex 0.0351619509 0.00685 -0.0668170192
    endloop
  endfacet
  facet normal 0.447853006 0 -0.8941072
    outer loop
      vertex 0.0351619509 -0.00685 -0.0668170192
      vertex 0.0351619509 0.00685 -0.0668170192
      vertex 0.03975 0.00685 -0.0645188926
    endloop
  endfacet
  facet normal 0.447853006 0 -0.8941072
    outer loop
      vertex 0.0351619509 -0.00685 -0.0668170192
      vertex 0.03975 0.00685 -0.0645188926
      vertex 0.03975 -0.00685 -0.0645188926
    endloop
  endfacet
  facet normal 0 1 0
    outer loop
      vertex 0 -0.00685 0
      vertex 0.03975 -0.00685 -0.0645188926
      vertex 0.0351619509 -0.00685 -0.0668170192
    endloop
  endfacet
  facet normal 0 -1 0
    outer loop
      vertex 0 0.00685 0
      vertex 0.0351619509 0.00685 -0.0668170192
      vertex 0.03975 0.00685 -0.0645188926
    endloop
  endfacet
  facet normal 0.503482379 0 -0.864005494
    outer loop
      vertex 0.03975 -0.00685 -0.0645188926
      vertex 0.03975 0.00685 -0.0645188926
      vertex 0.0441678335 0.00685 -0.0619444861
    endloop
  endfacet
  facet normal 0.503482379 0 -0.864005494
    outer loop
      vertex 0.03975 -0.00685 -0.0645188926
      vertex 0.0441678335 0.00685 -0.0619444861
      vertex 0.0441678335 -0.00685 -0.0619444861
    endloop
  endfacet
  facet normal 0 1 0
    outer loop
      vertex 0 -0.00685 0
      vertex 0.0441678335 -0.00685 -0.0619444861
      vertex 0.03975 -0.00685 -0.0645188926
    endloop
  endfacet
  facet normal 0 -1 0
    outer loop
      vertex 0 0.00685 0
      vertex 0.03975 0.00685 -0.0645188926
      vertex 0.0441678335 0.00685 -0.0619444861
    endloop
  endfacet
  facet normal 0.55748726 0 -0.830185494
    outer loop
      vertex 0.0441678335 -0.00685 -0.0619444861
      vertex 0.0441678335 0.00685 -0.0619444861
      vertex 0.0483965336 0.00685 -0.0591048239
    endloop
  endfacet
  facet normal 0.55748726 0 -0.830185494
    outer loop
      vertex 0.0441678335 -0.00685 -0.0619444861
      vertex 0.0483965336 0.00685 -0.0591048239
      vertex 0.0483965336 -0.00685 -0.0591048239
    endloop
  endfacet
  facet normal 0 1 0
    outer loop
      vertex 0 -0.00685 0
      vertex 0.0483965336 -0.00685 -0.0591048239
      vertex 0.0441678335 -0.00685 -0.0619444861
    endloop
  endfacet
  facet normal 0 -1 0
    outer loop
      vertex 0 0.00685 0
      vertex 0.0441678335 0.00685 -0.0619444861
      vertex 0.0483965336 0.00685 -0.0591048239
    endloop
  endfacet
  facet normal 0.609627592 0 -0.792687958
    outer loop
      vertex 0.0483965336 -0.00685 -0.0591048239
      vertex 0.0483965336 0.00685 -0.0591048239
      vertex 0.0524179923 0.00685 -0.0560120657
    endloop
  endfacet
  facet normal 0.609627592 0 -0.792687958
    outer loop
      vertex 0.0483965336 -0.00685 -0.0591048239
      vertex 0.0524179923 0.00685 -0.0560120657
      vertex 0.0524179923 -0.00685 -0.0560120657
    endloop
  endfacet
  facet normal 0 1 0
    outer loop
      vertex 0 -0.00685 0
      vertex 0.0524179923 -0.00685 -0.0560120657
      vertex 0.0483965336 -0.00685 -0.0591048239
    endloop
  endfacet
  facet normal 0 -1 0
    outer loop
      vertex 0 0.00685 0
      vertex 0.0483965336 0.00685 -0.0591048239
      vertex 0.0524179923 0.00685 -0.0560120657
    endloop
  endfacet
  facet normal 0.659651619 0 -0.751571514
    outer loop
      vertex 0.0524179923 -0.00685 -0.0560120657
      vertex 0.0524179923 0.00685 -0.0560120657
      vertex 0.0562149891 0.00685 -0.0526794552
    endloop
  endfacet
  facet normal 0.659651619 0 -0.751571514
    outer loop
      vertex 0.0524179923 -0.00685 -0.0560120657
      vertex 0.0562149891 0.00685 -0.0526794552
      vertex 0.0562149891 -0.00685 -0.0526794552
    endloop
  endfacet
  facet normal 0 1 0
    outer loop
      vertex 0 -0.00685 0
      vertex 0.0562149891 -0.00685 -0.0526794552
      vertex 0.0524179923 -0.00685 -0.0560120657
    endloop
  endfacet
  facet normal 0 -1 0
    outer loop
      vertex 0 0.00685 0
      vertex 0.0524179923 0.00685 -0.0560120657
      vertex 0.0562149891 0.00685 -0.0526794552
    endloop
  endfacet
  facet normal 0.707297225 0 -0.706916286
    outer loop
      vertex 0.0562149891 -0.00685 -0.0526794552
      vertex 0.0562149891 0.00685 -0.0526794552
      vertex 0.0597712647 0.00685 -0.0491212632
    endloop
  endfacet
  facet normal 0.707297225 0 -0.706916286
    outer loop
      vertex 0.0562149891 -0.00685 -0.0526794552
      vertex 0.0597712647 0.00685 -0.0491212632
      vertex 0.0597712647 -0.00685 -0.0491212632
    endloop
  endfacet
  facet normal 0 1 0
    outer loop
      vertex 0 -0.00685 0
      vertex 0.0597712647 -0.00685 -0.0491212632
      vertex 0.0562149891 -0.00685 -0.0526794552
    endloop
  endfacet
  facet normal 0 -1 0
    outer loop
      vertex 0 0.00685 0
      vertex 0.0562149891 0.00685 -0.0526794552
      vertex 0.0597712647 0.00685 -0.0491212632
    endloop
  endfacet
  facet normal 0.752294065 0 -0.658827474
    outer loop
      vertex 0.0597712647 -0.00685 -0.0491212632
      vertex 0.0597712647 0.00685 -0.0491212632
      vertex 0.0630715906 0.00685 -0.0453527265
    endloop
  endfacet
  facet normal 0.752294065 0 -0.658827474
    outer loop
      vertex 0.0597712647 -0.00685 -0.0491212632
      vertex 0.0630715906 0.00685 -0.0453527265
      vertex 0.0630715906 -0.00685 -0.0453527265
    endloop
  endfacet
  facet normal 0 1 0
    outer loop
      vertex 0 -0.00685 0
      vertex 0.0630715906 -0.00685 -0.0453527265
      vertex 0.0597712647 -0.00685 -0.0491212632
    endloop
  endfacet
  facet normal 0 -1 0
    outer loop
      vertex 0 0.00685 0
      vertex 0.0597712647 0.00685 -0.0491212632
      vertex 0.0630715906 0.00685 -0.0453527265
    endloop
  endfacet
  facet normal 0.794366548 0 -0.607438711
    outer loop
      vertex 0.0630715906 -0.00685 -0.0453527265
      vertex 0.0630715906 0.00685 -0.0453527265
      vertex 0.0661018342 0.00685 -0.0413899824
    endloop
  endfacet
  facet normal 0.794366548 0 -0.607438711
    outer loop
      vertex 0.0630715906 -0.00685 -0.0453527265
      vertex 0.0661018342 0.00685 -0.0413899824
      vertex 0.0661018342 -0.00685 -0.0413899824
    endloop
  endfacet
  facet normal 0 1 0
    outer loop
      vertex 0 -0.00685 0
      vertex 0.0661018342 -0.00685 -0.0413899824
      vertex 0.0630715906 -0.00685 -0.0453527265
    endloop
  endfacet
  facet normal 0 -1 0
    outer loop
      vertex 0 0.00685 0
      vertex 0.0630715906 0.00685 -0.0453527265
      vertex 0.0661018342 0.00685 -0.0413899824
    endloop
  endfacet
  facet normal 0.833237661 0 -0.552915002
    outer loop
      vertex 0.0661018342 -0.00685 -0.0413899824
      vertex 0.0661018342 0.00685 -0.0413899824
      vertex 0.0688490196 0.00685 -0.03725
    endloop
  endfacet
  facet normal 0.833237661 0 -0.552915002
    outer loop
      vertex 0.0661018342 -0.00685 -0.0413899824
      vertex 0.0688490196 0.00685 -0.03725
      vertex 0.0688490196 -0.00685 -0.03725
    endloop
  endfacet
  facet normal 0 1 0
    outer loop
      vertex 0 -0.00685 0
      vertex 0.0688490196 -0.00685 -0.03725
      vertex 0.0661018342 -0.00685 -0.0413899824
    endloop
  endfacet
  facet normal 0 -1 0
    outer loop
      vertex 0 0.00685 0
      vertex 0.0661018342 0.00685 -0.0413899824
      vertex 0.0688490196 0.00685 -0.03725
    endloop
  endfacet
  facet normal 0.868633594 0 -0.495455022
    outer loop
      vertex 0.0688490196 -0.00685 -0.03725
      vertex 0.0688490196 0.00685 -0.03725
      vertex 0.071301383 0.00685 -0.0329505074
    endloop
  endfacet
  facet normal 0.868633594 0 -0.495455022
    outer loop
      vertex 0.0688490196 -0.00685 -0.03725
      vertex 0.071301383 0.00685 -0.0329505074
      vertex 0.071301383 -0.00685 -0.0329505074
    endloop
  endfacet
  facet normal 0 1 0
    outer loop
      vertex 0 -0.00685 0
      vertex 0.071301383 -0.00685 -0.0329505074
      vertex 0.0688490196 -0.00685 -0.03725
    endloop
  endfacet
  facet normal 0 -1 0
    outer loop
      vertex 0 0.00685 0
      vertex 0.0688490196 0.00685 -0.03725
      vertex 0.071301383 0.00685 -0.0329505074
    endloop
  endfacet
  facet normal 0.900289059 0 -0.435292556
    outer loop
      vertex 0.071301383 -0.00685 -0.0329505074
      vertex 0.071301383 0.00685 -0.0329505074
      vertex 0.0734484228 0.00685 -0.0285099157
    endloop
  endfacet
  facet normal 0.900289059 0 -0.435292556
    outer loop
      vertex 0.071301383 -0.00685 -0.0329505074
      vertex 0.0734484228 0.00685 -0.0285099157
      vertex 0.0734484228 -0.00685 -0.0285099157
    endloop
  endfacet
  facet normal 0 1 0
    outer loop
      vertex 0 -0.00685 0
      vertex 0.0734484228 -0.00685 -0.0285099157
      vertex 0.071301383 -0.00685 -0.0329505074
    endloop
  endfacet
  facet normal 0 -1 0
    outer loop
      vertex 0 0.00685 0
      vertex 0.071301383 0.00685 -0.0329505074
      vertex 0.0734484228 0.00685 -0.0285099157
    endloop
  endfacet
  facet normal 0.92795314 0 -0.372696887
    outer loop
      vertex 0.0734484228 -0.00685 -0.0285099157
      vertex 0.0734484228 0.00685 -0.0285099157
      vertex 0.0752809453 0.00685 -0.0239472402
    endloop
  endfacet
  facet normal 0.92795314 0 -0.372696887
    outer loop
      vertex 0.0734484228 -0.00685 -0.0285099157
      vertex 0.0752809453 0.00685 -0.0239472402
      vertex 0.0752809453 -0.00685 -0.0239472402
    endloop
  endfacet
  facet normal 0 1 0
    outer loop
      vertex 0 -0.00685 0
      vertex 0.0752809453 -0.00685 -0.0239472402
      vertex 0.0734484228 -0.00685 -0.0285099157
    endloop
  endfacet
  facet normal 0 -1 0
    outer loop
      vertex 0 0.00685 0
      vertex 0.0734484228 0.00685 -0.0285099157
      vertex 0.0752809453 0.00685 -0.0239472402
    endloop
  endfacet
  facet normal 0.951395435 0 -0.307971956
    outer loop
      vertex 0.0752809453 -0.00685 -0.0239472402
      vertex 0.0752809453 0.00685 -0.0239472402
      vertex 0.0767911032 0.00685 -0.0192820189
    endloop
  endfacet
  facet normal 0.951395435 0 -0.307971956
    outer loop
      vertex 0.0752809453 -0.00685 -0.0239472402
      vertex 0.0767911032 0.00685 -0.0192820189
      vertex 0.0767911032 -0.00685 -0.0192820189
    endloop
  endfacet
  facet normal 0 1 0
    outer loop
      vertex 0 -0.00685 0
      vertex 0.0767911032 -0.00685 -0.0192820189
      vertex 0.0752809453 -0.00685 -0.0239472402
    endloop
  endfacet
  facet normal 0 -1 0
    outer loop
      vertex 0 0.00685 0
      vertex 0.0752809453 0.00685 -0.0239472402
      vertex 0.0767911032 0.00685 -0.0192820189
    endloop
  endfacet
  facet normal 0.970412218 0 -0.241454192
    outer loop
      vertex 0.0767911032 -0.00685 -0.0192820189
      vertex 0.0767911032 0.00685 -0.0192820189
      vertex 0.0779724298 0.00685 -0.014534229
    endloop
  endfacet
  facet normal 0.970412218 0 -0.241454192
    outer loop
      vertex 0.0767911032 -0.00685 -0.0192820189
      vertex 0.0779724298 0.00685 -0.014534229
      vertex 0.0779724298 -0.00685 -0.014534229
    endloop
  endfacet
  facet normal 0 1 0
    outer loop
      vertex 0 -0.00685 0
      vertex 0.0779724298 -0.00685 -0.014534229
      vertex 0.0767911032 -0.00685 -0.0192820189
    endloop
  endfacet
  facet normal 0 -1 0
    outer loop
      vertex 0 0.00685 0
      vertex 0.0767911032 0.00685 -0.0192820189
      vertex 0.0779724298 0.00685 -0.014534229
    endloop
  endfacet
  facet normal 0.984832287 0 -0.173508983
    outer loop
      vertex 0.0779724298 -0.00685 -0.014534229
      vertex 0.0779724298 0.00685 -0.014534229
      vertex 0.0788198665 0.00685 -0.00972420132
    endloop
  endfacet
  facet normal 0.984832287 0 -0.173508983
    outer loop
      vertex 0.0779724298 -0.00685 -0.014534229
      vertex 0.0788198665 0.00685 -0.00972420132
      vertex 0.0788198665 -0.00685 -0.00972420132
    endloop
  endfacet
  facet normal 0 1 0
    outer loop
      vertex 0 -0.00685 0
      vertex 0.0788198665 -0.00685 -0.00972420132
      vertex 0.0779724298 -0.00685 -0.014534229
    endloop
  endfacet
  facet normal 0 -1 0
    outer loop
      vertex 0 0.00685 0
      vertex 0.0779724298 0.00685 -0.014534229
      vertex 0.0788198665 0.00685 -0.00972420132
    endloop
  endfacet
  facet normal 0.994522171 0 -0.104525836
    outer loop
      vertex 0.0788198665 -0.00685 -0.00972420132
      vertex 0.0788198665 0.00685 -0.00972420132
      vertex 0.0793297844 0.00685 -0.00487253313
    endloop
  endfacet
  facet normal 0.994522171 0 -0.104525836
    outer loop
      vertex 0.0788198665 -0.00685 -0.00972420132
      vertex 0.0793297844 0.00685 -0.00487253313
      vertex 0.0793297844 -0.00685 -0.00487253313
    endloop
  endfacet
  facet normal 0 1 0
    outer loop
      vertex 0 -0.00685 0
      vertex 0.0793297844 -0.00685 -0.00487253313
      vertex 0.0788198665 -0.00685 -0.00972420132
    endloop
  endfacet
  facet normal 0 -1 0
    outer loop
      vertex 0 0.00685 0
      vertex 0.0788198665 0.00685 -0.00972420132
      vertex 0.0793297844 0.00685 -0.00487253313
    endloop
  endfacet
  facet normal 0.999390376 0 -0.0349124019
    outer loop
      vertex 0.0793297844 -0.00685 -0.00487253313
      vertex 0.0793297844 0.00685 -0.00487253313
      vertex 0.0795 0.00685 0
    endloop
  endfacet
  facet normal 0.999390376 0 -0.0349124019
    outer loop
      vertex 0.0793297844 -0.00685 -0.00487253313
      vertex 0.0795 0.00685 0
      vertex 0.0795 -0.00685 0
    endloop
  endfacet
  facet normal -0 1 0
    outer loop
      vertex 0 -0.00685 0
      vertex 0.0795 -0.00685 0
      vertex 0.0793297844 -0.00685 -0.00487253313
    endloop
  endfacet
  facet normal 0 -1 0
    outer loop
      vertex 0 0.00685 0
      vertex 0.0793297844 0.00685 -0.00487253313
      vertex 0.0795 0.00685 0
    endloop
  endfacet
endsolid h5002_head_hitter_frame
