solid h5002_face_contact_hitter_frame
  facet normal 0.999427058 -0 0.0338460561
    outer loop
      vertex 0.075 -0.003 0
      vertex 0.075 0.003 0
      vertex 0.0748394192 0.003 0.00474172687
    endloop
  endfacet
  facet normal 0.999427058 0 0.0338460561
    outer loop
      vertex 0.075 -0.003 0
      vertex 0.0748394192 0.003 0.00474172687
      vertex 0.0748394192 -0.003 0.00474172687
    endloop
  endfacet
  facet normal 0 1 0
    outer loop
      vertex 0 -0.003 0
      vertex 0.0748394192 -0.003 0.00474172687
      vertex 0.075 -0.003 0
    endloop
  endfacet
  facet normal 0 -1 0
    outer loop
      vertex 0 0.003 0
      vertex 0.075 0.003 0
      vertex 0.0748394192 0.003 0.00474172687
    endloop
  endfacet
  facet normal 0.994849519 -0 0.101362888
    outer loop
      vertex 0.0748394192 -0.003 0.00474172687
      vertex 0.0748394192 0.003 0.00474172687
      vertex 0.0743583646 0.003 0.00946314894
    endloop
  endfacet
  facet normal 0.994849519 0 0.101362888
    outer loop
      vertex 0.0748394192 -0.003 0.00474172687
      vertex 0.0743583646 0.003 0.00946314894
      vertex 0.0743583646 -0.003 0.00946314894
    endloop
  endfacet
  facet normal 0 1 0
    outer loop
      vertex 0 -0.003 0
      vertex 0.0743583646 -0.003 0.00946314894
      vertex 0.0748394192 -0.003 0.00474172687
    endloop
  endfacet
  facet normal 0 -1 0
    outer loop
      vertex 0 0.003 0
      vertex 0.0748394192 0.003 0.00474172687
      vertex 0.0743583646 0.003 0.00946314894
    endloop
  endfacet
  facet normal 0.985726271 -0 0.16835593
    outer loop
      vertex 0.0743583646 -0.003 0.00946314894
      vertex 0.0743583646 0.003 0.00946314894
      vertex 0.073558896 0.003 0.0141440483
    endloop
  endfacet
  facet normal 0.985726271 0 0.16835593
    outer loop
      vertex 0.0743583646 -0.003 0.00946314894
      vertex 0.073558896 0.003 0.0141440483
      vertex 0.073558896 -0.003 0.0141440483
    endloop
  endfacet
  facet normal 0 1 0
    outer loop
      vertex 0 -0.003 0
      vertex 0.073558896 -0.003 0.0141440483
      vertex 0.0743583646 -0.003 0.00946314894
    endloop
  endfacet
  facet normal 0 -1 0
    outer loop
      vertex 0 0.003 0
      vertex 0.0743583646 0.003 0.00946314894
      vertex 0.073558896 0.003 0.0141440483
    endloop
  endfacet
  facet normal 0.972120281 -0 0.23448275
    outer loop
      vertex 0.073558896 -0.003 0.0141440483
      vertex 0.073558896 0.003 0.0141440483
      vertex 0.072444437 0.003 0.0187643808
    endloop
  endfacet
  facet normal 0.972120281 0 0.23448275
    outer loop
      vertex 0.073558896 -0.003 0.0141440483
      vertex 0.072444437 0.003 0.0187643808
      vertex 0.072444437 -0.003 0.0187643808
    endloop
  endfacet
  facet normal 0 1 0
    outer loop
      vertex 0 -0.003 0
      vertex 0.072444437 -0.003 0.0187643808
      vertex 0.073558896 -0.003 0.0141440483
    endloop
  endfacet
  facet normal 0 -1 0
    outer loop
      vertex 0 0.003 0
      vertex 0.073558896 0.003 0.0141440483
      vertex 0.072444437 0.003 0.0187643808
    endloop
  endfacet
  facet normal 0.954124296 -0 0.299410801
    outer loop
      vertex 0.072444437 -0.003 0.0187643808
      vertex 0.072444437 0.003 0.0187643808
      vertex 0.0710197597 0.003 0.0233043612
    endloop
  endfacet
  facet normal 0.954124296 0 0.299410801
    outer loop
      vertex 0.072444437 -0.003 0.0187643808
      vertex 0.0710197597 0.003 0.0233043612
      vertex 0.0710197597 -0.003 0.0233043612
    endloop
  endfacet
  facet normal 0 1 0
    outer loop
      vertex 0 -0.003 0
      vertex 0.0710197597 -0.003 0.0233043612
      vertex 0.072444437 -0.003 0.0187643808
    endloop
  endfacet
  facet normal 0 -1 0
    outer loop
      vertex 0 0.003 0
      vertex 0.072444437 0.003 0.0187643808
      vertex 0.0710197597 0.003 0.0233043612
    endloop
  endfacet
  facet normal 0.931858898 -0 0.362820884
    outer loop
      vertex 0.0710197597 -0.003 0.0233043612
      vertex 0.0710197597 0.003 0.0233043612
      vertex 0.0692909649 0.003 0.0277445488
    endloop
  endfacet
  facet normal 0.931858898 0 0.362820884
    outer loop
      vertex 0.0710197597 -0.003 0.0233043612
      vertex 0.0692909649 0.003 0.0277445488
      vertex 0.0692909649 -0.003 0.0277445488
    endloop
  endfacet
  facet normal 0 1 0
    outer loop
      vertex 0 -0.003 0
      vertex 0.0692909649 -0.003 0.0277445488
      vertex 0.0710197597 -0.003 0.0233043612
    endloop
  endfacet
  facet normal 0 -1 0
    outer loop
      vertex 0 0.003 0
      vertex 0.0710197597 0.003 0.0233043612
      vertex 0.0692909649 0.003 0.0277445488
    endloop
  endfacet
  facet normal 0.905470057 -0 0.42441015
    outer loop
      vertex 0.0692909649 -0.003 0.0277445488
      vertex 0.0692909649 0.003 0.0277445488
      vertex 0.0672654556 0.003 0.03206593
    endloop
  endfacet
  facet normal 0.905470057 0 0.42441015
    outer loop
      vertex 0.0692909649 -0.003 0.0277445488
      vertex 0.0672654556 0.003 0.03206593
      vertex 0.0672654556 -0.003 0.03206593
    endloop
  endfacet
  facet normal 0 1 0
    outer loop
      vertex 0 -0.003 0
      vertex 0.0672654556 -0.003 0.03206593
      vertex 0.0692909649 -0.003 0.0277445488
    endloop
  endfacet
  facet normal 0 -1 0
    outer loop
      vertex 0 0.003 0
      vertex 0.0692909649 0.003 0.0277445488
      vertex 0.0672654556 0.003 0.03206593
    endloop
  endfacet
  facet normal 0.875126301 -0 0.483894572
    outer loop
      vertex 0.0672654556 -0.003 0.03206593
      vertex 0.0672654556 0.003 0.03206593
      vertex 0.0649519053 0.003 0.03625
    endloop
  endfacet
  facet normal 0.875126301 0 0.483894572
    outer loop
      vertex 0.0672654556 -0.003 0.03206593
      vertex 0.0649519053 0.003 0.03625
      vertex 0.0649519053 -0.003 0.03625
    endloop
  endfacet
  facet normal 0 1 0
    outer loop
      vertex 0 -0.003 0
      vertex 0.0649519053 -0.003 0.03625
      vertex 0.0672654556 -0.003 0.03206593
    endloop
  endfacet
  facet normal 0 -1 0
    outer loop
      vertex 0 0.003 0
      vertex 0.0672654556 0.003 0.03206593
      vertex 0.0649519053 0.003 0.03625
    endloop
  endfacet
  facet normal 0.841015631 -0 0.541010821
    outer loop
      vertex 0.0649519053 -0.003 0.03625
      vertex 0.0649519053 0.003 0.03625
      vertex 0.0623602209 0.003 0.0402788419
    endloop
  endfacet
  facet normal 0.841015631 0 0.541010821
    outer loop
      vertex 0.0649519053 -0.003 0.03625
      vertex 0.0623602209 0.003 0.0402788419
      vertex 0.0623602209 -0.003 0.0402788419
    endloop
  endfacet
  facet normal 0 1 0
    outer loop
      vertex 0 -0.003 0
      vertex 0.0623602209 -0.003 0.0402788419
      vertex 0.0649519053 -0.003 0.03625
    endloop
  endfacet
  facet normal 0 -1 0
    outer loop
      vertex 0 0.003 0
      vertex 0.0649519053 0.003 0.03625
      vertex 0.0623602209 0.003 0.0402788419
    endloop
  endfacet
  facet normal 0.803342306 -0 0.59551754
    outer loop
      vertex 0.0623602209 -0.003 0.0402788419
      vertex 0.0623602209 0.003 0.0402788419
      vertex 0.0595015005 0.003 0.0441352036
    endloop
  endfacet
  facet normal 0.803342306 0 0.59551754
    outer loop
      vertex 0.0623602209 -0.003 0.0402788419
      vertex 0.0595015005 0.003 0.0441352036
      vertex 0.0595015005 -0.003 0.0441352036
    endloop
  endfacet
  facet normal 0 1 0
    outer loop
      vertex 0 -0.003 0
      vertex 0.0595015005 -0.003 0.0441352036
      vertex 0.0623602209 -0.003 0.0402788419
    endloop
  endfacet
  facet normal 0 -1 0
    outer loop
      vertex 0 0.003 0
      vertex 0.0623602209 0.003 0.0402788419
      vertex 0.0595015005 0.003 0.0441352036
    endloop
  endfacet
  facet normal 0.76232362 -0 0.647196028
    outer loop
      vertex 0.0595015005 -0.003 0.0441352036
      vertex 0.0595015005 0.003 0.0441352036
      vertex 0.0563879856 0.003 0.0478025716
    endloop
  endfacet
  facet normal 0.76232362 0 0.647196028
    outer loop
      vertex 0.0595015005 -0.003 0.0441352036
      vertex 0.0563879856 0.003 0.0478025716
      vertex 0.0563879856 -0.003 0.0478025716
    endloop
  endfacet
  facet normal 0 1 0
    outer loop
      vertex 0 -0.003 0
      vertex 0.0563879856 -0.003 0.0478025716
      vertex 0.0595015005 -0.003 0.0441352036
    endloop
  endfacet
  facet normal 0 -1 0
    outer loop
      vertex 0 0.003 0
      vertex 0.0595015005 0.003 0.0441352036
      vertex 0.0563879856 0.003 0.0478025716
    endloop
  endfacet
  facet normal 0.718186802 -0 0.695850356
    outer loop
      vertex 0.0563879856 -0.003 0.0478025716
      vertex 0.0563879856 0.003 0.0478025716
      vertex 0.0530330086 0.003 0.0512652416
    endloop
  endfacet
  facet normal 0.718186802 0 0.695850356
    outer loop
      vertex 0.0563879856 -0.003 0.0478025716
      vertex 0.0530330086 0.003 0.0512652416
      vertex 0.0530330086 -0.003 0.0512652416
    endloop
  endfacet
  facet normal 0 1 0
    outer loop
      vertex 0 -0.003 0
      vertex 0.0530330086 -0.003 0.0512652416
      vertex 0.0563879856 -0.003 0.0478025716
    endloop
  endfacet
  facet normal 0 -1 0
    outer loop
      vertex 0 0.003 0
      vertex 0.0563879856 0.003 0.0478025716
      vertex 0.0530330086 0.003 0.0512652416
    endloop
  endfacet
  facet normal 0.671166107 -0 0.741306992
    outer loop
      vertex 0.0530330086 -0.003 0.0512652416
      vertex 0.0530330086 0.003 0.0512652416
      vertex 0.0494509361 0.003 0.054508386
    endloop
  endfacet
  facet normal 0.671166107 0 0.741306992
    outer loop
      vertex 0.0530330086 -0.003 0.0512652416
      vertex 0.0494509361 0.003 0.054508386
      vertex 0.0494509361 -0.003 0.054508386
    endloop
  endfacet
  facet normal 0 1 0
    outer loop
      vertex 0 -0.003 0
      vertex 0.0494509361 -0.003 0.054508386
      vertex 0.0530330086 -0.003 0.0512652416
    endloop
  endfacet
  facet normal 0 -1 0
    outer loop
      vertex 0 0.003 0
      vertex 0.0530330086 0.003 0.0512652416
      vertex 0.0494509361 0.003 0.054508386
    endloop
  endfacet
  facet normal 0.621500209 -0 0.783413996
    outer loop
      vertex 0.0494509361 -0.003 0.054508386
      vertex 0.0494509361 0.003 0.054508386
      vertex 0.0456571072 0.003 0.0575181172
    endloop
  endfacet
  facet normal 0.621500209 0 0.783413996
    outer loop
      vertex 0.0494509361 -0.003 0.054508386
      vertex 0.0456571072 0.003 0.0575181172
      vertex 0.0456571072 -0.003 0.0575181172
    endloop
  endfacet
  facet normal 0 1 0
    outer loop
      vertex 0 -0.003 0
      vertex 0.0456571072 -0.003 0.0575181172
      vertex 0.0494509361 -0.003 0.054508386
    endloop
  endfacet
  facet normal 0 -1 0
    outer loop
      vertex 0 0.003 0
      vertex 0.0494509361 0.003 0.054508386
      vertex 0.0456571072 0.003 0.0575181172
    endloop
  endfacet
  facet normal 0.569429929 -0 0.822039875
    outer loop
      vertex 0.0456571072 -0.003 0.0575181172
      vertex 0.0456571072 0.003 0.0575181172
      vertex 0.0416677675 0.003 0.0602815469
    endloop
  endfacet
  facet normal 0.569429929 0 0.822039875
    outer loop
      vertex 0.0456571072 -0.003 0.0575181172
      vertex 0.0416677675 0.003 0.0602815469
      vertex 0.0416677675 -0.003 0.0602815469
    endloop
  endfacet
  facet normal 0 1 0
    outer loop
      vertex 0 -0.003 0
      vertex 0.0416677675 -0.003 0.0602815469
      vertex 0.0456571072 -0.003 0.0575181172
    endloop
  endfacet
  facet normal 0 -1 0
    outer loop
      vertex 0 0.003 0
      vertex 0.0456571072 0.003 0.0575181172
      vertex 0.0416677675 0.003 0.0602815469
    endloop
  endfacet
  facet normal 0.515196342 -0 0.857072184
    outer loop
      vertex 0.0416677675 -0.003 0.0602815469
      vertex 0.0416677675 0.003 0.0602815469
      vertex 0.0375 0.003 0.0627868418
    endloop
  endfacet
  facet normal 0.515196342 0 0.857072184
    outer loop
      vertex 0.0416677675 -0.003 0.0602815469
      vertex 0.0375 0.003 0.0627868418
      vertex 0.0375 -0.003 0.0627868418
    endloop
  endfacet
  facet normal 0 1 0
    outer loop
      vertex 0 -0.003 0
      vertex 0.0375 -0.003 0.0627868418
      vertex 0.0416677675 -0.003 0.0602815469
    endloop
  endfacet
  facet normal 0 -1 0
    outer loop
      vertex 0 0.003 0
      vertex 0.0416677675 0.003 0.0602815469
      vertex 0.0375 0.003 0.0627868418
    endloop
  endfacet
  facet normal 0.459039287 -0 0.888415968
    outer loop
      vertex 0.0375 -0.003 0.0627868418
      vertex 0.0375 0.003 0.0627868418
      vertex 0.0331716518 0.003 0.0650232738
    endloop
  endfacet
  facet normal 0.459039287 0 0.888415968
    outer loop
      vertex 0.0375 -0.003 0.0627868418
      vertex 0.0331716518 0.003 0.0650232738
      vertex 0.0331716518 -0.003 0.0650232738
    endloop
  endfacet
  facet normal 0 1 0
    outer loop
      vertex 0 -0.003 0
      vertex 0.0331716518 -0.003 0.0650232738
      vertex 0.0375 -0.003 0.0627868418
    endloop
  endfacet
  facet normal 0 -1 0
    outer loop
      vertex 0 0.003 0
      vertex 0.0375 0.003 0.0627868418
      vertex 0.0331716518 0.003 0.0650232738
    endloop
  endfacet
  facet normal 0.401196273 -0 0.915992113
    outer loop
      vertex 0.0331716518 -0.003 0.0650232738
      vertex 0.0331716518 0.003 0.0650232738
      vertex 0.0287012574 0.003 0.0669812661
    endloop
  endfacet
  facet normal 0.401196273 0 0.915992113
    outer loop
      vertex 0.0331716518 -0.003 0.0650232738
      vertex 0.0287012574 0.003 0.0669812661
      vertex 0.0287012574 -0.003 0.0669812661
    endloop
  endfacet
  facet normal 0 1 0
    outer loop
      vertex 0 -0.003 0
      vertex 0.0287012574 -0.003 0.0669812661
      vertex 0.0331716518 -0.003 0.0650232738
    endloop
  endfacet
  facet normal 0 -1 0
    outer loop
      vertex 0 0.003 0
      vertex 0.0331716518 0.003 0.0650232738
      vertex 0.0287012574 0.003 0.0669812661
    endloop
  endfacet
  facet normal 0.341901757 -0 0.939735701
    outer loop
      vertex 0.0287012574 -0.003 0.0669812661
      vertex 0.0287012574 0.003 0.0669812661
      vertex 0.0241079599 0.003 0.0686524344
    endloop
  endfacet
  facet normal 0.341901757 0 0.939735701
    outer loop
      vertex 0.0287012574 -0.003 0.0669812661
      vertex 0.0241079599 0.003 0.0686524344
      vertex 0.0241079599 -0.003 0.0686524344
    endloop
  endfacet
  facet normal 0 1 0
    outer loop
      vertex 0 -0.003 0
      vertex 0.0241079599 -0.003 0.0686524344
      vertex 0.0287012574 -0.003 0.0669812661
    endloop
  endfacet
  facet normal 0 -1 0
    outer loop
      vertex 0 0.003 0
      vertex 0.0287012574 0.003 0.0669812661
      vertex 0.0241079599 0.003 0.0686524344
    endloop
  endfacet
  facet normal 0.281386795 -0 0.959594431
    outer loop
      vertex 0.0241079599 -0.003 0.0686524344
      vertex 0.0241079599 0.003 0.0686524344
      vertex 0.0194114284 0.003 0.0700296224
    endloop
  endfacet
  facet normal 0.281386795 0 0.959594431
    outer loop
      vertex 0.0241079599 -0.003 0.0686524344
      vertex 0.0194114284 0.003 0.0700296224
      vertex 0.0194114284 -0.003 0.0700296224
    endloop
  endfacet
  facet normal 0 1 0
    outer loop
      vertex 0 -0.003 0
      vertex 0.0194114284 -0.003 0.0700296224
      vertex 0.0241079599 -0.003 0.0686524344
    endloop
  endfacet
  facet normal 0 -1 0
    outer loop
      vertex 0 0.003 0
      vertex 0.0241079599 0.003 0.0686524344
      vertex 0.0194114284 0.003 0.0700296224
    endloop
  endfacet
  facet normal 0.219878995 -0 0.975527154
    outer loop
      vertex 0.0194114284 -0.003 0.0700296224
      vertex 0.0194114284 0.003 0.0700296224
      vertex 0.0146317742 0.003 0.0711069328
    endloop
  endfacet
  facet normal 0.219878995 0 0.975527154
    outer loop
      vertex 0.0194114284 -0.003 0.0700296224
      vertex 0.0146317742 0.003 0.0711069328
      vertex 0.0146317742 -0.003 0.0711069328
    endloop
  endfacet
  facet normal 0 1 0
    outer loop
      vertex 0 -0.003 0
      vertex 0.0146317742 -0.003 0.0711069328
      vertex 0.0194114284 -0.003 0.0700296224
    endloop
  endfacet
  facet normal 0 -1 0
    outer loop
      vertex 0 0.003 0
      vertex 0.0194114284 0.003 0.0700296224
      vertex 0.0146317742 0.003 0.0711069328
    endloop
  endfacet
  facet normal 0.15760276 -0 0.987502592
    outer loop
      vertex 0.0146317742 -0.003 0.0711069328
      vertex 0.0146317742 0.003 0.0711069328
      vertex 0.00978946442 0.003 0.0718797524
    endloop
  endfacet
  facet normal 0.15760276 0 0.987502592
    outer loop
      vertex 0.0146317742 -0.003 0.0711069328
      vertex 0.00978946442 0.003 0.0718797524
      vertex 0.00978946442 -0.003 0.0718797524
    endloop
  endfacet
  facet normal 0 1 0
    outer loop
      vertex 0 -0.003 0
      vertex 0.00978946442 -0.003 0.0718797524
      vertex 0.0146317742 -0.003 0.0711069328
    endloop
  endfacet
  facet normal 0 -1 0
    outer loop
      vertex 0 0.003 0
      vertex 0.0146317742 0.003 0.0711069328
      vertex 0.00978946442 0.003 0.0718797524
    endloop
  endfacet
  facet normal 0.0947797539 -0 0.995498266
    outer loop
      vertex 0.00978946442 -0.003 0.0718797524
      vertex 0.00978946442 0.003 0.0718797524
      vertex 0.00490523469 0.003 0.0723447719
    endloop
  endfacet
  facet normal 0.0947797539 0 0.995498266
    outer loop
      vertex 0.00978946442 -0.003 0.0718797524
      vertex 0.00490523469 0.003 0.0723447719
      vertex 0.00490523469 -0.003 0.0723447719
    endloop
  endfacet
  facet normal 0 1 0
    outer loop
      vertex 0 -0.003 0
      vertex 0.00490523469 -0.003 0.0723447719
      vertex 0.00978946442 -0.003 0.0718797524
    endloop
  endfacet
  facet normal 0 -1 0
    outer loop
      vertex 0 0.003 0
      vertex 0.00978946442 0.003 0.0718797524
      vertex 0.00490523469 0.003 0.0723447719
    endloop
  endfacet
  facet normal 0.0316295566 -0 0.99949966
    outer loop
      vertex 0.00490523469 -0.003 0.0723447719
      vertex 0.00490523469 0.003 0.0723447719
      vertex 4.5924255e-18 0.003 0.0725
    endloop
  endfacet
  facet normal 0.0316295566 0 0.99949966
    outer loop
      vertex 0.00490523469 -0.003 0.0723447719
      vertex 4.5924255e-18 0.003 0.0725
      vertex 4.5924255e-18 -0.003 0.0725
    endloop
  endfacet
  facet normal 0 1 0
    outer loop
      vertex 0 -0.003 0
      vertex 4.5924255e-18 -0.003 0.0725
      vertex 0.00490523469 -0.003 0.0723447719
    endloop
  endfacet
  facet normal 0 -1 0
    outer loop
      vertex 0 0.003 0
      vertex 0.00490523469 0.003 0.0723447719
      vertex 4.5924255e-18 0.003 0.0725
    endloop
  endfacet
  facet normal -0.0316295566 0 0.99949966
    outer loop
      vertex 4.5924255e-18 -0.003 0.0725
      vertex 4.5924255e-18 0.003 0.0725
      vertex -0.00490523469 0.003 0.0723447719
    endloop
  endfacet
  facet normal -0.0316295566 0 0.99949966
    outer loop
      vertex 4.5924255e-18 -0.003 0.0725
      vertex -0.00490523469 0.003 0.0723447719
      vertex -0.00490523469 -0.003 0.0723447719
    endloop
  endfacet
  facet normal 0 1 -0
    outer loop
      vertex 0 -0.003 0
      vertex -0.00490523469 -0.003 0.0723447719
      vertex 4.5924255e-18 -0.003 0.0725
    endloop
  endfacet
  facet normal 0 -1 0
    outer loop
      vertex 0 0.003 0
      vertex 4.5924255e-18 0.003 0.0725
      vertex -0.00490523469 0.003 0.0723447719
    endloop
  endfacet
  facet normal -0.0947797539 0 0.995498266
    outer loop
      vertex -0.00490523469 -0.003 0.0723447719
      vertex -0.00490523469 0.003 0.0723447719
      vertex -0.00978946442 0.003 0.0718797524
    endloop
  endfacet
  facet normal -0.0947797539 0 0.995498266
    outer loop
      vertex -0.00490523469 -0.003 0.0723447719
      vertex -0.00978946442 0.003 0.0718797524
      vertex -0.00978946442 -0.003 0.0718797524
    endloop
  endfacet
  facet normal 0 1 0
    outer loop
      vertex 0 -0.003 0
      vertex -0.00978946442 -0.003 0.0718797524
      vertex -0.00490523469 -0.003 0.0723447719
    endloop
  endfacet
  facet normal 0 -1 0
    outer loop
      vertex 0 0.003 0
      vertex -0.00490523469 0.003 0.0723447719
      vertex -0.00978946442 0.003 0.0718797524
    endloop
  endfacet
  facet normal -0.15760276 0 0.987502592
    outer loop
      vertex -0.00978946442 -0.003 0.0718797524
      vertex -0.00978946442 0.003 0.0718797524
      vertex -0.0146317742 0.003 0.0711069328
    endloop
  endfacet
  facet normal -0.15760276 0 0.987502592
    outer loop
      vertex -0.00978946442 -0.003 0.0718797524
      vertex -0.0146317742 0.003 0.0711069328
      vertex -0.0146317742 -0.003 0.0711069328
    endloop
  endfacet
  facet normal 0 1 0
    outer loop
      vertex 0 -0.003 0
      vertex -0.0146317742 -0.003 0.0711069328
      vertex -0.00978946442 -0.003 0.0718797524
    endloop
  endfacet
  facet normal 0 -1 0
    outer loop
      vertex 0 0.003 0
      vertex -0.00978946442 0.003 0.0718797524
      vertex -0.0146317742 0.003 0.0711069328
    endloop
  endfacet
  facet normal -0.219878995 0 0.975527154
    outer loop
      vertex -0.0146317742 -0.003 0.0711069328
      vertex -0.0146317742 0.003 0.0711069328
      vertex -0.0194114284 0.003 0.0700296224
    endloop
  endfacet
  facet normal -0.219878995 0 0.975527154
    outer loop
      vertex -0.0146317742 -0.003 0.0711069328
      vertex -0.0194114284 0.003 0.0700296224
      vertex -0.0194114284 -0.003 0.0700296224
    endloop
  endfacet
  facet normal 0 1 0
    outer loop
      vertex 0 -0.003 0
      vertex -0.0194114284 -0.003 0.0700296224
      vertex -0.0146317742 -0.003 0.0711069328
    endloop
  endfacet
  facet normal 0 -1 0
    outer loop
      vertex 0 0.003 0
      vertex -0.0146317742 0.003 0.0711069328
      vertex -0.0194114284 0.003 0.0700296224
    endloop
  endfacet
  facet normal -0.281386795 0 0.959594431
    outer loop
      vertex -0.0194114284 -0.003 0.0700296224
      vertex -0.0194114284 0.003 0.0700296224
      vertex -0.0241079599 0.003 0.0686524344
    endloop
  endfacet
  facet normal -0.281386795 0 0.959594431
    outer loop
      vertex -0.0194114284 -0.003 0.0700296224
      vertex -0.0241079599 0.003 0.0686524344
      vertex -0.0241079599 -0.003 0.0686524344
    endloop
  endfacet
  facet normal 0 1 0
    outer loop
      vertex 0 -0.003 0
      vertex -0.0241079599 -0.003 0.0686524344
      vertex -0.0194114284 -0.003 0.0700296224
    endloop
  endfacet
  facet normal 0 -1 0
    outer loop
      vertex 0 0.003 0
      vertex -0.0194114284 0.003 0.0700296224
      vertex -0.0241079599 0.003 0.0686524344
    endloop
  endfacet
  facet normal -0.341901757 0 0.939735701
    outer loop
      vertex -0.0241079599 -0.003 0.0686524344
      vertex -0.0241079599 0.003 0.0686524344
      vertex -0.0287012574 0.003 0.0669812661
    endloop
  endfacet
  facet normal -0.341901757 0 0.939735701
    outer loop
      vertex -0.0241079599 -0.003 0.0686524344
      vertex -0.0287012574 0.003 0.0669812661
      vertex -0.0287012574 -0.003 0.0669812661
    endloop
  endfacet
  facet normal 0 1 0
    outer loop
      vertex 0 -0.003 0
      vertex -0.0287012574 -0.003 0.0669812661
      vertex -0.0241079599 -0.003 0.0686524344
    endloop
  endfacet
  facet normal 0 -1 0
    outer loop
      vertex 0 0.003 0
      vertex -0.0241079599 0.003 0.0686524344
      vertex -0.0287012574 0.003 0.0669812661
    endloop
  endfacet
  facet normal -0.401196273 0 0.915992113
    outer loop
      vertex -0.0287012574 -0.003 0.0669812661
      vertex -0.0287012574 0.003 0.0669812661
      vertex -0.0331716518 0.003 0.0650232738
    endloop
  endfacet
  facet normal -0.401196273 0 0.915992113
    outer loop
      vertex -0.0287012574 -0.003 0.0669812661
      vertex -0.0331716518 0.003 0.0650232738
      vertex -0.0331716518 -0.003 0.0650232738
    endloop
  endfacet
  facet normal 0 1 0
    outer loop
      vertex 0 -0.003 0
      vertex -0.0331716518 -0.003 0.0650232738
      vertex -0.0287012574 -0.003 0.0669812661
    endloop
  endfacet
  facet normal 0 -1 0
    outer loop
      vertex 0 0.003 0
      vertex -0.0287012574 0.003 0.0669812661
      vertex -0.0331716518 0.003 0.0650232738
    endloop
  endfacet
  facet normal -0.459039287 0 0.888415968
    outer loop
      vertex -0.0331716518 -0.003 0.0650232738
      vertex -0.0331716518 0.003 0.0650232738
      vertex -0.0375 0.003 0.0627868418
    endloop
  endfacet
  facet normal -0.459039287 0 0.888415968
    outer loop
      vertex -0.0331716518 -0.003 0.0650232738
      vertex -0.0375 0.003 0.0627868418
      vertex -0.0375 -0.003 0.0627868418
    endloop
  endfacet
  facet normal 0 1 0
    outer loop
      vertex 0 -0.003 0
      vertex -0.0375 -0.003 0.0627868418
      vertex -0.0331716518 -0.003 0.0650232738
    endloop
  endfacet
  facet normal 0 -1 0
    outer loop
      vertex 0 0.003 0
      vertex -0.0331716518 0.003 0.0650232738
      vertex -0.0375 0.003 0.0627868418
    endloop
  endfacet
  facet normal -0.515196342 0 0.857072184
    outer loop
      vertex -0.0375 -0.003 0.0627868418
      vertex -0.0375 0.003 0.0627868418
      vertex -0.0416677675 0.003 0.0602815469
    endloop
  endfacet
  facet normal -0.515196342 0 0.857072184
    outer loop
      vertex -0.0375 -0.003 0.0627868418
      vertex -0.0416677675 0.003 0.0602815469
      vertex -0.0416677675 -0.003 0.0602815469
    endloop
  endfacet
  facet normal 0 1 0
    outer loop
      vertex 0 -0.003 0
      vertex -0.0416677675 -0.003 0.0602815469
      vertex -0.0375 -0.003 0.0627868418
    endloop
  endfacet
  facet normal 0 -1 0
    outer loop
      vertex 0 0.003 0
      vertex -0.0375 0.003 0.0627868418
      vertex -0.0416677675 0.003 0.0602815469
    endloop
  endfacet
  facet normal -0.569429929 0 0.822039875
    outer loop
      vertex -0.0416677675 -0.003 0.0602815469
      vertex -0.0416677675 0.003 0.0602815469
      vertex -0.0456571072 0.003 0.0575181172
    endloop
  endfacet
  facet normal -0.569429929 0 0.822039875
    outer loop
      vertex -0.0416677675 -0.003 0.0602815469
      vertex -0.0456571072 0.003 0.0575181172
      vertex -0.0456571072 -0.003 0.0575181172
    endloop
  endfacet
  facet normal 0 1 0
    outer loop
      vertex 0 -0.003 0
      vertex -0.0456571072 -0.003 0.0575181172
      vertex -0.0416677675 -0.003 0.0602815469
    endloop
  endfacet
  facet normal 0 -1 0
    outer loop
      vertex 0 0.003 0
      vertex -0.0416677675 0.003 0.0602815469
      vertex -0.0456571072 0.003 0.0575181172
    endloop
  endfacet
  facet normal -0.621500209 0 0.783413996
    outer loop
      vertex -0.0456571072 -0.003 0.0575181172
      vertex -0.0456571072 0.003 0.0575181172
      vertex -0.0494509361 0.003 0.054508386
    endloop
  endfacet
  facet normal -0.621500209 0 0.783413996
    outer loop
      vertex -0.0456571072 -0.003 0.0575181172
      vertex -0.0494509361 0.003 0.054508386
      vertex -0.0494509361 -0.003 0.054508386
    endloop
  endfacet
  facet normal 0 1 0
    outer loop
      vertex 0 -0.003 0
      vertex -0.0494509361 -0.003 0.054508386
      vertex -0.0456571072 -0.003 0.0575181172
    endloop
  endfacet
  facet normal 0 -1 0
    outer loop
      vertex 0 0.003 0
      vertex -0.0456571072 0.003 0.0575181172
      vertex -0.0494509361 0.003 0.054508386
    endloop
  endfacet
  facet normal -0.671166107 0 0.741306992
    outer loop
      vertex -0.0494509361 -0.003 0.054508386
      vertex -0.0494509361 0.003 0.054508386
      vertex -0.0530330086 0.003 0.0512652416
    endloop
  endfacet
  facet normal -0.671166107 0 0.741306992
    outer loop
      vertex -0.0494509361 -0.003 0.054508386
      vertex -0.0530330086 0.003 0.0512652416
      vertex -0.0530330086 -0.003 0.0512652416
    endloop
  endfacet
  facet normal 0 1 0
    outer loop
      vertex 0 -0.003 0
      vertex -0.0530330086 -0.003 0.0512652416
      vertex -0.0494509361 -0.003 0.054508386
    endloop
  endfacet
  facet normal 0 -1 0
    outer loop
      vertex 0 0.003 0
      vertex -0.0494509361 0.003 0.054508386
      vertex -0.0530330086 0.003 0.0512652416
    endloop
  endfacet
  facet normal -0.718186802 0 0.695850356
    outer loop
      vertex -0.0530330086 -0.003 0.0512652416
      vertex -0.0530330086 0.003 0.0512652416
      vertex -0.0563879856 0.003 0.0478025716
    endloop
  endfacet
  facet normal -0.718186802 0 0.695850356
    outer loop
      vertex -0.0530330086 -0.003 0.0512652416
      vertex -0.0563879856 0.003 0.0478025716
      vertex -0.0563879856 -0.003 0.0478025716
    endloop
  endfacet
  facet normal 0 1 0
    outer loop
      vertex 0 -0.003 0
      vertex -0.0563879856 -0.003 0.0478025716
      vertex -0.0530330086 -0.003 0.0512652416
    endloop
  endfacet
  facet normal 0 -1 0
    outer loop
      vertex 0 0.003 0
      vertex -0.0530330086 0.003 0.0512652416
      vertex -0.0563879856 0.003 0.0478025716
    endloop
  endfacet
  facet normal -0.76232362 0 0.647196028
    outer loop
      vertex -0.0563879856 -0.003 0.0478025716
      vertex -0.0563879856 0.003 0.0478025716
      vertex -0.0595015005 0.003 0.0441352036
    endloop
  endfacet
  facet normal -0.76232362 0 0.647196028
    outer loop
      vertex -0.0563879856 -0.003 0.0478025716
      vertex -0.0595015005 0.003 0.0441352036
      vertex -0.0595015005 -0.003 0.0441352036
    endloop
  endfacet
  facet normal 0 1 0
    outer loop
      vertex 0 -0.003 0
      vertex -0.0595015005 -0.003 0.0441352036
      vertex -0.0563879856 -0.003 0.0478025716
    endloop
  endfacet
  facet normal 0 -1 0
    outer loop
      vertex 0 0.003 0
      vertex -0.0563879856 0.003 0.0478025716
      vertex -0.0595015005 0.003 0.0441352036
    endloop
  endfacet
  facet normal -0.803342306 0 0.59551754
    outer loop
      vertex -0.0595015005 -0.003 0.0441352036
      vertex -0.0595015005 0.003 0.0441352036
      vertex -0.0623602209 0.003 0.0402788419
    endloop
  endfacet
  facet normal -0.803342306 0 0.59551754
    outer loop
      vertex -0.0595015005 -0.003 0.0441352036
      vertex -0.0623602209 0.003 0.0402788419
      vertex -0.0623602209 -0.003 0.0402788419
    endloop
  endfacet
  facet normal 0 1 0
    outer loop
      vertex 0 -0.003 0
      vertex -0.0623602209 -0.003 0.0402788419
      vertex -0.0595015005 -0.003 0.0441352036
    endloop
  endfacet
  facet normal 0 -1 0
    outer loop
      vertex 0 0.003 0
      vertex -0.0595015005 0.003 0.0441352036
      vertex -0.0623602209 0.003 0.0402788419
    endloop
  endfacet
  facet normal -0.841015631 0 0.541010821
    outer loop
      vertex -0.0623602209 -0.003 0.0402788419
      vertex -0.0623602209 0.003 0.0402788419
      vertex -0.0649519053 0.003 0.03625
    endloop
  endfacet
  facet normal -0.841015631 0 0.541010821
    outer loop
      vertex -0.0623602209 -0.003 0.0402788419
      vertex -0.0649519053 0.003 0.03625
      vertex -0.0649519053 -0.003 0.03625
    endloop
  endfacet
  facet normal 0 1 0
    outer loop
      vertex 0 -0.003 0
      vertex -0.0649519053 -0.003 0.03625
      vertex -0.0623602209 -0.003 0.0402788419
    endloop
  endfacet
  facet normal 0 -1 0
    outer loop
      vertex 0 0.003 0
      vertex -0.0623602209 0.003 0.0402788419
      vertex -0.0649519053 0.003 0.03625
    endloop
  endfacet
  facet normal -0.875126301 0 0.483894572
    outer loop
      vertex -0.0649519053 -0.003 0.03625
      vertex -0.0649519053 0.003 0.03625
      vertex -0.0672654556 0.003 0.03206593
    endloop
  endfacet
  facet normal -0.875126301 0 0.483894572
    outer loop
      vertex -0.0649519053 -0.003 0.03625
      vertex -0.0672654556 0.003 0.03206593
      vertex -0.0672654556 -0.003 0.03206593
    endloop
  endfacet
  facet normal 0 1 0
    outer loop
      vertex 0 -0.003 0
      vertex -0.0672654556 -0.003 0.03206593
      vertex -0.0649519053 -0.003 0.03625
    endloop
  endfacet
  facet normal 0 -1 0
    outer loop
      vertex 0 0.003 0
      vertex -0.0649519053 0.003 0.03625
      vertex -0.0672654556 0.003 0.03206593
    endloop
  endfacet
  facet normal -0.905470057 0 0.42441015
    outer loop
      vertex -0.0672654556 -0.003 0.03206593
      vertex -0.0672654556 0.003 0.03206593
      vertex -0.0692909649 0.003 0.0277445488
    endloop
  endfacet
  facet normal -0.905470057 0 0.42441015
    outer loop
      vertex -0.0672654556 -0.003 0.03206593
      vertex -0.0692909649 0.003 0.0277445488
      vertex -0.0692909649 -0.003 0.0277445488
    endloop
  endfacet
  facet normal 0 1 0
    outer loop
      vertex 0 -0.003 0
      vertex -0.0692909649 -0.003 0.0277445488
      vertex -0.0672654556 -0.003 0.03206593
    endloop
  endfacet
  facet normal 0 -1 0
    outer loop
      vertex 0 0.003 0
      vertex -0.0672654556 0.003 0.03206593
      vertex -0.0692909649 0.003 0.0277445488
    endloop
  endfacet
  facet normal -0.931858898 0 0.362820884
    outer loop
      vertex -0.0692909649 -0.003 0.0277445488
      vertex -0.0692909649 0.003 0.0277445488
      vertex -0.0710197597 0.003 0.0233043612
    endloop
  endfacet
  facet normal -0.931858898 0 0.362820884
    outer loop
      vertex -0.0692909649 -0.003 0.0277445488
      vertex -0.0710197597 0.003 0.0233043612
      vertex -0.0710197597 -0.003 0.0233043612
    endloop
  endfacet
  facet normal 0 1 0
    outer loop
      vertex 0 -0.003 0
      vertex -0.0710197597 -0.003 0.0233043612
      vertex -0.0692909649 -0.003 0.0277445488
    endloop
  endfacet
  facet normal 0 -1 0
    outer loop
      vertex 0 0.003 0
      vertex -0.0692909649 0.003 0.0277445488
      vertex -0.0710197597 0.003 0.0233043612
    endloop
  endfacet
  facet normal -0.954124296 0 0.299410801
    outer loop
      vertex -0.0710197597 -0.003 0.0233043612
      vertex -0.0710197597 0.003 0.0233043612
      vertex -0.072444437 0.003 0.0187643808
    endloop
  endfacet
  facet normal -0.954124296 0 0.299410801
    outer loop
      vertex -0.0710197597 -0.003 0.0233043612
      vertex -0.072444437 0.003 0.0187643808
      vertex -0.072444437 -0.003 0.0187643808
    endloop
  endfacet
  facet normal 0 1 0
    outer loop
      vertex 0 -0.003 0
      vertex -0.072444437 -0.003 0.0187643808
      vertex -0.0710197597 -0.003 0.0233043612
    endloop
  endfacet
  facet normal 0 -1 0
    outer loop
      vertex 0 0.003 0
      vertex -0.0710197597 0.003 0.0233043612
      vertex -0.072444437 0.003 0.0187643808
    endloop
  endfacet
  facet normal -0.972120281 0 0.23448275
    outer loop
      vertex -0.072444437 -0.003 0.0187643808
      vertex -0.072444437 0.003 0.0187643808
      vertex -0.073558896 0.003 0.0141440483
    endloop
  endfacet
  facet normal -0.972120281 0 0.23448275
    outer loop
      vertex -0.072444437 -0.003 0.0187643808
      vertex -0.073558896 0.003 0.0141440483
      vertex -0.073558896 -0.003 0.0141440483
    endloop
  endfacet
  facet normal 0 1 0
    outer loop
      vertex 0 -0.003 0
      vertex -0.073558896 -0.003 0.0141440483
      vertex -0.072444437 -0.003 0.0187643808
    endloop
  endfacet
  facet normal 0 -1 0
    outer loop
      vertex 0 0.003 0
      vertex -0.072444437 0.003 0.0187643808
      vertex -0.073558896 0.003 0.0141440483
    endloop
  endfacet
  facet normal -0.985726271 0 0.16835593
    outer loop
      vertex -0.073558896 -0.003 0.0141440483
      vertex -0.073558896 0.003 0.0141440483
      vertex -0.0743583646 0.003 0.00946314894
    endloop
  endfacet
  facet normal -0.985726271 0 0.16835593
    outer loop
      vertex -0.073558896 -0.003 0.0141440483
      vertex -0.0743583646 0.003 0.00946314894
      vertex -0.0743583646 -0.003 0.00946314894
    endloop
  endfacet
  facet normal 0 1 0
    outer loop
      vertex 0 -0.003 0
      vertex -0.0743583646 -0.003 0.00946314894
      vertex -0.073558896 -0.003 0.0141440483
    endloop
  endfacet
  facet normal 0 -1 0
    outer loop
      vertex 0 0.003 0
      vertex -0.073558896 0.003 0.0141440483
      vertex -0.0743583646 0.003 0.00946314894
    endloop
  endfacet
  facet normal -0.994849519 0 0.101362888
    outer loop
      vertex -0.0743583646 -0.003 0.00946314894
      vertex -0.0743583646 0.003 0.00946314894
      vertex -0.0748394192 0.003 0.00474172687
    endloop
  endfacet
  facet normal -0.994849519 0 0.101362888
    outer loop
      vertex -0.0743583646 -0.003 0.00946314894
      vertex -0.0748394192 0.003 0.00474172687
      vertex -0.0748394192 -0.003 0.00474172687
    endloop
  endfacet
  facet normal 0 1 0
    outer loop
      vertex 0 -0.003 0
      vertex -0.0748394192 -0.003 0.00474172687
      vertex -0.0743583646 -0.003 0.00946314894
    endloop
  endfacet
  facet normal 0 -1 0
    outer loop
      vertex 0 0.003 0
      vertex -0.0743583646 0.003 0.00946314894
      vertex -0.0748394192 0.003 0.00474172687
    endloop
  endfacet
  facet normal -0.999427058 0 0.0338460561
    outer loop
      vertex -0.0748394192 -0.003 0.00474172687
      vertex -0.0748394192 0.003 0.00474172687
      vertex -0.075 0.003 8.87868929e-18
    endloop
  endfacet
  facet normal -0.999427058 0 0.0338460561
    outer loop
      vertex -0.0748394192 -0.003 0.00474172687
      vertex -0.075 0.003 8.87868929e-18
      vertex -0.075 -0.003 8.87868929e-18
    endloop
  endfacet
  facet normal 0 1 0
    outer loop
      vertex 0 -0.003 0
      vertex -0.075 -0.003 8.87868929e-18
      vertex -0.0748394192 -0.003 0.00474172687
    endloop
  endfacet
  facet normal 0 -1 0
    outer loop
      vertex 0 0.003 0
      vertex -0.0748394192 0.003 0.00474172687
      vertex -0.075 0.003 8.87868929e-18
    endloop
  endfacet
  facet normal -0.999427058 0 -0.0338460561
    outer loop
      vertex -0.075 -0.003 8.87868929e-18
      vertex -0.075 0.003 8.87868929e-18
      vertex -0.0748394192 0.003 -0.00474172687
    endloop
  endfacet
  facet normal -0.999427058 0 -0.0338460561
    outer loop
      vertex -0.075 -0.003 8.87868929e-18
      vertex -0.0748394192 0.003 -0.00474172687
      vertex -0.0748394192 -0.003 -0.00474172687
    endloop
  endfacet
  facet normal 0 1 0
    outer loop
      vertex 0 -0.003 0
      vertex -0.0748394192 -0.003 -0.00474172687
      vertex -0.075 -0.003 8.87868929e-18
    endloop
  endfacet
  facet normal -0 -1 0
    outer loop
      vertex 0 0.003 0
      vertex -0.075 0.003 8.87868929e-18
      vertex -0.0748394192 0.003 -0.00474172687
    endloop
  endfacet
  facet normal -0.994849519 0 -0.101362888
    outer loop
      vertex -0.0748394192 -0.003 -0.00474172687
      vertex -0.0748394192 0.003 -0.00474172687
      vertex -0.0743583646 0.003 -0.00946314894
    endloop
  endfacet
  facet normal -0.994849519 0 -0.101362888
    outer loop
      vertex -0.0748394192 -0.003 -0.00474172687
      vertex -0.0743583646 0.003 -0.00946314894
      vertex -0.0743583646 -0.003 -0.00946314894
    endloop
  endfacet
  facet normal 0 1 0
    outer loop
      vertex 0 -0.003 0
      vertex -0.0743583646 -0.003 -0.00946314894
      vertex -0.0748394192 -0.003 -0.00474172687
    endloop
  endfacet
  facet normal 0 -1 0
    outer loop
      vertex 0 0.003 0
      vertex -0.0748394192 0.003 -0.00474172687
      vertex -0.0743583646 0.003 -0.00946314894
    endloop
  endfacet
  facet normal -0.985726271 0 -0.16835593
    outer loop
      vertex -0.0743583646 -0.003 -0.00946314894
      vertex -0.0743583646 0.003 -0.00946314894
      vertex -0.073558896 0.003 -0.0141440483
    endloop
  endfacet
  facet normal -0.985726271 0 -0.16835593
    outer loop
      vertex -0.0743583646 -0.003 -0.00946314894
      vertex -0.073558896 0.003 -0.0141440483
      vertex -0.073558896 -0.003 -0.0141440483
    endloop
  endfacet
  facet normal 0 1 0
    outer loop
      vertex 0 -0.003 0
      vertex -0.073558896 -0.003 -0.0141440483
      vertex -0.0743583646 -0.003 -0.00946314894
    endloop
  endfacet
  facet normal 0 -1 0
    outer loop
      vertex 0 0.003 0
      vertex -0.0743583646 0.003 -0.00946314894
      vertex -0.073558896 0.003 -0.0141440483
    endloop
  endfacet
  facet normal -0.972120281 0 -0.23448275
    outer loop
      vertex -0.073558896 -0.003 -0.0141440483
      vertex -0.073558896 0.003 -0.0141440483
      vertex -0.072444437 0.003 -0.0187643808
    endloop
  endfacet
  facet normal -0.972120281 0 -0.23448275
    outer loop
      vertex -0.073558896 -0.003 -0.0141440483
      vertex -0.072444437 0.003 -0.0187643808
      vertex -0.072444437 -0.003 -0.0187643808
    endloop
  endfacet
  facet normal 0 1 0
    outer loop
      vertex 0 -0.003 0
      vertex -0.072444437 -0.003 -0.0187643808
      vertex -0.073558896 -0.003 -0.0141440483
    endloop
  endfacet
  facet normal 0 -1 0
    outer loop
      vertex 0 0.003 0
      vertex -0.073558896 0.003 -0.0141440483
      vertex -0.072444437 0.003 -0.0187643808
    endloop
  endfacet
  facet normal -0.954124296 0 -0.299410801
    outer loop
      vertex -0.072444437 -0.003 -0.0187643808
      vertex -0.072444437 0.003 -0.0187643808
      vertex -0.0710197597 0.003 -0.0233043612
    endloop
  endfacet
  facet normal -0.954124296 0 -0.299410801
    outer loop
      vertex -0.072444437 -0.003 -0.0187643808
      vertex -0.0710197597 0.003 -0.0233043612
      vertex -0.0710197597 -0.003 -0.0233043612
    endloop
  endfacet
  facet normal 0 1 0
    outer loop
      vertex 0 -0.003 0
      vertex -0.0710197597 -0.003 -0.0233043612
      vertex -0.072444437 -0.003 -0.0187643808
    endloop
  endfacet
  facet normal 0 -1 0
    outer loop
      vertex 0 0.003 0
      vertex -0.072444437 0.003 -0.0187643808
      vertex -0.0710197597 0.003 -0.0233043612
    endloop
  endfacet
  facet normal -0.931858898 0 -0.362820884
    outer loop
      vertex -0.0710197597 -0.003 -0.0233043612
      vertex -0.0710197597 0.003 -0.0233043612
      vertex -0.0692909649 0.003 -0.0277445488
    endloop
  endfacet
  facet normal -0.931858898 0 -0.362820884
    outer loop
      vertex -0.0710197597 -0.003 -0.0233043612
      vertex -0.0692909649 0.003 -0.0277445488
      vertex -0.0692909649 -0.003 -0.0277445488
    endloop
  endfacet
  facet normal 0 1 0
    outer loop
      vertex 0 -0.003 0
      vertex -0.0692909649 -0.003 -0.0277445488
      vertex -0.0710197597 -0.003 -0.0233043612
    endloop
  endfacet
  facet normal 0 -1 0
    outer loop
      vertex 0 0.003 0
      vertex -0.0710197597 0.003 -0.0233043612
      vertex -0.0692909649 0.003 -0.0277445488
    endloop
  endfacet
  facet normal -0.905470057 0 -0.42441015
    outer loop
      vertex -0.0692909649 -0.003 -0.0277445488
      vertex -0.0692909649 0.003 -0.0277445488
      vertex -0.0672654556 0.003 -0.03206593
    endloop
  endfacet
  facet normal -0.905470057 0 -0.42441015
    outer loop
      vertex -0.0692909649 -0.003 -0.0277445488
      vertex -0.0672654556 0.003 -0.03206593
      vertex -0.0672654556 -0.003 -0.03206593
    endloop
  endfacet
  facet normal 0 1 0
    outer loop
      vertex 0 -0.003 0
      vertex -0.0672654556 -0.003 -0.03206593
      vertex -0.0692909649 -0.003 -0.0277445488
    endloop
  endfacet
  facet normal 0 -1 0
    outer loop
      vertex 0 0.003 0
      vertex -0.0692909649 0.003 -0.0277445488
      vertex -0.0672654556 0.003 -0.03206593
    endloop
  endfacet
  facet normal -0.875126301 0 -0.483894572
    outer loop
      vertex -0.0672654556 -0.003 -0.03206593
      vertex -0.0672654556 0.003 -0.03206593
      vertex -0.0649519053 0.003 -0.03625
    endloop
  endfacet
  facet normal -0.875126301 0 -0.483894572
    outer loop
      vertex -0.0672654556 -0.003 -0.03206593
      vertex -0.0649519053 0.003 -0.03625
      vertex -0.0649519053 -0.003 -0.03625
    endloop
  endfacet
  facet normal 0 1 0
    outer loop
      vertex 0 -0.003 0
      vertex -0.0649519053 -0.003 -0.03625
      vertex -0.0672654556 -0.003 -0.03206593
    endloop
  endfacet
  facet normal 0 -1 0
    outer loop
      vertex 0 0.003 0
      vertex -0.0672654556 0.003 -0.03206593
      vertex -0.0649519053 0.003 -0.03625
    endloop
  endfacet
  facet normal -0.841015631 0 -0.541010821
    outer loop
      vertex -0.0649519053 -0.003 -0.03625
      vertex -0.0649519053 0.003 -0.03625
      vertex -0.0623602209 0.003 -0.0402788419
    endloop
  endfacet
  facet normal -0.841015631 0 -0.541010821
    outer loop
      vertex -0.0649519053 -0.003 -0.03625
      vertex -0.0623602209 0.003 -0.0402788419
      vertex -0.0623602209 -0.003 -0.0402788419
    endloop
  endfacet
  facet normal 0 1 0
    outer loop
      vertex 0 -0.003 0
      vertex -0.0623602209 -0.003 -0.0402788419
      vertex -0.0649519053 -0.003 -0.03625
    endloop
  endfacet
  facet normal 0 -1 0
    outer loop
      vertex 0 0.003 0
      vertex -0.0649519053 0.003 -0.03625
      vertex -0.0623602209 0.003 -0.0402788419
    endloop
  endfacet
  facet normal -0.803342306 0 -0.59551754
    outer loop
      vertex -0.0623602209 -0.003 -0.0402788419
      vertex -0.0623602209 0.003 -0.0402788419
      vertex -0.0595015005 0.003 -0.0441352036
    endloop
  endfacet
  facet normal -0.803342306 0 -0.59551754
    outer loop
      vertex -0.0623602209 -0.003 -0.0402788419
      vertex -0.0595015005 0.003 -0.0441352036
      vertex -0.0595015005 -0.003 -0.0441352036
    endloop
  endfacet
  facet normal 0 1 0
    outer loop
      vertex 0 -0.003 0
      vertex -0.0595015005 -0.003 -0.0441352036
      vertex -0.0623602209 -0.003 -0.0402788419
    endloop
  endfacet
  facet normal 0 -1 0
    outer loop
      vertex 0 0.003 0
      vertex -0.0623602209 0.003 -0.0402788419
      vertex -0.0595015005 0.003 -0.0441352036
    endloop
  endfacet
  facet normal -0.76232362 0 -0.647196028
    outer loop
      vertex -0.0595015005 -0.003 -0.0441352036
      vertex -0.0595015005 0.003 -0.0441352036
      vertex -0.0563879856 0.003 -0.0478025716
    endloop
  endfacet
  facet normal -0.76232362 0 -0.647196028
    outer loop
      vertex -0.0595015005 -0.003 -0.0441352036
      vertex -0.0563879856 0.003 -0.0478025716
      vertex -0.0563879856 -0.003 -0.0478025716
    endloop
  endfacet
  facet normal 0 1 0
    outer loop
      vertex 0 -0.003 0
      vertex -0.0563879856 -0.003 -0.0478025716
      vertex -0.0595015005 -0.003 -0.0441352036
    endloop
  endfacet
  facet normal 0 -1 0
    outer loop
      vertex 0 0.003 0
      vertex -0.0595015005 0.003 -0.0441352036
      vertex -0.0563879856 0.003 -0.0478025716
    endloop
  endfacet
  facet normal -0.718186802 0 -0.695850356
    outer loop
      vertex -0.0563879856 -0.003 -0.0478025716
      vertex -0.0563879856 0.003 -0.0478025716
      vertex -0.0530330086 0.003 -0.0512652416
    endloop
  endfacet
  facet normal -0.718186802 0 -0.695850356
    outer loop
      vertex -0.0563879856 -0.003 -0.0478025716
      vertex -0.0530330086 0.003 -0.0512652416
      vertex -0.0530330086 -0.003 -0.0512652416
    endloop
  endfacet
  facet normal 0 1 0
    outer loop
      vertex 0 -0.003 0
      vertex -0.0530330086 -0.003 -0.0512652416
      vertex -0.0563879856 -0.003 -0.0478025716
    endloop
  endfacet
  facet normal 0 -1 0
    outer loop
      vertex 0 0.003 0
      vertex -0.0563879856 0.003 -0.0478025716
      vertex -0.0530330086 0.003 -0.0512652416
    endloop
  endfacet
  facet normal -0.671166107 0 -0.741306992
    outer loop
      vertex -0.0530330086 -0.003 -0.0512652416
      vertex -0.0530330086 0.003 -0.0512652416
      vertex -0.0494509361 0.003 -0.054508386
    endloop
  endfacet
  facet normal -0.671166107 0 -0.741306992
    outer loop
      vertex -0.0530330086 -0.003 -0.0512652416
      vertex -0.0494509361 0.003 -0.054508386
      vertex -0.0494509361 -0.003 -0.054508386
    endloop
  endfacet
  facet normal 0 1 0
    outer loop
      vertex 0 -0.003 0
      vertex -0.0494509361 -0.003 -0.054508386
      vertex -0.0530330086 -0.003 -0.0512652416
    endloop
  endfacet
  facet normal 0 -1 0
    outer loop
      vertex 0 0.003 0
      vertex -0.0530330086 0.003 -0.0512652416
      vertex -0.0494509361 0.003 -0.054508386
    endloop
  endfacet
  facet normal -0.621500209 0 -0.783413996
    outer loop
      vertex -0.0494509361 -0.003 -0.054508386
      vertex -0.0494509361 0.003 -0.054508386
      vertex -0.0456571072 0.003 -0.0575181172
    endloop
  endfacet
  facet normal -0.621500209 0 -0.783413996
    outer loop
      vertex -0.0494509361 -0.003 -0.054508386
      vertex -0.0456571072 0.003 -0.0575181172
      vertex -0.0456571072 -0.003 -0.0575181172
    endloop
  endfacet
  facet normal 0 1 0
    outer loop
      vertex 0 -0.003 0
      vertex -0.0456571072 -0.003 -0.0575181172
      vertex -0.0494509361 -0.003 -0.054508386
    endloop
  endfacet
  facet normal 0 -1 0
    outer loop
      vertex 0 0.003 0
      vertex -0.0494509361 0.003 -0.054508386
      vertex -0.0456571072 0.003 -0.0575181172
    endloop
  endfacet
  facet normal -0.569429929 0 -0.822039875
    outer loop
      vertex -0.0456571072 -0.003 -0.0575181172
      vertex -0.0456571072 0.003 -0.0575181172
      vertex -0.0416677675 0.003 -0.0602815469
    endloop
  endfacet
  facet normal -0.569429929 0 -0.822039875
    outer loop
      vertex -0.0456571072 -0.003 -0.0575181172
      vertex -0.0416677675 0.003 -0.0602815469
      vertex -0.0416677675 -0.003 -0.0602815469
    endloop
  endfacet
  facet normal 0 1 0
    outer loop
      vertex 0 -0.003 0
      vertex -0.0416677675 -0.003 -0.0602815469
      vertex -0.0456571072 -0.003 -0.0575181172
    endloop
  endfacet
  facet normal 0 -1 0
    outer loop
      vertex 0 0.003 0
      vertex -0.0456571072 0.003 -0.0575181172
      vertex -0.0416677675 0.003 -0.0602815469
    endloop
  endfacet
  facet normal -0.515196342 0 -0.857072184
    outer loop
      vertex -0.0416677675 -0.003 -0.0602815469
      vertex -0.0416677675 0.003 -0.0602815469
      vertex -0.0375 0.003 -0.0627868418
    endloop
  endfacet
  facet normal -0.515196342 0 -0.857072184
    outer loop
      vertex -0.0416677675 -0.003 -0.0602815469
      vertex -0.0375 0.003 -0.0627868418
      vertex -0.0375 -0.003 -0.0627868418
    endloop
  endfacet
  facet normal 0 1 0
    outer loop
      vertex 0 -0.003 0
      vertex -0.0375 -0.003 -0.0627868418
      vertex -0.0416677675 -0.003 -0.0602815469
    endloop
  endfacet
  facet normal 0 -1 0
    outer loop
      vertex 0 0.003 0
      vertex -0.0416677675 0.003 -0.0602815469
      vertex -0.0375 0.003 -0.0627868418
    endloop
  endfacet
  facet normal -0.459039287 0 -0.888415968
    outer loop
      vertex -0.0375 -0.003 -0.0627868418
      vertex -0.0375 0.003 -0.0627868418
      vertex -0.0331716518 0.003 -0.0650232738
    endloop
  endfacet
  facet normal -0.459039287 0 -0.888415968
    outer loop
      vertex -0.0375 -0.003 -0.0627868418
      vertex -0.0331716518 0.003 -0.0650232738
      vertex -0.0331716518 -0.003 -0.0650232738
    endloop
  endfacet
  facet normal 0 1 0
    outer loop
      vertex 0 -0.003 0
      vertex -0.0331716518 -0.003 -0.0650232738
      vertex -0.0375 -0.003 -0.0627868418
    endloop
  endfacet
  facet normal 0 -1 0
    outer loop
      vertex 0 0.003 0
      vertex -0.0375 0.003 -0.0627868418
      vertex -0.0331716518 0.003 -0.0650232738
    endloop
  endfacet
  facet normal -0.401196273 0 -0.915992113
    outer loop
      vertex -0.0331716518 -0.003 -0.0650232738
      vertex -0.0331716518 0.003 -0.0650232738
      vertex -0.0287012574 0.003 -0.0669812661
    endloop
  endfacet
  facet normal -0.401196273 0 -0.915992113
    outer loop
      vertex -0.0331716518 -0.003 -0.0650232738
      vertex -0.0287012574 0.003 -0.0669812661
      vertex -0.0287012574 -0.003 -0.0669812661
    endloop
  endfacet
  facet normal 0 1 0
    outer loop
      vertex 0 -0.003 0
      vertex -0.0287012574 -0.003 -0.0669812661
      vertex -0.0331716518 -0.003 -0.0650232738
    endloop
  endfacet
  facet normal 0 -1 0
    outer loop
      vertex 0 0.003 0
      vertex -0.0331716518 0.003 -0.0650232738
      vertex -0.0287012574 0.003 -0.0669812661
    endloop
  endfacet
  facet normal -0.341901757 0 -0.939735701
    outer loop
      vertex -0.0287012574 -0.003 -0.0669812661
      vertex -0.0287012574 0.003 -0.0669812661
      vertex -0.0241079599 0.003 -0.0686524344
    endloop
  endfacet
  facet normal -0.341901757 0 -0.939735701
    outer loop
      vertex -0.0287012574 -0.003 -0.0669812661
      vertex -0.0241079599 0.003 -0.0686524344
      vertex -0.0241079599 -0.003 -0.0686524344
    endloop
  endfacet
  facet normal 0 1 0
    outer loop
      vertex 0 -0.003 0
      vertex -0.0241079599 -0.003 -0.0686524344
      vertex -0.0287012574 -0.003 -0.0669812661
    endloop
  endfacet
  facet normal 0 -1 0
    outer loop
      vertex 0 0.003 0
      vertex -0.0287012574 0.003 -0.0669812661
      vertex -0.0241079599 0.003 -0.0686524344
    endloop
  endfacet
  facet normal -0.281386795 0 -0.959594431
    outer loop
      vertex -0.0241079599 -0.003 -0.0686524344
      vertex -0.0241079599 0.003 -0.0686524344
      vertex -0.0194114284 0.003 -0.0700296224
    endloop
  endfacet
  facet normal -0.281386795 0 -0.959594431
    outer loop
      vertex -0.0241079599 -0.003 -0.0686524344
      vertex -0.0194114284 0.003 -0.0700296224
      vertex -0.0194114284 -0.003 -0.0700296224
    endloop
  endfacet
  facet normal 0 1 0
    outer loop
      vertex 0 -0.003 0
      vertex -0.0194114284 -0.003 -0.0700296224
      vertex -0.0241079599 -0.003 -0.0686524344
    endloop
  endfacet
  facet normal 0 -1 0
    outer loop
      vertex 0 0.003 0
      vertex -0.0241079599 0.003 -0.0686524344
      vertex -0.0194114284 0.003 -0.0700296224
    endloop
  endfacet
  facet normal -0.219878995 0 -0.975527154
    outer loop
      vertex -0.0194114284 -0.003 -0.0700296224
      vertex -0.0194114284 0.003 -0.0700296224
      vertex -0.0146317742 0.003 -0.0711069328
    endloop
  endfacet
  facet normal -0.219878995 0 -0.975527154
    outer loop
      vertex -0.0194114284 -0.003 -0.0700296224
      vertex -0.0146317742 0.003 -0.0711069328
      vertex -0.0146317742 -0.003 -0.0711069328
    endloop
  endfacet
  facet normal 0 1 0
    outer loop
      vertex 0 -0.003 0
      vertex -0.0146317742 -0.003 -0.0711069328
      vertex -0.0194114284 -0.003 -0.0700296224
    endloop
  endfacet
  facet normal 0 -1 0
    outer loop
      vertex 0 0.003 0
      vertex -0.0194114284 0.003 -0.0700296224
      vertex -0.0146317742 0.003 -0.0711069328
    endloop
  endfacet
  facet normal -0.15760276 0 -0.987502592
    outer loop
      vertex -0.0146317742 -0.003 -0.0711069328
      vertex -0.0146317742 0.003 -0.0711069328
      vertex -0.00978946442 0.003 -0.0718797524
    endloop
  endfacet
  facet normal -0.15760276 0 -0.987502592
    outer loop
      vertex -0.0146317742 -0.003 -0.0711069328
      vertex -0.00978946442 0.003 -0.0718797524
      vertex -0.00978946442 -0.003 -0.0718797524
    endloop
  endfacet
  facet normal 0 1 0
    outer loop
      vertex 0 -0.003 0
      vertex -0.00978946442 -0.003 -0.0718797524
      vertex -0.0146317742 -0.003 -0.0711069328
    endloop
  endfacet
  facet normal 0 -1 0
    outer loop
      vertex 0 0.003 0
      vertex -0.0146317742 0.003 -0.0711069328
      vertex -0.00978946442 0.003 -0.0718797524
    endloop
  endfacet
  facet normal -0.0947797539 0 -0.995498266
    outer loop
      vertex -0.00978946442 -0.003 -0.0718797524
      vertex -0.00978946442 0.003 -0.0718797524
      vertex -0.00490523469 0.003 -0.0723447719
    endloop
  endfacet
  facet normal -0.0947797539 0 -0.995498266
    outer loop
      vertex -0.00978946442 -0.003 -0.0718797524
      vertex -0.00490523469 0.003 -0.0723447719
      vertex -0.00490523469 -0.003 -0.0723447719
    endloop
  endfacet
  facet normal 0 1 0
    outer loop
      vertex 0 -0.003 0
      vertex -0.00490523469 -0.003 -0.0723447719
      vertex -0.00978946442 -0.003 -0.0718797524
    endloop
  endfacet
  facet normal 0 -1 0
    outer loop
      vertex 0 0.003 0
      vertex -0.00978946442 0.003 -0.0718797524
      vertex -0.00490523469 0.003 -0.0723447719
    endloop
  endfacet
  facet normal -0.0316295566 0 -0.99949966
    outer loop
      vertex -0.00490523469 -0.003 -0.0723447719
      vertex -0.00490523469 0.003 -0.0723447719
      vertex -1.37772765e-17 0.003 -0.0725
    endloop
  endfacet
  facet normal -0.0316295566 0 -0.99949966
    outer loop
      vertex -0.00490523469 -0.003 -0.0723447719
      vertex -1.37772765e-17 0.003 -0.0725
      vertex -1.37772765e-17 -0.003 -0.0725
    endloop
  endfacet
  facet normal 0 1 0
    outer loop
      vertex 0 -0.003 0
      vertex -1.37772765e-17 -0.003 -0.0725
      vertex -0.00490523469 -0.003 -0.0723447719
    endloop
  endfacet
  facet normal 0 -1 0
    outer loop
      vertex 0 0.003 0
      vertex -0.00490523469 0.003 -0.0723447719
      vertex -1.37772765e-17 0.003 -0.0725
    endloop
  endfacet
  facet normal 0.0316295566 0 -0.99949966
    outer loop
      vertex -1.37772765e-17 -0.003 -0.0725
      vertex -1.37772765e-17 0.003 -0.0725
      vertex 0.00490523469 0.003 -0.0723447719
    endloop
  endfacet
  facet normal 0.0316295566 0 -0.99949966
    outer loop
      vertex -1.37772765e-17 -0.003 -0.0725
      vertex 0.00490523469 0.003 -0.0723447719
      vertex 0.00490523469 -0.003 -0.0723447719
    endloop
  endfacet
  facet normal 0 1 0
    outer loop
      vertex 0 -0.003 0
      vertex 0.00490523469 -0.003 -0.0723447719
      vertex -1.37772765e-17 -0.003 -0.0725
    endloop
  endfacet
  facet normal 0 -1 -0
    outer loop
      vertex 0 0.003 0
      vertex -1.37772765e-17 0.003 -0.0725
      vertex 0.00490523469 0.003 -0.0723447719
    endloop
  endfacet
  facet normal 0.0947797539 0 -0.995498266
    outer loop
      vertex 0.00490523469 -0.003 -0.0723447719
      vertex 0.00490523469 0.003 -0.0723447719
      vertex 0.00978946442 0.003 -0.0718797524
    endloop
  endfacet
  facet normal 0.0947797539 0 -0.995498266
    outer loop
      vertex 0.00490523469 -0.003 -0.0723447719
      vertex 0.00978946442 0.003 -0.0718797524
      vertex 0.00978946442 -0.003 -0.0718797524
    endloop
  endfacet
  facet normal 0 1 0
    outer loop
      vertex 0 -0.003 0
      vertex 0.00978946442 -0.003 -0.0718797524
      vertex 0.00490523469 -0.003 -0.0723447719
    endloop
  endfacet
  facet normal 0 -1 0
    outer loop
      vertex 0 0.003 0
      vertex 0.00490523469 0.003 -0.0723447719
      vertex 0.00978946442 0.003 -0.0718797524
    endloop
  endfacet
  facet normal 0.15760276 0 -0.987502592
    outer loop
      vertex 0.00978946442 -0.003 -0.0718797524
      vertex 0.00978946442 0.003 -0.0718797524
      vertex 0.0146317742 0.003 -0.0711069328
    endloop
  endfacet
  facet normal 0.15760276 0 -0.987502592
    outer loop
      vertex 0.00978946442 -0.003 -0.0718797524
      vertex 0.0146317742 0.003 -0.0711069328
      vertex 0.0146317742 -0.003 -0.0711069328
    endloop
  endfacet
  facet normal 0 1 0
    outer loop
      vertex 0 -0.003 0
      vertex 0.0146317742 -0.003 -0.0711069328
      vertex 0.00978946442 -0.003 -0.0718797524
    endloop
  endfacet
  facet normal 0 -1 0
    outer loop
      vertex 0 0.003 0
      vertex 0.00978946442 0.003 -0.0718797524
      vertex 0.0146317742 0.003 -0.0711069328
    endloop
  endfacet
  facet normal 0.219878995 0 -0.975527154
    outer loop
      vertex 0.0146317742 -0.003 -0.0711069328
      vertex 0.0146317742 0.003 -0.0711069328
      vertex 0.0194114284 0.003 -0.0700296224
    endloop
  endfacet
  facet normal 0.219878995 0 -0.975527154
    outer loop
      vertex 0.0146317742 -0.003 -0.0711069328
      vertex 0.0194114284 0.003 -0.0700296224
      vertex 0.0194114284 -0.003 -0.0700296224
    endloop
  endfacet
  facet normal 0 1 0
    outer loop
      vertex 0 -0.003 0
      vertex 0.0194114284 -0.003 -0.0700296224
      vertex 0.0146317742 -0.003 -0.0711069328
    endloop
  endfacet
  facet normal 0 -1 0
    outer loop
      vertex 0 0.003 0
      vertex 0.0146317742 0.003 -0.0711069328
      vertex 0.0194114284 0.003 -0.0700296224
    endloop
  endfacet
  facet normal 0.281386795 0 -0.959594431
    outer loop
      vertex 0.0194114284 -0.003 -0.0700296224
      vertex 0.0194114284 0.003 -0.0700296224
      vertex 0.0241079599 0.003 -0.0686524344
    endloop
  endfacet
  facet normal 0.281386795 0 -0.959594431
    outer loop
      vertex 0.0194114284 -0.003 -0.0700296224
      vertex 0.0241079599 0.003 -0.0686524344
      vertex 0.0241079599 -0.003 -0.0686524344
    endloop
  endfacet
  facet normal 0 1 0
    outer loop
      vertex 0 -0.003 0
      vertex 0.0241079599 -0.003 -0.0686524344
      vertex 0.0194114284 -0.003 -0.0700296224
    endloop
  endfacet
  facet normal 0 -1 0
    outer loop
      vertex 0 0.003 0
      vertex 0.0194114284 0.003 -0.0700296224
      vertex 0.0241079599 0.003 -0.0686524344
    endloop
  endfacet
  facet normal 0.341901757 0 -0.939735701
    outer loop
      vertex 0.0241079599 -0.003 -0.0686524344
      vertex 0.0241079599 0.003 -0.0686524344
      vertex 0.0287012574 0.003 -0.0669812661
    endloop
  endfacet
  facet normal 0.341901757 0 -0.939735701
    outer loop
      vertex 0.0241079599 -0.003 -0.0686524344
      vertex 0.0287012574 0.003 -0.0669812661
      vertex 0.0287012574 -0.003 -0.0669812661
    endloop
  endfacet
  facet normal 0 1 0
    outer loop
      vertex 0 -0.003 0
      vertex 0.0287012574 -0.003 -0.0669812661
      vertex 0.0241079599 -0.003 -0.0686524344
    endloop
  endfacet
  facet normal 0 -1 0
    outer loop
      vertex 0 0.003 0
      vertex 0.0241079599 0.003 -0.0686524344
      vertex 0.0287012574 0.003 -0.0669812661
    endloop
  endfacet
  facet normal 0.401196273 0 -0.915992113
    outer loop
      vertex 0.0287012574 -0.003 -0.0669812661
      vertex 0.0287012574 0.003 -0.0669812661
      vertex 0.0331716518 0.003 -0.0650232738
    endloop
  endfacet
  facet normal 0.401196273 0 -0.915992113
    outer loop
      vertex 0.0287012574 -0.003 -0.0669812661
      vertex 0.0331716518 0.003 -0.0650232738
      vertex 0.0331716518 -0.003 -0.0650232738
    endloop
  endfacet
  facet normal 0 1 0
    outer loop
      vertex 0 -0.003 0
      vertex 0.0331716518 -0.003 -0.0650232738
      vertex 0.0287012574 -0.003 -0.0669812661
    endloop
  endfacet
  facet normal 0 -1 0
    outer loop
      vertex 0 0.003 0
      vertex 0.0287012574 0.003 -0.0669812661
      vertex 0.0331716518 0.003 -0.0650232738
    endloop
  endfacet
  facet normal 0.459039287 0 -0.888415968
    outer loop
      vertex 0.0331716518 -0.003 -0.0650232738
      vertex 0.0331716518 0.003 -0.0650232738
      vertex 0.0375 0.003 -0.0627868418
    endloop
  endfacet
  facet normal 0.459039287 0 -0.888415968
    outer loop
      vertex 0.0331716518 -0.003 -0.0650232738
      vertex 0.0375 0.003 -0.0627868418
      vertex 0.0375 -0.003 -0.0627868418
    endloop
  endfacet
  facet normal 0 1 0
    outer loop
      vertex 0 -0.003 0
      vertex 0.0375 -0.003 -0.0627868418
      vertex 0.0331716518 -0.003 -0.0650232738
    endloop
  endfacet
  facet normal 0 -1 0
    outer loop
      vertex 0 0.003 0
      vertex 0.0331716518 0.003 -0.0650232738
      vertex 0.0375 0.003 -0.0627868418
    endloop
  endfacet
  facet normal 0.515196342 0 -0.857072184
    outer loop
      vertex 0.0375 -0.003 -0.0627868418
      vertex 0.0375 0.003 -0.0627868418
      vertex 0.0416677675 0.003 -0.0602815469
    endloop
  endfacet
  facet normal 0.515196342 0 -0.857072184
    outer loop
      vertex 0.0375 -0.003 -0.0627868418
      vertex 0.0416677675 0.003 -0.0602815469
      vertex 0.0416677675 -0.003 -0.0602815469
    endloop
  endfacet
  facet normal 0 1 0
    outer loop
      vertex 0 -0.003 0
      vertex 0.0416677675 -0.003 -0.0602815469
      vertex 0.0375 -0.003 -0.0627868418
    endloop
  endfacet
  facet normal 0 -1 0
    outer loop
      vertex 0 0.003 0
      vertex 0.0375 0.003 -0.0627868418
      vertex 0.0416677675 0.003 -0.0602815469
    endloop
  endfacet
  facet normal 0.569429929 0 -0.822039875
    outer loop
      vertex 0.0416677675 -0.003 -0.0602815469
      vertex 0.0416677675 0.003 -0.0602815469
      vertex 0.0456571072 0.003 -0.0575181172
    endloop
  endfacet
  facet normal 0.569429929 0 -0.822039875
    outer loop
      vertex 0.0416677675 -0.003 -0.0602815469
      vertex 0.0456571072 0.003 -0.0575181172
      vertex 0.0456571072 -0.003 -0.0575181172
    endloop
  endfacet
  facet normal 0 1 0
    outer loop
      vertex 0 -0.003 0
      vertex 0.0456571072 -0.003 -0.0575181172
      vertex 0.0416677675 -0.003 -0.0602815469
    endloop
  endfacet
  facet normal 0 -1 0
    outer loop
      vertex 0 0.003 0
      vertex 0.0416677675 0.003 -0.0602815469
      vertex 0.0456571072 0.003 -0.0575181172
    endloop
  endfacet
  facet normal 0.621500209 0 -0.783413996
    outer loop
      vertex 0.0456571072 -0.003 -0.0575181172
      vertex 0.0456571072 0.003 -0.0575181172
      vertex 0.0494509361 0.003 -0.054508386
    endloop
  endfacet
  facet normal 0.621500209 0 -0.783413996
    outer loop
      vertex 0.0456571072 -0.003 -0.0575181172
      vertex 0.0494509361 0.003 -0.054508386
      vertex 0.0494509361 -0.003 -0.054508386
    endloop
  endfacet
  facet normal 0 1 0
    outer loop
      vertex 0 -0.003 0
      vertex 0.0494509361 -0.003 -0.054508386
      vertex 0.0456571072 -0.003 -0.0575181172
    endloop
  endfacet
  facet normal 0 -1 0
    outer loop
      vertex 0 0.003 0
      vertex 0.0456571072 0.003 -0.0575181172
      vertex 0.0494509361 0.003 -0.054508386
    endloop
  endfacet
  facet normal 0.671166107 0 -0.741306992
    outer loop
      vertex 0.0494509361 -0.003 -0.054508386
      vertex 0.0494509361 0.003 -0.054508386
      vertex 0.0530330086 0.003 -0.0512652416
    endloop
  endfacet
  facet normal 0.671166107 0 -0.741306992
    outer loop
      vertex 0.0494509361 -0.003 -0.054508386
      vertex 0.0530330086 0.003 -0.0512652416
      vertex 0.0530330086 -0.003 -0.0512652416
    endloop
  endfacet
  facet normal 0 1 0
    outer loop
      vertex 0 -0.003 0
      vertex 0.0530330086 -0.003 -0.0512652416
      vertex 0.0494509361 -0.003 -0.054508386
    endloop
  endfacet
  facet normal 0 -1 0
    outer loop
      vertex 0 0.003 0
      vertex 0.0494509361 0.003 -0.054508386
      vertex 0.0530330086 0.003 -0.0512652416
    endloop
  endfacet
  facet normal 0.718186802 0 -0.695850356
    outer loop
      vertex 0.0530330086 -0.003 -0.0512652416
      vertex 0.0530330086 0.003 -0.0512652416
      vertex 0.0563879856 0.003 -0.0478025716
    endloop
  endfacet
  facet normal 0.718186802 0 -0.695850356
    outer loop
      vertex 0.0530330086 -0.003 -0.0512652416
      vertex 0.0563879856 0.003 -0.0478025716
      vertex 0.0563879856 -0.003 -0.0478025716
    endloop
  endfacet
  facet normal 0 1 0
    outer loop
      vertex 0 -0.003 0
      vertex 0.0563879856 -0.003 -0.0478025716
      vertex 0.0530330086 -0.003 -0.0512652416
    endloop
  endfacet
  facet normal 0 -1 0
    outer loop
      vertex 0 0.003 0
      vertex 0.0530330086 0.003 -0.0512652416
      vertex 0.0563879856 0.003 -0.0478025716
    endloop
  endfacet
  facet normal 0.76232362 0 -0.647196028
    outer loop
      vertex 0.0563879856 -0.003 -0.0478025716
      vertex 0.0563879856 0.003 -0.0478025716
      vertex 0.0595015005 0.003 -0.0441352036
    endloop
  endfacet
  facet normal 0.76232362 0 -0.647196028
    outer loop
      vertex 0.0563879856 -0.003 -0.0478025716
      vertex 0.0595015005 0.003 -0.0441352036
      vertex 0.0595015005 -0.003 -0.0441352036
    endloop
  endfacet
  facet normal 0 1 0
    outer loop
      vertex 0 -0.003 0
      vertex 0.0595015005 -0.003 -0.0441352036
      vertex 0.0563879856 -0.003 -0.0478025716
    endloop
  endfacet
  facet normal 0 -1 0
    outer loop
      vertex 0 0.003 0
      vertex 0.0563879856 0.003 -0.0478025716
      vertex 0.0595015005 0.003 -0.0441352036
    endloop
  endfacet
  facet normal 0.803342306 0 -0.59551754
    outer loop
      vertex 0.0595015005 -0.003 -0.0441352036
      vertex 0.0595015005 0.003 -0.0441352036
      vertex 0.0623602209 0.003 -0.0402788419
    endloop
  endfacet
  facet normal 0.803342306 0 -0.59551754
    outer loop
      vertex 0.0595015005 -0.003 -0.0441352036
      vertex 0.0623602209 0.003 -0.0402788419
      vertex 0.0623602209 -0.003 -0.0402788419
    endloop
  endfacet
  facet normal 0 1 0
    outer loop
      vertex 0 -0.003 0
      vertex 0.0623602209 -0.003 -0.0402788419
      vertex 0.0595015005 -0.003 -0.0441352036
    endloop
  endfacet
  facet normal 0 -1 0
    outer loop
      vertex 0 0.003 0
      vertex 0.0595015005 0.003 -0.0441352036
      vertex 0.0623602209 0.003 -0.0402788419
    endloop
  endfacet
  facet normal 0.841015631 0 -0.541010821
    outer loop
      vertex 0.0623602209 -0.003 -0.0402788419
      vertex 0.0623602209 0.003 -0.0402788419
      vertex 0.0649519053 0.003 -0.03625
    endloop
  endfacet
  facet normal 0.841015631 0 -0.541010821
    outer loop
      vertex 0.0623602209 -0.003 -0.0402788419
      vertex 0.0649519053 0.003 -0.03625
      vertex 0.0649519053 -0.003 -0.03625
    endloop
  endfacet
  facet normal 0 1 0
    outer loop
      vertex 0 -0.003 0
      vertex 0.0649519053 -0.003 -0.03625
      vertex 0.0623602209 -0.003 -0.0402788419
    endloop
  endfacet
  facet normal 0 -1 0
    outer loop
      vertex 0 0.003 0
      vertex 0.0623602209 0.003 -0.0402788419
      vertex 0.0649519053 0.003 -0.03625
    endloop
  endfacet
  facet normal 0.875126301 0 -0.483894572
    outer loop
      vertex 0.0649519053 -0.003 -0.03625
      vertex 0.0649519053 0.003 -0.03625
      vertex 0.0672654556 0.003 -0.03206593
    endloop
  endfacet
  facet normal 0.875126301 0 -0.483894572
    outer loop
      vertex 0.0649519053 -0.003 -0.03625
      vertex 0.0672654556 0.003 -0.03206593
      vertex 0.0672654556 -0.003 -0.03206593
    endloop
  endfacet
  facet normal 0 1 0
    outer loop
      vertex 0 -0.003 0
      vertex 0.0672654556 -0.003 -0.03206593
      vertex 0.0649519053 -0.003 -0.03625
    endloop
  endfacet
  facet normal 0 -1 0
    outer loop
      vertex 0 0.003 0
      vertex 0.0649519053 0.003 -0.03625
      vertex 0.0672654556 0.003 -0.03206593
    endloop
  endfacet
  facet normal 0.905470057 0 -0.42441015
    outer loop
      vertex 0.0672654556 -0.003 -0.03206593
      vertex 0.0672654556 0.003 -0.03206593
      vertex 0.0692909649 0.003 -0.0277445488
    endloop
  endfacet
  facet normal 0.905470057 0 -0.42441015
    outer loop
      vertex 0.0672654556 -0.003 -0.03206593
      vertex 0.0692909649 0.003 -0.0277445488
      vertex 0.0692909649 -0.003 -0.0277445488
    endloop
  endfacet
  facet normal 0 1 0
    outer loop
      vertex 0 -0.003 0
      vertex 0.0692909649 -0.003 -0.0277445488
      vertex 0.0672654556 -0.003 -0.03206593
    endloop
  endfacet
  facet normal 0 -1 0
    outer loop
      vertex 0 0.003 0
      vertex 0.0672654556 0.003 -0.03206593
      vertex 0.0692909649 0.003 -0.0277445488
    endloop
  endfacet
  facet normal 0.931858898 0 -0.362820884
    outer loop
      vertex 0.0692909649 -0.003 -0.0277445488
      vertex 0.0692909649 0.003 -0.0277445488
      vertex 0.0710197597 0.003 -0.0233043612
    endloop
  endfacet
  facet normal 0.931858898 0 -0.362820884
    outer loop
      vertex 0.0692909649 -0.003 -0.0277445488
      vertex 0.0710197597 0.003 -0.0233043612
      vertex 0.0710197597 -0.003 -0.0233043612
    endloop
  endfacet
  facet normal 0 1 0
    outer loop
      vertex 0 -0.003 0
      vertex 0.0710197597 -0.003 -0.0233043612
      vertex 0.0692909649 -0.003 -0.0277445488
    endloop
  endfacet
  facet normal 0 -1 0
    outer loop
      vertex 0 0.003 0
      vertex 0.0692909649 0.003 -0.0277445488
      vertex 0.0710197597 0.003 -0.0233043612
    endloop
  endfacet
  facet normal 0.954124296 0 -0.299410801
    outer loop
      vertex 0.0710197597 -0.003 -0.0233043612
      vertex 0.0710197597 0.003 -0.0233043612
      vertex 0.072444437 0.003 -0.0187643808
    endloop
  endfacet
  facet normal 0.954124296 0 -0.299410801
    outer loop
      vertex 0.0710197597 -0.003 -0.0233043612
      vertex 0.072444437 0.003 -0.0187643808
      vertex 0.072444437 -0.003 -0.0187643808
    endloop
  endfacet
  facet normal 0 1 0
    outer loop
      vertex 0 -0.003 0
      vertex 0.072444437 -0.003 -0.0187643808
      vertex 0.0710197597 -0.003 -0.0233043612
    endloop
  endfacet
  facet normal 0 -1 0
    outer loop
      vertex 0 0.003 0
      vertex 0.0710197597 0.003 -0.0233043612
      vertex 0.072444437 0.003 -0.0187643808
    endloop
  endfacet
  facet normal 0.972120281 0 -0.23448275
    outer loop
      vertex 0.072444437 -0.003 -0.0187643808
      vertex 0.072444437 0.003 -0.0187643808
      vertex 0.073558896 0.003 -0.0141440483
    endloop
  endfacet
  facet normal 0.972120281 0 -0.23448275
    outer loop
      vertex 0.072444437 -0.003 -0.0187643808
      vertex 0.073558896 0.003 -0.0141440483
      vertex 0.073558896 -0.003 -0.0141440483
    endloop
  endfacet
  facet normal 0 1 0
    outer loop
      vertex 0 -0.003 0
      vertex 0.073558896 -0.003 -0.0141440483
      vertex 0.072444437 -0.003 -0.0187643808
    endloop
  endfacet
  facet normal 0 -1 0
    outer loop
      vertex 0 0.003 0
      vertex 0.072444437 0.003 -0.0187643808
      vertex 0.073558896 0.003 -0.0141440483
    endloop
  endfacet
  facet normal 0.985726271 0 -0.16835593
    outer loop
      vertex 0.073558896 -0.003 -0.0141440483
      vertex 0.073558896 0.003 -0.0141440483
      vertex 0.0743583646 0.003 -0.00946314894
    endloop
  endfacet
  facet normal 0.985726271 0 -0.16835593
    outer loop
      vertex 0.073558896 -0.003 -0.0141440483
      vertex 0.0743583646 0.003 -0.00946314894
      vertex 0.0743583646 -0.003 -0.00946314894
    endloop
  endfacet
  facet normal 0 1 0
    outer loop
      vertex 0 -0.003 0
      vertex 0.0743583646 -0.003 -0.00946314894
      vertex 0.073558896 -0.003 -0.0141440483
    endloop
  endfacet
  facet normal 0 -1 0
    outer loop
      vertex 0 0.003 0
      vertex 0.073558896 0.003 -0.0141440483
      vertex 0.0743583646 0.003 -0.00946314894
    endloop
  endfacet
  facet normal 0.994849519 0 -0.101362888
    outer loop
      vertex 0.0743583646 -0.003 -0.00946314894
      vertex 0.0743583646 0.003 -0.00946314894
      vertex 0.0748394192 0.003 -0.00474172687
    endloop
  endfacet
  facet normal 0.994849519 0 -0.101362888
    outer loop
      vertex 0.0743583646 -0.003 -0.00946314894
      vertex 0.0748394192 0.003 -0.00474172687
      vertex 0.0748394192 -0.003 -0.00474172687
    endloop
  endfacet
  facet normal 0 1 0
    outer loop
      vertex 0 -0.003 0
      vertex 0.0748394192 -0.003 -0.00474172687
      vertex 0.0743583646 -0.003 -0.00946314894
    endloop
  endfacet
  facet normal 0 -1 0
    outer loop
      vertex 0 0.003 0
      vertex 0.0743583646 0.003 -0.00946314894
      vertex 0.0748394192 0.003 -0.00474172687
    endloop
  endfacet
  facet normal 0.999427058 0 -0.0338460561
    outer loop
      vertex 0.0748394192 -0.003 -0.00474172687
      vertex 0.0748394192 0.003 -0.00474172687
      vertex 0.075 0.003 0
    endloop
  endfacet
  facet normal 0.999427058 0 -0.0338460561
    outer loop
      vertex 0.0748394192 -0.003 -0.00474172687
      vertex 0.075 0.003 0
      vertex 0.075 -0.003 0
    endloop
  endfacet
  facet normal -0 1 0
    outer loop
      vertex 0 -0.003 0
      vertex 0.075 -0.003 0
      vertex 0.0748394192 -0.003 -0.00474172687
    endloop
  endfacet
  facet normal 0 -1 0
    outer loop
      vertex 0 0.003 0
      vertex 0.0748394192 0.003 -0.00474172687
      vertex 0.075 0.003 0
    endloop
  endfacet
endsolid h5002_face_contact_hitter_frame
